<svg xmlns="http://www.w3.org/2000/svg" viewBox="0 0 1536 1024"><path fill="#6847B4" d="M413 247h110l1 48 35 1v397h22V576c13-1 13-1 28-1v-83h115v84l32-2h14v252h14v-68c26-4 26-4 30-4V654h38V544h113c.58 21.476 1.148 42.847 1.063 64.313L966 631h51v188l18 1 27 2v-88l32 1c7.17.072 14.331.12 21.5.098 1.635-.002 3.27-.003 4.906-.003 5.865-.006 11.73-.02 17.594-.033l40-.062v134h81v65h62V811h114v122c25.607-.04 25.607-.04 51.215-.09 5.006-.005 5.006-.005 7.365-.005 1.613-.002 3.226-.005 4.838-.01 26.65-.081 26.65-.081 37.582 2.105v89H0V591h50v107h39v82h72l-.844-25.32c-.138-5.99-.261-11.98-.362-17.971-.133-7.75-.3-15.493-.605-23.238a677.596 677.596 0 0 1-.466-20.385c-.044-2.585-.13-5.17-.26-7.753-.794-16.414-.794-16.414 2.537-23.333 5.802-6.08 13.378-9.405 21.002-12.657 4.486-2.01 8.589-4.551 12.748-7.155 1.607-.972 3.215-1.94 4.824-2.907L205 636l3.413-2.063a10227.019 10227.019 0 0 0 12.936-7.83c1.719-1.041 3.437-2.084 5.155-3.127l3.305-1.998a192.81 192.81 0 0 0 6.3-4.085l2.918-1.971 2.55-1.78c3.024-1.43 4.291-1.208 7.423-.146 2.01 1.025 2.01 1.025 3.977 2.3l2.25 1.444 2.398 1.568 5.148 3.31 2.644 1.71c3.93 2.538 7.88 5.043 11.833 7.543l2.3 1.458c7.659 4.833 15.398 9.53 23.15 14.211l2.84 1.718 2.537 1.53C310 651 310 651 311 652c.096 1.683.122 3.37.12 5.056l.004 3.318-.01 3.673v3.843c0 3.487-.006 6.975-.013 10.462-.006 3.641-.006 7.282-.008 10.923-.003 6.899-.011 13.798-.021 20.697-.011 7.852-.017 15.704-.022 23.557-.01 16.157-.028 32.314-.05 48.471h29v74h39V296l33-1c-.039-8.688-.039-8.688-.09-17.376-.023-10.28.547-20.306 1.09-30.624Z"/><path fill="#7A69CD" d="M413 247h110l1 48 34 1v397h-18v88h-55v180c-16.658.64-33.33 1-50 1V856l-2 1a151.87 151.87 0 0 1-6.618.12l-2.085.003c-2.315.001-4.63-.004-6.946-.01l-4.966.001c-4.504 0-9.008-.006-13.512-.013-4.703-.006-9.406-.006-14.11-.008-8.91-.003-17.82-.011-26.731-.021-12.038-.013-24.076-.019-36.114-.024-18.972-.01-37.945-.03-56.918-.048v167H0V591h50v107h39v82h72l-.844-25.32c-.138-5.99-.261-11.98-.362-17.971-.133-7.75-.3-15.493-.605-23.238a677.596 677.596 0 0 1-.466-20.385c-.044-2.585-.13-5.17-.26-7.753-.794-16.414-.794-16.414 2.537-23.333 5.802-6.08 13.378-9.405 21.002-12.657 4.486-2.01 8.589-4.551 12.748-7.155 1.607-.972 3.215-1.94 4.824-2.907L205 636l3.413-2.063a10227.019 10227.019 0 0 0 12.936-7.83c1.719-1.041 3.437-2.084 5.155-3.127l3.305-1.998a192.81 192.81 0 0 0 6.3-4.085l2.918-1.971 2.55-1.78c3.024-1.43 4.291-1.208 7.423-.146 2.01 1.025 2.01 1.025 3.977 2.3l2.25 1.444 2.398 1.568 5.148 3.31 2.644 1.71c3.93 2.538 7.88 5.043 11.833 7.543l2.3 1.458c7.659 4.833 15.398 9.53 23.15 14.211l2.84 1.718 2.537 1.53C310 651 310 651 311 652c.096 1.683.122 3.37.12 5.056l.004 3.318-.01 3.673v3.843c0 3.487-.006 6.975-.013 10.462-.006 3.641-.006 7.282-.008 10.923-.003 6.899-.011 13.798-.021 20.697-.011 7.852-.017 15.704-.022 23.557-.01 16.157-.028 32.314-.05 48.471h29v74h39V296l33-1c-.039-8.688-.039-8.688-.09-17.376-.023-10.28.547-20.306 1.09-30.624Z"/><path fill="#7865CD" d="M852 544h113c.58 21.476 1.148 42.847 1.063 64.313L966 631h51v188l18 1 27 2v-88l32 1c7.17.072 14.331.12 21.5.098 1.635-.002 3.27-.003 4.906-.003 5.865-.006 11.73-.02 17.594-.033l40-.062v134h81v65h62V811h114v122c25.607-.04 25.607-.04 51.215-.09 5.006-.005 5.006-.005 7.365-.005 1.613-.002 3.226-.005 4.838-.01 26.65-.081 26.65-.081 37.582 2.105v89h-440V920c-17.201.03-17.201.03-34.75.063-34.128.028-68.25-.2-102.375-.563l-3.41-.036c-13.822-.148-27.644-.302-41.465-.464-.934-3.951-1.123-7.62-1.12-11.675l-.003-1.993c-.001-2.196.004-4.392.01-6.587l-.001-4.731c0-4.277.006-8.553.013-12.83.006-4.47.006-8.942.008-13.413.003-8.464.01-16.928.021-25.392.013-11.44.019-22.879.024-34.318.01-18.02.03-36.04.048-54.061h-98v-99h39c.023-14.195.04-28.39.052-42.584.005-6.59.012-13.18.023-19.77.011-6.355.017-12.71.02-19.063.002-2.43.005-4.86.01-7.29.008-3.392.009-6.783.009-10.174l.01-3.077-.004-2.784.003-2.433c.077-1.845.077-1.845-1.123-2.825v109h-1V544Z"/><path fill="#C0C5F9" d="M1312 427h50v33h24v164h49v-68h101v379l-21-1c-7.321-.161-7.321-.161-14.642-.266l-2.468-.026-2.44-.024-4.702-.057c-5.687-.067-11.374-.128-17.06-.19L1435 933V811h-114v123h-62v-65h-81V735l-85 1V542h17v-52h116v164h43v177h21V461l22-1v-33Z"/><path fill="#7A69CD" d="M413 247h110l1 48 34 1v397h-18v88h-55v180c-16.658.64-33.33 1-50 1V856l-2 1h-54V296l33-1c-.039-8.688-.039-8.688-.09-17.376-.023-10.28.547-20.306 1.09-30.624Z"/><path fill="#D6D8FE" d="M1048.428 196.96a170.26 170.26 0 0 1 5.572.04c1 1 1 1 1.123 2.841l-.003 2.455.004 2.81-.01 3.105v3.252c0 3.566-.009 7.131-.016 10.697l-.005 7.395c-.003 6.502-.013 13.004-.024 19.505-.011 6.63-.015 13.258-.02 19.887-.01 13.018-.028 26.035-.049 39.053l20 1 1 426-14-1v88c-13.514 0-13.514 0-18.867-.402l-3.492-.26-3.516-.275-3.586-.264c-5.263-.4-10.32-.93-15.539-1.799V631h-51c-.64-29.02-1.118-57.976-1-87l-47-1V279l17-1v-80c27.38-.25 27.38-.25 39.066-.355a347779.258 347779.258 0 0 0 50.531-.46 63478.268 63478.268 0 0 1 13.363-.122c1.844-.016 3.689-.03 5.533-.043 1.645-.013 3.29-.033 4.935-.06Z"/><path fill="#6847B3" d="M853 545h65v1h-64v109h-39v99h98l1 165 44.875-.063c45.72-.03 91.408.405 137.125 1.063v104H712V828c18.646-1.097 37.328-1.521 56-2l1-251-4-1h5v252h14v-68c26-4 26-4 30-4V654h39V545Z"/><path fill="#7A68CD" d="M609 492h115v84l32-2c9 0 9 0 13 1a250699.82 250699.82 0 0 1 .055 107.184v2.274c.005 12.166.013 24.332.022 36.498.01 12.474.015 24.948.017 37.423.001 7.703.006 15.407.014 23.11.006 5.897.006 11.794.005 17.691 0 2.427.002 4.853.006 7.28.005 3.297.004 6.594.001 9.89l.01 2.951-.007 2.656.001 2.31C769 826 769 826 768 827c-2.684.16-5.345.26-8.031.316l-2.497.063c-1.759.044-3.517.085-5.276.124-2.63.058-5.258.123-7.887.19-1.718.042-3.435.083-5.153.123l-2.31.057c-8.286.18-16.55.127-24.846.127v196h-50V693h-81V576c13-1 13-1 28-1v-83Z"/><path fill="#9F9CED" d="M1110 490h116v164h43v177h51v-20h1v123h-62v-65h-81V735l-85 1V542h17v-52Z"/><path fill="#8881D8" d="M0 591h50v107h39v82h72v244H0V591Z"/><path fill="#BFC4F9" d="M727 345h85v47h14c.181 15.917.346 31.833.5 47.75l.036 3.72c.458 47.885.552 95.768.527 143.655l-.002 2.533c-.01 21.447-.031 42.895-.061 64.342h-13v100c-17 3-17 3-30 4v68h-14V574l-34 2h-12v-84h-87v-1h54v-96l35-1c-.038-6.398-.038-6.398-.09-12.796-.035-12.097.624-24.083 1.09-36.204Z"/><path fill="#9F9CED" d="M1360 625h113v151h39v157h-77V811h-76c-.04-36.456-.04-36.456-.049-51.967-.006-10.626-.013-21.252-.026-31.878-.01-7.746-.017-15.492-.02-23.238a8101.02 8101.02 0 0 0-.01-12.252c-.008-3.88-.01-7.76-.008-11.64 0-2.029-.006-4.058-.011-6.088.017-16.33.657-32.596 1.124-48.937Z"/><path fill="#D6D8FE" d="M212 428v205l-14 8c-3.32 1.968-6.634 3.942-9.938 5.938l-2.542 1.528c-4.028 2.422-8.05 4.855-12.063 7.304l-2.1 1.275c-1.29.785-2.579 1.573-3.865 2.365C163.225 662 163.225 662 161 662v118h-58a29728.112 29728.112 0 0 1-.557-115.612c-.044-12.844-.123-25.687-.215-38.531-.093-13.18-.149-26.36-.169-39.542-.014-8.132-.057-16.263-.138-24.395-.06-6.238-.066-12.474-.052-18.712a551.7 551.7 0 0 0-.061-7.672c-.276-19.35-.276-19.35 3.35-24.751 2.549-2.073 4.877-3.408 7.842-4.785a89.8 89.8 0 0 0 4.09-3.309l1.918-1.558c.636-.518 1.273-1.037 1.93-1.57l2.092-1.702a5461.418 5461.418 0 0 0 25.095-20.548l2.188-1.802c3.693-3.041 7.382-6.085 11.066-9.136 7.148-5.913 14.333-11.76 21.65-17.462 7.185-5.616 14.183-11.456 21.034-17.476 2.773-2.301 4.32-3.437 7.937-3.437Z"/><path fill="#C0C5F9" d="M379 532v324h-39v-74h-29l.226-11.743c.231-12.828.353-25.655.42-38.485.042-7.777.121-15.55.29-23.325.147-6.782.223-13.56.215-20.344a321.5 321.5 0 0 1 .149-10.759c1.057-14.725 1.057-14.725-4.303-27.7-4.826-3.93-10.095-6.368-15.828-8.69-2.796-1.23-4.487-2.385-6.169-4.954-.405-2.873-.405-2.873-.27-6.237l.122-3.822.195-4.113c.052-1.407.103-2.813.152-4.22.133-3.697.29-7.392.453-11.087.163-3.773.301-7.548.442-11.322.279-7.4.586-14.8.906-22.199h20v-40c15.691-.25 15.691-.25 22.408-.355a75082.218 75082.218 0 0 0 24.788-.393l4.211-.067a14854.769 14854.769 0 0 1 9.322-.147c3.423-.04 6.847-.038 10.271-.038Z"/><path fill="#D6D9FE" d="M1435 556h101v379c-21-1-21-1-24-2V776h-39V625h-87v-1h49v-68Z"/><path fill="#9F9BED" d="M0 591h50v107h39v82H52v110c-15.506 7.753-34.663 1-52 1V591Z"/><path fill="#C0C5F9" d="M0 591h50v107H0V591Z"/><path fill="#DEE2FE" d="M160 662h1v118h-58v-2h56l-.035-25.121-.015-17.705c-.006-7.655-.013-15.31-.025-22.965-.011-6.705-.017-13.409-.02-20.113-.002-2.564-.005-5.129-.01-7.693-.008-3.577-.009-7.155-.009-10.733l-.01-3.248.004-2.936-.003-2.567C159 663 159 663 160 662Z"/><path fill="#8A7CD7" d="M412 266h1v30c-6.75 3.375-6.75 3.375-12.055 3.293l-3.36-.03-3.46-.075-3.531-.042c-2.865-.035-5.73-.084-8.594-.146v8h-1v-10l24-1v-1h7v-29Z"/><path fill="#715FC7" d="m215 630 1 2h-2l-1 3c-2.063 1.188-2.063 1.188-4 2 .188-1.813.188-1.813 1-4 2.563-1.75 2.563-1.75 5-3Z"/></svg>