<?xml version="1.0" encoding="UTF-8" standalone="no"?>
<svg
   viewBox="0 0 1024 1024"
   version="1.1"
   id="svg83"
   sodipodi:docname="campfire-logo.svg"
   inkscape:version="1.4 (e7c3feb1, 2024-10-09)"
   xmlns:inkscape="http://www.inkscape.org/namespaces/inkscape"
   xmlns:sodipodi="http://sodipodi.sourceforge.net/DTD/sodipodi-0.dtd"
   xmlns="http://www.w3.org/2000/svg"
   xmlns:svg="http://www.w3.org/2000/svg">
  <defs
     id="defs83" />
  <sodipodi:namedview
     id="namedview83"
     pagecolor="#ffffff"
     bordercolor="#000000"
     borderopacity="0.25"
     inkscape:showpageshadow="2"
     inkscape:pageopacity="0.0"
     inkscape:pagecheckerboard="0"
     inkscape:deskcolor="#d1d1d1"
     inkscape:zoom="0.27235044"
     inkscape:cx="381.86096"
     inkscape:cy="71.59893"
     inkscape:window-width="1440"
     inkscape:window-height="794"
     inkscape:window-x="1920"
     inkscape:window-y="25"
     inkscape:window-maximized="1"
     inkscape:current-layer="svg83" />
  <g
     id="g83"
     transform="translate(-19.863395,-26.372949)">
    <path
       fill="#a757fb"
       d="m 658.93874,60.741261 h 3.42814 a 908.93719,872.2525 0 0 1 -3.42814,24.262134 c -2.34828,15.878125 -3.57384,31.466755 -3.6424,47.496215 l -0.024,3.96418 c -0.15255,6.76708 -0.15255,6.76708 1.95233,13.10155 0.0549,2.66473 0.0206,5.33438 -0.06,7.99911 -0.55708,67.09014 32.84158,137.10984 68.60052,193.12658 l 2.72708,4.27343 2.43398,3.75035 c 1.7175,3.0414 1.7175,3.0414 1.7175,6.33118 l 3.42814,1.64489 a 253.53328,243.30068 0 0 1 5.99925,9.97297 533.58322,512.04781 0 0 0 16.06941,25.8034 c 9.26626,14.07533 17.7012,28.5224 25.92531,43.17837 l 2.47855,4.39022 c 18.21028,32.36486 33.42437,65.10147 45.62169,99.95834 l 1.25813,3.56942 c 1.18956,3.39505 2.35685,6.79504 3.51727,10.19832 l 2.0346,5.9545 a 81.534895,78.244148 0 0 1 2.52826,13.09168 l 0.83989,5.94299 3.42814,1.64489 c 0.84332,3.39341 0.84332,3.39341 1.49981,8.22445 0.99416,7.17337 2.12031,14.21679 3.66811,21.30134 9.43596,45.36114 9.87305,96.56329 -1.73978,141.54282 l -1.08329,4.20763 c -2.25915,8.54027 -4.80283,16.97362 -7.48706,25.4004 l -1.62837,5.35905 c -3.17617,10.44176 -3.17617,10.44176 -5.22791,14.37963 l -2.62424,5.21101 c -11.89565,23.41337 -25.11627,45.00914 -41.94159,65.51928 l -3.89608,4.8771 c -6.98998,8.63074 -6.98998,8.63074 -9.81648,11.5718 h -3.42814 v 3.28978 h -3.42814 v 3.28979 c -4.22176,4.18953 -9.05544,7.78033 -13.71256,11.51423 l -4.08463,3.4115 a 276.78121,265.61033 0 0 1 -64.47819,39.35565 l 1.71407,4.93467 1.71407,-4.93467 v 4.93467 c 5.3719,1.71891 10.23986,2.38838 15.85516,3.07101 l 6.48775,0.81587 c 4.47715,0.55433 8.9543,1.10207 13.43146,1.64489 34.76306,4.40501 34.76306,4.40501 46.50101,12.56203 -0.51422,3.08417 -0.51422,3.08417 -1.71407,6.57956 -17.58808,10.5898 -39.48361,14.00293 -59.7782,16.55253 l -6.31292,0.8109 c -29.84368,3.6385 -59.87248,5.5532 -89.88928,7.3099 l -6.21693,0.3668 c -72.55831,3.9889 -147.33291,3.6698 -219.60326,-4.2981 -9.31426,-1.0198 -18.48967,-1.1514 -27.86221,-1.0033 v -3.2898 l -5.61701,0.2385 c -9.58165,-0.01 -18.60623,-2.0298 -27.91535,-4.0415 l -5.20563,-1.0643 c -14.15479,-2.9953 -25.00486,-5.7982 -34.96703,-16.5163 9.7222,-6.50883 17.63778,-9.94008 29.35345,-11.61786 5.33933,-0.7731 10.08388,-1.5462 15.21237,-3.18616 3.60127,-0.33227 7.20938,-0.59874 10.82093,-0.82244 13.91654,-0.18588 13.91654,-0.18588 25.81733,-5.86075 l 2.78536,-3.18615 -5.15592,-2.65979 c -16.30424,-8.53698 -31.34692,-18.00003 -46.26619,-28.59313 l -5.14221,-3.28978 -1.71407,4.93467 -0.32224,-2.77657 c -1.98318,-5.41992 -5.65129,-8.04352 -9.96218,-12.02744 -27.5194,-25.49251 -50.84447,-53.49184 -66.84874,-87.1792 v -3.28978 l -8.57035,-1.64489 5.14221,-3.28978 c -0.77133,-2.43772 -1.55981,-4.86887 -2.35685,-7.30002 l -1.32497,-4.10565 c -1.13129,-3.69113 -1.13129,-3.69113 -4.88853,-5.04323 -1.15871,-3.20754 -1.15871,-3.20754 -2.25058,-7.71125 l -1.31126,-5.38372 -0.74048,-3.12694 c -0.95816,-4.01024 -1.95747,-8.01062 -2.95506,-12.01099 -20.5277,-83.13605 -9.58165,-164.29988 19.67924,-244.36492 1.32327,-3.66811 1.32327,-3.66811 2.16659,-7.19969 1.39697,-5.20608 4.10006,-9.86441 6.62317,-14.63788 l 1.82205,-3.45756 c 12.42701,-23.36731 25.36139,-46.05035 41.38966,-67.34181 a 1469.9044,1410.5791 0 0 0 7.68075,-10.33321 c 1.71064,-2.29133 3.423,-4.58102 5.13707,-6.86906 l 2.41684,-3.26017 c 1.93004,-2.53807 3.97664,-4.99553 6.04552,-7.43162 h 3.42814 l 1.36612,-2.92297 c 6.2135,-11.01747 18.11772,-18.83728 28.20159,-26.47944 l 3.12818,-2.37522 c 4.89196,-3.64344 9.59194,-6.98585 15.29808,-9.34463 l -1.6078,6.27197 c -4.47372,19.74197 -5.35647,38.37858 5.90669,56.22236 5.55873,7.17665 12.70469,13.13609 21.41216,16.46041 4.98966,0.58065 4.98966,0.58065 10.28443,0.51485 l 5.35647,0.0822 c 5.51245,-0.66783 7.61904,-2.15152 11.78423,-5.53177 h 3.42814 c 8.17954,-15.28596 14.79243,-30.95026 18.85477,-47.70182 l -3.42814,-1.64489 h 5.14221 l 0.44909,-4.31126 c 8.27553,-71.19086 30.86698,-143.42458 73.25594,-202.94494 l 2.07231,-2.95422 C 550.88546,129.89245 600.05014,91.326353 658.93874,62.386151 Z"
       id="path1"
       style="stroke-width:1.67912" />
    <path
       fill="#fed429"
       d="m 562.9508,386.42957 c 83.81118,75.86234 160.97691,245.97198 166.54079,354.08405 0.6582,50.42082 0.6582,50.42082 -5.41818,73.58746 l -0.86389,3.34406 c -10.95291,40.7571 -36.60569,78.25896 -74.5552,100.28404 l -5.51759,3.27004 C 597.49103,946.83716 537.12148,952.11068 486.30444,939.81677 435.85421,926.77772 394.52112,898.73234 367.74562,855.16413 356.9247,836.8861 349.09654,818.40576 345.26388,797.65218 l -0.9136,-4.91658 c -2.63624,-15.69555 -3.13161,-31.04566 -3.05105,-46.89747 l 0.012,-3.93787 c 0.20226,-44.46139 8.43151,-87.27624 26.23556,-128.47581 7.86416,2.44595 15.42835,5.28668 23.03368,8.38565 22.28291,7.52866 46.68613,3.80299 67.81205,-5.09587 6.68487,-3.39341 12.78867,-7.18817 18.85477,-11.51423 l 5.35647,-3.70101 c 31.88513,-29.26753 52.26886,-72.64494 63.20634,-113.08622 l 1.70036,-5.73737 c 7.69617,-27.10451 12.10133,-55.68448 13.4246,-83.74138 0.30167,-4.29316 1.03872,-8.31163 2.01574,-12.50445 z"
       id="path2"
       style="stroke-width:1.67912" />
    <path
       fill="#cc84fb"
       d="m 569.80708,248.25877 h 1.71408 l 1.39353,6.41178 c 20.10605,90.09723 63.06408,169.93857 114.36963,247.13492 28.44157,42.81815 53.59898,86.58375 71.0705,134.64744 l 1.42953,3.86056 c 12.78182,34.84865 19.44099,70.69246 19.46156,107.58077 l 0.0634,6.38711 c 0.0291,19.17449 -2.57625,37.31599 -7.77846,55.81113 l -1.13128,4.04643 c -3.11961,10.82996 -6.94199,21.08585 -12.04477,31.21509 l -2.48541,5.02514 c -23.24279,44.18011 -60.65237,75.22084 -107.21509,95.31318 l -6.23408,2.71078 c -34.39282,14.05887 -70.47742,19.38503 -107.64361,19.28963 l -4.36231,-0.007 c -22.89312,-0.0855 -44.71666,-1.23861 -66.87959,-7.18982 l -5.01194,-1.3373 C 398.91942,942.69697 344.64853,908.3533 313.99581,855.32533 271.95823,779.14058 279.14876,688.68148 304.77582,608.4174 c 8.04585,-24.32464 17.91718,-48.02257 30.20364,-70.65791 8.56349,1.54619 16.59391,4.15006 24.80773,6.88222 19.86094,6.50719 44.16645,7.72934 64.32392,1.34223 l 4.43944,-1.22051 c 29.46487,-8.96301 50.09542,-32.2892 64.07709,-57.86231 16.72761,-32.50961 23.5239,-69.11172 27.41827,-104.85683 5.18163,-47.21494 19.24215,-95.57307 49.76117,-133.78552 z m -6.85628,138.1708 c -1.5598,6.38875 -2.17687,12.70184 -2.73394,19.22383 -4.41202,51.16432 -15.01011,100.136 -40.25323,145.69124 a 489.19737,469.45338 0 0 0 -4.25089,7.93988 c -5.88097,10.92537 -13.08693,20.08083 -21.32475,29.46657 l -3.85666,5.0383 c -12.02248,13.58186 -28.54612,22.18957 -45.85138,27.85951 l -3.43499,1.22051 c -20.64427,6.24729 -45.44001,2.75519 -64.48504,-6.46442 l -5.78499,-2.98054 h -3.42814 c -25.26882,58.47092 -36.11546,130.11083 -20.56884,192.45218 l 1.32497,5.50709 c 6.86828,24.38879 19.32957,47.68373 36.38457,66.86809 l 3.79667,4.331 a 325.60479,312.46339 0 0 0 11.62997,12.1179 l 3.75552,3.7339 c 31.00754,28.7494 78.50957,45.76086 121.37161,47.25771 l 5.91868,0.2566 c 27.26229,0.62506 53.90923,-3.57764 79.78483,-11.77084 l 4.81483,-1.41954 c 43.05401,-13.61311 74.18667,-44.75418 95.02977,-82.26426 34.73563,-69.80915 17.22126,-149.65871 -7.92758,-219.49089 a 731.66461,702.13464 0 0 0 -6.2135,-15.93405 l -1.74836,-4.34909 C 666.05213,539.95048 628.08719,469.78604 581.91185,408.01875 l -2.75965,-3.70429 c -4.96224,-6.5335 -10.05817,-12.34819 -16.2014,-17.88489 z"
       id="path3"
       style="stroke-width:1.67912" />
    <path
       fill="#fee349"
       d="m 581.80558,573.94708 c 7.37907,2.43444 9.91589,7.40529 13.39203,13.67397 l 1.95404,3.43947 a 1612.4139,1547.3369 0 0 1 6.93684,12.49459 l 2.83679,5.09258 c 24.00212,43.17508 47.55173,87.19235 60.58381,134.7231 l 1.21699,4.37541 c 5.29991,19.98542 6.31635,39.87215 6.49633,60.39215 l 0.0548,3.52994 c 0.27253,22.62382 -3.26359,44.42355 -14.73244,64.52741 l -1.75692,3.27662 c -5.09079,9.33311 -9.06914,15.05403 -18.70393,20.16306 -2.35514,1.88834 -2.35514,1.88834 -1.92833,6.99079 -1.49981,6.16834 -1.49981,6.16834 -6.53575,10.48618 a 214.59474,205.9337 0 0 1 -6.96256,3.90661 l -3.34243,2.04295 c -32.9033,18.255 -86.40971,21.92639 -122.69487,13.69372 a 245.18061,235.28513 0 0 1 -14.51646,-4.22244 v -3.28978 l -5.99925,0.51485 c -8.7229,0.0444 -14.80271,-3.51019 -21.42587,-8.7393 l -1.71407,-3.28978 -4.17891,-1.43928 c -4.39145,-1.8505 -4.39145,-1.8505 -6.64031,-5.34589 l -1.17928,-3.08417 8.57036,-1.64489 c 0.0737,-3.28978 0.0686,-6.57957 0,-9.86935 -1.8272,-2.13177 -1.8272,-2.13177 -6.10724,-1.74852 l -4.17719,0.10363 -3.42814,6.57956 c -31.17208,-40.8344 -40.53262,-82.00436 -35.03217,-132.20806 1.86491,-11.36949 4.98623,-22.41986 8.14184,-33.51465 l 1.4741,-5.19456 c 3.43842,-11.55042 7.92929,-22.25537 13.41774,-33.04914 5.67872,0.10363 5.67872,0.10363 11.99849,1.64489 2.89335,5.75712 2.89335,5.75712 5.14221,11.51423 3.83266,1.67121 6.13295,1.64489 10.28443,1.64489 l 3.42814,-6.57956 c 4.7514,-0.17765 9.49595,-0.30759 14.24906,-0.41122 l 4.07949,-0.16778 c 3.72467,-0.0609 7.14424,-0.0526 10.81064,0.579 3.22074,3.2832 3.22074,3.2832 5.14221,6.57956 4.43087,0.68592 4.43087,0.68592 8.57035,0 2.42713,-1.94755 2.42713,-1.94755 1.82206,-7.50563 l -0.10799,-5.65349 3.83609,-1.57909 c 31.16694,-13.75787 48.47391,-38.16804 60.32842,-68.06557 4.14119,-11.24776 6.822,-22.86891 9.46681,-34.5098 4.13091,-18.16946 4.13091,-18.16946 6.92999,-20.85721 z"
       id="path4"
       style="stroke-width:1.67912" />
    <path
       fill="#dfc8f5"
       d="m 374.40307,958.85144 3.42814,1.64489 c 2.28657,0.76323 4.58171,1.49685 6.88371,2.21731 a 678.95867,651.55591 0 0 1 16.65733,5.48736 c 20.99908,7.10757 41.83018,12.27088 63.87655,15.3238 l 6.34206,0.8833 c 19.36042,2.52655 38.52544,2.99535 58.04356,2.91968 l 4.77197,-0.007 c 24.68261,-0.0691 48.79958,-0.98529 73.11024,-5.44129 l 4.07777,-0.74678 c 15.47292,-2.95916 30.3082,-7.30003 45.20175,-12.25115 6.38149,-2.06927 12.73383,-3.61053 19.28329,-5.09587 3.44014,-1.06095 6.87342,-2.14494 10.28442,-3.28978 l 1.71407,3.28978 1.71407,-4.93467 v 4.93467 c 5.3719,1.71891 10.23986,2.38838 15.85516,3.07101 l 6.48775,0.81587 c 4.47715,0.55433 8.9543,1.10207 13.43146,1.64489 34.76306,4.40501 34.76306,4.40501 46.50101,12.56203 -0.51422,3.08417 -0.51422,3.08417 -1.71407,6.57956 -17.58808,10.5898 -39.48361,14.00295 -59.7782,16.55255 l -6.31292,0.8109 c -29.84368,3.6385 -59.87248,5.5532 -89.88928,7.3099 l -6.21693,0.3668 c -72.55831,3.9889 -147.33291,3.6698 -219.60326,-4.2981 -9.31426,-1.0198 -18.48967,-1.1514 -27.86221,-1.0033 v -3.2898 l -5.61701,0.2385 c -9.58165,-0.01 -18.60623,-2.0298 -27.91535,-4.0415 l -5.20563,-1.0643 c -14.15479,-2.99532 -25.00486,-5.79822 -34.96703,-16.51632 9.7222,-6.50883 17.63778,-9.94008 29.35345,-11.61786 5.33933,-0.7731 10.08388,-1.5462 15.21237,-3.18616 3.60127,-0.33227 7.20938,-0.59874 10.82093,-0.82244 15.4592,-0.5642 15.4592,-0.5642 28.60269,-7.40201 z"
       id="path5"
       style="stroke-width:1.67912" />
    <path
       fill="#953cf6"
       d="m 667.50909,470.31898 c 6.47576,5.57453 10.50211,11.81689 14.89184,18.91624 l 4.98109,7.95469 2.7768,4.45107 c 3.39728,5.39853 6.84085,10.7691 10.29299,16.13638 25.06313,39.03983 25.06313,39.03983 33.99173,57.71591 1.88033,3.9132 3.82237,7.79679 5.75927,11.68366 12.28474,24.95299 22.52974,50.6067 30.1505,77.23912 l 1.46039,5.0383 c 2.46312,8.97781 4.34174,16.92428 3.68182,26.21462 -2.41684,-4.33593 -4.05206,-8.29189 -5.15592,-13.08839 l -0.92217,-3.84082 c -0.32568,-1.36855 -0.65478,-2.7371 -0.99245,-4.14513 -13.75027,-54.57746 -39.30363,-105.75 -70.06262,-153.28405 -1.87005,-2.91145 -3.74182,-5.82126 -5.61016,-8.73272 a 8416.0971,8076.4236 0 0 0 -11.50312,-17.83555 l -2.62253,-4.06123 a 737.97582,708.19113 0 0 0 -5.12164,-7.75566 l -2.38084,-3.56612 -2.11688,-3.13187 c -1.4981,-2.61867 -1.4981,-2.61867 -1.4981,-5.90845 z"
       id="path6"
       style="stroke-width:1.67912" />
    <path
       fill="#ac64f1"
       d="m 662.36688,60.741261 a 908.93719,872.2525 0 0 1 -3.42814,24.262134 c -2.34828,15.878125 -3.57384,31.466755 -3.6424,47.496215 l -0.024,3.96418 c -0.15255,6.76708 -0.15255,6.76708 1.95233,13.10155 -0.48165,3.30294 -1.04558,6.59601 -1.71407,9.86935 h -1.71407 c -1.99861,-9.16204 -2.04146,-18.13163 -2.03632,-27.44993 l -0.002,-5.0235 c 0.096,-13.521 1.2547,-26.76401 3.00134,-40.171514 0.58792,-4.941251 0.9136,-9.576553 0.75076,-14.534252 h -5.14221 l -5.14221,-1.644891 6.85628,-4.934671 3.6424,-2.776575 c 3.21388,-2.158096 3.21388,-2.158096 6.64202,-2.158096 z"
       id="path7"
       style="stroke-width:1.67912" />
    <path
       fill="#b065f6"
       d="m 549.23824,139.696 c 0,11.6047 -11.05575,21.0217 -18.7605,29.12608 -8.72462,9.34297 -16.2391,19.01493 -22.37719,30.08998 h -3.42814 c 2.78537,-8.0649 7.55563,-14.42898 12.64127,-21.2816 l 2.72023,-3.68619 c 9.00916,-12.03073 18.92334,-23.21105 29.20433,-34.24827 z"
       id="path8"
       style="stroke-width:1.67912" />
    <path
       fill="#9536ec"
       d="m 602.37442,981.87991 c -6.23407,3.63849 -12.64298,4.36883 -19.75809,5.12712 l -3.85666,0.42109 c -15.29293,1.51988 -30.55844,1.39158 -45.91137,1.23696 -2.9242,-0.0164 -5.84498,-0.0329 -8.76918,-0.0444 -7.03969,-0.0362 -14.08109,-0.0921 -21.12078,-0.1612 v -1.64489 l 3.96979,-0.0987 c 32.82102,-0.84547 32.82102,-0.84547 65.43635,-4.16157 10.00331,-1.12181 19.94835,-0.94581 30.00994,-0.6744 z"
       id="path9"
       style="stroke-width:1.67912" />
    <path
       fill="#fecf1f"
       d="m 642.5488,697.00627 c 4.39145,0.30759 4.39145,0.30759 7.81959,3.59737 -0.64278,5.96273 -0.64278,5.96273 -1.71407,11.51423 l -10.28442,1.64489 c -3.42814,-4.93467 -3.42814,-4.93467 -2.89335,-10.07495 1.56494,-6.27526 1.56494,-6.27526 7.07054,-6.68319 z"
       id="path10"
       style="stroke-width:1.67912" />
    <path
       fill="#fdcd1c"
       d="m 638.3699,843.70911 c 6.2135,0.61683 6.2135,0.61683 11.99849,1.64489 0.21426,4.72906 0.21426,4.72906 0,9.86934 -3.42814,3.28978 -3.42814,3.28978 -7.71332,3.70101 -4.28517,-0.41123 -4.28517,-0.41123 -7.71331,-3.70101 -0.42852,-4.11222 -0.42852,-4.11222 0,-8.22445 z M 495.24503,892.6446 c 4.28517,0.41122 4.28517,0.41122 7.71331,3.701 0.42852,4.11223 0.42852,4.11223 0,8.22446 -3.42814,3.28978 -3.42814,3.28978 -7.71331,3.701 -4.28518,-0.41122 -4.28518,-0.41122 -7.71332,-3.701 -0.42852,-4.11223 -0.42852,-4.11223 0,-8.22446 3.42814,-3.28978 3.42814,-3.28978 7.71332,-3.701 z"
       id="path11"
       style="stroke-width:1.67912" />
    <path
       fill="#fdcc16"
       d="m 495.24503,843.29789 c 4.28517,0.41122 4.28517,0.41122 7.71331,3.701 0.42852,4.11223 0.42852,4.11223 0,8.22445 -3.42814,3.28978 -3.42814,3.28978 -7.71331,3.70101 -4.28518,-0.41123 -4.28518,-0.41123 -7.71332,-3.70101 -0.42852,-4.11222 -0.42852,-4.11222 0,-8.22445 3.42814,-3.28978 3.42814,-3.28978 7.71332,-3.701 z"
       id="path12"
       style="stroke-width:1.67912" />
    <path
       fill="#fdce1d"
       d="m 495.24503,746.24935 c 4.28517,0.41122 4.28517,0.41122 7.71331,3.701 0.42852,4.11223 0.42852,4.11223 0,8.22446 -3.42814,3.28978 -3.42814,3.28978 -7.71331,3.701 -4.28518,-0.41122 -4.28518,-0.41122 -7.71332,-3.701 -0.42852,-4.11223 -0.42852,-4.11223 0,-8.22446 3.42814,-3.28978 3.42814,-3.28978 7.71332,-3.701 z"
       id="path13"
       style="stroke-width:1.67912" />
    <path
       fill="#fdcd1b"
       d="m 544.84679,892.74823 c 4.39145,0.30759 4.39145,0.30759 7.81959,3.59737 0.42852,4.11223 0.42852,4.11223 0,8.22446 -3.42814,3.28978 -3.42814,3.28978 -7.71331,3.80463 l -4.28518,-0.51485 c -3.42814,-4.93467 -3.42814,-4.93467 -2.89335,-9.25251 1.64722,-5.46104 1.64722,-5.46104 7.07054,-5.86075 z"
       id="path14"
       style="stroke-width:1.67912" />
    <path
       fill="#fece1d"
       d="m 544.95307,746.14737 4.28517,0.5132 c 3.42814,4.93467 3.42814,4.93467 2.89335,9.25251 -1.17928,3.90662 -1.17928,3.90662 -2.89335,5.55151 -4.1789,0.30924 -4.1789,0.30924 -8.57035,0 -3.42814,-3.28978 -3.42814,-3.28978 -3.85666,-7.40201 0.59993,-5.74889 2.18373,-7.20133 8.14184,-7.91686 z"
       id="path15"
       style="stroke-width:1.67912" />
    <path
       fill="#fdcd1b"
       d="m 594.55483,649.30444 c 4.39145,0.3076 4.39145,0.3076 7.81959,3.59738 0.42852,4.11222 0.42852,4.11222 0,8.22445 -3.42814,3.28978 -3.42814,3.28978 -7.71332,3.701 -4.28517,-0.41122 -4.28517,-0.41122 -7.71331,-3.701 1.2067,-11.34974 1.2067,-11.34974 7.60704,-11.82347 z"
       id="path16"
       style="stroke-width:1.67912" />
    <path
       fill="#fdcd1d"
       d="m 594.6611,892.6446 c 4.28518,0.41122 4.28518,0.41122 7.71332,3.701 0.42852,4.11223 0.42852,4.11223 0,8.22446 l -3.42814,3.28978 c -5.35647,-0.61684 -5.35647,-0.61684 -10.28442,-1.64489 -1.0713,-4.72906 -1.0713,-4.72906 -1.71407,-9.86935 3.42814,-3.28978 3.42814,-3.28978 7.71331,-3.701 z"
       id="path17"
       style="stroke-width:1.67912" />
    <path
       fill="#fdcb15"
       d="m 544.84679,843.40151 c 4.39145,0.3076 4.39145,0.3076 7.81959,3.59738 -0.97359,9.15875 -0.97359,9.15875 -3.42814,11.51423 -4.1789,0.41123 -4.1789,0.41123 -8.57035,0 -3.42814,-4.93467 -3.42814,-4.93467 -2.89335,-9.25251 1.64722,-5.46103 1.64722,-5.46103 7.07054,-5.86074 z"
       id="path18"
       style="stroke-width:1.67912" />
    <path
       fill="#fdce1d"
       d="m 596.58943,747.17542 c 4.07092,1.13004 4.07092,1.13004 5.78499,2.77493 0.32225,4.01025 0.32225,4.01025 0,8.22446 -3.42814,3.28978 -3.42814,3.28978 -7.71332,3.701 -4.28517,-0.41122 -4.28517,-0.41122 -7.71331,-3.701 -0.53651,-4.11223 -0.53651,-4.11223 0,-8.22446 5.14221,-3.28978 5.14221,-3.28978 9.64164,-2.77657 z"
       id="path19"
       style="stroke-width:1.67912" />
    <path
       fill="#fdce1c"
       d="m 594.55483,843.40151 c 4.39145,0.3076 4.39145,0.3076 7.81959,3.59738 -0.64278,5.14028 -0.64278,5.14028 -1.71407,9.86934 l -10.28442,1.64489 c -3.42814,-4.93467 -3.42814,-4.93467 -2.89335,-9.25251 1.64722,-5.46103 1.64722,-5.46103 7.07054,-5.86074 z"
       id="path20"
       style="stroke-width:1.67912" />
    <path
       fill="#fdcd1c"
       d="m 446.39402,843.5035 c 5.14222,0.20561 5.14222,0.20561 6.85629,1.8505 0.21425,5.75712 0.21425,5.75712 0,11.51423 -1.71407,1.64489 -1.71407,1.64489 -5.89298,1.95413 -4.39145,-0.30924 -4.39145,-0.30924 -7.81959,-3.59902 -0.32224,-5.0383 -0.32224,-5.0383 0,-9.86934 1.71407,-1.64489 1.71407,-1.64489 6.85628,-1.8505 z"
       id="path21"
       style="stroke-width:1.67912" />
    <path
       fill="#fecc1b"
       d="m 644.69139,794.87725 3.96293,1.13004 c 1.92833,9.45812 1.92833,9.45812 0,13.15912 h -11.99849 c -2.27629,-8.93833 -2.27629,-8.93833 0.21425,-13.05714 3.21389,-1.74687 3.21389,-1.74687 7.82131,-1.23202 z"
       id="path22"
       style="stroke-width:1.67912" />
    <path
       fill="#fdce1c"
       d="m 545.8101,794.87725 c 3.42814,1.13004 3.42814,1.13004 6.85628,4.41982 -0.95302,7.49412 -0.95302,7.49412 -3.42814,9.86934 -5.14221,0.20561 -5.14221,0.20561 -10.28442,0 l -1.71407,-1.64489 c 0.5365,-5.75712 0.5365,-5.75712 1.71407,-11.51423 3.42814,-1.64489 3.42814,-1.64489 6.85628,-1.13169 z"
       id="path23"
       style="stroke-width:1.67912" />
    <path
       fill="#fdcb15"
       d="m 545.91809,698.85677 5.03422,0.10198 c 1.17928,4.62708 1.17928,4.62708 1.71407,9.86934 -2.03631,3.1878 -2.03631,3.1878 -5.14221,4.93467 -5.09764,-0.44412 -6.60603,-1.40473 -10.28442,-4.93467 1.24956,-9.82657 1.24956,-9.82657 8.67834,-9.97297 z"
       id="path24"
       style="stroke-width:1.67912" />
    <path
       fill="#fecd1c"
       d="m 640.08397,746.66057 c 4.49943,0.61684 4.49943,0.61684 8.57035,1.64489 1.07129,4.72906 1.07129,4.72906 1.71407,9.86935 -3.42814,3.28978 -3.42814,3.28978 -7.71332,3.701 -4.28517,-0.41122 -4.28517,-0.41122 -7.71331,-3.701 0.56564,-5.42321 1.06786,-7.60433 5.14221,-11.51424 z"
       id="path25"
       style="stroke-width:1.67912" />
    <path
       fill="#fece1c"
       d="m 442.96588,746.66057 c 7.80931,0.91456 7.80931,0.91456 10.28443,3.28978 0.21425,4.93468 0.21425,4.93468 0,9.86935 -1.71407,1.64489 -1.71407,1.64489 -6.85629,1.8505 -5.14221,-0.20561 -5.14221,-0.20561 -6.85628,-1.8505 -0.32224,-4.83269 -0.32224,-4.83269 0,-9.86935 z m 151.58895,-48.00941 c 4.39145,0.30759 4.39145,0.30759 7.81959,3.59737 -0.64278,5.14028 -0.64278,5.14028 -1.71407,9.86934 -3.96464,1.13169 -3.96464,1.13169 -8.57035,1.64489 -3.21388,-1.8505 -3.21388,-1.8505 -5.14221,-4.93467 0.95988,-9.6884 0.95988,-9.6884 7.60704,-10.17858 z"
       id="path26"
       style="stroke-width:1.67912" />
    <path
       fill="#fdcd1c"
       d="m 442.96588,794.3624 c 7.80931,0.91456 7.80931,0.91456 10.28443,3.28978 0.21425,4.93467 0.21425,4.93467 0,9.86934 -1.71407,1.64489 -1.71407,1.64489 -6.85629,1.8505 -5.14221,-0.20561 -5.14221,-0.20561 -6.85628,-1.8505 -0.32224,-4.83269 -0.32224,-4.83269 0,-9.86934 z"
       id="path27"
       style="stroke-width:1.67912" />
    <path
       fill="#af66f5"
       d="m 358.97644,368.33577 1.71407,4.93467 -3.42814,4.93468 h -6.85628 c -2.06203,1.81431 -4.10863,3.65494 -6.0061,5.62881 -3.09733,3.13516 -6.37977,5.99563 -9.74107,8.86596 l -3.50184,3.01508 c -3.03391,2.22883 -3.03391,2.22883 -6.46205,2.22883 l -1.71407,4.93467 -1.71407,-4.93467 c 11.94707,-10.89575 23.82558,-20.97235 37.70955,-29.60803 z"
       id="path28"
       style="stroke-width:1.67912" />
    <path
       fill="#fdcc1b"
       d="m 594.55483,795.69969 c 4.39145,0.3076 4.39145,0.3076 7.81959,3.59738 -0.95302,7.49412 -0.95302,7.49412 -3.42814,9.86934 -4.1789,0.30924 -4.1789,0.30924 -8.57035,0 l -3.42814,-3.28978 c 1.23413,-9.70814 1.23413,-9.70814 7.60704,-10.17858 z"
       id="path29"
       style="stroke-width:1.67912" />
    <path
       fill="#fdcd1a"
       d="m 495.13876,795.69969 c 4.39144,0.3076 4.39144,0.3076 7.81958,3.59738 -0.95302,7.49412 -0.95302,7.49412 -3.42814,9.86934 -4.1789,0.30924 -4.1789,0.30924 -8.57035,0 l -3.42814,-3.28978 c 1.23413,-9.70814 1.23413,-9.70814 7.60705,-10.17858 z"
       id="path30"
       style="stroke-width:1.67912" />
    <path
       fill="#fde41b"
       d="m 526.95533,539.40438 3.42814,3.28978 -1.71407,4.93467 h -3.42814 l -0.53651,2.57096 c -2.76479,9.40878 -7.06539,17.63487 -13.17605,25.39218 h -3.42815 l -3.42814,6.57956 -1.71407,-3.28978 c 2.03632,-3.52829 2.03632,-3.52829 5.14221,-7.91686 7.00712,-10.20161 12.95838,-20.74207 18.85478,-31.56051 z"
       id="path31"
       style="stroke-width:1.67912" />
    <path
       fill="#d8b6f3"
       d="m 374.40307,958.85144 3.42814,1.64489 5.14221,1.43928 c 5.14221,1.8505 5.14221,1.8505 8.57035,6.78517 h -37.70954 v -1.64489 l 4.71369,-0.51485 c 5.67357,-1.15142 8.10927,-2.51339 12.42701,-6.06471 z"
       id="path32"
       style="stroke-width:1.67912" />
    <path
       fill="#fbe123"
       d="m 681.22165,585.46131 c 4.76512,4.5728 6.26322,6.6947 8.64406,12.44031 l 1.82377,4.38198 1.8512,4.56129 1.9129,4.56128 c 4.62285,11.22966 4.62285,11.22966 4.62285,16.82229 h -3.42814 c -1.43982,-3.73225 -2.86593,-7.4678 -4.28518,-11.20664 l -1.23927,-3.2026 c -1.79463,-4.75373 -3.04591,-8.45474 -3.04591,-13.5539 h -3.42814 z"
       id="path33"
       style="stroke-width:1.67912" />
    <path
       fill="#9c47f0"
       d="m 405.25634,968.72078 c 11.42085,1.47547 11.42085,1.47547 15.85515,2.77658 3.59097,0.95732 3.59097,0.95732 8.14183,-2.77658 l -1.71407,6.57956 3.62869,0.24345 4.7274,0.37339 c 1.55124,0.11514 3.10247,0.23028 4.69998,0.34543 4.08463,0.68262 4.08463,0.68262 7.51277,3.97241 -9.82676,0.47537 -17.84347,-1.14814 -27.21086,-3.90662 l -4.00407,-1.10537 c -3.34415,-0.96061 -6.63859,-2.0742 -9.92275,-3.21247 z"
       id="path34"
       style="stroke-width:1.67912" />
    <path
       fill="#b065f6"
       d="m 502.95834,198.91206 3.42814,3.28978 c -1.88547,3.43124 -3.77952,6.8559 -5.67871,10.28056 l -3.19331,5.78344 c -2.51797,4.28329 -5.06508,8.07806 -8.26868,11.89914 l -3.42814,-1.64489 c 2.52997,-4.62873 5.06679,-9.25416 7.60704,-13.87959 l 2.18544,-3.99873 2.09117,-3.80792 1.93176,-3.52336 c 1.61122,-2.75354 1.61122,-2.75354 3.32529,-4.39843 z"
       id="path35"
       style="stroke-width:1.67912" />
    <path
       fill="#fde21c"
       d="m 480.67543,601.91021 3.42814,1.6449 c -5.02565,8.68173 -8.8566,11.3152 -18.85477,14.80401 l -5.14221,3.28978 c -3.75039,-0.61683 -3.75039,-0.61683 -6.85628,-1.64489 l 5.12849,-3.122 6.65574,-4.0744 3.38186,-2.05611 c 4.43773,-2.72229 8.52236,-5.25542 12.25903,-8.84129 z"
       id="path36"
       style="stroke-width:1.67912" />
    <path
       fill="#cd79ed"
       d="m 544.09603,483.4781 c 3.42814,4.93467 3.42814,4.93467 2.44426,10.223 l -1.90947,6.12392 -1.84091,6.10913 c -1.89576,4.92151 -3.71096,8.16688 -7.26423,12.08665 l 0.75076,-3.30952 0.96331,-4.40172 0.96502,-4.33594 c 0.87932,-4.36882 0.87932,-4.36882 0.69591,-8.71956 0.0737,-5.44459 2.46826,-9.08966 5.19535,-13.77596 z"
       id="path37"
       style="stroke-width:1.67912" />
    <path
       fill="#af66f4"
       d="m 597.23221,101.86352 v 3.28978 l -4.60742,1.95413 c -5.98211,3.14174 -9.62622,6.42988 -14.24735,11.205 l -8.57036,8.22445 -5.14221,-1.64489 c 22.68401,-23.02847 22.68401,-23.02847 32.56734,-23.02847 z"
       id="path38"
       style="stroke-width:1.67912" />
    <path
       fill="#9f52ef"
       d="m 847.48647,751.59524 h 1.71407 c -0.70277,11.12275 -2.69109,20.84406 -6.85628,31.25292 -1.99689,-5.75053 -1.38325,-8.77384 -0.32224,-14.70203 l 0.89131,-5.18469 c 1.02844,-4.2981 2.30714,-7.55992 4.57314,-11.3662 z"
       id="path39"
       style="stroke-width:1.67912" />
    <path
       fill="#fce21d"
       d="m 701.7905,860.15801 1.71407,3.28978 c -1.91976,2.71407 -3.8498,5.41827 -5.78499,8.12247 l -3.25331,4.56786 c -2.96019,3.75858 -2.96019,3.75858 -6.38834,5.40347 l 1.71407,-9.86934 h 5.14222 l 0.5365,-3.90662 c 1.17757,-4.31784 1.17757,-4.31784 6.31978,-7.60762 z"
       id="path40"
       style="stroke-width:1.67912" />
    <path
       fill="#d182ef"
       d="m 444.67995,613.42445 h 15.42664 l -1.71407,4.93467 c -8.92688,3.72403 -8.92688,3.72403 -15.42664,1.64489 z"
       id="path41"
       style="stroke-width:1.67912" />
    <path
       fill="#fdd023"
       d="m 542.38196,845.354 h 6.85628 v 9.86934 c -3.32187,0.92608 -3.32187,0.92608 -6.85628,1.64489 -1.71407,-1.64489 -1.71407,-1.64489 -1.92833,-5.75711 0.21426,-4.11223 0.21426,-4.11223 1.92833,-5.75712 z m -49.70804,0 6.85628,1.64489 v 8.22445 l -6.85628,1.64489 -3.42814,-6.57956 z"
       id="path42"
       style="stroke-width:1.67912" />
    <path
       fill="#fadc36"
       d="m 562.9508,386.42957 c 8.3561,7.60762 8.3561,7.60762 10.28443,13.15912 -3.42815,0 -3.42815,0 -6.21351,-2.46733 l -2.35685,-2.46734 v 11.51423 l -3.42814,-1.64489 z"
       id="path43"
       style="stroke-width:1.67912" />
    <path
       fill="#b369f8"
       d="m 446.39402,340.37264 3.42814,3.28978 c -0.0394,4.28 -0.0394,4.28 -0.64277,9.2525 l -0.57593,5.00047 -0.49537,3.84082 -5.14221,1.64489 z"
       id="path44"
       style="stroke-width:1.67912" />
    <path
       fill="#fdd022"
       d="m 542.38196,700.60364 h 6.85628 c 1.71407,4.93467 1.71407,4.93467 0,9.86934 h -8.57035 a 171.3796,164.46273 0 0 1 0,-8.22445 z"
       id="path45"
       style="stroke-width:1.67912" />
    <path
       fill="#fee21a"
       d="m 391.54377,883.18648 c 4.82168,1.02806 4.82168,1.02806 10.28443,3.28978 2.99962,4.93467 2.99962,4.93467 5.14221,9.86934 l 3.42814,3.28978 c -5.14221,0 -5.14221,0 -8.64406,-2.76341 l -3.67497,-3.61054 -3.7161,-3.58586 c -2.81965,-3.19931 -2.81965,-3.19931 -2.81965,-6.48909 z"
       id="path46"
       style="stroke-width:1.67912" />
    <path
       fill="#c86ef6"
       d="m 701.7905,628.22846 c 4.0452,3.88194 4.26975,6.21604 5.14221,11.51423 h 3.42814 l 1.71407,18.0938 c -3.44528,-4.95934 -5.1285,-9.17026 -7.07054,-14.80401 l -1.83406,-5.24391 c -1.37982,-4.62544 -1.37982,-4.62544 -1.37982,-9.56011 z"
       id="path47"
       style="stroke-width:1.67912" />
    <path
       fill="#b065f7"
       d="m 300.69805,420.97227 5.14221,1.64489 -2.56425,3.06443 -3.32872,4.02998 -3.3133,3.98886 c -3.06819,3.69936 -3.06819,3.69936 -4.50629,8.65541 l -3.42814,-1.64489 c 1.04901,-5.65842 3.29101,-9.07321 6.96427,-13.57034 l 2.84535,-3.52007 z"
       id="path48"
       style="stroke-width:1.67912" />
    <path
       fill="#b367f7"
       d="m 437.82367,386.42957 c 3.09219,4.5399 3.45043,6.39862 2.78537,11.92545 l -1.0713,4.52345 -5.14221,1.64489 1.71407,-9.86934 -3.42814,-1.64489 h 5.14221 z"
       id="path49"
       style="stroke-width:1.67912" />
    <path
       fill="#b167f6"
       d="m 456.67845,300.89526 c 3.42814,4.93468 3.42814,4.93468 3.01333,9.014 l -1.08501,4.45272 -1.05758,4.4922 -0.87074,3.42466 -5.14221,1.64489 z"
       id="path50"
       style="stroke-width:1.67912" />
    <path
       fill="#b164f7"
       d="m 485.81764,233.45476 1.71407,3.28978 c -1.33183,3.19931 -1.33183,3.19931 -3.32187,6.78517 l -1.97461,3.61054 -1.5598,2.76341 h -5.14221 a 861.10435,826.35019 0 0 1 3.21388,-7.30002 l 1.80834,-4.10565 c 1.83406,-3.39834 1.83406,-3.39834 5.2622,-5.04323 z"
       id="path51"
       style="stroke-width:1.67912" />
    <path
       fill="#d6b2f3"
       d="m 688.07793,958.85144 1.71407,4.93467 5.14222,1.64489 c -4.7137,1.50837 -7.47335,1.82419 -12.32074,1.74852 l -6.53404,-0.10363 v -3.28978 l 10.28442,-3.28978 1.71407,3.28978 z"
       id="path52"
       style="stroke-width:1.67912" />
    <path
       fill="#d07aeb"
       d="m 722.35934,702.24853 h 3.42814 v 6.57956 h 3.42814 v 13.15913 l -3.42814,1.64489 z"
       id="path53"
       style="stroke-width:1.67912" />
    <path
       fill="#ac63f2"
       d="m 316.12468,916.08429 h 3.42814 l 3.42814,11.51423 -8.57035,-3.28978 -1.71407,4.93467 c -1.92833,-6.16834 -1.92833,-6.16834 0,-9.86934 h 3.42814 z"
       id="path54"
       style="stroke-width:1.67912" />
    <path
       fill="#ce77e9"
       d="m 720.64527,825.61531 c 2.69452,5.1699 0.20055,8.82484 -1.6078,14.18718 l -1.97461,5.9249 -1.5598,4.56128 c -1.96775,-2.69762 -1.96775,-2.69762 -3.42814,-6.57956 1.53923,-4.60076 1.53923,-4.60076 4.07092,-9.45812 l 2.50254,-4.90835 z"
       id="path55"
       style="stroke-width:1.67912" />
    <path
       fill="#fce222"
       d="m 499.5302,583.81642 3.42814,1.64489 c -3.96807,6.12064 -7.3465,10.87602 -13.71256,14.80401 l -3.42814,-1.64489 z"
       id="path56"
       style="stroke-width:1.67912" />
    <path
       fill="#cf82ea"
       d="m 487.53171,587.1062 h 6.85628 c -2.21629,4.74386 -4.55942,8.01391 -8.57035,11.51423 -1.07129,-3.90661 -1.07129,-3.90661 -1.71407,-8.22445 z"
       id="path57"
       style="stroke-width:1.67912" />
    <path
       fill="#b067f5"
       d="m 626.3714,80.479946 c -1.17928,3.084169 -1.17928,3.084169 -3.42814,6.579562 a 133.7609,128.36232 0 0 1 -8.57035,3.28978 l -1.71407,3.289781 -5.14221,-1.64489 c 2.84879,-2.202508 5.70786,-4.393502 8.57035,-6.579562 l 3.75039,-2.878558 c 3.10589,-2.056113 3.10589,-2.056113 6.53403,-2.056113 z"
       id="path58"
       style="stroke-width:1.67912" />
    <path
       fill="#d27fea"
       d="m 712.07492,652.90182 3.42814,1.64489 c 0.70962,3.39834 0.70962,3.39834 1.07129,7.50563 l 0.3891,4.11716 0.25368,3.18122 -3.42814,1.64489 c -3.6424,-12.54229 -3.6424,-12.54229 -1.71407,-18.09379 z"
       id="path59"
       style="stroke-width:1.67912" />
    <path
       fill="#c975ed"
       d="m 571.52116,394.65402 h 3.42814 c 2.21115,2.40154 2.21115,2.40154 4.49943,5.5515 l 2.31742,3.12201 c 1.7535,2.84072 1.7535,2.84072 1.7535,6.1305 h 3.42814 l -1.71407,4.93467 a 4149.9184,3982.4278 0 0 1 -6.85628,-8.94491 l -3.85666,-5.03007 c -2.99962,-4.11881 -2.99962,-4.11881 -2.99962,-5.7637 z"
       id="path60"
       style="stroke-width:1.67912" />
    <path
       fill="#d17feb"
       d="m 614.37291,932.53319 c 0,3.28978 0,3.28978 -3.10761,6.78518 -3.74867,3.08417 -3.74867,3.08417 -8.89088,3.08417 l -1.71407,-6.57957 c 9.8559,-3.28978 9.8559,-3.28978 13.71256,-3.28978 z"
       id="path61"
       style="stroke-width:1.67912" />
    <path
       fill="#fee11d"
       d="m 617.80105,924.30874 5.14221,1.64489 h -3.42814 v 4.93467 c -7.92757,3.49539 -7.92757,3.49539 -13.71256,1.64489 3.36472,-3.22892 6.0661,-4.62049 10.28442,-6.57956 z"
       id="path62"
       style="stroke-width:1.67912" />
    <path
       fill="#ac61f3"
       d="m 247.56187,503.21679 c 2.27286,6.54173 0.5965,10.03219 -1.71407,16.4489 l -3.42814,3.28978 c -2.08088,-5.99069 -1.14328,-7.12566 1.6078,-12.64591 l 1.97461,-4.02834 z"
       id="path63"
       style="stroke-width:1.67912" />
    <path
       fill="#b165f8"
       d="m 441.25181,366.69088 c 3.2276,6.1963 3.80524,8.2738 3.42814,14.80402 l -5.14221,1.64489 z"
       id="path64"
       style="stroke-width:1.67912" />
    <path
       fill="#cf7fea"
       d="m 415.54076,909.50473 c 5.60501,0.92772 8.2721,2.46733 11.99849,6.57956 h -11.99849 z"
       id="path65"
       style="stroke-width:1.67912" />
    <path
       fill="#d382f0"
       d="m 350.40609,649.61204 c 2.63452,4.01353 3.46242,6.09761 3.10761,10.8974 -1.39354,3.90661 -1.39354,3.90661 -6.53575,7.19639 1.49981,-12.54229 1.49981,-12.54229 3.42814,-18.09379 z"
       id="path66"
       style="stroke-width:1.67912" />
    <path
       fill="#fbde20"
       d="m 641.79804,508.15146 h 3.42814 c 5.27419,8.90708 5.27419,8.90708 4.60742,13.77596 l -1.17928,2.67294 c -6.85628,-10.89739 -6.85628,-10.89739 -6.85628,-16.4489 z"
       id="path67"
       style="stroke-width:1.67912" />
    <path
       fill="#b267f7"
       d="m 461.82066,284.44636 c 3.42814,4.93467 3.42814,4.93467 3.01333,8.29518 l -3.01333,9.79862 c -1.92833,-2.57097 -1.92833,-2.57097 -3.42814,-6.57957 1.49981,-6.16834 1.49981,-6.16834 3.42814,-11.51423 z"
       id="path68"
       style="stroke-width:1.67912" />
    <path
       fill="#e6d1f9"
       d="m 674.36537,968.72078 v 1.64489 l -20.56884,1.64489 c 6.54775,-6.28348 12.01392,-4.68464 20.56884,-3.28978 z"
       id="path69"
       style="stroke-width:1.67912" />
    <path
       fill="#cf7be4"
       d="m 636.65583,922.66385 3.42814,1.64489 -1.71407,4.93467 h -11.9985 c 3.36644,-2.4772 6.48433,-4.75538 10.28443,-6.57956 z"
       id="path70"
       style="stroke-width:1.67912" />
    <path
       fill="#d17fea"
       d="m 473.81915,600.26532 h 6.85628 c -2.99962,6.37395 -2.99962,6.37395 -6.85628,8.22446 L 470.39101,605.2 Z"
       id="path71"
       style="stroke-width:1.67912" />
    <path
       fill="#d484eb"
       d="m 710.36085,853.57845 c 1.92833,6.16834 1.92833,6.16834 0,9.86934 l -6.85628,-1.64489 c 3.42814,-4.93467 3.42814,-4.93467 6.85628,-8.22445 z"
       id="path72"
       style="stroke-width:1.67912" />
    <path
       fill="#fde41c"
       d="m 660.65281,544.33905 h 3.42814 c 1.82206,2.98219 1.82206,2.98219 3.42814,6.57956 -1.71407,4.93467 -1.71407,4.93467 -5.14221,6.57956 z"
       id="path73"
       style="stroke-width:1.67912" />
    <path
       fill="#b175eb"
       d="m 225.27896,809.16641 5.14221,6.57956 h -5.14221 l -1.71407,-3.28978 z"
       id="path74"
       style="stroke-width:1.67912" />
    <path
       fill="#ca9ef2"
       d="m 350.40609,948.9821 5.14221,3.28978 -3.42814,3.28978 v -3.28978 l -3.42814,-1.64489 z"
       id="path75"
       style="stroke-width:1.67912" />
    <path
       fill="#b57bec"
       d="m 269.84478,883.18648 3.42815,3.28978 -3.42815,3.28978 z"
       id="path76"
       style="stroke-width:1.67912" />
    <path
       fill="#b275eb"
       d="m 242.41966,843.70911 3.42814,4.93467 -5.14221,-1.64489 z"
       id="path77"
       style="stroke-width:1.67912" />
    <path
       fill="#ba88ef"
       d="m 305.84026,917.72918 3.42814,1.64489 -1.71407,3.28978 z"
       id="path78"
       style="stroke-width:1.67912" />
    <path
       fill="#b67df0"
       d="m 268.13071,457.15986 3.42814,3.28978 -3.42814,1.64489 z"
       id="path79"
       style="stroke-width:1.67912" />
    <path
       fill="#b87bed"
       d="m 521.81312,166.01425 v 4.93467 z"
       id="path80"
       style="stroke-width:1.67912" />
    <path
       fill="#cba1ef"
       d="m 357.26237,952.27188 3.42814,3.28978 h -3.42814 z"
       id="path81"
       style="stroke-width:1.67912" />
    <path
       fill="#c18fef"
       d="m 326.4091,934.17808 3.42814,3.28978 h -3.42814 z"
       id="path82"
       style="stroke-width:1.67912" />
    <path
       fill="#b77ff1"
       d="m 322.98096,391.36424 3.42814,1.64489 -3.42814,1.64489 z"
       id="path83"
       style="stroke-width:1.67912" />
  </g>
</svg>
