<svg xmlns="http://www.w3.org/2000/svg" viewBox="13.353 167.866 471.386 160.452"><g><path fill="#01B9F9" d="M346.825 209.262c3.928 3.286 6.911 7.6 7.568 12.761.373 5.096.221 9.761-1.619 14.576l.672-.52c9.3-6.881 21.142-8.75 32.469-7.376 1.662.249 3.29.6 4.919 1.013l.82.204c9.335 2.411 17.48 7.905 22.739 16.068 2.498 4.249 4.608 8.845 5.596 13.691l.247 1.205c2.178 12.498.053 26.504-6.717 37.326-7.268 10.293-17.093 16.21-29.391 18.459-12.309 2.026-24.313-.566-34.594-7.592l-.449.521c-3.211 3.478-7.365 5.851-12.149 6.082-.586.013-1.171.022-1.757.026l-.959.011c-.665.006-1.331.009-1.996.011-1.004.005-2.006.025-3.009.045-4.294.044-7.527-.546-11.309-2.738-.846-.442-.846-.442-2.083.096-.524.223-1.045.449-1.566.678-8.703 3.498-19.922 4.144-28.72.601-2.295-1.01-4.486-2.148-6.456-3.713-1.701.793-3.184 1.864-4.721 2.934-3.581 1.88-7.199 2.131-11.194 2.105-.807-.003-1.615.009-2.421.021-3.317-.002-6.055-.417-9.197-1.433-1.837-.587-3.099-.985-4.946-.315l-.943.33-.969.356c-.636.229-1.272.455-1.909.68l-.848.31c-2.842.857-5.717.755-8.656.756l-1.424.015c-4.052.007-7.968-.315-11.761-1.837l-1.32-.528c-1.144-.518-2.189-1.099-3.26-1.749-1.232-.745-1.232-.745-2.632-.684l-1.012.658c-.606.341-1.214.678-1.823 1.012l-.958.538c-3.547 1.949-7.284 1.784-11.239 1.816l-1.466.036c-4.992.035-9.652-1.137-13.667-4.212-.907-.903-1.653-1.811-2.43-2.834l-1.215 1.063c-4.093 3.485-7.705 5.86-13.209 5.917l-.912.01c-.637.006-1.274.01-1.911.013-.643.005-1.286.013-1.929.025-4.854.091-9.387-.12-13.418-3.207l-.95-.71-.873-.682-1.619-1.214-1.073.623c-11.991 6.784-27.235 8.823-40.632 5.45l-.823-.203c-7.946-2.05-15.194-6.196-21.042-11.944l-1.085-1.055c-10.385-10.664-13.276-25.381-13.208-39.797.291-14.11 4.111-28.465 13.483-39.318l.725-.902c7.95-9.575 21.274-15.563 33.5-16.834 10.267-.823 20.793.716 29.94 5.627.989.469.989.469 1.868.11a40.842 40.842 0 0 0 2.472-1.92c4.055-3.202 7.924-3.565 12.957-3.568l1.316-.015c5.765-.01 10.406.963 14.703 5.026 3.983 4.241 5.512 8.107 5.415 13.868l-.011 1.248c-.009 1.01-.023 2.019-.039 3.028l.675-.197c7.63-1.678 16.648-.158 23.306 3.781 1.783 1.156 3.294 2.589 4.767 4.109l.713.714.501.501c1.44-.637 2.547-1.522 3.771-2.505 4.293-3.309 9.195-5.169 14.45-6.403l.874-.217c2.916-.667 5.76-.733 8.742-.719l1.56.006c8.889.109 16.589 1.526 24.455 5.789 1.443-.612 2.575-1.272 3.644-2.429.311-1.429.33-2.75.347-4.211.15-3.749 1.905-6.923 4.512-9.556 2.247-1.885 4.493-3.181 7.289-4.049l.713-.225c1.301-.258 2.597-.262 3.919-.276l.887-.01c.62-.006 1.24-.01 1.859-.013.626-.005 1.253-.013 1.879-.025 6-.115 10.395.901 15.037 5.003.725.84 1.365 1.679 1.975 2.605.426.699.426.699 1.264 1.039l.126-1.044c1.051-5.228 4.599-9.763 8.959-12.672 8.659-5.125 19.75-5.398 27.886.955Z" style="stroke-width:1px" transform="translate(-67.815 -90.369) scale(1.30401)"/><path fill="#FDFEFE" d="M142.553 224.351c2.839 2.608 4.698 6.486 5.057 10.306.055 1.459.064 2.912.055 4.372l.025 1.496c-.002 3.417-.324 6.279-2.783 8.804-3.237 1.926-7.193 2.003-10.805 1.15-1.981-.728-3.358-1.466-4.43-3.352-.628-1.39-1.099-2.802-1.488-4.277-.681-2.558-1.376-4.105-3.76-5.501-3.651-1.914-7.862-2.174-11.873-1.254-5.025 1.762-8.163 5.029-10.569 9.691-3.676 8.125-3.93 18.426-1.058 26.85 1.73 4.288 4.749 7.657 8.908 9.717 5.888 2.398 12.068 2.163 17.917-.253 1.197-.553 2.32-1.193 3.446-1.875 5.454-3.279 5.454-3.279 8.125-2.979 2.908.821 4.526 2.485 6.067 5.032 1.467 2.701 1.795 5.441 1.013 8.425-1.907 5.219-6.086 7.789-10.869 10.181-10.835 4.832-23.514 5.908-34.779 1.882-3.731-1.476-6.894-3.239-9.95-5.836l-.816-.639c-6.322-5.127-9.904-13.072-11.736-20.821l-.391-1.521c-2.814-12.837-.906-27.686 6.11-38.887 6.202-9.519 14.868-14.841 25.795-17.316 10.664-2.152 24.055-.125 32.789 6.605ZM400.374 246.025c6.304 5.527 9.737 12.946 10.39 21.275.297 7.356-.362 14.478-3.734 21.127l-.617 1.218c-3.977 7.301-10.171 11.776-18.048 14.14-9.49 2.52-19.749 1.743-28.379-3.11-7.119-4.53-10.652-11.188-12.573-19.202-1.878-9.428-1.216-19.798 3.842-28.146 4.885-7.264 11.625-11.642 20.144-13.488 9.823-1.519 21.045-.309 28.975 6.186ZM161.558 217.443l1.433-.036c2.749-.02 4.564.073 6.767 1.782 1.384 2.168 1.671 4.234 1.665 6.765v1.375l-.006 1.472-.002 1.516c-.002 1.325-.006 2.65-.01 3.976-.004 1.354-.006 2.708-.008 4.063-.004 2.654-.011 5.307-.02 7.961l.671-.593.882-.776.873-.77c4.774-4.078 10.473-5.171 16.605-4.744 5.398.756 9.909 2.823 13.449 7.075 2.917 4.13 4.084 8.073 4.079 13.044l.008 1.292c.008 1.404.01 2.808.011 4.212l.008 2.936c.005 2.048.006 4.097.005 6.147 0 2.623.011 5.247.025 7.87.009 2.02.011 4.041.011 6.061 0 .967.004 1.935.011 2.902.007 1.353.005 2.705 0 4.058l.014 1.206c-.023 2.468-.365 3.948-1.83 5.957-2.489 1.618-5.208 1.409-8.098 1.392l-1.411.024c-2.692-.001-4.585-.059-6.687-1.821-1.183-2.207-1.388-3.986-1.364-6.463l-.005-1.066c-.003-.76-.003-1.52 0-2.28.004-1.203-.001-2.406-.007-3.61-.016-3.42-.016-6.84-.015-10.26 0-2.095-.008-4.191-.02-6.287-.005-1.183 0-2.367.005-3.551-.003-.728-.008-1.455-.012-2.183l.012-.992c-.027-2.123-.433-3.326-1.833-5.013-2.112-1.545-4.372-1.476-6.884-1.215-2.579.584-4.898 1.439-6.554 3.568-1.299 2.285-1.664 4.286-1.66 6.888l-.008.932c-.006.665-.01 1.33-.012 1.994-.003 1.054-.012 2.108-.021 3.162-.019 2.237-.033 4.475-.045 6.713a2523.14 2523.14 0 0 1-.055 7.778c-.008 1.035-.012 2.07-.015 3.105l-.016 1.916.001.864c-.026 2.052-.168 4.246-1.496 5.896-2.759 2.035-5.115 1.824-8.441 1.85l-1.491.036c-2.773.019-4.735.03-6.91-1.782-1.17-1.877-1.389-3.478-1.369-5.641l-.006-.958a371.44 371.44 0 0 1 .003-3.167l-.007-2.275c-.005-2.057-.003-4.114.001-6.171.003-2.154 0-4.307-.002-6.461a4903.3 4903.3 0 0 1 .007-10.848c.006-4.18.004-8.36-.003-12.54-.005-3.59-.006-7.179-.003-10.769.002-2.144.002-4.287-.002-6.431-.003-2.015-.001-4.031.006-6.046.002-.739.001-1.479-.001-2.218-.003-1.01.001-2.019.007-3.029l-.009-.885c.022-1.88.392-3.158 1.378-4.756 2.587-2.394 5.043-2.124 8.401-2.151ZM262.54 244.97c3.581 3.21 5.796 8.194 6.113 12.965l-.002 1.547.002.864c.002.612.001 1.224 0 1.836-.003.97.001 1.941.007 2.911.015 2.757.022 5.514.017 8.271-.002 1.692.006 3.383.019 5.075.003.642.003 1.285-.002 1.927-.005.898.001 1.796.01 2.694l.001 1.545c.397 2.179 1.563 3.294 3.341 4.607 1.587 1.378 2.078 2.936 2.353 4.985-.326 2.799-1.025 5.488-3.188 7.415-3.513 2.746-8.575 2.232-12.78 1.796-3.364-.739-5.727-2.941-7.693-5.668-1.332.581-2.186 1.31-3.214 2.328-5.222 4.755-11.241 4.835-17.903 4.626-4.83-.297-8.757-2.608-12.034-6.094-2.672-3.25-3.854-7.293-3.822-11.464l.006-.91c.112-5.53 1.828-9.845 5.592-13.862 1.54-1.441 3.171-2.443 5.057-3.372l.928-.464c6.087-2.722 13.203-2.83 19.746-3.021l1.391-.045 1.267-.038c.943.03.943.03 1.367-.481.235-2.642-.213-4.617-1.62-6.884-1.504-1.693-2.938-2.332-5.156-2.526-2.676-.065-4.827.022-6.991 1.716-.384.463-.755.936-1.114 1.418-1.621 2.01-3.695 2.584-6.174 3.036-6.621.589-6.621.589-8.503-.809-1.984-2.527-2.322-5.237-2.192-8.369.421-3.397 2.112-5.95 4.621-8.232 10.182-7.762 30.643-7.033 40.55.677ZM290.52 224.756l1.39-.025c4.275-.02 4.275-.02 6.202 1.341 1.558 2.096 1.67 3.898 1.659 6.46l-.002.81c-.002.849-.007 1.699-.013 2.549l-.005 1.734c-.004 1.412-.012 2.825-.02 4.238l1.12.012c1.378.018 2.754.043 4.132.072.595.012 1.19.02 1.785.026.857.009 1.714.028 2.572.048l1.561.026c1.596.255 2.263.723 3.407 1.841 1.804 2.564 2.01 5.466 1.619 8.503-.513 1.999-1.152 3.557-2.581 5.061-2.793 1.596-5.366 1.516-8.503 1.468l-1.371-.011c-1.112-.01-2.224-.023-3.336-.04-.019 3.126-.033 6.251-.042 9.377-.004 1.452-.01 2.903-.019 4.354a842.421 842.421 0 0 0-.016 4.206c-.002.793-.008 1.585-.015 2.378v1.474l-.005 1.291c.136 1.7.427 3.15 1.636 4.393 1.895.99 4.308.774 6.317.176l.9-.343c1.873-.698 3.504-.845 5.416-.178 2.283 2.089 2.865 4.186 3.011 7.187-.057 2.905-.932 5.119-2.839 7.314-4.851 4.523-11.526 4.393-17.734 4.183-4.514-.246-9.058-2.078-12.173-5.448-3.783-4.987-3.994-10.261-4.026-16.259l-.021-2.052c-.018-1.789-.032-3.578-.045-5.367-.021-2.875-.047-5.75-.076-8.624-.009-1.004-.016-2.008-.022-3.013l-.017-1.831-.003-.85c.094-1.297.094-1.297-.472-2.368a90.239 90.239 0 0 0-2.328-.126c-1.476-.121-2.413-.22-3.745-.886-2.01-2.511-2.576-4.756-2.607-7.972l-.012-.83c.032-1.876.424-3.171 1.404-4.762 1.941-1.857 3.504-2.759 6.149-3.012l1.544-.228c.876-1.314.917-1.731.949-3.256l.036-1.217.027-1.271c.149-6.917.149-6.917 1.594-8.767 2.658-1.867 4.413-1.771 7.618-1.786Z" style="stroke-width:1px" transform="translate(-67.815 -90.369) scale(1.30401)"/><path fill="#FCFEFE" d="m331.668 241.332 1.555-.02 1.504-.001 1.369-.003c1.486.173 2.447.59 3.721 1.365 1.494 1.938 2.074 3.366 2.081 5.788l.007 1.347.001 1.478.006 1.556c.006 1.41.009 2.819.01 4.229l.005 2.643c.005 2.757.009 5.515.011 8.272.002 3.182.009 6.363.021 9.544.008 2.46.012 4.92.013 7.38 0 1.469.003 2.938.01 4.406.008 1.64.006 3.279.003 4.918l.012 1.471c-.021 4.163-.021 4.163-1.371 6.084-2.75 2.261-5.687 2.106-9.085 2.125l-1.123.026c-2.753.016-4.823-.271-6.924-2.202-1.736-2.957-1.61-6.369-1.598-9.705l-.004-1.446c-.004-1.568-.002-3.136.001-4.705l-.002-3.283c-.001-2.291 0-4.581.004-6.871.005-2.641.003-5.282-.001-7.923a2589.33 2589.33 0 0 1-.002-6.827c.001-1.355.001-2.711-.002-4.067-.002-1.511.002-3.023.006-4.535l-.005-1.347c.018-3.278.089-6.311 2.539-8.761 2.138-1.37 4.794-.942 7.238-.936Z" style="stroke-width:1px" transform="translate(-67.815 -90.369) scale(1.30401)"/><path fill="#01B9F9" d="M383.293 257.249c3.891 2.271 5.428 5.511 6.732 9.718 1.243 5.02.593 11.054-1.899 15.589-1.765 2.664-3.939 4.21-7.009 5.061-3.52.424-6.408.078-9.313-2.024-3.048-2.643-4.646-6.318-4.931-10.321-.221-9.439-.221-9.439 1.692-13.164l.416-.831c2.837-4.706 9.467-6.245 14.312-4.028Z" style="stroke-width:1px" transform="translate(-67.815 -90.369) scale(1.30401)"/><path fill="#FDFEFE" d="M337.387 215.393c3.463 1.865 5.244 4.142 6.479 7.845.352 3.746-.067 7.138-2.292 10.254-2.4 2.665-5.171 3.831-8.723 4.055-3.859.134-7.274-.008-10.29-2.736-1.671-1.912-2.83-4.168-2.989-6.715l-.077-.815c-.184-3.296.92-6.057 2.961-8.624 3.618-3.868 10.004-5.318 14.931-3.264Z" style="stroke-width:1px" transform="translate(-67.815 -90.369) scale(1.30401)"/><path fill="#04B8F9" d="M249.119 277.495c.62.62.488 1.187.506 2.05-.053 2.793-.682 4.777-2.708 6.756-2.775 2.226-6.298 3.254-9.84 3.094-1.808-.312-3.171-1.079-4.357-2.512-.441-1.931-.041-3.326.987-4.985 3.696-3.949 10.29-4.863 15.412-4.403Z" style="stroke-width:1px" transform="translate(-67.815 -90.369) scale(1.30401)"/><path fill="#0DB4FA" d="M240.211 255.225v.81l-.857.12-1.117.183-1.11.171c-1.031.246-1.031.246-1.5 1.177l-.275.778-.405-1.215c1.859-1.28 2.964-2.024 5.264-2.024Z" style="stroke-width:1px" transform="translate(-67.815 -90.369) scale(1.30401)"/><path fill="#14B6FA" d="M217.536 256.845c2.025 3.036 2.025 3.036 2.025 4.049l1.619.809-1.214.405c-1.66-1.744-2.28-2.775-2.43-5.263Z" style="stroke-width:1px" transform="translate(-67.815 -90.369) scale(1.30401)"/></g></svg>