<svg xmlns="http://www.w3.org/2000/svg" viewBox="0 0 500 500"><path fill="#FEB716" d="M433.25 445.111H184.116c.318-1.273.57-2.535.794-3.826.107-.622.216-1.243.324-1.864l.53-3.026c.639-3.708 1.263-7.39 2.285-11.014.237-.805.461-1.615.653-2.432-.582-1.162-.861-1.911-.535-3.201 1.08-2.888 1.914-5.814 2.717-8.788.245-.916.491-1.833.739-2.748a326.473 326.473 0 0 0 3.192-12.775c-.764 0-.764 0-1.459.261-8.545 3.616-19.06 7.958-28.43 6.904-7.252-1.43-12.282-7.401-16.441-13.016-1.273-1.752-2.531-3.359-4.108-4.848a61.853 61.853 0 0 0-.445 6.855l-.001 1.089c-.006 1.21-.009 2.421-.009 3.631l.001 1.273c.009 16.06 1.77 31.605 3.893 47.525H41.972V249.854c.423 0 .423 0 2.549-1.242a716.48 716.48 0 0 1 8.281-4.782l1.087-.615a259.48 259.48 0 0 1 5.749-3.193l1.254-.664c.818-.435 1.635-.869 2.454-1.302 3.182-1.645 5.688-3.432 8.227-5.951 3.421-3.769 8.072-9.296 7.846-14.731l-.836-.74c-2.297-1.684-2.715-4.092-3.177-6.758-.682-4.352-2.032-8.511-3.517-12.65l-.519-1.417c-1.322-3.625-2.756-7.139-4.466-10.603-4.097-8.291-7.287-16.768-5.075-26.102 1.825-6.199 5.56-12.444 11.173-15.835 2.218-1.28 3.969-2.4 5.581-4.418 3.489-4.584 8.017-8.555 13.181-11.171l1.028-.483c7.869-3.753 15.445-4.379 23.906-2.484 4.978 1.117 8.506 1.251 13.421-.191 4.063-1.206 8.254-1.951 12.431-.81 3.238 1.305 4.871 2.95 6.414 6.085l.38.839c1.958-.627 3.72-.834 5.78-.86 3.258-.015 5.656.866 7.976 3.152 2.123 2.783 2.293 5.773 1.911 9.171-.878 3.139-2.339 5.301-5.014 7.141-1.093.751-2.054 1.486-3.01 2.412-.276 1.101-.155 1.744.117 2.837l.265.984c.201 2.526.223 5.044-1.147 7.26l-1.013.906c-.897 1.004-.897 1.004-.93 2.012.746 3.201.907 6.294.988 9.572l.026 1.342.034 1.266c.021 1.14.021 1.14.131 2.097l.764 1.146a92.098 92.098 0 0 0 5.828 8.717c1.615 2.112 3.042 4.121 4.107 6.567.105 1.254.105 1.254-.382 2.293-1.256.905-2.552 1.404-4.023 1.871-1.905.584-4.024.991-5.53 2.332-.27 1.45-.27 1.45-.303 2.275l-.007.854-.056 1.688-.016 1.297c-4.563.205-8.575-.584-12.92-1.934a54.561 54.561 0 0 0-5.803-1.505l-.12 1.051c.12 1.242.12 1.242.836 2.006l1.195.764c3.092 2.03 6.495 4.04 10.221 4.514l1.242.071c-.667 2.417-1.421 4.739-1.147 7.261l.765.764c.339 3.903-1.316 8.258-3.439 11.463-2.218 2.174-4.73 2.811-7.759 2.815l-.982-.021c-2.27-.028-4.489-.06-6.702-.612a79.065 79.065 0 0 0-1.736-.458 459.772 459.772 0 0 1-4.163-1.034l-1.203-.308a780.018 780.018 0 0 0-2.46 5.015c-.352.712-.703 1.424-1.051 2.137l-.332.684c-.791 1.611-1.289 2.989-1.506 4.774a107.2 107.2 0 0 0 3.806 2.13c3.203 1.684 6.409 3.363 9.568 5.13 13.488 8.016 18.35 19.406 22.209 33.977.475 1.795.953 3.588 1.433 5.381l.59 2.207c.757 2.864 1.543 5.692 2.515 8.491 1.985-.964 1.985-.964 6.424-3.415 1.082-.6 2.164-1.196 3.255-1.777l1.02-.54c2.327-1.29 3.881-1.689 6.545-1.283l.715.137c2.594-10.778 5.228-21.909 10.245-31.858l.509-.942.454-.858c.57-1.016.65-1.404.491-2.583-1.059-5.413-.742-12.169.667-17.508l.244-.893a730.778 730.778 0 0 1 1.81-6.591c4.876-17.401 7.447-34.96 9.598-52.874.185-1.54.37-3.081.558-4.621l.215-1.772c.664-5.591 1.438-11.156 2.872-16.61l.327-1.189c1.888-6.914 4.241-13.002 8.474-18.837l.601-.818c1.3-1.783 2.623-3.295 4.334-4.694l.633-.512c7.248-6.431 16.265-9.711 25.963-9.672.768.011 1.536.024 2.304.027 1.66.005 3.318.029 4.977.092 7.937.594 17.615 4.402 23.07 10.374l.62.707c11.989 12.579 15.258 28.506 17.687 45.188.542 3.729 1.096 7.456 1.659 11.181l.357 2.357c1.842 12.286 3.806 24.431 9.481 35.607 3.347 6.554 7.298 13.66 7.141 21.231-.083.978-.083.978-.024 1.743 1.083.723 1.848 1.489 2.703 2.463l.592.69c1.616 1.877 3.059 3.798 4.371 5.899.788 1.296 1.5 2.544 2.651 3.558.938-1.177 1.839-2.228 2.952-3.245l1.108-.91c.566-.47 1.133-.939 1.71-1.395l.726-.564a42.502 42.502 0 0 1 8.165-5.072c.688-.321 1.377-.642 2.062-.968 1.896-.908 3.749-1.942 5.821-2.366-.915 1.544-1.286 2.753-1.284 4.555l.018.794c-.009 1.911.132 3.569.884 5.35 1.177 1.928 2.585 3.167 4.681 4.012 4.212 1.306 8.097.521 12.016-1.286.307-.148.605-.291.904-.433 3.14-1.502 6.045-3.202 8.862-5.245l.667-.487c2.188-1.559 4.317-3.144 6.198-5.073 3.291-3.502 5.886-6.972 10.808-7.802l1.335-.117c2.304-.444 3.73-.478 5.818.671.585.346 1.175.684 1.768 1.016l.983.548c1.516.863 3.042 1.698 4.582 2.516 7.248 3.85 16.014 7.61 21.298 14.176l.703.943c2.289 3.005 4.529 5.956 5.95 9.481.592 1.574 1.043 2.518 2.075 3.893v166.981Zm-235.629-99.709c-1.561 5.22-3.871 10.29-7.225 14.599l-.548.664c1.293.516 2.274.271 3.588-.09l.758-.22a90.129 90.129 0 0 0 5.207-1.6c.106-4.897-.196-9.657-.764-14.52h-.383c-.382.382-.382.382-.633 1.167Z" style="stroke-width:1px" transform="translate(12.788 .504)"/><path fill="#653C92" d="M145.141 124.522c2.233 1.46 3.331 3.441 4.586 5.732.33-.126.661-.253 1.003-.382 2.89-.819 6.619-.933 9.388.345 2.272 1.382 4.07 2.997 5.036 5.519.717 3.044.677 6.244-.813 9.034-.158.253-.315.507-.476.768l-.465.781c-1.141 1.71-2.363 2.656-4.097 3.757-1.474.947-1.474.947-2.12 2.47.12 1 .336 1.947.568 2.927.307 3.406-.331 5.754-2.15 8.621l-.525.549h-.764l.358 1.386c.533 2.061.835 4.014.774 6.146-.052 5.27.268 8.941 3.602 13.096.944 1.182 1.829 2.406 2.722 3.626.461.626.927 1.249 1.4 1.867 3.27 4.307 3.27 4.307 3.467 6.813-.742 1.668-1.928 2.28-3.535 2.985-1.597.567-3.219 1.051-4.846 1.522-1.197.259-1.197.259-1.649.77a94.781 94.781 0 0 0-.192 3.057c-.139 3.005-.139 3.005-.573 3.439-3.361.503-6.539-.267-9.791-1.051l-1.214-.291c-2.64-.664-5.179-1.499-7.718-2.479.161 1.578.368 2.342 1.603 3.381 3.688 2.39 7.503 4.01 11.771 5.025-.338 2.894-.338 2.894-.597 3.846-.261 1.154-.233 2.238-.167 3.415l.764.764c.237 3.904-1.282 8.38-3.55 11.511-1.619 1.774-3.594 2.847-5.986 3.083-5.759.224-11.498-.406-16.83-2.749l-.261.896c-.808 2.243-1.909 4.346-2.97 6.479-.849 1.745-1.576 3.271-1.736 5.235l1.028.494c6.875 3.346 13.612 6.956 19.606 11.733l1.146.882c1.418 1.195 2.498 2.633 3.606 4.11l.66.876c5.542 7.454 7.618 15.857 9.962 24.683.296 1.114.596 2.227.896 3.34l.868 3.238.412 1.536c.191.713.38 1.427.57 2.141l.326 1.224c.276 1.142.481 2.28.659 3.441-3.453 2.083-6.899 4.147-10.603 5.756l-.73.317c-2.66 1.118-4.914 1.67-7.772 1.569.255-1.639.824-3.081 1.479-4.594l.327-.769c.343-.808.689-1.615 1.035-2.422.346-.804.69-1.608 1.032-2.414.213-.499.427-.998.642-1.496 1.181-2.777 2.335-5.74 1.264-8.723-.403-.658-.403-.658-1.194-.98-1.466-.2-2.128-.103-3.391.693-1.489 1.385-2.594 3.071-3.757 4.727-.772 1.084-1.571 2.147-2.366 3.214-6.086 7.782-6.086 7.782-10.356 16.585l-.663 1.983a275.423 275.423 0 0 0-1.058 3.221c-1.565 4.846-1.565 4.846-3.509 6.427l-.807.669-.841.692c-.809.726-1.616 1.454-2.421 2.184-.635.491-.635.491-1.4.491v.764l.645.287c1.915 1.035 3.231 2.464 4.624 4.097.857.98 1.74 1.929 2.631 2.878 8.026 8.542 8.026 8.542 10.059 12.608h.765l.859-.86c2.756-2.756 5.707-3.504 9.46-4.115 9.091-1.484 17.008-5.758 24.453-11.074.7 1.051.976 1.714 1.305 2.903l.302 1.081.321 1.172.34 1.222a4222.363 4222.363 0 0 0 2.13 7.696l.694 2.507a506.557 506.557 0 0 0 2.03 7.167c.202.694.405 1.389.61 2.082l.27.93.237.808c.167.708.167.708.167 1.855l1.091-.349a319.011 319.011 0 0 1 11.13-3.296c.896-.25 1.792-.502 2.688-.755 3.035-.848 6.042-1.627 9.164-2.096.257 10.648-1.277 21.29-3.344 31.715l-.235 1.326c-.609 2.879-.609 2.879-1.588 3.816-.81.431-1.6.699-2.475.971l-2.357.905c-.894.322-1.788.642-2.683.958l-1.423.506c-16.975 5.957-16.975 5.957-24.87 2.599-6.531-3.31-10.79-9.139-14.901-14.975-.663-.992-.663-.992-1.148-1.456a60.637 60.637 0 0 0-.46 7.377l-.008 1.134c-.081 14.632.931 28.933 2.768 43.445l.151 1.196a841.05 841.05 0 0 0 .527 4.084c.086.915.079 1.837.079 2.755H41.972c-.34-48.857-.34-48.857-.405-67.575a35942.267 35942.267 0 0 0-.061-16.461c-.035-9.434-.098-18.869-.176-28.303a4550.992 4550.992 0 0 1-.156-33.206l-.001-.818c-.01-4.338-.049-8.675-.099-13.014a936.3 936.3 0 0 1-.057-13.09 328.58 328.58 0 0 0-.047-7.09c-.251-13.835-.251-13.835 1.828-16.929 1.936-1.824 4.039-2.748 6.581-3.443 1.421-.42 2.537-1.098 3.795-1.873.795-.438 1.591-.876 2.386-1.312l2.617-1.453a485.853 485.853 0 0 1 4.809-2.624c8.062-4.386 13.114-10.296 16.05-19.017a36.33 36.33 0 0 0 .383-1.529l-.669-.262c-2.26-1.318-2.86-3.478-3.535-5.851a54.634 54.634 0 0 1-.449-2.476c-1.482-8.962-5.316-17.75-9.297-25.88-3.86-7.903-6.303-16.458-3.627-25.14 2.508-6.688 6.471-12.371 12.776-15.953 2.9-1.704 4.658-3.993 6.711-6.591 5.353-6.269 14.032-10.781 22.162-11.845 4.523-.331 8.786-.052 13.207.955 5.456 1.227 9.167 1.062 14.515-.513 4.565-1.289 9.682-1.849 13.928.704Z" style="stroke-width:1px" transform="translate(12.788 .504)"/><path fill="#2454B0" d="m399.052 246.892 1.375.726c27.263 14.421 27.263 14.421 32.609 29.736.695 2.506.519 5.181.489 7.758.004.692.004 1.384.008 2.076.003 1.891-.004 3.781-.016 5.672-.011 2.075-.007 4.149-.004 6.223 0 4.022-.011 8.043-.026 12.065-.016 4.654-.016 9.308-.019 13.962-.012 12.282-.042 24.563-.073 36.845-.05 27.442-.096 54.883-.145 83.156H184.116c.476-3.803.964-7.538 1.672-11.296l.25-1.34c.613-3.222 1.339-6.383 2.281-9.526 1.567.481 3.015 1.084 4.492 1.782 17.683 8.289 38.398 9.34 57.625 9.395l1.215.006c4.516.017 8.966-.114 13.459-.57 3.566-.362 7.133-.531 10.712-.678a958.868 958.868 0 0 0 14.997-51.642c.234-.9.47-1.8.707-2.7 2.837-10.816 5.167-21.722 6.678-32.809 2.158-15.641 5.399-30.957 9.418-46.22.288-1.094.572-2.19.855-3.285.424-1.637.852-3.272 1.284-4.906.154-.58.306-1.161.458-1.742 1.284-4.9 2.97-9.613 5.247-14.149l.379-.757c1.418-2.738 3.207-5.174 5.066-7.625l.672-.918a96.045 96.045 0 0 1 1.621-2.139l.46-.63c4.284-5.497 11.087-8.64 17.188-11.621l1.178-.582 1.107-.53.995-.481c.852-.294.852-.294 1.998.088l-1.146.764c-1.378 2.535-1.159 6.377-.502 9.122.881 2.175 2.178 3.586 4.323 4.621 4.009 1.553 7.971.893 11.845-.751 7.134-3.265 14.076-7.821 19.315-13.726 5.7-6.35 11.566-7.392 19.087-3.374Z" style="stroke-width:1px" transform="translate(12.788 .504)"/><path fill="#ED6632" d="M397.137 139.669c5.436 4.89 8.897 11.667 10.849 18.64l.293 1.038c1.345 4.871 2.369 9.822 3.42 14.763 1.628 7.609 3.741 14.826 7.031 21.89 4.818 10.351 9.266 22.368 5.177 33.725-2.17 5.158-5.544 8.681-10.645 10.973-1.15.452-2.075.749-3.321.749.394-.994.795-1.977 1.231-2.952 3.202-7.246 2.667-15.11.68-22.649-.004.265-.012.53-.016.803-.439 18.692-.439 18.692-6.097 24.798-2.578 1.935-6.019 2.305-9.146 2.533-1.669.126-3.33.324-4.992.524l-.942.104c-5.925.743-8.84 3.933-12.754 8.203-1.854 1.944-3.992 3.513-6.174 5.067l-.666.487c-2.817 2.043-5.722 3.743-8.862 5.245-.299.142-.597.285-.904.433-3.919 1.807-7.804 2.592-12.016 1.286-2.096-.845-3.504-2.084-4.681-4.012-.752-1.781-.893-3.439-.884-5.35l-.018-.794c-.002-1.802.318-3.035 1.284-4.555l1.146-.764a42.639 42.639 0 0 0-1.982-6.902l-.349-.938c-1.148-3.042-2.44-6.014-3.783-8.973a351.206 351.206 0 0 1-4.203.764l-1.313.239c-3.984.419-7.435.253-11.01-1.672-3.165-2.59-5.123-6.086-5.918-10.113-.169-1.797-.129-3.6-.072-5.402.046-2.004-.232-3.668-.792-5.596l.621-.184c.653-.194 1.306-.391 1.958-.589.906-.272 1.813-.536 2.723-.794 4.554-1.247 4.554-1.247 8.454-3.783.309-.993.309-.993.382-1.91-2.552.11-4.916.533-7.38 1.17-3.696.931-7.727 1.49-11.344-.024-.47-.941-.366-1.4-.238-2.436l.104-.893c.126-.819.301-1.603.517-2.403l-.979-.183c-2.633-.542-4.962-1.1-7.046-2.874-.614-1.228-.536-2.074-.382-3.439 1.214-2.354 3.394-4.247 5.194-6.164 2.672-2.876 4.806-5.64 4.872-9.688l.034-1.455.013-.761c.06-3.456.124-6.884.682-10.303.311-2.102.164-3.409-.57-5.378-1.327-4.685-.007-9.071 2.222-13.224 5.567-9.356 18.029-14.305 28.146-16.901a55.116 55.116 0 0 1 4.114-.702l.764-.114c16.606-2.455 34.567.205 47.568 11.44Z" style="stroke-width:1px" transform="translate(12.788 .504)"/><path fill="#FDB17F" d="M145.141 124.522c2.233 1.46 3.331 3.441 4.586 5.732.33-.126.661-.253 1.003-.382 2.89-.819 6.619-.933 9.388.345 2.272 1.382 4.07 2.997 5.036 5.519.717 3.044.677 6.244-.813 9.034-.158.253-.315.507-.476.768l-.465.781c-1.141 1.71-2.363 2.656-4.097 3.757-1.474.947-1.474.947-2.12 2.47.12 1 .336 1.947.568 2.927.307 3.406-.331 5.754-2.15 8.621l-.525.549h-.764l.358 1.386c.533 2.061.835 4.014.774 6.146-.052 5.27.268 8.941 3.602 13.096.944 1.182 1.829 2.406 2.722 3.626.461.626.927 1.249 1.4 1.867 3.27 4.307 3.27 4.307 3.467 6.813-.742 1.668-1.928 2.28-3.535 2.985-1.597.567-3.219 1.051-4.846 1.522-1.197.259-1.197.259-1.649.77a94.781 94.781 0 0 0-.192 3.057c-.139 3.005-.139 3.005-.573 3.439-3.361.503-6.539-.267-9.791-1.051l-1.214-.291c-2.64-.664-5.179-1.499-7.718-2.479.161 1.578.368 2.342 1.603 3.381 3.688 2.39 7.503 4.01 11.771 5.025-.338 2.894-.338 2.894-.597 3.846-.261 1.154-.233 2.238-.167 3.415l.764.764c.237 3.904-1.282 8.38-3.55 11.511-1.619 1.774-3.594 2.847-5.986 3.083-5.759.224-11.498-.406-16.83-2.749l-.27.92c-.503 1.398-1.119 2.675-1.784 4.001-1.785 3.569-3.201 7.119-4.314 10.952-1.611 5.501-1.611 5.501-3.734 7.197l-.643.534c-2.996 1.957-7.1 1.679-10.507 1.048-8.66-2.013-17.132-5.749-23.837-11.66l-.904-.779c-7.785-6.84-7.785-6.84-10.177-11.067l.561-.463c5.627-4.772 8.709-10.177 10.903-17.114l-.716-.332c-1.984-1.053-2.573-2.836-3.222-4.848-.321-1.129-.527-2.252-.715-3.409-1.482-8.962-5.316-17.75-9.297-25.88-3.86-7.903-6.303-16.458-3.627-25.14 2.508-6.688 6.471-12.371 12.776-15.953 2.9-1.704 4.658-3.993 6.711-6.591 5.353-6.269 14.032-10.781 22.162-11.845 4.523-.331 8.786-.052 13.207.955 5.456 1.227 9.167 1.062 14.515-.513 4.565-1.289 9.682-1.849 13.928.704Z" style="stroke-width:1px" transform="translate(12.788 .504)"/><path fill="#251643" d="M272.455 131.687c16.924 14.426 19.748 35.898 22.704 56.755 2.169 15.296 4.583 29.518 11.447 43.474 6.013 12.318 6.013 12.318 5.923 18.272l-.011.905-.013.671c-1.52 0-1.927-.532-3.105-1.48-8.786-6.766-19.474-10.369-30.051-13.337-4.36-1.238-6.954-3.839-9.259-7.727-3.148-6.501-4.874-15.036-3.08-22.115l.211-.877c.514-2.102.514-2.102.959-2.992l.701.054c3.327.144 5.945-.66 8.541-2.776 2.607-2.47 4.403-5.256 5.278-8.741l.263-.931c.434-3.561-.047-6.316-1.672-9.505-1.498-1.741-3.27-2.606-5.564-2.818-2.714.118-5.38 1.915-7.253 3.791-.676.675-.676.675-1.44.675-2.618-4.761-4.669-9.8-4.968-15.285l-.891-.065c-2.002-.452-3.677-1.368-5.485-2.323l-1.171-.615a78.565 78.565 0 0 1-18.511-13.743c-.569-.567-1.145-1.128-1.72-1.69-2.33-2.303-4.223-4.686-5.847-7.547l-.603-1.059c-.444-.789-.88-1.582-1.308-2.38-10.578 8.777-16.852 19.996-18.16 33.681-.097 1.08-.187 2.16-.277 3.24l-.096 1.133c-1.175 13.147-1.175 13.147.574 26.14l.199.795c2.441 9.61 7.124 19.021 15.917 24.271 1.819.903 3.712 1.516 5.664 2.064 1.317 6.016 1.317 6.016 1.146 8.788-2.903 1.434-5.911 2.276-9.021 3.124-12.393 3.396-23.386 7.9-31.982 17.913a30.772 30.772 0 0 1-1.793 1.89c-4.105-8.935 1.047-21.921 3.541-30.77 4.505-16.011 6.38-32.454 8.458-48.912.329-2.607.661-5.214.993-7.821l.166-1.305c.505-3.956 1.007-7.872 2.031-11.734l.296-1.143c2.977-11.201 7.634-21.032 16.995-28.232l.918-.718c14.01-10.42 36.649-9.515 50.356 1.005Z" style="stroke-width:1px" transform="translate(12.788 .504)"/><path fill="#FDB180" d="M226.148 137.514c1.01 1.256 1.729 2.591 2.484 4.012 1.44 2.583 3.197 4.706 5.28 6.8.72.73 1.423 1.474 2.128 2.22 3.537 3.696 7.2 6.757 11.506 9.512l.85.552c4.288 2.772 8.802 5.468 13.67 7.09.305.766.305.766.533 1.772l.267 1.116.275 1.196c.866 3.557 1.954 6.748 3.51 10.054l.383 1.147.922-.712 1.227-.936 1.209-.927c2.345-1.651 4.114-2.426 6.959-2.011 2.395.655 3.641 2 4.895 4.093 1.804 3.477 1.504 7.122.493 10.802-1.385 3.797-4.149 7.461-7.777 9.346-2.042.941-3.79 1.051-6.018.979l-.764-.383-.237 1.298-.312 1.688-.156.854c-.217 1.171-.446 2.289-.824 3.42.037 8.091 1.449 16.909 7.018 23.106 1.632 1.527 3.522 2.467 5.592 3.26-1.491 3.352-3.27 6.071-5.732 8.788l-.881.978c-4.744 4.993-11.126 9.14-17.842 10.868l-.849.221c-6.499 1.561-14.166 1.528-20.167-1.75-3.95-2.583-6.695-5.853-7.884-10.497-.25-1.721-.161-3.432-.14-5.169l5.349-1.911c.083-2.19-.155-4.151-.596-6.298-.168-.962-.168-.962-.168-2.49l-1.456-.239c-4.079-.927-7.084-3.384-10.007-6.257l-.633-.59c-1.7-1.621-2.967-3.319-4.167-5.333l-.548-.911c-2.179-3.712-3.611-7.618-4.874-11.722l-.23-.736c-1.234-4.236-1.543-8.628-1.537-13.02l.002-1.493c.041-4.715.407-9.405.81-14.102l.091-1.1c1.223-14.533 6.741-24.934 17.182-35.028.799-.728.799-.728 1.164-1.557Z" style="stroke-width:1px" transform="translate(12.788 .504)"/><path fill="#0A173D" d="M145.141 124.522c2.233 1.46 3.331 3.441 4.586 5.732.33-.126.661-.253 1.003-.382 2.89-.819 6.619-.933 9.388.345 2.272 1.382 4.07 2.997 5.036 5.519.717 3.044.677 6.244-.813 9.034-.158.253-.315.507-.476.768l-.465.781c-1.141 1.71-2.363 2.656-4.097 3.757-1.474.947-1.474.947-2.12 2.47.12 1 .336 1.947.568 2.927.307 3.406-.331 5.754-2.15 8.621l-.525.549h-.764l-.421-1.356c-1.098-3.457-2.241-6.628-4.164-9.725l-.648.211c-6.229 1.952-12.205 2.547-18.685 2.577-.657.004-1.315.012-1.972.023-5.87.101-10.727-.797-16.142-3.193l.531.715c4.193 5.787 4.717 11.106 3.624 18.056-1.062 6.104-3.678 11.833-8.358 16.001-.671-1.005-1.181-1.98-1.72-3.057-1.689-3.101-4.075-6.431-7.455-7.8-2.669-.786-4.556-.74-7.119.43-3.021 1.65-4.365 3.711-5.328 6.985-.912 4.42.557 8.693 2.707 12.507.534.874.534.874 1.218 1.513.502.503.502.503.502 1.267l.671.334c.535.269 1.067.543 1.594.826l.744.393.737.395c1.03.424 2.032.575 3.132.727-1.177 5.569-3.341 10.511-8.24 13.756-2.937 1.713-5.577 2.233-8.955 1.911-1.904-.635-3.164-1.731-4.203-3.439-.797-1.916-1.264-3.873-1.596-5.915-1.482-8.962-5.316-17.75-9.297-25.88-3.86-7.903-6.303-16.458-3.627-25.14 2.508-6.688 6.471-12.371 12.776-15.953 2.9-1.704 4.658-3.993 6.711-6.591 5.353-6.269 14.032-10.781 22.162-11.845 4.523-.331 8.786-.052 13.207.955 5.456 1.227 9.167 1.062 14.515-.513 4.565-1.289 9.682-1.849 13.928.704Z" style="stroke-width:1px" transform="translate(12.788 .504)"/><path fill="#FEB17F" d="m328.171 142.481.184 1.414c.528 3.823 1.218 7.291 2.873 10.814l.485 1.049c6.189 12.288 18.556 19.363 30.675 24.661 1.041.304 1.48.327 2.465-.109.609-.556.609-.556 1.171-1.242 1.912-1.99 4.506-3.408 7.308-3.534 3.413.447 5.628 1.828 7.952 4.394 2.209 3.355 2.277 7.18 1.911 11.081-.335 1.291-.818 2.317-1.529 3.439l-.668 1.194c-1.908 2.438-4.297 4.523-7.356 5.302-1.025.047-2.03.027-3.057 0l.031.691c.206 5.463-.191 10.176-1.941 15.357l-.266.82c-1.963 5.97-4.807 10.81-9.287 15.229l-.728.727c-1.699 1.574-3.671 2.523-5.768 3.476 5.537 5.863 14.277 8.586 22.162 9.171 1.593.042 3.184.036 4.777.024l1.284-.006c1.036-.004 2.073-.01 3.11-.018-3.667 4.355-7.636 8.11-12.228 11.463l-.678.499c-2.812 2.038-5.716 3.734-8.85 5.233-.299.142-.597.285-.904.433-3.919 1.807-7.804 2.592-12.016 1.286-2.096-.845-3.504-2.084-4.681-4.012-.752-1.781-.893-3.439-.884-5.35l-.018-.794c-.002-1.802.318-3.035 1.284-4.555l1.146-.764a42.639 42.639 0 0 0-1.982-6.902l-.349-.938c-1.148-3.042-2.44-6.014-3.783-8.973a351.206 351.206 0 0 1-4.203.764l-1.313.239c-3.984.419-7.435.253-11.01-1.672-3.165-2.59-5.123-6.086-5.918-10.113-.169-1.797-.129-3.6-.072-5.402.046-2.004-.232-3.668-.792-5.596l.621-.184c.653-.194 1.306-.391 1.958-.589.906-.272 1.813-.536 2.723-.794 4.554-1.247 4.554-1.247 8.454-3.783.309-.993.309-.993.382-1.91-2.552.11-4.916.533-7.38 1.17-3.696.931-7.727 1.49-11.344-.024-.47-.941-.366-1.4-.238-2.436l.104-.893c.126-.819.301-1.603.517-2.403l-.979-.183c-2.633-.542-4.962-1.1-7.046-2.874-.614-1.228-.536-2.074-.382-3.439 1.214-2.354 3.394-4.247 5.194-6.164 2.653-2.856 4.814-5.622 4.859-9.648a541.623 541.623 0 0 0 .049-2.959c.17-7.06.807-13.085 4.036-19.439l.648-1.336c1.335-2.635 5.702-10.892 9.287-10.892Z" style="stroke-width:1px" transform="translate(12.788 .504)"/><path fill="#FEB27F" d="M144.377 289.975c1.321 1.072 1.854 1.818 2.054 3.511-.151 6.108-4.223 12.757-6.639 18.269 2.691-.381 5.191-.824 7.69-1.91l.819-.347c4.559-1.99 8.816-4.583 13.029-7.212 1.834-1.131 3.7-2.207 5.567-3.284l1.044-.607c4.716-2.704 4.716-2.704 7.387-2.306 1.367 1.087 2.247 2.114 2.675 3.821-.003.885-.003.885-.382 1.91-.84.816-1.797 1.435-2.771 2.078l-.877.597c-.625.423-1.252.844-1.879 1.262a204.66 204.66 0 0 0-2.85 1.949c-5.053 3.473-10.309 6.48-15.696 9.399l.382 1.146c5.644-2.756 10.996-5.652 16.059-9.382 1.144-.84 2.296-1.668 3.447-2.498.87-.627 1.738-1.255 2.607-1.883l.803-.58c.51-.368 1.018-.737 1.526-1.107 1.93-1.398 3.603-2.355 5.983-2.724 1.29.215 1.29.215 2.436 1.194.764 1.314.764 1.314.812 2.651-.84 2.614-2.449 3.792-4.673 5.205-1.425.924-2.804 1.907-4.187 2.891l-1.715 1.211a421.9 421.9 0 0 0-2.464 1.747c-4.286 3.064-8.769 5.689-13.374 8.243l-1.005.558-2.434 1.352v1.146c8.573-2.583 17.066-8.986 23.926-14.615.915-.672 1.771-1.023 2.821-1.433l.383-.764c1.05 1.083 1.499 1.713 1.719 3.224-.426 3.036-2.952 5.2-5.273 7.017a208.564 208.564 0 0 1-3.324 2.368l-1.474 1.066c-4.296 3.098-8.726 5.957-13.353 8.539l-1.27.712-1.101.597-.761.549v1.147c1.78-.523 3.299-1.278 4.871-2.245l.743-.452c4.683-2.882 9.214-5.92 13.485-9.387a44.683 44.683 0 0 1 3.445-2.436c-.253 3.154-1.631 4.73-3.821 6.878-.286.28-.571.559-.864.848-3.172 2.982-6.652 5.457-10.217 7.94l-.841.595c-7.963 5.619-15.949 9.666-25.588 11.217-2.079.348-3.846.89-5.668 1.944l-.687.397c-1.08.674-1.654 1.204-2.37 2.278-1.335-.445-1.408-.655-2.102-1.815-1.319-2.061-2.881-3.878-4.474-5.726-.956-1.11-1.873-2.25-2.786-3.397-1.579-1.951-3.313-3.679-5.124-5.411-.799-.846-.799-.846-.799-1.61l-.645-.287c-1.046-.565-1.906-1.216-2.794-2.006v-.764a38.467 38.467 0 0 1 1.935-1.624l1.162-.943a39.876 39.876 0 0 1 1.914-1.433c2.793-2.031 3.399-5.505 4.396-8.645 1.978-6.192 4.793-10.868 8.726-16 .938-1.234 1.85-2.486 2.764-3.739l1.034-1.41c.495-.676.99-1.352 1.482-2.03a312.8 312.8 0 0 1 1.377-1.885l.785-1.079c1.468-1.765 2.615-2.885 4.994-2.48Z" style="stroke-width:1px" transform="translate(12.788 .504)"/><path fill="#FDB27F" d="M335.331 276.264c1.509.408 2.521 1.155 3.706 2.129l.665.532c.429.346.858.694 1.284 1.043.435.353.879.694 1.328 1.029 1.812 1.4 3.12 3.205 4.506 5.008 1.581 2.057 3.286 3.972 5.042 5.881.687.775 1.369 1.554 2.048 2.336.43.495.865.988 1.301 1.477l.639.724.572.642c.407.552.407.552.407 1.316h.764a78.303 78.303 0 0 0-1.365-6.609c-1.668-6.658-1.668-6.658-.581-9.057.418-.645.418-.645 1.182-1.528 1.89.176 2.835.598 4.203 1.91a30.325 30.325 0 0 1 1.463 2.896l.392.863c1.335 2.969 2.582 5.976 3.798 8.995.368.913.741 1.824 1.114 2.735 1.92 4.723 3.608 9.312 4.171 14.411l.139 1.138c.213 1.759.406 3.519.587 5.282l.094.888c.082.781.157 1.561.231 2.342.413 2.312 1.494 3.863 2.985 5.635 1.457 1.732 1.457 1.732 1.457 2.579-.577.428-.577.428-1.409.931-3.556 2.293-6.759 5.181-9.672 8.239-1.911 1.911-1.911 1.911-2.555 2.529a28.843 28.843 0 0 0-3.941 4.731c-1.261-1.155-2.041-2.356-2.914-3.821-1.846-2.86-4.374-4.374-7.21-6.154-6.267-3.943-11.531-9.679-15.859-15.626l-.478-.652c-4.306-5.948-10.682-14.931-9.457-22.657.529-1.154 1.02-1.783 1.91-2.674l-.417-.715c-1.215-2.217-1.949-4.006-1.493-6.545.454-1.147.454-1.147 1.146-1.911 1.027-.31 1.027-.31 1.911-.382l-.573-.764c-.715-1.429-.898-2.651-.574-4.203.677-1.292 1.521-2.117 2.866-2.723 1.354.068 1.914.65 2.866 1.576l.382.764.287-1.432c.456-1.784.982-3.196 3.052-3.108Z" style="stroke-width:1px" transform="translate(12.788 .504)"/><path fill="#0A173E" d="M188.32 422.949c1.566.481 3.014 1.084 4.491 1.782 17.683 8.289 38.398 9.34 57.625 9.395l1.215.006c4.943.019 9.793-.2 14.71-.696a51.178 51.178 0 0 1 6.166-.218l.989.011c.769.008 1.538.022 2.306.037-.536 1.626-1.072 3.252-1.611 4.877l-.549 1.66a947.3 947.3 0 0 1-.787 2.381l-.48 1.45c-.394 1.095-.394 1.095-.776 1.477-1.125.038-2.242.05-3.368.046l-1.084.001c-1.208.001-2.416-.001-3.624-.003h-2.586c-2.349 0-4.697-.002-7.046-.005-2.451-.002-4.903-.002-7.354-.003-4.117-.001-8.235-.003-12.352-.007l-12.725-.008h-.791l-3.932-.001c-10.88-.004-21.76-.011-32.641-.02l.355-2.891.099-.816c.315-2.547.743-5.067 1.218-7.589l.25-1.34c.613-3.222 1.339-6.383 2.282-9.526Z" style="stroke-width:1px" transform="translate(12.788 .504)"/><path fill="#122A66" d="m318.236 285.772 1.529.382a124.776 124.776 0 0 1-2.245 12.036 215.21 215.21 0 0 0-2.269 10.724l-.239 1.286c-1.746 9.621-1.766 19.936.549 29.449.151.662.3 1.323.447 1.986.309 1.38.624 2.759.943 4.137 3.293 14.341 3.293 14.341 3.578 20.625l.063 1.244c.444 10.292-.894 20.395-2.179 30.589-.246 1.967-.486 3.935-.726 5.902-.521 4.264-1.046 8.527-1.584 12.788l-.149 1.2-.14 1.102-.12.957c-.125.814-.3 1.593-.515 2.388h-1.91c.266-3.66.691-7.293 1.145-10.933l.224-1.816.469-3.785.595-4.801a7354.857 7354.857 0 0 1 .682-5.512c.416-3.362.847-6.721 1.308-10.077 1.544-12.268.38-24.227-2.274-36.226l-.23-1.042c-.697-3.145-1.396-6.287-2.186-9.409-2.515-10.345-1.935-21.831.267-32.178l.168-.8c1.15-5.473 2.374-10.929 3.725-16.356l.193-.777c.262-1.043.541-2.062.881-3.083Z" style="stroke-width:1px" transform="translate(12.788 .504)"/><path fill="#251A4C" d="m130.239 353.405 1.528.382c-.337 1.743-1.346 2.709-2.545 3.954l-.707.746c-3.612 3.782-7.343 7.449-11.053 11.134-1.136 1.129-2.273 2.258-3.407 3.388-.7.697-1.401 1.393-2.103 2.088-1.708 1.702-3.343 3.422-4.876 5.284l-.528.536h-.764v.764c-.501.492-.501.492-1.23 1.087-1.437 1.222-2.78 2.507-4.108 3.845l-.612.616-1.883 1.903c-2.541 2.572-5.079 5.106-7.833 7.451-.575.533-1.148 1.066-1.72 1.601-7.619 6.851-18.569 15.167-29.231 15.594l-1.384.06c-5.638.165-10.194-1.134-14.989-4.193-.822-.834-.822-.834-.942-2.076l.12-1.051.745.518c5.795 3.878 11.819 5.243 18.715 4.229 6.484-1.435 12.284-4.675 17.604-8.568l.647-.473c7.839-5.789 14.764-12.578 21.599-19.494 1.896-1.914 3.795-3.792 5.868-5.518.594-.484.594-.484.927-1.262h.764v-.765c.537-.445 1.076-.889 1.621-1.324.704-.614 1.284-1.263 1.886-1.977 1.5-1.736 3.103-3.35 4.733-4.963l.923-.919c.965-.96 1.931-1.918 2.897-2.877 1.276-1.265 2.549-2.531 3.823-3.798l.875-.867a72.973 72.973 0 0 0 4.64-5.055Z" style="stroke-width:1px" transform="translate(12.788 .504)"/><path fill="#FCFBFA" d="m423.315 412.632 2.675.382 7.26.382v31.715h-3.439c-.619-3.049-1.242-6.099-1.861-9.149-.29-1.418-.577-2.835-.867-4.252-1.296-6.352-2.58-12.705-3.768-19.078Z" style="stroke-width:1px" transform="translate(12.788 .504)"/><path fill="#122A66" d="m392.747 307.17 1.911.382c1.429 4.072 2.584 8.157 3.606 12.347l.452 1.832a765.78 765.78 0 0 1 3.584 15.243l.394 1.743a3626.312 3626.312 0 0 1 2.075 9.242l.181.798c.236 1.068.407 2.022.407 3.12l.664.313c.88.459 1.66.975 2.471 1.548l.934.658c.328.233.657.465.993.705l2.082 1.466 1.043.734c1.112.78 2.232 1.55 3.355 2.316.982.67 1.961 1.345 2.939 2.022.577.399 1.158.797 1.735 1.193.966.666 1.929 1.338 2.888 2.013.306.208.612.415.925.63l.844.598c.249.173.497.347.757.526.531.562.531.562.531 2.091-1.417.217-1.914-.003-3.137-.802-.478-.374-.951-.752-1.421-1.133a135.925 135.925 0 0 0-7.62-5.493c-5.865-3.97-11.508-8.078-16.936-12.632-.904-.754-1.821-1.49-2.743-2.222-3.239-2.582-6.403-5.2-9.439-8.018a217.192 217.192 0 0 0-3.147-2.848l-1.791-1.624a550.31 550.31 0 0 0-.844-.754l-.756-.703-.661-.604c-.414-.614-.414-.614-.289-1.454l.257-.689c1.661.179 2.421 1.172 3.535 2.341 1.436 1.481 2.893 2.897 4.463 4.234.937.812 1.841 1.657 2.749 2.5 2.204 2.01 4.524 3.84 6.884 5.66 1.246.964 2.482 1.94 3.72 2.914l1.358 1.067.982.772c-4.146-18.975-4.146-18.975-9.061-37.758l-.352-1.223-.308-1.042c-.214-.863-.214-.863-.214-2.009Z" style="stroke-width:1px" transform="translate(12.788 .504)"/><path fill="#0D163D" d="m246.4 200.18.764.382c-1.733 7.643-1.733 7.643-4.585 10.251l-.765.448-1.146-.382c-4.4-.354-8.336.249-11.845 3.056-.701.805-.701.805-1.147 1.529-2.055-.125-3.241-1.225-4.585-2.675-2.32-2.94-4.585-7.224-4.585-11.081 1.13.353 2.188.71 3.24 1.257 5.573 2.75 13.335 2.128 19.176.409 1.719-.7 3.204-1.605 4.699-2.7l.779-.494Z" style="stroke-width:1px" transform="translate(12.788 .504)"/><path fill="#251A4C" d="M45.029 263.992c9.271 6.06 15.367 15.742 17.786 26.535.194.977.375 1.955.549 2.936l.197 1.101c.714 4.097 1.235 8.214 1.72 12.343l.145 1.231c1.409 11.918 2.375 23.874 3.007 35.858l.048.891c.229 4.37.271 8.728.239 13.103h-1.529c-.616-1.231-.49-2.586-.533-3.941l-.076-2.051-.041-1.106c.141-44.743.141-44.743-19.275-82.686a165.69 165.69 0 0 0-3.001-2.686l.764-1.528Z" style="stroke-width:1px" transform="translate(12.788 .504)"/><path fill="#122A66" d="M358.74 347.291c.682.068.682.068 1.528.383.656.846.656.846 1.312 1.969.369.617.369.617.744 1.248l.389.664c.67 1.147 1.358 2.283 2.046 3.419l.417.688c1.715 2.811 3.652 5.445 5.622 8.08.695.938 1.368 1.892 2.04 2.848 5.919 8.408 12.548 16.85 20.013 23.935.661.709.661.709.661 1.473l1.146.382v.764l.624.241c1.256.727 2.159 1.75 3.149 2.793 6.753 6.909 15.457 12.663 24.502 16.072l-.382 1.528c-2.327-.192-4.123-.936-6.21-1.958l-.974-.471c-2.434-1.195-4.738-2.493-6.953-4.067l-1.083-.768c-7.143-5.221-13.678-11.352-19.551-17.955-.355-.385-.712-.77-1.068-1.153-1.957-2.103-3.846-4.244-5.647-6.483a235.35 235.35 0 0 0-2.057-2.52c-3.215-3.893-6.239-7.907-9.187-12.006l-.676-.938a205.161 205.161 0 0 1-9.166-13.945 96.846 96.846 0 0 0-1.194-1.912c-.427-.782-.427-.782-.308-1.666l.263-.645Z" style="stroke-width:1px" transform="translate(12.788 .504)"/><path fill="#261A4C" d="M112.662 330.861v1.528c-.678.56-.678.56-1.672 1.123-1.995 1.198-3.877 2.494-5.755 3.869a601.093 601.093 0 0 1-10.288 7.298c-1.024.713-2.047 1.428-3.07 2.144a1137.719 1137.719 0 0 1-22.624 15.394 417.64 417.64 0 0 0-5.713 3.87c-2.392 1.649-4.785 3.293-7.239 4.847l-1.159.738c-.943.456-.943.456-2.089.074.135-1.016.278-1.437 1.061-2.123l.908-.583 1.047-.683 1.163-.742 1.859-1.213c.448-.292.895-.585 1.344-.876 2.906-1.893 5.773-3.845 8.643-5.792l1.68-1.139 3.293-2.231 2.936-1.989a986.964 986.964 0 0 0 15.805-10.905l.835-.588c1.066-.752 2.132-1.505 3.197-2.259 3.055-2.158 6.114-4.308 9.187-6.439a87.8 87.8 0 0 0 1.93-1.403l1.009-.743.907-.682c1.023-.566 1.654-.596 2.805-.495Z" style="stroke-width:1px" transform="translate(12.788 .504)"/><path fill="#D57701" d="m199.019 275.073 1.528.382c.075 2.168-.207 4.142-.615 6.268l-.395 2.135-.21 1.123c-2.03 10.935-3.856 21.72-3.365 32.888l.038.963c.258 5.296 1.412 10.486 2.488 15.664l.18.883c.113.547.227 1.094.344 1.64.369 1.81.436 3.469.389 5.305h-1.529c-4.283-15.624-5.139-30.609-2.674-46.617.043-.288.088-.577.134-.874 1.023-6.623 2.069-13.252 3.687-19.76Z" style="stroke-width:1px" transform="translate(12.788 .504)"/><path fill="#F27534" d="M255.952 220.813c.365.969.433 1.4.053 2.38-3.89 6.438-9.869 10.188-16.865 12.523-2.792.676-5.317.54-8.025-.382-.128-.669-.256-1.337-.382-2.007l-.214-1.128c-.168-1.069-.168-1.069-.168-2.597l1.177.027c9.425.153 17.079-2.979 24.424-8.816Z" style="stroke-width:1px" transform="translate(12.788 .504)"/><path fill="#FCFAF9" d="M218.124 199.033c1.438.147 2.819.325 4.227.663 6.625 1.568 13.261 1.037 19.928-.03 1.649-.254 3.218-.297 4.885-.251-3.68 4.026-8.274 5.241-13.597 5.511-4.613.135-8.641.176-12.768-2.072a88.173 88.173 0 0 0-1.648-.692l-1.027-.454v-2.675Z" style="stroke-width:1px" transform="translate(12.788 .504)"/><path fill="#1E234A" d="M330.846 205.529h.382c-.244 3.423-1.397 5.927-3.821 8.406-2.313 1.922-6.5 3.822-9.553 3.822l-.154-.936-.204-1.238-.201-1.222a98.392 98.392 0 0 0-.587-3.1l.621-.184c.653-.194 1.306-.391 1.958-.589.906-.272 1.813-.536 2.723-.794 4.79-1.356 4.79-1.356 8.836-4.165Z" style="stroke-width:1px" transform="translate(12.788 .504)"/><path fill="#1D2349" d="m137.117 207.822.745.504c3.965 2.614 7.988 4.549 12.629 5.609-.277 2.443-.69 4.846-1.147 7.261-4.551-1.37-8.411-3.906-10.808-8.125-.825-1.742-1.256-3.331-1.419-5.249Z" style="stroke-width:1px" transform="translate(12.788 .504)"/><path fill="#261A4C" d="m148.031 346.121.931.024-.081.887a728.327 728.327 0 0 0-1.468 19.017l-.052.807c-.172 2.704-.341 5.408-.506 8.112l-.144 2.335c-.06.966-.119 1.932-.177 2.899l-.081 1.303-.069 1.142c-.096.945-.096.945-.479 2.091l-1.528-.382c-.102-4.885.206-9.742.501-14.616l.078-1.294c.331-5.545.702-11.084 1.188-16.617l.072-.833c.423-4.841.423-4.841 1.815-4.875Z" style="stroke-width:1px" transform="translate(12.788 .504)"/><path fill="#D67801" d="M291.871 288.829c.716.095.716.095 1.528.382.896 1.245 1.007 2.692 1.242 4.179 1.066 6.367 2.444 12.679 3.875 18.973l.238 1.046c.39 1.718.783 3.435 1.181 5.151l.435 1.9.206.877c.322 1.416.546 2.721.465 4.174l-1.528.382c-.964-2.712-1.638-5.427-2.245-8.239l-.3-1.37a946.387 946.387 0 0 1-2.334-11.048 393.002 393.002 0 0 0-1-4.705c-1.678-7.733-1.678-7.733-1.763-11.702Z" style="stroke-width:1px" transform="translate(12.788 .504)"/><path fill="#F37433" d="M110.751 227.691c1.597.591 3.054 1.374 4.538 2.197 2.855 1.559 5.794 2.778 8.836 3.917-.515 1.666-1.165 3.177-1.958 4.729l-.624 1.227-.475.922c-3.888-1.397-6.833-5.015-8.725-8.582-1.592-3.384-1.592-3.384-1.592-4.41Z" style="stroke-width:1px" transform="translate(12.788 .504)"/><path fill="#0C143B" d="M149.727 166.554c.764.764.764.764.835 1.744-.071.931-.071.931-.453 1.313-.652.037-1.304.071-1.956.092-4.299.147-8.141.992-11.8 3.365-.947.451-1.638.455-2.675.364-.382-.382-.382-.382-.43-1.552.304-1.803 1.433-2.731 2.804-3.848 4.221-2.83 9.026-3.716 13.675-1.478Z" style="stroke-width:1px" transform="translate(12.788 .504)"/><path fill="#F37433" d="M352.244 226.545c.29 2.345-.681 3.836-1.839 5.779l-.565.967c-1.69 2.798-3.658 5.12-6.003 7.392-1.189-1.398-1.839-2.963-2.555-4.633l-.371-.843c-.895-2.064-.895-2.064-.895-2.93l.899-.227c3.125-.865 8.723-5.505 11.329-5.505Z" style="stroke-width:1px" transform="translate(12.788 .504)"/><path fill="#FBFBFA" d="M314.033 423.713c.402 1.261.361 2.222.18 3.526l-.162 1.205-.183 1.294-.182 1.329c-.192 1.402-.388 2.804-.584 4.205l-.392 2.851c-.32 2.33-.644 4.659-.97 6.988h-4.585c-.432-4.794.349-7.99 2.635-12.199.679-1.275 1.276-2.585 1.879-3.897l.628-1.34a146.61 146.61 0 0 0 1.736-3.962Z" style="stroke-width:1px" transform="translate(12.788 .504)"/><path fill="#EF6C32" d="M226.53 174.96c.64.11 1.278.236 1.911.382-.172 2.271-.597 3.722-1.791 5.708l-.413.702a48.351 48.351 0 0 1-2.549 3.812c-1.197 1.724-1.352 3.381-1.361 5.445 1.148.765 1.8.953 3.129 1.194l1.043.194.795.14c.147.634.273 1.271.382 1.911-.622.623-1.316.462-2.173.478-2.139-.025-3.47-.544-5.133-1.906-1.17-1.409-.994-2.693-.94-4.463.55-3.383 2.759-6.193 4.673-8.957.721-1.143 1.241-2.342 1.754-3.589.291-.669.291-.669.673-1.051Z" style="stroke-width:1px" transform="translate(12.788 .504)"/><path fill="#EF7437" d="M184.498 309.081v1.146a28.855 28.855 0 0 1-2.34 1.743l-1.491 1.032-.772.529c-.686.476-1.364.962-2.037 1.456a129.756 129.756 0 0 1-15.713 9.88l-1.045.563-.973.507-.861.451c-.751.27-.751.27-1.897-.113.085-.699.085-.699.382-1.528.73-.54.73-.54 1.688-1.031l1.062-.559 1.142-.583a741.3 741.3 0 0 0 2.326-1.235l1.144-.609c4.275-2.327 8.205-5.251 12.161-8.073.996-.71 1.996-1.416 2.997-2.119l.87-.614c1.193-.806 1.927-.881 3.357-.843Z" style="stroke-width:1px" transform="translate(12.788 .504)"/><path fill="#F1652E" d="m238.017 210.449 1.423-.003c1.228.05 1.228.05 2.374.433-1.235 2.749-3.756 4.224-6.452 5.383-2.774.812-5.813.814-8.45-.416l.764-.382.311-.693c1.269-2.337 4.092-3.328 6.505-4.124 1.18-.215 2.327-.201 3.525-.198Z" style="stroke-width:1px" transform="translate(12.788 .504)"/><path fill="#EF7336" d="m177.621 301.438.382.765 1.146.382a1302.927 1302.927 0 0 1-7.26 5.349l-.883.648c-3.767 2.754-7.597 5.205-11.727 7.376l-.773.412c-3.199 1.692-3.199 1.692-4.576 2.263l-.764-.382c.066-.69.066-.69.382-1.528.851-.603.851-.603 1.985-1.188l1.271-.674.68-.354c5.005-2.611 9.627-5.618 14.2-8.931 1.956-1.411 3.929-2.8 5.937-4.138Z" style="stroke-width:1px" transform="translate(12.788 .504)"/><path fill="#0C113A" d="M250.603 164.643c.985.71 1.803 1.441 2.675 2.293l-.382 1.528c-1.53.106-2.373-.139-3.678-.931-2.038-1.221-3.662-1.441-6.018-1.457l-.875-.023c-1.803-.013-2.815.204-4.332 1.265-1.074.072-1.074.072-1.91 0l-.764-1.528c3.475-4.002 10.901-3.586 15.284-1.147Z" style="stroke-width:1px" transform="translate(12.788 .504)"/><path fill="#EF6A31" d="M328.585 165.721c1.807 1.112 3.817 2.445 4.507 4.514l.046.904-.764.764c-1.003-.143-1.003-.143-1.91-.382l-.382-1.146c-.649-.421-.649-.421-1.529-.764l-1.146-.621c-1.928-.824-4.059-.749-6.114-.526-.515.243-1.027.495-1.528.765-.86-.144-.86-.144-1.529-.382l-.382-1.911c3.161-2.177 7.084-2.847 10.731-1.215Z" style="stroke-width:1px" transform="translate(12.788 .504)"/><path fill="#F07538" d="M182.206 319.015c-.075 1.437-.341 1.872-1.402 2.883-.444.342-.893.679-1.345 1.01l-.732.554c-.747.561-1.5 1.114-2.253 1.667l-1.263.948c-4.417 3.272-9.314 6.885-14.403 8.987l-1.147-.382c.06-.686.06-.686.383-1.529.871-.603.871-.603 2.101-1.241 6.235-3.375 12.268-7.272 17.768-11.75 1.431-1.147 1.431-1.147 2.293-1.147Z" style="stroke-width:1px" transform="translate(12.788 .504)"/><path fill="#0C143B" d="M322.75 177.492c1.218.143 1.218.143 2.125.812.938 1.876.925 3.768.621 5.827-.446.857-.843 1.608-1.528 2.293-1.099.119-1.099.119-2.293 0-1.398-1.351-1.503-2.661-1.624-4.538.019-1.967.566-4.11 2.699-4.394Z" style="stroke-width:1px" transform="translate(12.788 .504)"/><path fill="#EF6B32" d="M93.557 181.456c1.604-.241 2.524.027 3.821.932a14.122 14.122 0 0 1 4.967 8.239c.08 1.166.055 2.268 0 3.439h-1.91a16.656 16.656 0 0 1-1.075-3.367c-.77-3.182-2.621-5.157-5.35-6.855l-.836-.477.383-1.911Z" style="stroke-width:1px" transform="translate(12.788 .504)"/><path fill="#EE7237" d="M332.374 280.04h.764a33.5 33.5 0 0 1 1.362 1.863c1.045 1.477 2.115 2.852 3.343 4.18 1.557 1.687 2.969 3.453 4.373 5.266a144.313 144.313 0 0 0 4.443 5.404c.463.541.923 1.084 1.382 1.628l.716.833.43.696-.382 1.146c-3.428-1.458-5.801-5.629-7.986-8.525a188.536 188.536 0 0 0-5.268-6.624c-3.177-3.856-3.177-3.856-3.177-5.867Z" style="stroke-width:1px" transform="translate(12.788 .504)"/><path fill="#0C1139" d="M247.355 175.414c1.395.722 2.099 1.236 2.866 2.603-.096.884-.096.884-.382 1.529-1.337-.163-2.351-.41-3.583-.979-1.767-.701-3.345-.965-5.162-.277l-.688.324c-1.333.579-1.828.617-3.177.167 0-1.528 0-1.528.545-2.082l.721-.473.712-.482c2.33-1.342 5.652-1.162 8.148-.33Z" style="stroke-width:1px" transform="translate(12.788 .504)"/><path fill="#070E37" d="M148.007 179.092c.976.54 1.786 1.104 2.484 1.982v1.529c-1.194.286-1.194.286-2.675.382l-1.099-.741c-1.387-.915-2.177-1.03-3.803-.97-.948.208-1.364.509-2.071 1.162l-1.051.931c-1.099-.072-1.099-.072-1.911-.382.115-1.338.366-1.891 1.242-2.938 2.51-2.11 5.934-2.378 8.884-.955Z" style="stroke-width:1px" transform="translate(12.788 .504)"/><path fill="#EF7236" d="M327.025 286.154c3.109 1.38 4.995 4.847 6.965 7.505a179.965 179.965 0 0 0 4.843 6.199c3.476 4.289 3.476 4.289 3.476 5.784-1.3-.216-1.83-.569-2.643-1.596l-.611-.76-.639-.821-.669-.843a329.096 329.096 0 0 1-1.934-2.476l-.928-1.197c-1.925-2.532-3.755-5.131-5.573-7.741l-.566-.809-.504-.724c-.471-.665-.471-.665-1.217-1.375v-1.146Z" style="stroke-width:1px" transform="translate(12.788 .504)"/><path fill="#10133B" d="m221.945 163.497.764.764c-.143 1.003-.143 1.003-.382 1.911-1.806.584-2.561.056-4.203-.764-1.953-.217-3.257.183-5.018.916-.969.312-1.675.175-2.624-.152.123-1.147.375-1.522 1.218-2.341 3.261-2.174 6.803-1.932 10.245-.334Z" style="stroke-width:1px" transform="translate(12.788 .504)"/><path fill="#EF6930" d="m375.552 181.838.383 1.911-.826.534c-2.368 1.614-3.992 3.11-5.465 5.578-.587.766-.587.766-1.4 1.09l-.716.058c-.382-.382-.382-.382-.489-1.421.216-2.528 2.202-4.522 3.967-6.238 1.503-1.221 2.541-1.812 4.546-1.512Z" style="stroke-width:1px" transform="translate(12.788 .504)"/><path fill="#12133A" d="M220.417 175.342c.67.55.67.55 1.146 1.147.071 1.027.071 1.027 0 1.91-1.427-.19-2.221-.334-3.439-1.146-1.941-.262-3.902-.405-5.541.788l-.955.74-1.146-.382c.085-1.499.366-1.895 1.481-2.961 2.679-1.929 5.595-1.442 8.454-.096Z" style="stroke-width:1px" transform="translate(12.788 .504)"/><path fill="#F06C31" d="M278.115 184.131c.09.873.09.873 0 1.91-.615.692-.615.692-1.433 1.314-1.352 1.1-2.262 2.137-3.153 3.654l-.668 1.098-.478.812-1.91-.382c.139-2.64 1.583-4.987 3.394-6.855 2.418-2.1 2.418-2.1 4.248-1.551Z" style="stroke-width:1px" transform="translate(12.788 .504)"/><path fill="#EF7336" d="M325.878 296.089c1.544.267 2.054.915 2.964 2.182l.523.755.554.778c.38.534.757 1.069 1.134 1.606.687.977 1.384 1.946 2.081 2.915.474.661.945 1.325 1.415 1.988.569.8 1.145 1.594 1.728 2.383l.754 1.03.661.888.414.759-.382 1.147c-1.435-.567-2.035-1.324-2.894-2.587l-.769-1.118-.803-1.191-.824-1.206c-.54-.791-1.08-1.582-1.617-2.374a190.776 190.776 0 0 0-1.874-2.697l-.48-.68-1.208-1.703c-.594-.936-1.004-1.834-1.377-2.875Z" style="stroke-width:1px" transform="translate(12.788 .504)"/><path fill="#0A0E37" d="m243.128 163.067.847.011c.681.009 1.362.022 2.043.037l-.382.764h-4.586l-.382 1.147h4.585v.382l-1.102.126-1.453.184-1.437.175c-1.343.276-2.132.69-3.268 1.425-1.074.072-1.074.072-1.91 0l-.764-1.528c2.223-2.56 4.605-2.799 7.809-2.723Z" style="stroke-width:1px" transform="translate(12.788 .504)"/><path fill="#24194B" d="M176.474 365.251c-.214 2.732-.756 5.527-1.91 8.024-.817.336-.817.336-1.529.382-.248-2.668.502-5.188 1.529-7.642 1.146-.764 1.146-.764 1.91-.764Z" style="stroke-width:1px" transform="translate(12.788 .504)"/><path fill="#0F245B" d="M318.618 365.633H319l.383 14.52.382-4.586h.382v7.643c-.764-1.147-.764-1.147-1.147-1.911l-.764 6.114h-.382l.029-.642c.315-7.044.534-14.09.735-21.138Z" style="stroke-width:1px" transform="translate(12.788 .504)"/><path fill="#F3BC83" d="M250.221 162.351c1.768.532 3.304 1.259 4.919 2.149l1.335.731 1.006.559-1.146.382-2.293-1.146c-1.051-.097-1.051-.097-1.911 0v1.146l-3.439-2.293 1.529-.382v-1.146Z" style="stroke-width:1px" transform="translate(12.788 .504)"/><path fill="#F7C285" d="M210.482 160.058c.262.952.382 1.673.382 2.675l.764-.382a72.285 72.285 0 0 1 2.675 0l-.645.477-.883.669-1.051.764-.86.765v1.146l1.911.382-1.529.764c-1.163-.775-1.445-1.033-1.91-2.292-.018-.848-.018-.848.095-1.72l.101-.872c.195-.889.509-1.582.95-2.376Z" style="stroke-width:1px" transform="translate(12.788 .504)"/><path fill="#EF7436" d="M357.593 296.471c1.587 1.493 3.067 3.1 4.204 4.967v1.147c-1.776-.275-2.54-1.27-3.662-2.594-.812-1.266-.755-2.056-.542-3.52Z" style="stroke-width:1px" transform="translate(12.788 .504)"/><path fill="#121A3F" d="m243.056 163.473 1.033.011.782.013v.382l-2.292.382 5.731.765c-1.146 1.146-1.146 1.146-2.485 1.228a62.117 62.117 0 0 1-1.551-.106l-.793-.032c-.76-.053-.76-.053-2.049-.326-.488-.763-.488-.763-.764-1.529l-1.146-.382c1.206-.357 2.279-.422 3.534-.406Z" style="stroke-width:1px" transform="translate(12.788 .504)"/><path fill="#4E2892" d="M67.573 235.334c1.36.453 1.557.823 2.388 1.958 2.248 2.908 4.919 5.416 7.547 7.976-1.146 0-1.146 0-1.849-.572l-.777-.795-.856-.867-.889-.918-.884-.9a430.482 430.482 0 0 1-1.636-1.674l-.751-.769-.813-.863c-.646-.753-.646-.753-1.48-.666v-1.146l-.764-.382.764-.382Z" style="stroke-width:1px" transform="translate(12.788 .504)"/><path fill="#0F1339" d="M140.938 178.781c.541 1.624-.09 2.458-.812 3.941l-.334.645-1.911-.382c.158-1.849.925-2.62 2.293-3.821l.764-.383Z" style="stroke-width:1px" transform="translate(12.788 .504)"/><path fill="#F3BB83" d="M111.898 152.798a26.722 26.722 0 0 1 4.585 1.911c-.119.907-.119.907-.382 1.91l-1.146.764c-.511-.691-1.02-1.384-1.529-2.077l-.86-1.169c-.668-.957-.668-.957-.668-1.339Z" style="stroke-width:1px" transform="translate(12.788 .504)"/><path fill="#10163C" d="M146.288 178.781c.453 1.314.453 1.314.764 2.675l-.382.764-1.147-.764c-.76-.149-1.525-.28-2.292-.382l-.382-1.528h.764v-.765c1.815-.429 1.815-.429 2.675 0Z" style="stroke-width:1px" transform="translate(12.788 .504)"/><path fill="#291D51" d="M62.988 299.146c.764.382.764.382 1.528 1.528.159 1.115.159 1.115.239 2.365l.086 1.258.057.962c-.716-.095-.716-.095-1.528-.382-.918-1.227-.797-2.249-.621-3.725l.128-1.14.111-.866Z" style="stroke-width:1px" transform="translate(12.788 .504)"/><path fill="#4B2BA2" d="M167.304 335.828c.851 1.277 1.194 2.502 1.576 3.965l.21.764c.366 1.383.589 2.629.506 4.06-.965-.965-1.066-1.69-1.385-3.009l-.302-1.215c-.223-1.126-.223-1.126-.223-2.654h-2.675c1.433-1.481 1.433-1.481 2.293-1.911Z" style="stroke-width:1px" transform="translate(12.788 .504)"/><path fill="#15193F" d="M137.117 207.822c.566.364 1.131.731 1.695 1.098l.954.619c.79.575.79.575 1.172 1.34h-1.146v.764h-.764l-.383 1.146c-.935-1.667-1.338-3.067-1.528-4.967Z" style="stroke-width:1px" transform="translate(12.788 .504)"/><path fill="#09133C" d="M306.391 439.38h.382v5.731h-2.293c.291-1.283.715-2.491 1.171-3.725l.419-1.141.321-.865Z" style="stroke-width:1px" transform="translate(12.788 .504)"/><path fill="#EC5721" d="M317.472 155.091c.532 1.596-.112 2.611-.74 4.084l-.337.812c-.275.662-.553 1.322-.834 1.982-.98-1.471-.974-2.459-1.146-4.204l.764.383c1.02-.952 1.742-1.771 2.293-3.057Z" style="stroke-width:1px" transform="translate(12.788 .504)"/><path fill="#FAC174" d="M339.252 327.422c1.446 1.21 2.788 2.405 4.06 3.797.629.679.629.679 1.29 1.17 1.096.051 1.096.051 1.91-.382l-.239.693c-.26.944-.26.944.621 1.982-2.934-1.338-5.553-4.079-7.642-6.496v-.764Z" style="stroke-width:1px" transform="translate(12.788 .504)"/><path fill="#2C1E54" d="M65.281 310.227h.382l.382 5.349h-.764l-.383.765c-.81-1.62-.478-3.484 0-5.159l.383-.955Zm-1.147 5.349h.382v1.911h-.382v-1.911Z" style="stroke-width:1px" transform="translate(12.788 .504)"/><path fill="#F3BE76" d="m325.878 286.154.382 1.528-1.146.383c-.127 2.604-.092 4.555 1.146 6.878-1.146-.383-1.146-.383-1.79-1.529-.64-1.644-.75-3.225-.502-4.967.795-1.735.795-1.735 1.91-2.293Z" style="stroke-width:1px" transform="translate(12.788 .504)"/><path fill="#2A1D52" d="M68.337 350.73h.383v7.26l-1.529-.382c.118-.931.237-1.862.358-2.794l.101-.799c.149-1.145.321-2.186.687-3.285Z" style="stroke-width:1px" transform="translate(12.788 .504)"/><path fill="#2B1D52" d="M109.223 376.714c-.105 1.787-.891 2.578-2.112 3.769-.563.434-.563.434-1.327.434l-.382-1.146c.491-.512.985-1.021 1.481-1.529l.832-.86c.744-.668.744-.668 1.508-.668Z" style="stroke-width:1px" transform="translate(12.788 .504)"/><path fill="#1D4CB6" d="m394.276 244.504.382.764-2.293-.382v1.147l-.597-.43c-1.351-.485-2.259.021-3.606.43-.847-.166-.847-.166-1.528-.383 5.351-1.875 5.351-1.875 7.642-1.146Z" style="stroke-width:1px" transform="translate(12.788 .504)"/><path fill="#1B4BBD" d="m306.773 307.552.764.382-.764 2.675h-.764l-1.147 3.439h-.382c.171-2.015.414-3.828 1.147-5.732h1.146v-.764Z" style="stroke-width:1px" transform="translate(12.788 .504)"/><path fill="#160E47" d="m299.895 243.74 2.675.764v.764l1.027.311c1.177.422 2.13.923 3.176 1.6l.382-.764.143.931.239.979.764.382c-1.221-.244-2.122-.676-3.182-1.325l-.925-.566-.956-.592-.972-.593c-1.75-1.076-1.75-1.076-2.371-1.509v-.382Z" style="stroke-width:1px" transform="translate(12.788 .504)"/><path fill="#FCBE8B" d="M228.823 228.456h1.528v.764h8.024v.382a18.825 18.825 0 0 1-9.934-.382l.382-.764Z" style="stroke-width:1px" transform="translate(12.788 .504)"/><path fill="#2B1E53" d="m59.931 411.486 2.675.382-.382 1.528-5.35-.382c.98-.98 1.71-.97 3.057-1.146v-.382Z" style="stroke-width:1px" transform="translate(12.788 .504)"/><path fill="#132C6B" d="m358.74 347.291 1.528.383.143.645c.262.968.618 1.869 1.003 2.794h-1.146l-.382-1.529h-1.146c-.43-1.433-.43-1.433 0-2.293Z" style="stroke-width:1px" transform="translate(12.788 .504)"/><path fill="#1E44AC" d="m346.13 250.236-1.146.764c-.383.745-.383.745-.645 1.576l-.291.839-.211.642c-.356-1.15-.398-1.477 0-2.675a39.45 39.45 0 0 0-2.292.764l-.382.765-.765-.765c.739-.394 1.48-.783 2.222-1.17l1.249-.658c1.115-.464 1.115-.464 2.261-.082Z" style="stroke-width:1px" transform="translate(12.788 .504)"/><path fill="#211748" d="m148.031 346.121.931.024-.382 1.911h-1.146l-.382 3.821h-.382c-.011-.884-.018-1.768-.024-2.651l-.014-1.491c.049-1.581.049-1.581 1.399-1.614Z" style="stroke-width:1px" transform="translate(12.788 .504)"/><path fill="#F4C284" d="m245.636 205.911.382.764c-.934 2.604-2.074 4.407-4.586 5.732.522-1.121 1.129-2.058 1.887-3.033.854-1.116 1.626-2.235 2.317-3.463Z" style="stroke-width:1px" transform="translate(12.788 .504)"/><path fill="#19193E" d="M216.214 162.351v1.146l-1.529.382-.382 1.911h-1.146c-.239-.908-.239-.908-.382-1.911 1.095-1.095 1.878-1.528 3.439-1.528Z" style="stroke-width:1px" transform="translate(12.788 .504)"/><path fill="#F7BA7C" d="M374.788 327.422c1.429 1.015 2.159 1.751 2.675 3.439l-2.675.382.43-1.051c.451-1.196.451-1.196 0-2.149l-.43-.621Z" style="stroke-width:1px" transform="translate(12.788 .504)"/><path fill="#F17B42" d="m177.621 301.438.382.765 1.146.382c-1.396 1.006-2.478 1.707-4.203 1.91.386-1.3.629-1.817 1.767-2.603l.908-.454Z" style="stroke-width:1px" transform="translate(12.788 .504)"/><path fill="#18113C" d="M265.505 179.546h.764l.765 2.292c1.208-.523 1.525-.76 2.292-1.91h.764v1.146c-2.043 1.911-2.043 1.911-3.056 1.911-1.529-2.58-1.529-2.58-1.529-3.439Z" style="stroke-width:1px" transform="translate(12.788 .504)"/><path fill="#060B35" d="M216.214 162.351h1.146v.764l-1.146.382v-1.146Zm-1.529 1.146 1.529.382-.383.382 3.057.382v.383l-4.967.382.764-1.911Z" style="stroke-width:1px" transform="translate(12.788 .504)"/><path fill="#142F6F" d="m318.236 391.998.382 4.968-.382-1.529-1.146.382c-.382-.382-.382-.382-.478-1.48.096-1.195.096-1.195.645-1.911.597-.43.597-.43.979-.43Z" style="stroke-width:1px" transform="translate(12.788 .504)"/><path fill="#F56726" d="m386.252 243.358.764 2.292-3.057.383.382-2.293c1.146-.382 1.146-.382 1.911-.382Z" style="stroke-width:1px" transform="translate(12.788 .504)"/><path fill="#7243A0" d="M148.58 347.291h.382a4728.944 4728.944 0 0 1 .336 3.844l.046 1.124-.382.382a40.435 40.435 0 0 0-.215 1.935l-.097 1.064-.07.822h-.382c-.071-6.455-.071-6.455.382-9.171Z" style="stroke-width:1px" transform="translate(12.788 .504)"/><path fill="#FDA970" d="M73.305 229.984c0 1.422-.311 1.915-1.147 3.057-1.983 1.528-1.983 1.528-3.438 1.528l4.585-4.585Z" style="stroke-width:1px" transform="translate(12.788 .504)"/><path fill="#0D0D23" d="M218.506 201.708a56.911 56.911 0 0 1 4.729 1.767l1.226.517.923.391c-1.07.425-1.491.396-2.597.001l-1.128-.55-1.141-.548-.866-.432-.764.765-.382-1.911Z" style="stroke-width:1px" transform="translate(12.788 .504)"/><path fill="#1648C1" d="M315.944 274.691c.357 1.15.399 1.477 0 2.675-.38.511-.762 1.02-1.147 1.528a35.09 35.09 0 0 0-.764 1.528c-.382-1.146-.382-1.146.082-2.261l.659-1.249.655-1.258.515-.963Z" style="stroke-width:1px" transform="translate(12.788 .504)"/><path fill="#1E46B9" d="M356.447 293.414c.866.866 1.125 1.468 1.184 2.691l-.038 2.276h-.764c-.812-1.767-.812-1.767-.382-3.056.015-.637.018-1.274 0-1.911Z" style="stroke-width:1px" transform="translate(12.788 .504)"/><path fill="#FCB292" d="m225.766 240.301 1.146.382-.382 2.293.764.382h-.764v2.292c-.871-1.307-.848-1.788-.812-3.319l.021-1.151.027-.879Z" style="stroke-width:1px" transform="translate(12.788 .504)"/><path fill="#3F3248" d="M248.31 165.026c-.389.58-.389.58-1.146 1.146a22.619 22.619 0 0 1-2.937-.119l-.813-.071c-.661-.059-1.321-.125-1.982-.192v-.382c2.307-.265 4.557-.425 6.878-.382Z" style="stroke-width:1px" transform="translate(12.788 .504)"/><path fill="#EEF1F6" d="M314.033 423.713c.585 1.561.241 2.979 0 4.585l-1.528-.382a58.56 58.56 0 0 1 1.528-4.203Z" style="stroke-width:1px" transform="translate(12.788 .504)"/><path fill="#142F6E" d="m314.797 306.406-.382 4.203h-.764l.024-1.051c-.02-1.022-.109-1.803-.406-2.77 1.146-.382 1.146-.382 1.528-.382Z" style="stroke-width:1px" transform="translate(12.788 .504)"/><path fill="#F7C07B" d="M119.158 335.064c.764.764.764.764 1.098 1.481.511.965 1.164 1.599 1.959 2.34l-.382.764a301.726 301.726 0 0 1-1.72-1.671l-.967-.941c-.752-.827-.752-.827-.752-1.591l.764-.382Z" style="stroke-width:1px" transform="translate(12.788 .504)"/><path fill="#E6B27D" d="M114.573 330.861c.764.382.764.382 1.098 1.098.504.953 1.071 1.367 1.958 1.959l-.382 1.146v-.764l-.645-.287c-1.046-.565-1.906-1.216-2.794-2.006v-.764l.765-.382Z" style="stroke-width:1px" transform="translate(12.788 .504)"/><path fill="#15183E" d="M248.692 163.879c1.04.693 1.813 1.401 2.675 2.293-1.122-.287-1.122-.287-2.293-.764-.334-.812-.334-.812-.382-1.529Zm-.382 1.911c.741.143.741.143 1.529.382l.382.764-1.147.382-.764-1.528Z" style="stroke-width:1px" transform="translate(12.788 .504)"/><path fill="#1547C1" d="m300.277 333.535.764.383c.055 2.838.055 2.838-.382 4.203h-.764c-.031-1.59.007-3.037.382-4.586Z" style="stroke-width:1px" transform="translate(12.788 .504)"/><path fill="#2D1F56" d="M62.988 293.032c.443 1.329.27 2.086 0 3.439l-1.529-.764.383-2.293 1.146-.382Z" style="stroke-width:1px" transform="translate(12.788 .504)"/><path fill="#13143C" d="M331.228 205.529c-.328 3.275-.328 3.275-1.146 4.585-.383-.764-.383-.764-.024-1.958l.406-1.099-1.529.383c1.863-1.911 1.863-1.911 2.293-1.911Z" style="stroke-width:1px" transform="translate(12.788 .504)"/><path fill="#2E2545" d="M202.458 167.318h.382l.382 4.585-1.147.383.383-4.968Z" style="stroke-width:1px" transform="translate(12.788 .504)"/><path fill="#1D1B3C" d="M219.652 162.733c2.198.621 2.198.621 3.057 1.91-1.439 0-1.877-.089-3.057-.764v-1.146Z" style="stroke-width:1px" transform="translate(12.788 .504)"/><path fill="#2B1D53" d="m66.809 409.575 1.146.382c-.382 1.147-.382 1.147-1.266 1.624-1.064.298-1.536.282-2.555-.095l2.675-1.529v-.382Z" style="stroke-width:1px" transform="translate(12.788 .504)"/><path fill="#5E368C" d="M143.995 382.828c.82 1.315.802 2.205.621 3.725l-.129 1.141-.11.865c-.885-1.326-.797-1.891-.764-3.439l-.382-.764h.764v-1.528Z" style="stroke-width:1px" transform="translate(12.788 .504)"/><path fill="#F0B879" d="m330.464 278.894.382.764-2.675.382-.382-1.146c1.031-.515 1.586-.307 2.675 0Z" style="stroke-width:1px" transform="translate(12.788 .504)"/><path fill="#0A0A2D" d="M317.472 212.789c.981 1.471.975 2.459 1.146 4.203l1.147.382-1.911.383-.382-4.968Z" style="stroke-width:1px" transform="translate(12.788 .504)"/><path fill="#1B223D" d="M185.263 436.705c.764.764.764.764.838 1.508l-.074 2.313-1.146-.382.382-3.439Z" style="stroke-width:1px" transform="translate(12.788 .504)"/><path fill="#362E4D" d="M199.401 191.773c.764 1.529.764 1.529 1.146 2.675-.358 1.027-.358 1.027-.764 1.91h-.764l.382-4.585Z" style="stroke-width:1px" transform="translate(12.788 .504)"/><path fill="#090834" d="M211.628 163.879c0 1.147 0 1.147-.382 1.911l1.911-.382v.764l-2.293.382c-.263-.692-.263-.692-.382-1.528.549-.669.549-.669 1.146-1.147Z" style="stroke-width:1px" transform="translate(12.788 .504)"/><path fill="#184AB7" d="m322.057 265.52 1.147.382-.765 1.911-1.528-.764 1.146-1.529Z" style="stroke-width:1px" transform="translate(12.788 .504)"/><path fill="#090D24" d="m75.98 212.789 1.146.382c.279.756.533 1.521.764 2.293l.764 1.146c-1.462-.554-1.996-1.283-2.674-2.675v-1.146Z" style="stroke-width:1px" transform="translate(12.788 .504)"/><path fill="#211848" d="m129.475 354.169.764.765-2.293 2.292-.764-.382 2.293-2.675Z" style="stroke-width:1px" transform="translate(12.788 .504)"/><path fill="#EF6F2E" d="m178.385 321.308.764 1.528c-1.433.765-1.433.765-2.293.765l-.764-.382 2.293-1.911Z" style="stroke-width:1px" transform="translate(12.788 .504)"/><path fill="#2D5CB7" d="m422.933 413.014.764.382-.382 3.057c-.111-.236-.218-.473-.333-.716-.405-.863-.405-.863-1.196-1.577h.765l.382-1.146Z" style="stroke-width:1px" transform="translate(12.788 .504)"/><path fill="#204DB6" d="m355.683 290.739.764.382v1.911l-.382-.764-.717.239-.811.143-.765-.764h1.147l.382-.765.382-.382Z" style="stroke-width:1px" transform="translate(12.788 .504)"/><path fill="#19183F" d="M116.101 160.44c.798 1.597.827 1.836.382 3.439h-.764l.382-3.439Z" style="stroke-width:1px" transform="translate(12.788 .504)"/><path fill="#1A1332" d="m209.336 145.538.764.382c-.208 1.451-.842 2.091-1.911 3.057.19-1.427.334-2.221 1.147-3.439Z" style="stroke-width:1px" transform="translate(12.788 .504)"/><path fill="#2B1D52" d="m53.435 370.218 1.146.382.383 1.146-1.529.382c-.215-.74-.215-.74-.382-1.528l.382-.382Z" style="stroke-width:1px" transform="translate(12.788 .504)"/><path fill="#DB7C02" d="m199.019 275.073 1.528.382v2.675l-.764-.764v-1.529h-.764v-.764Z" style="stroke-width:1px" transform="translate(12.788 .504)"/><path fill="#ED4F18" d="m410.705 239.537.765.382-.383.764 1.911-.382c-.978.98-1.708.971-3.057 1.146l.764-1.91Z" style="stroke-width:1px" transform="translate(12.788 .504)"/><path fill="#352146" d="M217.742 222.342c1.208.523 1.525.76 2.293 1.91-1.147 0-1.147 0-1.792-.525-.501-.621-.501-.621-.501-1.385Z" style="stroke-width:1px" transform="translate(12.788 .504)"/><path fill="#161737" d="m78.654 216.228 1.147.382v.764h1.91l-.382.765-2.675-.765v-1.146Z" style="stroke-width:1px" transform="translate(12.788 .504)"/></svg>