<svg xmlns="http://www.w3.org/2000/svg" viewBox="9.469 89.951 473.961 311.418"><g><path fill="#8ADCFE" d="m927.378-114.08 2.36 2.03c2.595 2.27 5.124 4.61 7.64 6.97.557.52 1.114 1.05 1.688 1.58 41.209 39.031 60.116 89.533 62.314 145.42.69-.193 1.38-.387 2.1-.586 34.02-9.056 69.12-4.295 99.9 12.586 20.19 11.779 36.01 28.518 47 49l.97 1.803c8.59 16.371 12.68 33.968 15.03 52.197l3.78.996c27.59 7.577 48.28 22.126 63.02 47.015 15.4 27.324 18.48 61.404 10.51 91.579-9.7 34.132-31.26 62.864-62.31 80.41-26.75 14.423-52.72 17.464-82.78 17.374-2.79.001-5.57.007-8.36.012-6.03.01-12.06.008-18.09-.001-8.97-.014-17.93-.01-26.9-.003-16.02.011-32.04.006-48.055-.006-14.015-.01-28.03-.015-42.045-.013h-2.821l-11.34.001c-35.423.004-70.847-.009-106.27-.03-31.455-.018-62.91-.024-94.364-.018l-6.062.001h-3.027l-15.086.003h-3.007a159709.803 159709.803 0 0 1-93.049-.014 73330.22 73330.22 0 0 0-39.242-.003c-16.855.002-33.709-.002-50.564-.017-8.909-.008-17.817-.011-26.726-.006-5.956.003-11.911-.001-17.867-.011-3.389-.006-6.779-.007-10.169-.002-30.053.042-54.086-3.806-78.178-23.267l-1.914-1.414c-16.034-12.387-26.287-33.867-29.086-53.586-2.237-24.612 3.377-46.861 19.297-66.027 7.339-8.341 17.09-16.435 27.703-19.973l-.515-1.625a378.945 378.945 0 0 1-4.547-16l-.973-3.664c-2.594-11.579-3.298-23.309-3.225-35.138.01-2.073 0-4.145-.013-6.217-.015-13.161 1.364-26.056 4.523-38.856l.655-2.68c6.523-25.777 19.478-49.025 37.095-68.82a977.94 977.94 0 0 0 3.188-3.875c3.261-3.779 6.997-6.922 10.812-10.125l2.688-2.348c7.343-6.318 14.984-11.708 23.312-16.652l1.761-1.055c15.835-9.352 33.235-14.606 51.239-17.945l3.16-.59c5.82-.621 11.617-.594 17.465-.597l3.621-.038c10.788-.017 21.06 1.515 31.567 3.85l3.582.789 2.605.586-.129-2.922c.009-4.624 1.043-8.869 2.192-13.328l.677-2.644c7.483-28.267 20.856-54.425 39.26-77.106l2.168-2.785c9.016-11.415 19.374-21.285 30.832-30.215.959-.79 1.918-1.58 2.907-2.39 25.15-20.22 56.324-32.74 88.093-37.61.749-.12 1.499-.23 2.27-.35 56.179-8.28 115.058 8.98 157.73 46.35Z" style="stroke-width:1px" transform="matrix(.52582 0 0 .52582 -174.297 189.046)"/><path fill="#0CABF3" d="M1123.5 68.67c11.35 9.795 19.81 21.077 26.88 34.25l.97 1.803c8.59 16.371 12.68 33.968 15.03 52.197l3.78.996c27.59 7.577 48.28 22.126 63.02 47.015 15.4 27.324 18.48 61.404 10.51 91.579-9.7 34.132-31.26 62.864-62.31 80.41-26.75 14.423-52.72 17.464-82.78 17.374-2.79.001-5.57.007-8.36.012-6.03.01-12.06.008-18.09-.001-8.97-.014-17.93-.01-26.9-.003-16.02.011-32.04.006-48.055-.006-14.015-.01-28.03-.015-42.045-.013h-2.821l-11.34.001c-35.423.004-70.847-.009-106.27-.03-31.455-.018-62.91-.024-94.364-.018l-6.062.001h-3.027l-15.086.003h-3.007a159709.803 159709.803 0 0 1-93.049-.014 73330.22 73330.22 0 0 0-39.242-.003c-16.855.002-33.709-.002-50.564-.017-8.909-.008-17.817-.011-26.726-.006-5.956.003-11.911-.001-17.867-.011-3.389-.006-6.779-.007-10.169-.002-30.053.042-54.086-3.806-78.178-23.267l-1.914-1.414c-16.034-12.387-26.287-33.867-29.086-53.586-2.237-24.611 3.377-46.861 19.297-66.027 7.404-8.415 17.626-17.397 28.703-19.973l.975 1.829c8.266 15.465 16.584 29.797 28.025 43.171l2.078 2.523c22.123 25.974 57.369 41.723 90.922 44.477 14.207.805 28.487.537 42.709.494 5.779-.014 11.558-.004 17.337.003 11.288.01 22.576-.001 33.864-.019 12.496-.02 24.991-.021 37.487-.02 24.867.002 49.734-.018 74.602-.049 22.057-.027 44.114-.04 66.171-.038H814.925l10.586.001h2.11c22.446.001 44.892-.014 67.338-.029 9.164-.006 18.329-.008 27.493-.009 11.17-.002 22.34-.011 33.509-.029 5.693-.009 11.387-.015 17.08-.013 5.219.002 10.438-.005 15.658-.019 1.879-.004 3.759-.004 5.639 0 34.192.055 64.522-7.354 89.672-31.835 18.75-19.723 28.19-46.361 27.55-73.403-1.15-29.944-13.67-55.561-35.31-76.097-13.58-11.651-30.45-18.459-47.87-21.938l-2.9-.586c-12.56-2.142-25.4-2.076-38.102-2.414l.735-3.086c.907-3.823 1.804-7.649 2.696-11.476.366-1.569.734-3.136 1.103-4.704 3.689-15.716 6.615-31.347 7.158-47.511.465-4.864.465-4.864 2.31-7.223 39.82-16.96 91.07.812 122.12 26.75Z" style="stroke-width:1px" transform="matrix(.52582 0 0 .52582 -174.297 189.046)"/><path fill="#7AD9FE" d="m676.378-120.08 2 1-9 8-2-1 9-8Z" style="stroke-width:1px" transform="matrix(.52582 0 0 .52582 -174.297 189.046)"/></g></svg>