<svg xmlns="http://www.w3.org/2000/svg" viewBox="12.625 89.951 470.805 295.637"><g><path fill="#0099F4" d="M572.29 6.086c23.049 19.83 41.443 44.963 52.188 73.5l.881 2.317c1.883 5.245 2.678 10.128 3.119 15.683l3.594-1.609c27.439-12.058 59.287-16.473 88.406-7.391l2.092.649c15.078 4.856 28.69 12.26 40.908 22.351l2.988 2.453c23.384 20.26 38.576 50.759 41.012 81.547.526 9.336.568 17.964-2 27l2.973-.125c22.652.045 44.799 15.944 60.027 31.125 21.167 22.964 32.967 55.111 32.246 86.191-1.35 32.783-14.957 61.006-38.551 83.516-15.368 14.064-34.53 22.035-54.695 26.293l-2.337.527c-10.276 2.035-20.582 1.754-31.01 1.734l-6.52.011c-5.952.011-11.904.008-17.857.004-6.427-.002-12.855.007-19.283.014-12.586.013-25.173.015-37.759.012-10.236-.001-20.471 0-30.707.005l-4.417.001-6.657.003c-20.627.009-41.253.013-61.879.009l-2.355-.001-11.815-.002-2.37-.001-4.745-.001c-24.593-.005-49.185.003-73.778.021-27.658.021-55.316.032-82.974.028l-8.86-.001-2.203-.001c-10.946-.001-21.891.006-32.837.016-12.462.012-24.924.014-37.385.002-6.352-.006-12.704-.007-19.056.005-5.828.01-11.655.007-17.483-.007-2.095-.002-4.191 0-6.287.008-46.139.165-85.926-15.497-119.026-47.989-12.231-12.198-21.422-26.154-29.4-41.397l-.973-1.83c-15.492-29.527-20.208-67.874-12.027-100.17l.504-2.056c9.676-38.75 34.359-72.362 68.246-93.296 14.861-8.87 31.218-15.444 48.25-18.648l2.755-.54c9.234-1.632 18.221-1.693 27.557-1.585l4.592.027c3.699.022 7.397.056 11.096.098l-.07-3.305c-.731-48.673 17.977-93.088 51.249-128.211 62.496-64.163 163.509-63.492 232.633-6.984Z" style="stroke-width:1px" transform="matrix(.60003 0 0 .60003 -61.075 113.764)"/><path fill="#5ED3FE" d="M726.695 269.15c8.936 7.196 16.275 15.333 21.783 25.436l1.609 2.754c7.601 13.828 9.579 29.624 9.453 45.184l-.013 3.228c-.012 2.611-.028 5.223-.049 7.834l3.453-.977c13.204-3.28 27.052-1.558 38.797 5.29 1.269.868 2.519 1.765 3.75 2.687l2.055 1.523c9.88 7.942 15.294 20.05 16.945 32.477 1.12 16.199-2.861 28.252-13.254 40.699-10.185 10.937-23.102 15.984-37.907 16.587-6.388.157-12.776.143-19.166.134a5058.96 5058.96 0 0 1-25.217.049c-4.84-.001-9.68.003-14.52.01l-4.198.007-2.112.003c-13.143.019-26.286.018-39.429.011-12.003-.006-24.006.015-36.008.048-12.354.034-24.708.049-37.061.044-6.925-.002-13.848.003-20.773.028-6.509.024-13.019.021-19.529 0-2.383-.003-4.766.002-7.149.016-22.959.129-22.959.129-32.677-5.636l-2.883-1.584c-12.937-7.307-24.904-20.091-29.562-34.353-5.41-20.114-2.842-39.163 7.36-57.228 2.693-4.554 5.722-8.756 9.085-12.835l1.566-1.91c9.989-10.99 24.484-17.9 39.137-19.492 6.813-.188 12.951.726 19.48 2.648 3.252.87 6.481 1.328 9.817 1.754l.699-1.614c6.78-15.567 13.174-30.165 25.301-42.386l2.562-2.687 2.438-2.313 1.586-1.57c10.572-9.948 23.692-15.385 37.414-19.43l2.172-.642c29.351-8.327 60.743-2.272 85.045 16.206Z" style="stroke-width:1px" transform="matrix(.60003 0 0 .60003 -61.075 113.764)"/><path fill="#0D90F6" d="m793.478 449.586 2 2h-17v-1c5.235-1.408 9.642-2.568 15-1Z" style="stroke-width:1px" transform="matrix(.60003 0 0 .60003 -61.075 113.764)"/><path fill="#1393F4" d="M140.478 221.586h3c-1.457 2.968-3.012 5.864-4.625 8.75l-1.352 2.422-1.023 1.828-2-1 6-12Z" style="stroke-width:1px" transform="matrix(.60003 0 0 .60003 -61.075 113.764)"/><path fill="#1194F5" d="M295.478 87.586c2.567 3.85 1.833 5.586 1 10h-3l2-10Z" style="stroke-width:1px" transform="matrix(.60003 0 0 .60003 -61.075 113.764)"/></g></svg>