<svg xmlns="http://www.w3.org/2000/svg" viewBox="103.618 121.664 219.37 287.674"><g><path fill="#204C73" d="M171.394 111.827h158.875v283.01h-11.581V121.96h-123.77l.362 74.191 5.066-2.534c4.288-1.659 8.772-2.714 13.391-2.533l.113-1.176c.207-1.712.649-3.342 1.109-5.002.243-1.142.349-2.069.225-3.232-.518-.791-.518-.791-1.266-1.47-4.974-5.246-7.63-12.273-7.546-19.46.182-5.461 2.489-10.422 6.42-14.177 5.468-4.968 12.304-6.154 19.477-5.869 4.399.356 8.87 2.272 11.867 5.533 1.426 1.775 1.946 3.096 1.912 5.42-.102.709-.102.709-.713 1.727-.556 1.351-.422 1.606.01 2.949.631 2.151.851 4.237 1.053 6.461.337 3.225.939 5.673 2.651 8.427.63 1.283.649 2.17.516 3.583-.588.883-.588.883-1.448 1.448-.723.022-1.448.025-2.171 0l-.016.876c-.166 3.846-1.057 7.638-3.965 10.343-2.031 1.449-4.054 1.793-6.514 1.448-.61-.223-1.216-.46-1.81-.724-.122.746-.242 1.493-.362 2.239l-.203 1.26a18.326 18.326 0 0 0-.159 3.015l1.206.465c3.186 1.253 6.159 2.549 8.928 4.602l.864.637c3.544 2.871 5.25 6.659 6.791 10.834l.423 1.139c1.541 4.184 2.959 8.408 4.36 12.64.441 1.332.885 2.662 1.329 3.992l.846 2.546.401 1.201.363 1.101.321.968c.225.77.225.77.225 1.494l-.723.362c.437 1.949 1.019 3.829 1.658 5.721l.255.76.62 1.842c2.226.028 4.453.047 6.68.06.755.006 1.51.013 2.265.023 7.706.412 7.706.412 14.451-2.642l.558-.562 1.27-1.172.613-.583c3.915-3.713 8.402-6.728 13.905-7.179 1.153.113 1.153.113 1.854.565.385.633.385.633.385 2.081l.859.136c.95.226.95.226 1.674.95l-.068 1.04.068 1.131c.596.492 1.199.975 1.81 1.448.203.927.203.927 0 1.809-.724.656-.724.656-1.448 1.086l.724 1.086c0 .882 0 .882-.362 1.809-1.255 1.057-2.598 1.648-4.094 2.307-2.462 1.101-4.528 2.469-6.611 4.175l-.707.578c-.462.38-.92.763-1.375 1.15-3.221 2.667-6.473 3.314-10.556 3.914-4.404.675-4.404.675-8.753 1.629-4.214 1.057-8.503 1.78-12.78 2.533l-1.133.2c-3.577.557-7.316.609-10.424-1.369-4.736-3.591-7.028-10.643-9.433-15.841h-1.086c-1.299 10.239-2.101 20.448-2.534 30.762l-1.085.362c1.153 6.634 3.799 12.79 6.248 19.029 3.023 7.713 5.825 15.506 8.59 23.314l.288.813c5.049 14.245 7.286 29.115 9.839 43.963a985.984 985.984 0 0 0 3.073 16.843l.178.937c.108.572.217 1.148.327 1.716.35 1.853.581 3.699.771 5.577l-3.619 1.086c2.081 2.203 4.103 3.731 7.08 4.523l.784.221c1.561.431 3.132.8 4.713 1.147.353.08.706.156 1.069.236.689.148 1.379.293 2.069.43 2.444.518 4.309 1.209 6.158 2.964.755 1.299.829 2.027.565 3.507-5.351 6.243-20.08 7.296-27.615 7.9a92.027 92.027 0 0 1-5.092.152l-1.05.022c-3.364.018-3.364.018-4.605-1.198-1.162-2.287-1.264-4.411-1.312-6.945-.022-.738-.045-1.473-.069-2.211l-.031-1.071c-.068-1.904-.226-3.8-.397-5.697-1.075.12-2.15.236-3.257.362l-.308-1.469c-2.221-10.582-4.477-21.153-6.857-31.702-.293-1.301-.585-2.602-.874-3.904-.356-1.599-.715-3.198-1.077-4.796-.132-.586-.263-1.172-.393-1.759-.682-3.075-1.461-6.089-2.451-9.08l-.264-.798c-.755-2.212-1.705-4.304-2.814-6.364l-.418-.78-.468-.873-1.147-2.161a523.655 523.655 0 0 0-7.021-12.741c-1.417-2.492-2.799-5-4.137-7.536-.42 2.083-.831 4.167-1.229 6.253-2.092 10.962-4.177 21.466-9.248 31.492l-.312.641c-.684 1.363-1.452 2.579-2.351 3.811-4.8 6.993-4.134 14.566-3.998 22.716.026 1.907.025 3.814.028 5.721.007 3.721.044 7.438.101 11.158-2.466.311-4.932.619-7.398.926l-2.513.315c-1.208.152-2.417.304-3.625.453-.372.047-.743.094-1.125.144a43.91 43.91 0 0 1-6.33.333c1.048 3.066 2.107 4.948 4.705 6.877 4.088 3.286 4.088 3.286 4.466 5.924.063 1.574.063 1.574-.123 2.399-2.286 1.524-5.014 1.151-7.668 1.151-.428.004-.855.011-1.296.015-6.157.01-9.817-1.531-14.198-5.87-6.152-6.421-6.152-6.421-6.152-7.962l-.635.076a3530.491 3530.491 0 0 1-31.432 3.796c-.729.083-1.458.17-2.187.253-1.367.16-2.733.319-4.1.474l-1.225.145c-.376.044-.752.083-1.139.127-.324.04-.649.076-.983.116-1.176.09-2.358.079-3.537.079v-288.8c9.203.8 9.203.8 13.756 1.361 2.228.269 4.46.502 6.691.743l.845.091c5.441.588 10.885 1.143 16.329 1.695a4350.93 4350.93 0 0 1 24.988 2.624l.362-7.6Z" style="stroke-width:.362px" transform="matrix(.95354 0 0 .95354 5.037 19.088)"/><path fill="#DE603D" d="M241.921 144.156c1.73 1.363 3.528 3.1 4.025 5.309.203 2.557.203 2.557-.611 3.913-.556 1.351-.422 1.606.01 2.949.631 2.151.851 4.237 1.053 6.461.337 3.225.939 5.673 2.651 8.427.63 1.283.649 2.17.516 3.583-.588.883-.588.883-1.448 1.448-.723.022-1.448.025-2.171 0l-.016.876c-.166 3.846-1.057 7.638-3.965 10.343-2.031 1.449-4.054 1.793-6.514 1.448-.61-.223-1.216-.46-1.81-.724-.122.746-.242 1.493-.362 2.239l-.203 1.26a18.326 18.326 0 0 0-.159 3.015l1.206.465c3.186 1.253 6.159 2.549 8.928 4.602l.864.637c3.544 2.871 5.251 6.659 6.791 10.834l.423 1.139c1.541 4.184 2.959 8.408 4.36 12.64.441 1.332.885 2.662 1.329 3.992l.846 2.546.401 1.201.363 1.101.321.968c.225.77.225.77.225 1.494l-.723.362c.437 1.949 1.019 3.829 1.658 5.721l.255.76.62 1.842c2.226.028 4.453.047 6.68.06.755.006 1.51.013 2.265.023 7.706.412 7.706.412 14.451-2.642l.558-.562 1.27-1.172.613-.583c3.915-3.713 8.402-6.728 13.905-7.179 1.153.113 1.153.113 1.854.565.385.633.385.633.385 2.081l.859.136c.95.226.95.226 1.674.95l-.068 1.04.068 1.131c.596.492 1.199.975 1.81 1.448.203.927.203.927 0 1.809-.724.656-.724.656-1.448 1.086l.724 1.086c0 .882 0 .882-.362 1.809-1.255 1.057-2.598 1.648-4.094 2.307-2.462 1.101-4.528 2.469-6.611 4.175l-.707.578c-.462.38-.92.763-1.375 1.15-3.221 2.667-6.473 3.314-10.556 3.914-4.404.675-4.404.675-8.753 1.629-4.214 1.057-8.503 1.78-12.78 2.533l-1.133.2c-3.577.557-7.316.609-10.424-1.369-4.736-3.591-7.028-10.643-9.433-15.841h-1.086c-1.299 10.239-2.101 20.448-2.534 30.762-2.903.318-5.774.42-8.694.423l-1.34.004c-.932.002-1.865.002-2.798.002-1.401.001-2.802.008-4.204.014-7.01.017-13.832-.392-20.737-1.619l-1.331-.233c-5.158-.935-10.294-2.101-15.181-4.019.946-8.567 1.911-17.133 2.895-25.696-1.369 3.291-2.585 6.556-3.528 9.998l-.354 1.272c-.256.922-.511 1.844-.764 2.767a550.441 550.441 0 0 1-1.155 4.129c-.34 1.202-.674 2.405-1.008 3.609l-.495 1.761c-1.288 4.544-1.811 7.997-.477 12.587.917 3.396 1.762 6.868.181 10.201-.588.656-.588.656-1.085 1.086-.902-.35-1.354-.532-1.789-1.418l-.224-.821c-.438-1.487-.975-2.861-1.606-4.275h-.362c-.379 1.53-.393 2.995-.359 4.56l.018 1.601c.011.835.024 1.67.041 2.506.015.81.024 1.62.031 2.43l.02.757c.006 1.056.002 1.735-.618 2.613-.581.371-.581.371-1.282.28l-.747-.271c-.947-.284-1.526-.355-2.533-.272-1.086-.09-1.086-.09-1.9-.882a13.32 13.32 0 0 1-1.357-2.827l-.837.09c-.973-.09-.973-.09-1.583-.678-1.14-2.064-1.328-3.938-1.312-6.243l.005-.913c.091-4.884.973-9.839 3.727-13.97.211-.995.211-.995.337-2.143l.168-1.354.174-1.48.187-1.538c.35-2.908.665-5.818.959-8.732l.094-.931c.15-1.493.298-2.987.439-4.481.283-2.917.625-5.816 1.074-8.712l.129-.839c.743-4.611 2.35-8.664 4.52-12.773.623-1.131.623-1.131.967-2.255l-1.086-.362a18.954 18.954 0 0 1 1.817-4.162l.662-1.142.71-1.21.734-1.259c.499-.855 1-1.71 1.501-2.565a595.742 595.742 0 0 0 2.006-3.454c3.021-5.21 6.126-10.063 10.303-14.437l.626-.695c5.232-5.617 14.089-8.785 21.661-9.117a45.85 45.85 0 0 1 1.961.041l.113-1.176c.207-1.712.649-3.342 1.109-5.002.243-1.142.349-2.069.225-3.232-.518-.791-.518-.791-1.266-1.47-4.974-5.246-7.63-12.273-7.546-19.46.182-5.461 2.489-10.422 6.42-14.177 7.671-6.97 20.408-8.118 29.129-2.411Z" style="stroke-width:.362px" transform="matrix(.95354 0 0 .95354 5.037 19.088)"/><path fill="#092641" d="m184.784 271.426.631.171c4.425 1.184 8.857 2.209 13.371 2.996l1.219.218c7.657 1.29 15.227 1.408 22.966 1.349 2.149-.016 4.298-.026 6.447-.035.746-.004 1.492-.01 2.238-.016l1.353-.007 1.194-.009c.886.038.886.038 1.248.4.144.7.278 1.401.407 2.104 1.199 5.854 3.665 11.382 5.841 16.925 3.023 7.713 5.825 15.506 8.59 23.314l.288.813c5.049 14.245 7.286 29.115 9.839 43.963a985.984 985.984 0 0 0 3.073 16.843l.178.937c.108.572.217 1.148.327 1.716.35 1.853.581 3.699.771 5.577l-3.619 1.086c2.081 2.203 4.103 3.731 7.08 4.523l.784.221c1.561.431 3.132.8 4.713 1.147.353.08.706.156 1.069.236.689.148 1.379.293 2.069.43 2.444.518 4.309 1.209 6.158 2.964.755 1.299.829 2.027.565 3.507-5.351 6.243-20.08 7.296-27.615 7.9a92.027 92.027 0 0 1-5.092.152l-1.05.022c-3.364.018-3.364.018-4.605-1.198-1.162-2.287-1.264-4.411-1.312-6.945-.022-.738-.045-1.473-.069-2.211l-.031-1.071c-.068-1.904-.226-3.8-.397-5.697-1.075.12-2.15.236-3.257.362l-.308-1.469c-2.221-10.582-4.477-21.153-6.857-31.702-.293-1.301-.585-2.602-.874-3.904-.356-1.599-.715-3.198-1.077-4.796-.132-.586-.263-1.172-.393-1.759-.682-3.075-1.461-6.089-2.451-9.08l-.264-.798c-.755-2.212-1.705-4.304-2.814-6.364l-.418-.78-.468-.873-1.147-2.161a523.655 523.655 0 0 0-7.021-12.741c-1.417-2.492-2.799-5-4.137-7.536-.42 2.083-.831 4.167-1.229 6.253-2.092 10.962-4.177 21.466-9.248 31.492l-.312.641c-.684 1.363-1.452 2.579-2.351 3.811-4.8 6.993-4.134 14.566-3.998 22.716.026 1.907.025 3.814.028 5.721.007 3.721.044 7.438.101 11.158-2.466.311-4.932.619-7.398.926l-2.513.315c-1.208.152-2.417.304-3.625.453-.372.047-.743.094-1.125.144a43.91 43.91 0 0 1-6.33.333c1.048 3.066 2.107 4.948 4.705 6.877 4.088 3.286 4.088 3.286 4.466 5.924.063 1.574.063 1.574-.123 2.399-2.286 1.524-5.014 1.151-7.668 1.151-.428.004-.855.011-1.296.015-6.157.01-9.817-1.531-14.198-5.87-6.152-6.421-6.152-6.421-6.152-7.962h-3.257v-.362c.716-.123 1.433-.239 2.171-.362l-.503-.572c-.46-.521-.917-1.046-1.372-1.571a54.054 54.054 0 0 0-1.518-1.657c-.807-1.245-1.095-2.342-.95-3.8 1.119-3.196 3.801-5.924 6.095-8.327.168-.178.336-.355.509-.54.475-.499.957-.988 1.44-1.48.729-.8.729-.8.605-1.668-.315-.72-.315-.72-1.049-1.376.111-1.69.665-2.902 1.486-4.36.114-.207.228-.413.346-.623.374-.673.752-1.339 1.131-2.008l.791-1.412c.538-.963 1.077-1.922 1.618-2.881a865.778 865.778 0 0 0 2.114-3.769c1.034-1.852 2.071-3.702 3.11-5.551l1.9-3.393.64-1.146 1.271-2.271a741.279 741.279 0 0 1 3.141-5.564c2.639-4.622 2.639-4.622 5.139-9.321l.66-1.286c1.226-2.941 1.48-6.039 1.805-9.186l.129-1.163c.846-7.993 1.224-15.996 1.419-24.028.216-8.598.532-17.09 2.252-25.544Z" style="stroke-width:.362px" transform="matrix(.95354 0 0 .95354 5.037 19.088)"/><path fill="#214D74" d="M185.146 244.646c.533 1.066.277 1.875.132 3.053l-.087.724c-.096.792-.195 1.584-.293 2.375l-.201 1.647c-.104.858-.208 1.715-.314 2.572a802.103 802.103 0 0 0-.73 6.186l-.195 1.701-.282 2.463c-.086.761-.174 1.522-.262 2.282l-.15 1.314c-.151 1.016-.151 1.016-.513 1.74l.86.158c.95.204.95.204 1.673.565-.12 2.157-.29 4.295-.611 6.431-.788 5.287-1.044 10.516-1.165 15.855a983.78 983.78 0 0 1-.204 7.29l-.022.727c-.244 7.864-.793 15.722-1.775 23.53l-.107.888c-.528 3.712-2.076 6.957-3.897 10.196l-.576 1.041a595.87 595.87 0 0 1-4.414 7.782 678.186 678.186 0 0 0-5.09 9.076 934.27 934.27 0 0 1-4.486 8l-1.139 2.018a508.323 508.323 0 0 1-2.313 4.05c-.373.651-.745 1.306-1.117 1.961l-.53.905c-.915 1.585-.915 1.585-1.113 3.366.303.81.303.81 1.055 1.476-.025 1.596-1.33 2.573-2.375 3.641-4.344 4.404-4.344 4.404-6.424 9.996.318 1.987 1.923 3.3 3.28 4.668.814.876.814.876 1.176 1.962-.597.119-1.194.235-1.81.362v.362c-5.683.676-11.366 1.353-17.05 2.023-2.265.267-4.53.535-6.794.807-1.829.217-3.658.434-5.488.647-.658.076-1.316.156-1.974.236-.913.108-1.828.217-2.742.322-.255.032-.509.061-.771.094-2.504.282-5.007.239-7.523.213-.009-5.54-.015-11.077-.019-16.615-.002-2.569-.004-5.142-.008-7.715-.004-2.244-.007-4.492-.007-6.735a2109.9 2109.9 0 0 0-.005-3.558c-.008-4.466.012-8.914.276-13.374.191-3.45.136-6.897.096-10.351-.022-2.082-.033-4.164-.046-6.247-.017-2.63-.038-5.261-.069-7.891a727.22 727.22 0 0 1-.048-6.438c-.005-.814-.014-1.628-.027-2.441a240.144 240.144 0 0 1-.022-3.395l-.025-1.012c.017-2.225.017-2.225.765-3.154.602-.506.602-.506 1.672-1.189l.724.362-.362.723.724.362.362.362.113-.836c.275-1.075.382-1.488 1.334-2.059 1.335.113 1.335.113 2.534.362l-.272-.995c-.09-1.176-.09-1.176.611-2.036l.746-.588v1.809l1.81-.361-.362-1.448h1.086l-.362-1.448.588-.135c1.027-.271 2.025-.608 3.031-.95.362 2.759.362 2.759.362 3.981l.723 1.085-1.809-.724-.113.657c-.281.893-.637 1.27-1.335 1.877.371 1.178.722 1.807 1.606 2.692.971.97 1.463 1.851 2.013 3.098l-.723.724c-.204.978-.362 1.896-.362 2.895l1.447.724v1.086l-.362.362h1.086v.723l.724.362.362.362c-.319-1.043-.319-1.043-.724-1.809l.724-.724v.724l2.171.362c-.696-.805-.696-.805-1.809-1.086l.723-1.81h4.343v1.81l.724.362-.724 1.086.724.361v-.723h1.81l.362 1.447v-1.809h.723l.362-1.086.724.724.656-.565.792-.521 1.085.362c-.362.724-.362.724-1.085 1.448 1.443.16 1.443.16 2.239-.701.854-1.444.946-2.714 1.018-4.366h.724v.724l.723.362v1.085h-.723l.362 1.086-.724.498-.724.588v.724H143.527l-.723 1.809h.723v-.724l1.448-.723v2.895c1.059.081 1.059.081 1.81-.362l.361.362h1.086l.724.724-.633.452c-.824.641-1.538 1.331-2.262 2.081l2.533.724-.362.723c.145.76.145.76.362 1.448h.724v-.724h.724v-.724h-.724c.113-.7.113-.7.362-1.447l1.085-.362v-.724l.724-.362v-.724h1.086l.724-1.809-1.086-.362.362-.724 1.809.362-.361-1.086-.724.362-.724-.723h.724l.362-1.086 1.085-.724-.362-1.086c-1.175.624-1.175.624-1.447 1.81-.949 0-1.632-.113-2.533-.362v-1.448l2.171-.362-.362-.723c-1.096-.238-1.096-.238-2.171-.362l.723-.362-.361-1.086 1.085-.362-1.085-.362v-.362l-2.172 1.086v-1.086l-.724-.362-.362-.361-.678-.159c-.769-.203-.769-.203-1.855-.927.362-.724.362-.724 1.448-1.448l.362.362 1.085-.362h1.086l.724-1.085.656 1.085.791 1.086h1.086l1.086.724v-1.086l.294.701c.389.867.389.867 1.515 1.109l.362.723.815-.022c.888.02 1.596.133 2.442.384v-.724h.724l.362-1.447 1.81 1.809-.181-.995c-.181-1.176-.181-1.176-.181-2.624a48.617 48.617 0 0 0-.362-1.809l-2.172.362v-2.895h-1.447l.068 1.199c-.068 1.334-.068 1.334-.611 2.035l-.543.385-.362-1.086-1.086.362v2.171l-.723.362v-.724l-1.086.362-.724-1.809-.724.362a276.25 276.25 0 0 0-.362-1.086l.362-.362c-.497-.558-.497-.558-1.085-1.086-.795 0-1.416.119-2.172.362l-.362.724-.362.362-.497.566c-.588.52-.588.52-1.674.52l-.362 1.085h-1.086c-.49.475-.972.958-1.447 1.448h-.724c.253-1.139.637-2.181 1.086-3.257l1.447.362-.362-.634c-.361-.814-.361-.814-.361-2.262a2835 2835 0 0 0 1.809-.361v-1.086h.724c.258-.893.258-.893.362-1.81v-1.085l-.724.361-1.086-.361v.723h-1.085l-.362.724c-1.086-.362-1.086-.362-1.47-1.017l-.34-.792-.407-.815-.317-.633c-1.1.604-1.1.604-1.447 1.448l-.362-.362-.724 1.447-.136-.678c-.18-.838-.18-.838-.95-1.493.136-.905.136-.905.362-1.81v-.723l.362-1.086c1.038.208 1.397.312 2.171 1.086v-.724c.543-.588.543-.588 1.086-1.086l-1.086-.362 2.172-2.171-.362 1.809 1.81-.723.158.859c.159.937.159.937.565 1.674l-.362.724 1.81.723.362-1.085h-1.086l-.158-1.199c-.179-1.171-.4-2.089-.928-3.144h-.723v-1.81h.723v-2.171h.724v-.724c.724.362.724.362 1.448 1.086l.724-.362c.854.339 1.699.7 2.533 1.086v1.085l2.171.362.362 1.086h-.724l.249 1.131c.127 1.577-.162 2.245-.972 3.574-.362-.724-.362-.724-.362-2.172l-.498.543c-.588.543-.588.543-1.312.543v.724l.724.362-1.086.724.362 1.447c1.105.356 1.791.356 2.895 0l-.361 1.086h1.085v.724l.634-.543c.814-.543.814-.543 2.261-.543l.362-.724.724.362c.265.838.507 1.683.724 2.533h1.81l-.362-1.447 1.447-.362.362 1.809-1.447 1.086.814-.429.995-.295c.792.498.792.498 1.448 1.086h.723l.362-.724v1.086l.453-.543c.633-.543.633-.543 2.081-.543l.362-1.086h1.085l.362-.723-.724-.362.724-.362.724.362v-.724l-1.086-.362c0-.724 0-.724.362-1.086-.148-.743-.148-.743-.362-1.447 2.192-.353 2.192-.353 2.896-.362l.723.724c1.007-.147 1.007-.147 1.81-.724.023-.861.024-1.711.01-2.571l-.014-1.6c-.008-.842-.019-1.684-.031-2.525-.011-.812-.017-1.623-.023-2.435l-.015-.754c-.008-1.55.23-2.789.797-4.229 1.503 1.188 1.656 2.954 2.113 4.729.318 1.099.318 1.099 1.19 1.569l.678.216c1.201-1.045 1.378-1.895 1.546-3.449.102-2.973-.438-5.529-1.264-8.374l-.248-.882-.23-.771c-.454-2.734-.146-5.231.603-7.875l.244-.903c.261-.96.528-1.918.796-2.876l.548-1.995a891.631 891.631 0 0 1 1.624-5.808l.229-.815c.444-1.577.896-3.153 1.354-4.727l.325-1.126c1.972-6.622 1.972-6.622 3.158-7.808Zm-17.371 56.456.362 1.448.362-1.448h-.724Zm-19.181 1.81.362.724-.362-.724Zm2.533 6.514 1.086 1.086-.362-1.086h-.724Zm2.172 1.81-.724.724h1.086l-.362-.724Zm-10.857 5.428 1.085.362-.723.724-.362-1.086Zm-16.648 4.343.724.362-.724.362v-.724Z" style="stroke-width:.362px" transform="matrix(.95354 0 0 .95354 5.037 19.088)"/><path fill="#0A2743" d="M171.756 111.827h158.513v283.01h-11.581V121.96h-123.77c.143 24.405.143 24.405.326 48.81.016 4.72.016 4.72.019 6.929.004 1.543.017 3.086.037 4.629.024 1.97.032 3.939.027 5.908.001.723.008 1.445.022 2.168.1 5.407.1 5.407-1.252 7.193-2.213 1.811-2.213 1.811-3.16 1.811v-77.809l-5.429-.362c-1.181-.11-2.359-.223-3.538-.352l-.902-.096c-.925-.098-1.85-.199-2.775-.299l-1.914-.204c-1.541-.164-3.082-.33-4.623-.497v-7.962Z" style="stroke-width:.362px" transform="matrix(.95354 0 0 .95354 5.037 19.088)"/><path fill="#DF603E" d="m195.28 196.151 1.085.723-1.085 2.172h-.724l.362.724.723-.724h1.086l.294-.882.43-.928 1.086-.362.362 1.81 2.533-.724.362 1.086.497-.543c.588-.543.588-.543 1.312-.543l.362-.724.453.679c.566.809.566.809 1.38 1.086.701.407.701.407 1.153 1.538l.271 1.04-1.085-.362c-.793.497-.793.497-1.448 1.086l.362 1.086h-1.086l-.362.723.724.362h-.724l-.362 1.086 1.448 1.448-.362-2.172h1.448l.724-1.809.723 1.085h.724l.724-.723v.723l2.171-.361.362 1.085.498-.543c.588-.542.588-.542 1.312-.542v-1.086l-.724-.724 1.086-.362v-1.086c.904-.61.904-.61 1.809-1.085l-.362-1.448c.679-.384.679-.384 1.448-.724l.724.362v.724l-.362.362h1.447c0 .724 0 .724-.542 1.312l-.543.497.724.724c-.091 1.109-.091 1.109-.362 2.172l-.724.362c-.41.73-.41.73-.724 1.447h-1.448l-.723.724-1.086-1.086-.362 1.086c-.927.43-.927.43-1.81.724l.724.362v1.447l-2.171.724.724 1.086-.362 1.086h-.724l.362 2.171-2.533.724v-.724c-1.528.985-1.528.985-2.896 2.171l.634.317c.524.263 1.045.533 1.561.814.737.392.737.392 1.786.317l.362-1.086-.724-.362h.724l-.362-1.447h1.086v.724h.724l.362-1.448h1.085l.362-1.448 1.448.724-.543.611c-.633.975-.638 1.508-.543 2.646l-1.086-.724v1.086l.679.249c.991.612 1.149 1.196 1.493 2.284l1.086-.361.361 1.085.385-.701c1.001-1.066 1.802-1.034 3.235-1.108 1.063.158 1.063.158 1.809.362.186.745.37 1.486.52 2.239l.204.656.724.362v-1.086l1.447-.362-1.085-.724 1.085-1.085h-1.447v-1.086h1.085v-2.171l.724.723-.362.724 1.448-.362.724-2.533-1.086.362h-1.448c-.384-.656-.384-.656-.723-1.448l.361-1.085h1.086l-.724-.362.362-2.172-.724-.362c.284-.424.571-.845.86-1.266l.483-.713.467-.554h.724l.724 1.448h.723v1.447h.724l-.362 2.172.724-.362c.236-.733.236-.733.362-1.448h.362c.122.52.242 1.041.362 1.561l.204.878c.194 1.006.158 1.966.158 2.99l.362.723.791-.904c1.018-.905 1.018-.905 2.036-1.018l.792.113c-.443 1.463-.943 2.717-1.81 3.981-1.216.608-1.892.724-3.257.724l-1.086.362-.362-1.086-1.447.724.362.723h-.724l.362 1.086h-.724l-.362 2.895.724.362c-.803 1.053-1.422 1.793-2.533 2.534l.723 1.447-1.447.362 1.447.724v-.724h2.172v.724h-.724l-.362 1.086-.362-.724-2.171 1.086-.724-.724-.724.724-.362-.724-1.809.362.362-1.448h1.085l-1.447-.724h.724l.361-.724 1.086.724-.724-1.447-1.085.362-.362-.724-.724 1.447-.611-1.085c-.713-1.188-.713-1.188-1.832-1.222l-.814.136.362 1.448-2.172.361v-1.085c-1.226 0-1.367.129-2.239.904l-1.018.905.362.724v1.086h1.086v.724h-.724v.723l1.086-.362h.362l.271-.881c.452-.928.452-.928 1.221-1.222l.679-.068v3.619l-.724.362v1.448h.724v1.809h-1.086c-.369.355-.731.716-1.085 1.086l.361.724-1.085.362c-.249-.902-.362-1.585-.362-2.534l-.882-.136-.928-.226-.362-.724-.678.181c-.769.181-.769.181-1.493.181l-.362 1.448-1.809.362-.362-1.086h-.724c.292.484.587.966.882 1.448l.496.814.431.633h.362l.475-.52c.686-.634 1.151-.77 2.059-.927v.724l1.447-.724v.724l.724.362c-1.04 1.764-1.04 1.764-1.448 2.171.868.246.868.246 1.81.362l.724-.724h.724v-.724c1.085.362 1.085.362 1.447.724h1.086l-.362-.724.362-.362-.724-.362c.091-.678.091-.678.362-1.447.633-.407.633-.407 1.448-.724l.904-.43c.979-.318 1.404-.283 2.353.068l-.362.724h1.447l.362-1.086 2.534.362.362-.724c.859.091.859.091 1.809.362.475.747.475.747.724 1.448v-.724l.859-.317c.985-.352.985-.352 1.674-1.131v2.172l.724-1.448c1.086.362 1.086.362 1.448 1.086l1.809-.724-1.447-1.448 1.447-.723v-.724l-1.086-.362.362-3.257-.723 2.533h-.724v-1.086l-1.086.362v-.723l-1.448.361v-.723l1.81-.724.362.362-.226-1.018c-.136-1.154-.136-1.154.588-2.239v-1.086l3.257-1.086c.943 1.822 1.762 3.62 2.42 5.564l.266.77.592 1.725c.388 1.124.783 2.246 1.179 3.367l.881 2.507.426 1.204c.385 1.103.753 2.209 1.112 3.32l.279.807c.714 2.446.269 4.857-.078 7.334-.19 1.367-.36 2.736-.53 4.105l-.106.842c-.849 6.936-1.082 13.954-1.375 20.931-2.903.318-5.774.42-8.694.423l-1.34.004c-.932.002-1.865.002-2.798.002-1.401.001-2.802.008-4.204.014-7.01.017-13.832-.392-20.737-1.619l-1.331-.233c-5.158-.935-10.294-2.101-15.181-4.019.946-8.567 1.911-17.133 2.895-25.696-1.369 3.291-2.585 6.556-3.528 9.998l-.355 1.272c-.255.922-.51 1.844-.763 2.767a550.441 550.441 0 0 1-1.155 4.129c-.34 1.202-.674 2.405-1.008 3.609l-.495 1.761c-1.288 4.544-1.811 7.997-.477 12.587.917 3.396 1.762 6.868.181 10.201-.588.656-.588.656-1.085 1.086-.902-.35-1.354-.532-1.789-1.418l-.224-.821c-.438-1.487-.975-2.861-1.606-4.275h-.362c-.379 1.53-.393 2.995-.359 4.56l.018 1.601c.011.835.024 1.67.041 2.506.015.81.024 1.62.031 2.43l.02.757c.006 1.056.002 1.735-.618 2.613-.581.371-.581.371-1.282.28l-.747-.271c-.947-.284-1.526-.355-2.533-.272-1.086-.09-1.086-.09-1.9-.882a13.32 13.32 0 0 1-1.357-2.827l-.837.09c-.973-.09-.973-.09-1.583-.678-1.14-2.064-1.328-3.938-1.312-6.243l.005-.913c.091-4.884.973-9.839 3.727-13.97.211-.995.211-.995.337-2.143l.168-1.354.174-1.48.187-1.538c.35-2.908.665-5.818.959-8.732l.094-.931c.15-1.493.298-2.987.439-4.481.283-2.917.625-5.816 1.074-8.712l.129-.839c.743-4.611 2.35-8.664 4.52-12.773.623-1.131.623-1.131.967-2.255l-1.086-.362a18.954 18.954 0 0 1 1.817-4.162l.662-1.142.71-1.21.734-1.259c.499-.855 1-1.71 1.501-2.565a595.742 595.742 0 0 0 2.006-3.454c3.02-5.208 6.123-10.069 10.303-14.437l.652-.708c1.537-1.621 3.243-2.823 5.139-3.996Zm26.78 16.285v.724l.724-.362-.724-.362Zm-1.809 5.791h.724v1.809h-.724v-1.809Zm7.238 13.028.724.362-.724-.362Z" style="stroke-width:.362px" transform="matrix(.95354 0 0 .95354 5.037 19.088)"/><path fill="#092742" d="M171.756 111.827h158.513v283.01H319.05V121.96h.362l.362 30.762v-11.581l.724-.362c.41-.729.41-.729.724-1.447l.995.045c1.162-.044 1.627-.253 2.624-.769 1.086.362 1.086.362 1.809 1.086l1.81-1.81 1.086.724.361-26.057c-14.538.022-29.076.049-43.614.083l-5.147.012-1.035.003c-5.533.012-11.067.021-16.6.029-5.676.008-11.352.02-17.028.036-3.503.009-7.007.015-10.511.018-2.401.002-4.802.008-7.203.017-1.386.005-2.772.008-4.158.006-1.502-.001-3.004.006-4.506.014l-1.332-.006-1.218.011-1.051.002c-1.141.163-1.819.581-2.767 1.223l-.81.438c-.745.418-1.426.829-2.086 1.371-.301.937-.301.937 0 1.81l.724 1.085h-.724c-.214.705-.214.705-.362 1.448.382.458.382.458 1.245.452l.927-.09.724-1.086v1.448h1.809v.362h-21.352v.723l-2.171.362.001.711c.008 5.834.014 11.668.017 17.502.002 2.822.005 5.643.009 8.465.022 15.238-.089 30.468-.389 45.703h-.362v-73.104l-5.429-.362c-1.181-.11-2.359-.223-3.538-.352l-.902-.096c-.925-.098-1.85-.199-2.775-.299l-1.914-.204c-1.541-.164-3.082-.33-4.623-.497v-7.962Zm157.79 31.486c-.409 9.307-.411 18.608-.399 27.922l.003 6.392c.001 4.015.004 8.03.008 12.046.004 4.579.006 9.158.008 13.737.003 9.403.01 18.805.018 28.207h-.362l-.724-1.448-1.448 1.086v-1.086l-2.171.362v1.448l-1.086.362v.724l-.995-.385c-1.132-.326-1.557-.387-2.624.023a39.616 39.616 0 0 0-.406 5.727l-.002.821c0 .904.001 1.809.003 2.713l-.001 1.969c-.001 1.801 0 3.602.002 5.403.002 1.943.001 3.885.001 5.828 0 3.366.001 6.731.003 10.096.003 4.866.004 9.732.004 14.598.001 7.894.003 15.788.007 23.683.003 7.668.006 15.337.007 23.005l.001 1.433.001 7.114c.004 19.673.01 39.347.018 59.02h10.495v-250.8h-.361Z" style="stroke-width:.362px" transform="matrix(.95354 0 0 .95354 5.037 19.088)"/><path fill="#DF613E" d="m195.28 196.151 1.085.723-1.085 2.172h-.724l.362.724.723-.724h1.086l.294-.882.43-.928 1.086-.362.362 1.81 2.533-.724.362 1.086.497-.543c.588-.543.588-.543 1.312-.543l.362-.724.453.679c.566.809.566.809 1.38 1.086.701.407.701.407 1.153 1.538l.271 1.04-1.085-.362c-.793.497-.793.497-1.448 1.086l.362 1.086h-1.086l-.362.723.724.362h-.724l-.362 1.086 1.448 1.448-.362-2.172h1.448l.724-1.809.723 1.085h.724l.724-.723v.723l2.171-.361.362 1.085.498-.543c.588-.542.588-.542 1.312-.542v-1.086l-.724-.724 1.086-.362v-1.086c.904-.61.904-.61 1.809-1.085l-.362-1.448c.679-.384.679-.384 1.448-.724l.724.362v.724l-.362.362h1.447c0 .724 0 .724-.542 1.312l-.543.497.724.724c-.091 1.109-.091 1.109-.362 2.172l-.724.362c-.41.73-.41.73-.724 1.447h-1.448l-.723.724-1.086-1.086-.362 1.086c-.927.43-.927.43-1.81.724l.724.362v1.447l-2.171.724.724 1.086-.362 1.086h-.724l.362 2.171-2.533.724v-.724c-1.528.985-1.528.985-2.896 2.171l.634.317c.524.263 1.045.533 1.561.814.737.392.737.392 1.786.317l.362-1.086-.724-.362h.724l-.362-1.447h1.086v.724h.724l.362-1.448h1.085l.362-1.448 1.448.724-.543.611c-.633.975-.638 1.508-.543 2.646l-1.086-.724v1.086l.679.249c.991.612 1.149 1.196 1.493 2.284l1.086-.361.361 1.085.385-.701c1.001-1.066 1.802-1.034 3.235-1.108 1.063.158 1.063.158 1.809.362.186.745.37 1.486.52 2.239l.204.656.724.362v-1.086l1.447-.362-1.085-.724 1.085-1.085h-1.447v-1.086h1.085v-2.171l.724.723-.362.724 1.448-.362.724-2.533-1.086.362h-1.448c-.384-.656-.384-.656-.723-1.448l.361-1.085h1.086l-.724-.362.362-2.172-.724-.362c.284-.424.571-.845.86-1.266l.483-.713.467-.554h.724l.724 1.448h.723v1.447h.724l-.362 2.172.724-.362c.236-.733.236-.733.362-1.448h.362c.122.52.242 1.041.362 1.561l.204.878c.194 1.006.158 1.966.158 2.99l.362.723.791-.904c1.018-.905 1.018-.905 2.036-1.018l.792.113c-.443 1.463-.943 2.717-1.81 3.981-1.216.608-1.892.724-3.257.724l-1.086.362-.362-1.086-1.447.724.362.723h-.724l.362 1.086h-.724l-.362 2.895.724.362c-.803 1.053-1.422 1.793-2.533 2.534l.723 1.447-1.447.362 1.447.724v-.724h2.172v.724h-.724l-.362 1.086-.362-.724-2.171 1.086-.724-.724-.724.724-.362-.724-1.809.362.362-1.448h1.085l-1.447-.724h.724l.361-.724 1.086.724-.724-1.447-1.085.362-.362-.724-.724 1.447-.611-1.085c-.713-1.188-.713-1.188-1.832-1.222l-.814.136.362 1.448-2.172.361v-1.085c-1.226 0-1.367.129-2.239.904l-1.018.905-.724-.362-.362 1.086-.384.724c-.416.754-.416.754-.339 1.809l-.701.317c-.802.345-.802.345-1.109 1.131h-1.086c-.61.52-.61.52-1.085 1.086l.226-.611c.175-1.079-.149-1.663-.588-2.646v-.724h.724v-.724l-1.448.724c-.724-.724-.724-.724-.882-1.584-.225-1.05-.6-1.588-1.289-2.397 0 .78.161 1.42.361 2.171h-.723l.362 1.086h-.724v.724l.724.362-1.086.723-.724 1.086v-.724l-1.04.204c-1.131.158-1.131.158-1.855-.204l-.362 1.81h-.724v1.086l1.81-.362.362 1.447.723-.362-.362 1.448h-.723l-.362.724c-.357.486-.719.969-1.086 1.447l1.086 1.086-1.81.724v.724l-.724-.362v-1.086h-.723l-.362.724h-.724v.724h1.086v.724l.723.723c.522-.521.767-1.149 1.086-1.809h.724v.724l.724.362-.724.361c-.238 1.097-.238 1.097-.362 2.172h1.086c-.068.678-.068.678-.362 1.447-.927.453-.927.453-1.81.724l-.362-2.171-1.085-.362v1.809c-.86-.112-.86-.112-1.81-.361-1.034-1.551-.849-2.883-.543-4.682l.181-.747-1.809.724.068 1.176c-.073 1.445-.264 1.749-1.154 2.805-.041-2.211.038-4.325.362-6.514l-.892-.245c-1.6-.599-2.94-1.444-4.378-2.356a116.905 116.905 0 0 0-8.12-4.638v-.723l-1.086-.362a18.954 18.954 0 0 1 1.817-4.162l.662-1.142.71-1.21.734-1.259c.499-.855 1-1.71 1.501-2.565a595.742 595.742 0 0 0 2.006-3.454c3.02-5.208 6.123-10.069 10.303-14.437l.652-.708c1.537-1.621 3.243-2.823 5.139-3.996Zm26.78 16.285v.724l.724-.362-.724-.362Zm-1.809 5.791h.724v1.809h-.724v-1.809Z" style="stroke-width:.362px" transform="matrix(.95354 0 0 .95354 5.037 19.088)"/><path fill="#0A2641" d="M241.921 144.156c1.73 1.363 3.528 3.1 4.025 5.309.16 2.014.123 3.368-1.086 5.067-1.556 1.271-3.035 2.019-5.066 2.171l.362 1.154c.649 2.65.906 5.638-.317 8.143-.769 1.198-.769 1.198-1.493 1.922-.837.045-.837.045-1.81-.362-.527-.706-.952-1.429-1.371-2.203-.441-.8-.441-.8-1.524-1.416-1.935-.156-3.136-.169-4.704 1.086-1.268 1.449-1.56 2.715-1.524 4.64.252 2.61 1.555 4.376 3.333 6.217-2.264 3.498-5.345 5.547-9.409 6.514-2.34.258-4.559.37-6.515-1.085-4.817-4.505-8.072-11.606-8.427-18.173-.178-5.702 1.296-11.213 5.268-15.466 7.738-7.775 20.919-9.629 30.258-3.518Z" style="stroke-width:.362px" transform="matrix(.95354 0 0 .95354 5.037 19.088)"/><path fill="#F3AF7C" d="M302.38 233.517c.385.633.385.633.385 2.081l.859.136c.95.226.95.226 1.674.95l-.068 1.04.068 1.131c.596.492 1.199.975 1.81 1.448.203.927.203.927 0 1.809-.724.656-.724.656-1.448 1.086l.724 1.086c0 .882 0 .882-.362 1.809-1.255 1.057-2.598 1.648-4.094 2.307-2.462 1.101-4.528 2.469-6.611 4.175l-.707.578c-.462.38-.92.763-1.375 1.15-3.221 2.667-6.473 3.314-10.556 3.914-4.404.675-4.404.675-8.754 1.629-4.213 1.057-8.502 1.78-12.779 2.533l-1.133.2c-3.577.557-7.316.609-10.424-1.369-3.57-2.708-5.481-7.489-7.466-11.384l-.484-.945-.444-.892-.397-.791c-.281-.743-.281-.743-.281-2.191l1.263-.505a110.306 110.306 0 0 0 10.944-5.177l.777-.418c.526-.283 1.05-.568 1.573-.855a35.208 35.208 0 0 1 2.091-1.006l1.086.362c.355.739.355.739.66 1.698l.336 1.035.338 1.089.351 1.094c.287.893.569 1.788.848 2.683 2.226.028 4.453.047 6.68.06.755.006 1.51.013 2.265.023 7.706.412 7.706.412 14.451-2.642l.557-.562 1.271-1.172.613-.583c3.111-2.95 11.114-9.611 15.759-6.614Z" style="stroke-width:.362px" transform="matrix(.95354 0 0 .95354 5.037 19.088)"/><path fill="#F2B17D" d="M172.842 230.169c2.035.565 3.717 1.556 5.519 2.624l.922.541a422.116 422.116 0 0 1 5.604 3.341c.629.386.629.386 1.345.733.207 3.524-.687 6.746-2.058 9.975-1.589 3.769-2.594 7.724-3.674 11.661a550.441 550.441 0 0 1-1.155 4.129c-.34 1.202-.674 2.405-1.008 3.609l-.495 1.761c-1.288 4.544-1.811 7.997-.477 12.587.917 3.396 1.762 6.868.181 10.201-.588.656-.588.656-1.085 1.086-.902-.35-1.354-.532-1.789-1.418l-.224-.821c-.438-1.487-.975-2.861-1.606-4.275h-.362c-.379 1.53-.393 2.995-.359 4.56l.018 1.601c.011.835.024 1.67.041 2.506.015.81.024 1.62.031 2.43l.02.757c.006 1.056.002 1.735-.618 2.613-.581.371-.581.371-1.282.28l-.747-.271c-.947-.284-1.526-.355-2.533-.272-1.086-.09-1.086-.09-1.9-.882a13.32 13.32 0 0 1-1.357-2.827l-.837.09c-.973-.09-.973-.09-1.583-.678-1.14-2.064-1.328-3.938-1.312-6.243l.005-.913c.091-4.884.973-9.839 3.727-13.97.211-.995.211-.995.337-2.143l.168-1.354.174-1.48.187-1.538c.35-2.908.665-5.818.959-8.732l.094-.931c.15-1.493.298-2.987.439-4.481.283-2.917.626-5.816 1.076-8.714l.129-.839c.852-5.279 2.861-9.685 5.485-14.303Z" style="stroke-width:.362px" transform="matrix(.95354 0 0 .95354 5.037 19.088)"/><path fill="#1F4B72" d="M108.423 112.913c9.575.833 9.575.833 13.006 1.312l1.089.147c.851.115 1.702.232 2.552.35v.362l-1.809.362v.362l-2.172.724 1.086.724v.724h.724l.362-1.086v1.447h.362c0 1.086 0 1.086-.362 2.172h-.724c-.488.23-.972.47-1.448.724v-.724h-.723v-.724h-.724v.724h-1.086l.362 1.447.724-.723c.454 1.363.134 1.944-.362 3.257l-.837-.023c-1.01-.024-1.01-.024-2.058.385l-.362 1.085-1.086.362.362 1.448h-.724l-.362 1.448h-1.447v.723l-.724.724c-.45.688-.45.688-.724 1.448l.362 1.085c-.86.227-.86.227-1.81.362l-.723-.723c-.017 8.575-.03 17.151-.038 25.726-.004 3.981-.009 7.963-.017 11.944-.007 3.47-.012 6.938-.013 10.408-.002 1.838-.004 3.676-.009 5.513-.005 1.729-.006 3.457-.005 5.185-.001.636-.002 1.272-.005 1.907-.003.865-.002 1.73 0 2.596l-.007.77c-.027 1.431-.027 1.431.817 2.541-.135.95-.135.95-.361 1.809h.723l.724-1.809h.724c.226.656.226.656.362 1.447l-.724 1.086 1.244-.022c1.289.022 1.289.022 1.651.384.606-.104 1.21-.223 1.81-.362v1.086l-1.086.362h1.448l-.362 1.085v-.723h-.724l.724 2.171h-1.448c-.246.685-.246.685-.362 1.448l.724.723v.362l1.81.362.361 1.086h1.81l.362-.724-.362 1.448-1.086-.362v.724h.724v3.257l-.724-1.086-.724.724-.723-.362v.724l-1.448.362v1.085l1.448.724-.362 1.448 1.809.724-.362.723-1.809-.362v.724l.724.724-.724.362.407.837.317.973-.724 1.085.362-.362 1.085-.362.724 2.534-.61-.226c-1.14-.185-1.654.002-2.647.588-.667 1.092-.667 1.092-1.086 2.171h-1.085l.384.86.34.95-.362.723h.723l.362.724 2.534-.724c.362.362.362.362.384 1.29l-.022.882h1.809l.362-.724h1.81v-3.619l1.809.362.724-1.086c-1.27-.61-1.27-.61-2.646-.588l-.611.226 1.447-2.171c1.262.234 2.182.761 3.257 1.447l-.723 1.81 1.447.362-.724.362c1.191.397 1.706.289 2.896 0l-.362-1.448h.724c.88 1.219 1.085 1.713 1.085 3.257.513.634.513.634 1.086 1.086-.931.586-1.331.74-2.443.588l-.814-.226v-1.448l-.724 2.172-1.448-.362.724 1.085c-.135.973-.135.973-.362 1.81l-1.809.362v1.086h.724l.362-.724v1.086l-1.81.723-.724-.723-.362 2.171h.724l.362 1.448-1.086.361-1.447-1.447h1.085v-1.086h-.723v.724h-.724l-.091.679c-.271.769-.271.769-1.017 1.221l-.702.271 1.448 1.81-.362.362.724.724-.724.361.724 1.086 1.809-.362v.724l.634-.181c.814-.181.814-.181 2.262-.181v.724l.723.362-.723.362 1.289.362c2.121.787 3.407 2.423 4.565 4.314.737 1.86.585 4.283-.132 6.136-1.253 2.16-2.622 3.247-4.999 4.026-2.007.297-3.35-.193-5.034-1.236-1.306-.991-2.065-1.893-2.566-3.469-.367-2.771-.491-5.466 1.263-7.774.837-.841 1.682-1.419 2.718-1.997l-1.809.724-.362-1.448c-1.087-.12-1.087-.12-1.696.543l-.476.543-1.085-1.086.724-.724v1.086h.723c.249-.852.249-.852.362-1.81l-.724-1.085-.18-1.289c-.058-1.265-.058-1.265-.905-1.969l1.085-.361-.361-1.086 1.447-.362a54.06 54.06 0 0 0-.724-3.257l.86.204c.939.252.939.252 1.674-.204l.724.362-.362-1.81.723.362V233.427h-.723l-.724 2.533-1.448.362c-.724-1.403-.724-1.403-.724-1.81h-.723l-.362.724-1.448-.362-.09.679-.272.769-.724.339-.723.385-.362 1.809 3.619.724-.362 1.448c-1.127 0-1.849-.063-2.895-.362l-.362 1.085c-1.086.362-1.086.362-1.81.362l-.724.724-1.085-.724V400.99h3.619v.361c-1.544.373-2.669.362-4.343.362v-288.8Zm11.943 5.79v1.086l.723.362 1.086-.724-1.809-.724Zm-7.238 10.496.361 1.447-.361-1.447Zm3.98 79.98.724.362-.724-.362Zm1.086 8.686.724.362-.724-.362Z" style="stroke-width:.362px" transform="matrix(.95354 0 0 .95354 5.037 19.088)"/><path fill="#041326" d="M171.756 111.827h158.513v283.01H319.05V121.96h.362v272.153h10.495V112.551c-60.844-9.177-60.844-9.177-116.17 1.448l-.81.438c-.745.418-1.426.829-2.086 1.371-.301.937-.301.937 0 1.81l.724 1.085h-.724c-.214.705-.214.705-.362 1.448.382.458.382.458 1.245.452l.927-.09.724-1.086v1.448h1.809v.362h-21.352v.723l-2.171.362.001.711c.008 5.834.014 11.668.017 17.502.002 2.822.005 5.643.009 8.465.022 15.238-.089 30.468-.389 45.703h-.362v-73.104l-5.429-.362c-1.181-.11-2.359-.223-3.538-.352l-.902-.096c-.925-.098-1.85-.199-2.775-.299l-1.914-.204c-1.541-.164-3.082-.33-4.623-.497v-7.962Z" style="stroke-width:.362px" transform="matrix(.95354 0 0 .95354 5.037 19.088)"/><path fill="#0A1B24" d="M157.642 376.38c.119.235.238.478.362.724.256.094.512.192.776.293 1.314.547 2.34 1.372 3.453 2.24a33.139 33.139 0 0 0 5.662 3.522c3.566 1.773 3.566 1.773 4.488 3.318.284 1.126.383 2.135.459 3.294.22 1.328.47 2.652.723 3.98.259-.036.518-.068.785-.101 1.186-.148 2.372-.297 3.558-.441.407-.055.815-.105 1.234-.16 2.14-.26 4.21-.448 6.366-.383v.362c-1.319.184-2.638.362-3.958.542-.37.051-.74.102-1.12.156-2.191.293-4.293.442-6.503.387 1.048 3.066 2.107 4.948 4.705 6.877 4.088 3.286 4.088 3.286 4.466 5.924.063 1.574.063 1.574-.123 2.399-2.286 1.524-5.014 1.151-7.668 1.151-.428.004-.855.011-1.296.015-6.157.01-9.817-1.531-14.198-5.87-6.152-6.421-6.152-6.421-6.152-7.962h-3.257v-.362c1.074-.181 1.074-.181 2.171-.362l-.503-.572c-.46-.521-.917-1.046-1.372-1.571a54.054 54.054 0 0 0-1.518-1.657c-.807-1.245-1.095-2.342-.95-3.8 1.587-4.531 6.053-8.588 9.41-11.943Z" style="stroke-width:.362px" transform="matrix(.95354 0 0 .95354 5.037 19.088)"/><path fill="#F3B17D" d="M244.136 154.894c.933.467.954.776 1.284 1.748.633 2.009.792 4.012.978 6.101.336 3.243.929 5.702 2.651 8.472.63 1.283.649 2.17.516 3.583-.588.883-.588.883-1.448 1.448-.723.022-1.448.025-2.171 0l-.016.876c-.166 3.846-1.057 7.638-3.965 10.343-2.031 1.449-4.054 1.793-6.514 1.448-.61-.223-1.216-.46-1.81-.724l-.145.965-.194 1.274-.191 1.26a73.593 73.593 0 0 1-.555 3.015l-.7-.182c-5.987-1.55-11.925-3.049-18.119-3.437.234-2.152.622-4.225 1.108-6.333l.204-.902.497-2.175c.219.059.439.117.665.176 3.579.852 6.859-.049 10.016-1.752 1.868-1.152 3.003-2.353 4.157-4.214l-.437-.452c-1.781-1.942-2.833-3.797-2.956-6.469.211-2.179 1-3.613 2.669-5.022 1.353-.45 2.579-.595 3.981-.362 1.673 1.074 2.494 2.159 3.257 3.981.864.047.864.047 1.81-.362 2.216-3.114 1.652-6.887 1.086-10.495.707-.312 1.416-.62 2.126-.927l1.196-.522 1.02-.36Z" style="stroke-width:.362px" transform="matrix(.95354 0 0 .95354 5.037 19.088)"/><path fill="#0A1B24" d="M263.679 389.047c-.836.235-1.672.477-2.533.724 2.081 2.203 4.103 3.731 7.08 4.523l.784.221c1.561.431 3.132.8 4.713 1.147l1.069.236c.689.148 1.379.293 2.069.43 2.444.518 4.309 1.209 6.158 2.964.755 1.299.829 2.027.565 3.507-5.351 6.243-20.08 7.296-27.615 7.9a92.027 92.027 0 0 1-5.092.152l-1.05.022c-3.364.018-3.364.018-4.605-1.198-1.162-2.287-1.265-4.411-1.312-6.945-.019-.698-.038-1.397-.059-2.095l-.03-1.061c-.08-1.943-.244-3.883-.408-5.823l.811-.144c6.742-1.177 6.742-1.177 13.368-2.863.989-.242 1.817-.3 2.83-.25l.362-1.085c1.2-.634 1.58-.804 2.895-.362Z" style="stroke-width:.362px" transform="matrix(.95354 0 0 .95354 5.037 19.088)"/><path fill="#DD603D" d="m186.3 207.709.656.384-.362 1.448.724.362-1.086 3.257 2.533.724v2.171l-1.447-.362v1.086l-.724.724h.724l.362-.724 1.085.362 1.086-4.705 1.81.724c-.404 2.236-.815 4.47-1.232 6.702-1.062 5.713-2.046 11.414-2.749 17.184.469-.386.469-.386.384-1.289l-.023-.883 2.534-.362.362 1.086 1.809.362v-1.086l-1.085-.362c-.249-.746-.249-.746-.362-1.447l.791.203c1.064.166 1.793.063 2.828-.203l.362 1.447.723-.362-.362 1.448h-.723l-.362.724c-.357.486-.719.969-1.086 1.447l1.086 1.086-1.81.724v.724l-.724-.362v-1.086h-.723l-.362.724h-.724v.724h1.086v.724l.723.723c.522-.521.767-1.149 1.086-1.809h.724v.724l.724.362-.724.361c-.238 1.097-.238 1.097-.362 2.172h1.086c-.068.678-.068.678-.362 1.447-.927.453-.927.453-1.81.724l-.362-2.171-1.085-.362v1.809c-.86-.112-.86-.112-1.81-.361-1.034-1.551-.849-2.883-.543-4.682l.181-.747-1.809.724.068 1.176c-.073 1.445-.264 1.749-1.154 2.805-.041-2.211.038-4.325.362-6.514l-.892-.245c-1.6-.599-2.94-1.444-4.378-2.356a116.905 116.905 0 0 0-8.12-4.638v-.723l-1.086-.362a18.954 18.954 0 0 1 1.817-4.162l.662-1.143.71-1.209.728-1.249 1.496-2.554a470.62 470.62 0 0 0 2.106-3.64l1.257-2.17.588-1.03.549-.939.475-.824c.469-.623.469-.623 1.555-.985l.362-.724c.549-1.099 1.135-1.219 2.239-.746Zm-.792.384.724.724v-.724h-.724Z" style="stroke-width:.362px" transform="matrix(.95354 0 0 .95354 5.037 19.088)"/><path fill="#F3B07D" d="M304.212 235.598c.665.484.665.484 1.086 1.086l-.045 1.063.045 1.108c.596.492 1.199.975 1.81 1.448.203.927.203.927 0 1.809-.724.656-.724.656-1.448 1.086l.724 1.086c0 .882 0 .882-.362 1.809-1.255 1.057-2.598 1.648-4.094 2.307-2.75 1.23-4.994 2.847-7.312 4.751-4.245 3.473-7.418 4.412-12.842 4.885.228-1.791.477-3.158 1.448-4.705.791-.497.791-.497 1.448-.724l-.023-1.357c-.002-1.054.048-1.975.384-2.985l1.81-.362-.045-.792c.048-1.093.317-1.839.769-2.827l1.086.362 1.085-.362.362.362v-1.086c.294-.769.294-.769.724-1.448l1.086-.362-.724-.723-.724-.724 1.086-.362.724.362.361-1.81 1.086-.362c.265-.729.265-.729.362-1.447l.703-.054c1.45-.125 2.764-.261 4.16-.693 1.735-.456 3.488-.603 5.27-.339Z" style="stroke-width:.362px" transform="matrix(.95354 0 0 .95354 5.037 19.088)"/><path fill="#11335E" d="M108.423 112.913c9.575.833 9.575.833 13.006 1.312l1.089.147c.851.115 1.702.232 2.552.35v.362l-1.809.362v.362l-2.172.724 1.086.724v.724h.724l.362-1.086v1.447h.362c0 1.086 0 1.086-.362 2.172h-.724c-.488.23-.972.47-1.448.724v-.724h-.723v-.724h-.724v.724h-1.086l.362 1.447.724-.723c.454 1.363.134 1.944-.362 3.257l-.837-.023c-1.01-.024-1.01-.024-2.058.385l-.362 1.085-1.086.362.362 1.448h-.724l-.362 1.448h-1.447v.723l-.724.724c-.45.688-.45.688-.724 1.448l.362 1.085c-.86.227-.86.227-1.81.362l-.723-.723V400.99h3.619v.361c-1.544.373-2.669.362-4.343.362v-288.8Zm11.943 5.79v1.086l.723.362 1.086-.724-1.809-.724Zm-7.238 10.496.361 1.447-.361-1.447Z" style="stroke-width:.362px" transform="matrix(.95354 0 0 .95354 5.037 19.088)"/><path fill="#F3B37F" d="M165.603 265.636c1.086 1.312 1.086 1.312 1.086 2.533h-.724c-.019.573-.033 1.146-.045 1.719l-.025.967c.074.975.3 1.549.794 2.381h-1.086c.348.844.348.844 1.448 1.448l.724.723c1.055-.388 1.729-.643 2.533-1.447l.362 2.533-1.086-.724-.723 1.086h.723l.362 1.086h.724l.362.723 1.448-1.085c.723.362.723.362 1.085 1.085v-.723l1.448-.362.362 1.809h.724l.362 2.534-1.448-1.448-.724 1.809-1.086-1.447.362-.724h-1.809l.724 2.533h-.724l-.362.724h-.724c.281 1.113.281 1.113 1.086 1.81l-.724.724h1.086c.027 1.938.046 3.877.059 5.816.006.659.013 1.319.023 1.979.013.947.019 1.895.024 2.843l.017.894c.001 2.065.001 2.065-.63 2.855l-.579.451c-.701-.091-.701-.091-1.448-.362-.947-.284-1.526-.355-2.533-.272-1.086-.09-1.086-.09-1.9-.882a13.32 13.32 0 0 1-1.357-2.827l-.837.09c-.973-.09-.973-.09-1.583-.678-1.14-2.064-1.328-3.938-1.312-6.243l.005-.913c.091-4.884.973-9.839 3.727-13.97.187-.897.187-.897.283-1.902l.131-1.117.257-2.335.132-1.117.112-1.024c.171-.829.171-.829.894-1.553Zm-.723 7.238v1.81l.723-.724-.723-1.086Z" style="stroke-width:.362px" transform="matrix(.95354 0 0 .95354 5.037 19.088)"/><path fill="#214E76" d="M190.213 366.967h.362v24.975c-1.314.119-2.628.235-3.981.362v.724c-.212-.011-.424-.018-.642-.029-2.54-.051-5 .177-7.516.492a33.601 33.601 0 0 1-4.871.26c-1.595-5.283-1.595-5.283-1.809-7.961 1.88.575 3.643 1.353 5.428 2.171l.241-.709c.662-1.509 1.539-2.841 2.428-4.224l1.178-1.845.611-.956c.971-1.52 1.932-3.047 2.894-4.571.359-.572.72-1.14 1.08-1.711l1.775-2.812c.333-.529.333-.529.673-1.065.183-.293.367-.582.556-.883a29.717 29.717 0 0 1 1.593-2.218Z" style="stroke-width:.362px" transform="matrix(.95354 0 0 .95354 5.037 19.088)"/><path fill="#DF623F" d="M236.175 260.569h.361v2.172l-1.085-.362v1.086h-.724v.723h1.448l-.006 1.019c-.006 1.245-.011 2.49-.014 3.735l-.008 1.618c-.004.774-.006 1.548-.008 2.323l-.005 1.413c-.037 1.081-.037 1.081.402 1.835-2.784.303-5.528.412-8.328.398l-1.2-.002a2181.993 2181.993 0 0 0-6.31-.016c-2.079-.004-4.158-.01-6.238-.018l1.086-1.086h-1.809c.778-.895 1.345-1.289 2.533-1.447l.362.362v-.724h-1.448v-.724h-.724a162.78 162.78 0 0 0-.362-.724l-1.085-.724 1.085-.723v-1.086h1.448l.362-1.448 2.171.362.362-1.086c.905.498.905.498 1.81 1.086v.724l.362-.362.724-.724.723.362-.362-1.447h-.723l.723-1.81.724.362c1.124 0 1.576-.195 2.534-.724l-.724-1.086 2.533-.723c.724.723.724.723.724 1.447h-1.086v.724l1.448-.362.362.724.362-.724h.723v-2.171l-1.085-.362v-.724c1.089-.338 1.399-.378 2.533 0l.362-.724c.529.959.724 1.41.724 2.534l.678.158c.769.203.769.203 1.493.565.4-.865.4-.865.724-1.809l-.362-.724 1.81.362v-1.448Zm-19.181 13.029.362.724-.362-.724Z" style="stroke-width:.362px" transform="matrix(.95354 0 0 .95354 5.037 19.088)"/><path fill="#1E2F43" d="M195.759 121.192h1.142l1.312-.002 1.461.003h1.537c1.414-.002 2.829 0 4.243.002 1.523.002 3.046.001 4.569 0 2.641 0 5.281.002 7.922.004 3.818.003 7.636.003 11.454.004 6.194.001 12.387.003 18.581.007l18.055.007h1.123l5.579.002c15.438.004 30.876.01 46.313.018.458.915.406 1.539.405 2.563l.001 1.19-.005 1.321v1.399c-.001 1.291-.004 2.582-.007 3.873a9072.521 9072.521 0 0 1-.017 11.578c-.007 3.655-.011 7.311-.016 10.967l-.027 18.445c-.011 6.09-.02 12.18-.029 18.27l-.001 1.147-.008 5.762c-.019 13.616-.039 27.232-.061 40.848-.021 13.23-.041 26.46-.06 39.691l-.002 1.235-.018 12.279-.036 25.016-.001 1.162c-.038 25.617-.077 51.235-.118 76.854h-.362V121.96h-123.77v74.552h-.362c-.009-9.761-.015-19.522-.019-29.283-.002-4.532-.004-9.064-.008-13.596-.004-3.949-.007-7.897-.007-11.846-.001-2.092-.002-4.184-.005-6.276-.002-1.967-.003-3.934-.002-5.9l-.002-2.173c-.002-.984-.002-1.968-.001-2.952l-.003-.88c.007-2.348.007-2.348 1.25-2.414Z" style="stroke-width:.362px" transform="matrix(.95354 0 0 .95354 5.037 19.088)"/><path fill="#092743" d="M172.118 112.551h21.714l-.362 2.171.362.724-.905.792c-.993.92-.993.92-1.018 2.036l.113.791.724.362-1.447.362-.362 1.448c-2.161.423-4.075.277-6.251.014l-1.058-.121c-.734-.084-1.466-.17-2.199-.257a647.848 647.848 0 0 0-3.381-.391l-2.139-.249-1.026-.117-.941-.114-.831-.098c-.631-.115-.631-.115-.993-.477v-6.876Z" style="stroke-width:.362px" transform="matrix(.95354 0 0 .95354 5.037 19.088)"/><path fill="#DF603D" d="m177.908 217.865.362.724c-.339.95-.339.95-.724 1.809l1.086.362v1.448l.882-.023c.928.023.928.023 1.289.385l.724-.724v.724h.724l.362-1.086.724 3.257h1.085l.34-1.222c.384-1.311.384-1.311.746-2.035h.724l.362-.724c.746-.407.746-.407 1.447-.724-.149 2.882-.349 5.697-.865 8.539-.294 1.644-.55 3.293-.808 4.942l-.286 1.815-.212 1.352c-1.086.362-1.086.362-1.799.045a556.26 556.26 0 0 0-.811-.509l-.907-.559-.961-.606c-.653-.402-1.306-.804-1.96-1.204l-.97-.596c-1.832-1.105-3.721-2.101-5.62-3.086v-.723l-1.086-.362c.47-1.553 1.067-2.874 1.89-4.271l.681-1.161.709-1.195.713-1.217c1.738-2.954 1.738-2.954 2.159-3.375Z" style="stroke-width:.362px" transform="matrix(.95354 0 0 .95354 5.037 19.088)"/><path fill="#092642" d="M125.794 247.903c2.126 1.005 3.808 2.878 4.705 5.066.283 2.398.128 4.422-1.086 6.515-1.531 1.871-3.177 2.722-5.564 3.076-2.304-.318-4.243-1.35-5.677-3.212-1.19-2.179-1.026-4.709-.702-7.102.58-1.639 1.509-2.602 2.737-3.8 1.862-.813 3.587-.813 5.587-.543Z" style="stroke-width:.362px" transform="matrix(.95354 0 0 .95354 5.037 19.088)"/><path fill="#DD5E3C" d="m189.851 212.436 1.81.724c-.404 2.236-.815 4.47-1.232 6.702-1.062 5.713-2.046 11.414-2.749 17.184.469-.386.469-.386.384-1.289l-.023-.883 2.534-.362.362 1.086 1.809.362v-1.086l-1.085-.362c-.249-.746-.249-.746-.362-1.447l.791.203c1.064.166 1.793.063 2.828-.203l.362 1.447.723-.362-.362 1.448h-.723l-.362.724c-.357.486-.719.969-1.086 1.447l1.086 1.086-1.81.724v.724l-.724-.362v-1.086h-.723l-.362.724h-.724v.724h1.086v.724l.723.723c.522-.521.767-1.149 1.086-1.809h.724v.724l.724.362-.724.361c-.238 1.097-.238 1.097-.362 2.172h1.086c-.068.678-.068.678-.362 1.447-.927.453-.927.453-1.81.724l-.362-2.171-1.085-.362v1.809c-.86-.112-.86-.112-1.81-.361-1.034-1.551-.849-2.883-.543-4.682l.181-.747-1.809.724.068 1.176c-.073 1.445-.264 1.749-1.154 2.805-.041-2.211.038-4.325.362-6.514h-.724c.724-5.807 1.493-11.566 2.727-17.29.381-1.819.7-3.65 1.032-5.478.222-1.118.222-1.118.584-2.204Z" style="stroke-width:.362px" transform="matrix(.95354 0 0 .95354 5.037 19.088)"/><path fill="#DD5D3B" d="M230.746 223.655c1.086.362 1.086.362 1.528 1.229l.433 1.159.489 1.298.513 1.404.53 1.426a323.85 323.85 0 0 1 3.247 9.205l.363 1.075c1.054 3.204 1.231 5.522.701 8.854l-.162 1.069c-.132.866-.266 1.731-.404 2.595h-.362l-.362-2.171-.497.52c-.588.566-.588.566-1.312.928v1.085l-1.086-.362c0-1.085 0-1.085.362-1.809h-1.448l-.723-.362c-.227-.746-.227-.746-.362-1.448l.723-.362-1.447.362.362-1.085h-1.086l.362-1.81 1.809-.362v1.086l1.81.362 1.086-1.81h-.724v-.724l-1.448-.361-.362 1.085-.723-.362.361-.723-1.085-.362.724-.362-.362-1.086-.724-.362v-.362l-.204-.701c-.158-.746-.158-.746.204-1.47l1.447.724v.723h.724v.724l1.81-.724a545.776 545.776 0 0 1 .813 2.121c.532 1.511.532 1.511.634 2.222l-.723 1.086.361 1.086h1.086l.362-2.172h-.724l-.214-.653a490.313 490.313 0 0 0-4.422-12.94l-.409-1.14c-.543-1.499-1.086-2.982-1.745-4.435-.448-1.098-.448-1.098-.448-2.546l.724-.362Zm2.171 18.095.362 1.086v-1.086h-.362Zm.362-5.066c.543.497.543.497 1.086 1.085v.724l-.362.362h.724l.362 2.172-1.086-.362.362-.362-1.086-.362-.723.362-1.086-.724v-1.086h-.724v3.619h-.724v-1.809l-.724-.362.724-.362.294-.882c.43-.928.43-.928 1.335-1.38l.905-.271.723-.362Z" style="stroke-width:.362px" transform="matrix(.95354 0 0 .95354 5.037 19.088)"/><path fill="#F3B37F" d="M162.708 276.855c.803.402 1.454.91 2.172 1.448l.723.361.362-.723-.362 2.533h-1.447l-.362-.724-.724.724c.319 1.043.319 1.043.724 1.809l.362.724.595-.329.785-.417.776-.42c.739-.281.739-.281 1.825.081-.576 1.572-1.365 2.786-2.34 4.135-1.405 2.356-1.812 4.547-1.89 7.265l-.037.902c-.03.724-.054 1.449-.076 2.174-.867.037-.867.037-1.81 0-1.409-1.357-1.837-3.229-1.918-5.132a87.457 87.457 0 0 1-.004-1.699l.004-.911c.075-4.142.72-8.089 2.642-11.801Z" style="stroke-width:.362px" transform="matrix(.95354 0 0 .95354 5.037 19.088)"/><path fill="#0B2742" d="M193.47 355.026c.543.633.543.633 1.086 1.448l.633.723c.452.724.452.724.303 1.405l-.212.767a94.827 94.827 0 0 0-.075 3.154l-.011.962c-.011 1.05-.02 2.1-.029 3.149l-.023 2.186c-.02 1.914-.038 3.832-.055 5.747-.018 1.954-.038 3.912-.058 5.866-.039 3.837-.076 7.673-.111 11.509l-2.412.358c-.448.065-.895.134-1.357.203-1.543.192-3.003.213-4.555.163v-.362c2.15-.181 2.15-.181 4.343-.362v-25.337h.362l.362 23.166c.238-.482.477-.96.723-1.448h1.086c.411-1.234.405-2.172.403-3.471v-.727c0-.793-.003-1.585-.006-2.378l-.001-1.65c-.002-1.448-.005-2.895-.009-4.343a6303.192 6303.192 0 0 0-.025-13.13c-.478.123-.956.243-1.448.362l.362-1.084c-1.117-.638-1.532-.724-2.895-.724l-.724 1.086-.362-1.809h.724l.362-.724.724.362.362-.724 1.809.362.362-.724-.724-.362-.362-1.086-1.809.362c.068-.836.068-.836.362-1.809 1.048-.8 1.568-1.086 2.895-1.086Z" style="stroke-width:.362px" transform="matrix(.95354 0 0 .95354 5.037 19.088)"/><path fill="#275479" d="M108.785 293.864h.362v7.962l2.171.362-1.448 1.086v-.724h-.723l.362 4.705 1.447-1.448v1.086l1.81-.362v.724l2.533-1.086v3.619l-.724-.362-.724.362-.135 1.244c-.227 1.289-.227 1.289-.928 1.832-.746.181-.746.181-1.47-.181v-1.085l-.724 1.447h-1.447l.013.925c.044 2.937.087 5.873.128 8.809l.066 4.524c.092 6.188.172 12.374.177 18.563l.002 1.404c-.002 3.56-.13 7.102-.386 10.651h-.362v-64.057Z" style="stroke-width:.362px" transform="matrix(.95354 0 0 .95354 5.037 19.088)"/><path fill="#275378" d="M108.785 124.856h.362c.392 8.17.353 16.322.203 24.496l-.014.767c-.058 3.16-.121 6.32-.189 9.479l1.085.362-1.085.362.035.728c.471 10.199.297 20.399.184 30.606-.026 2.39-.05 4.781-.073 7.171-.046 4.657-.095 9.314-.146 13.971h-.362v-87.942Zm6.152 31.123 1.086.362h-.724l.181.702c.181.746.181.746.181 1.108l1.447-.362.724 1.447-1.085 1.086-.747-.384c-1.51-.482-2.898-.327-4.32.384-.769-.158-.769-.158-1.448-.362-.226-.655-.226-.655-.362-1.447l.724-1.086 1.086.362.362 1.086h1.447v-1.81l1.086-.362.362-.724Zm-3.257 1.448.724.362-.724-.362Zm1.448 2.533h2.171l-.022.86c-.046.943-.046.943.384 1.674l-1.086 1.085-1.086-1.447-.316.882c-.407.927-.407.927-1.131 1.289l-.362-1.086c.346-.612.709-1.215 1.086-1.809.252-.793.252-.793.362-1.448Zm2.533.362.362.724-.724-.362.362-.362Z" style="stroke-width:.362px" transform="matrix(.95354 0 0 .95354 5.037 19.088)"/><path fill="#0B181D" d="M199.984 290.245c1.023.966 1.8 1.911 2.529 3.112l.59.963.614 1.015 1.267 2.072.609.997a183.586 183.586 0 0 0 1.901 3.038l.568.891c.47.727.943 1.453 1.419 2.177 3.497 5.339 3.497 5.339 4.256 7.45l-.362.723-1.448-2.533-.724 2.533h-.362v-2.895h-.723c-.485-.654-.485-.654-1.063-1.606a1561.203 1561.203 0 0 1-1.064-1.723c-.744-1.193-1.517-2.368-2.284-3.547l-2.104-3.257-.598-.926a832.81 832.81 0 0 1-1.799-2.806l-.572-.884-.528-.831-.469-.731c-.392-.726-.623-1.329-.738-2.146.52-.633.52-.633 1.085-1.086Z" style="stroke-width:.362px" transform="matrix(.95354 0 0 .95354 5.037 19.088)"/><path fill="#933219" d="m189.851 212.436 1.81.724c-.405 2.23-.812 4.46-1.219 6.69a1653.18 1653.18 0 0 0-3.124 17.558l-1.81-.362c.736-5.683 1.529-11.316 2.727-16.923.378-1.821.7-3.653 1.032-5.483.222-1.118.222-1.118.584-2.204Z" style="stroke-width:.362px" transform="matrix(.95354 0 0 .95354 5.037 19.088)"/><path fill="#96341A" d="M230.746 223.655c1.086.362 1.086.362 1.528 1.229l.433 1.159.489 1.298.513 1.404.53 1.426a323.85 323.85 0 0 1 3.247 9.205l.363 1.075c.86 2.613 1.36 4.647.882 7.406l-.214 1.265-.171.952h-.362v-4.343h-.724l-.214-.653a490.313 490.313 0 0 0-4.422-12.94l-.409-1.14c-.543-1.499-1.086-2.982-1.745-4.435-.448-1.098-.448-1.098-.448-2.546l.724-.362Z" style="stroke-width:.362px" transform="matrix(.95354 0 0 .95354 5.037 19.088)"/><path fill="#2E5B7E" d="M108.785 213.522h.362a24157.211 24157.211 0 0 1 .207 17.634c.093 7.726.173 15.451.186 23.178l.006 2.093c.012 3.693-.027 7.34-.399 11.018l1.085.362h-1.085l.362 5.429.723-1.448 1.086.362-.362 1.086v.362l1.448.362v1.085l-.362.362a63.843 63.843 0 0 0-.362 2.172l-.362-.724-1.809.362-.362 16.285h-.362v-79.98Z" style="stroke-width:.362px" transform="matrix(.95354 0 0 .95354 5.037 19.088)"/><path fill="#F0B27B" d="M168.861 287.35h1.085v5.067l1.448.362.724.362c.029 1.063.05 2.125.068 3.189l.027.914.011.88.017.81c-.158.922-.473 1.246-1.209 1.807-1.101-.104-1.589-.456-2.533-1.086-.374-1.017-.409-1.981-.41-3.058l-.002-.931.005-.965-.005-.943c.009-5.643.009-5.643.774-6.408Z" style="stroke-width:.362px" transform="matrix(.95354 0 0 .95354 5.037 19.088)"/><path fill="#03122B" d="M194.194 359.731h.362v32.211c-5.293.814-5.293.814-7.962.724v-.362c2.15-.181 2.15-.181 4.343-.362v-25.337h.362l.362 23.166c.238-.482.477-.96.723-1.448h1.086c.422-1.267.425-2.418.436-3.735l.011-.814c.012-.887.021-1.774.029-2.66l.023-1.846c.02-1.618.038-3.239.055-4.857l.059-4.958c.039-3.239.075-6.481.111-9.722Z" style="stroke-width:.362px" transform="matrix(.95354 0 0 .95354 5.037 19.088)"/><path fill="#0D2E4C" d="M193.832 360.455h.362c.01 1.078.017 2.155.023 3.233l.009.912a45.044 45.044 0 0 1-.394 5.986h-.724l-1.447 2.537h-.362l-.362 18.819h-.362c-.056-3.293-.11-6.583-.161-9.873-.023-1.527-.048-3.054-.074-4.585-.025-1.473-.048-2.946-.07-4.419a921.562 921.562 0 0 1-.065-4.05l-.022-1.36c.03-1.05.03-1.05.392-1.774h.724c.238-.597.477-1.19.723-1.809h.724v-1.086c.239-.116.478-.235.724-.362.238-1.094.238-1.094.362-2.169Z" style="stroke-width:.362px" transform="matrix(.95354 0 0 .95354 5.037 19.088)"/><path fill="#DF6340" d="m212.391 190.988.923-.003.965.008.966-.008.923.003.848.003c.702.093.702.093 1.425.817.931.234.931.234 1.81.362l-.362 1.085.724.724c-.724.724-.724.724-1.448 1.086l-.362.724-.724-.724-.361.724h.723v1.809l-1.085.362-.159-.701c-.135-.737-.135-.737-.565-1.108h-1.086l-.724-1.086 1.086-.362v-1.086c-.901-.248-1.585-.362-2.533-.362l.362-1.085c-1.922.21-1.922.21-3.619 1.085 0-1.962.445-2.262 2.273-2.267Z" style="stroke-width:.362px" transform="matrix(.95354 0 0 .95354 5.037 19.088)"/><path fill="#C97643" d="M170.67 280.474c-.61 2.379-2.023 4.188-3.414 6.167-1.808 2.693-2.072 5.378-2.252 8.568-.124.827-.124.827-.848 1.551-1.032-2.063-.586-5.645-.178-7.884.734-2.077 2.045-3.905 3.254-5.733l.521-.794.508-.735.455-.666c.507-.474.507-.474 1.954-.474Z" style="stroke-width:.362px" transform="matrix(.95354 0 0 .95354 5.037 19.088)"/><path fill="#F6B784" d="M302.765 235.598c1.719.271 1.719.271 2.533 1.086.068 1.108.068 1.108 0 2.171-.552.552-1.111.458-1.878.521-1.077.104-1.882.252-2.917.61-1.107.352-1.705.278-2.805-.045v-1.086l-1.04.566-1.131.52-.724-.362c2.163-1.333 4.293-2.211 6.729-2.933.928-.233.928-.233 1.233-1.048Z" style="stroke-width:.362px" transform="matrix(.95354 0 0 .95354 5.037 19.088)"/><path fill="#214D74" d="M146.423 392.666c1.153.112 1.153.112 2.171.362l-.362 1.085h-.724l-.362 1.086c.239.119.478.235.724.362-.119.235-.239.478-.362.724.836.119 1.672.235 2.534.362v.362c-1.312.184-2.624.361-3.936.542l-1.111.156c-2.315.311-4.561.456-6.896.387.478-.123.955-.239 1.447-.362l.114-.702.248-.745c.359-.123.717-.239 1.086-.362l-.362 1.447c.597-.123 1.194-.238 1.81-.361l.113-.703.249-.745c.358-.123.716-.239 1.085-.362l-.362-1.086.837-.115c.989-.156.989-.156 1.493-.836.28-.247.28-.247.566-.496Z" style="stroke-width:.362px" transform="matrix(.95354 0 0 .95354 5.037 19.088)"/><path fill="#F3AF7B" d="M304.936 239.217c1.062.133 1.399.313 2.172 1.086.135.882.135.882 0 1.809-1.143 1.118-2.2 1.294-3.755 1.493l-1.207.162-1.191.155c-.724.118-1.448.237-2.171.362l.724-.362-.362-1.086c.589-1.122 1.132-1.69 2.325-2.142.64-.182 1.283-.352 1.93-.508.875-.194.875-.194 1.535-.969Z" style="stroke-width:.362px" transform="matrix(.95354 0 0 .95354 5.037 19.088)"/><path fill="#F2AC78" d="M215.546 181.674h.724l.724 1.81h-.724l.362 1.086 1.086.362-.362 1.447h1.085l-.339.656c-.421.824-.421.824-.746 1.878l-.362 1.085h-.724l-.362.724h-1.086l.362-1.448.362.362.362-.723h-1.086l-.724 2.171c-.608-1.486-.091-2.824.317-4.298.457-1.699.874-3.366 1.131-5.112Z" style="stroke-width:.362px" transform="matrix(.95354 0 0 .95354 5.037 19.088)"/><path fill="#285479" d="m110.232 271.788 1.086.362-.362 1.086v.362l1.448.362v1.085l-.362.362a63.843 63.843 0 0 0-.362 2.172l-.362-.724-1.809.362-.362 16.285h-.362v-20.266l1.085-.362.362-1.086Z" style="stroke-width:.362px" transform="matrix(.95354 0 0 .95354 5.037 19.088)"/><path fill="#DA4824" d="M237.26 253.331h.362c.05 3.214-.105 6.387-.339 9.591-.3 4.281-.555 8.56-.747 12.847l-1.447-.362h1.086v-11.219h-1.448v-.723h.724v-1.086h.724l.723-6.153h-.723v.724l-1.81-.362.362-1.809a36.367 36.367 0 0 1 1.809 0l.362.362.362-1.81Z" style="stroke-width:.362px" transform="matrix(.95354 0 0 .95354 5.037 19.088)"/><path fill="#194474" d="M164.518 264.55h.362c.285 9.395.285 9.395-2.534 13.029a162.78 162.78 0 0 0-.362-.724l.362-.724h-1.085v-.724c-.785.184-1.448.362-2.172.724-.359-1.119-.318-1.774 0-2.895l.662.013.876.01.866.012c.82-.034 1.515-.168 2.301-.397l.067-.994c.168-2.451.362-4.89.657-7.33Z" style="stroke-width:.362px" transform="matrix(.95354 0 0 .95354 5.037 19.088)"/><path fill="#D88B58" d="M168.861 287.35h1.085l-.362 11.943-1.085.362c-.298-1.044-.409-1.973-.41-3.058l-.002-.931.005-.965-.005-.943c.009-5.643.009-5.643.774-6.408Z" style="stroke-width:.362px" transform="matrix(.95354 0 0 .95354 5.037 19.088)"/><path fill="#F2AB75" d="M244.136 154.894c.724.362.724.362 1.02 1.021 1.073 3.314 1.199 6.366 1.152 9.836l-.724.362c-.407-2.036-.407-2.036 0-3.257l-1.063-.136-1.108-.226-.362-.724h.724v-.724h-1.448l-.362.724h-1.086v-2.534l.362 1.086 1.086-.362c.792.34.792.34 1.448.724v-1.448h1.447l-.237-.674-.306-.886-.305-.878c-.238-.819-.238-.819-.238-1.904Z" style="stroke-width:.362px" transform="matrix(.95354 0 0 .95354 5.037 19.088)"/><path fill="#C67643" d="m302.765 235.598-.362 1.086c-.921.402-1.811.744-2.76 1.063-1.556.532-3.014 1.063-4.432 1.907-1.132.649-1.132.649-2.014.558l-.566-.271c.539-1.508 1.373-1.903 2.782-2.579 2.539-1.199 4.497-1.88 7.352-1.764Z" style="stroke-width:.362px" transform="matrix(.95354 0 0 .95354 5.037 19.088)"/><path fill="#E56643" d="M234.003 236.322c.802.987 1.289 1.842 1.667 3.055l.286.911.287.942.299.947c.718 2.318.718 2.318.718 3.554l1.086-.362-.362 3.981-1.086-1.085c-.761-.259-.761-.259-1.447-.362l.724-.362v-1.086l.361-1.086c-.192-.919-.192-.919-.52-1.877l-.315-.988-.25-.754-1.81.362v-.724h-.724l-.361-1.085 1.085-.724 1.086.724-.362.362.724.362-.362-2.172-1.448.362.362-.724h.724l-.362-2.171Zm-1.086 5.428.724.362-.362.724-.362-1.086Z" style="stroke-width:.362px" transform="matrix(.95354 0 0 .95354 5.037 19.088)"/><path fill="#163C65" d="M142.804 116.894c3.425-.133 6.745.279 10.133.724l-.362.723-2.156-.035c-.813.006-.813.006-1.825.397l-.362 1.086h-1.809l-.724 1.81-1.81-.724v-1.448l1.81-.362-1.086-1.085.362-.724h-2.171v-.362Z" style="stroke-width:.362px" transform="matrix(.95354 0 0 .95354 5.037 19.088)"/><path fill="#F6BC83" d="M163.794 288.436c.309 1.052.388 1.922.318 3.014l-.053.876-.061.905a768.404 768.404 0 0 1-.204 3.167c-1.73.065-1.73.065-2.443-.52-.658-1.35-.722-2.7-.814-4.185l.724.724.362-.724h.723l.362-1.086c.235-.485.477-.968.724-1.447l.362-.724Z" style="stroke-width:.362px" transform="matrix(.95354 0 0 .95354 5.037 19.088)"/><path fill="#F4B281" d="M306.022 243.56c.294.792.294.792.362 1.809-1.02 1.513-2.006 1.937-3.733 2.285-.564.09-1.129.175-1.696.249l1.086-2.172-2.172.362c1.042-.843 2.034-1.387 3.28-1.877l.94-.377c.847-.279.847-.279 1.933-.279Z" style="stroke-width:.362px" transform="matrix(.95354 0 0 .95354 5.037 19.088)"/><path fill="#C67643" d="m303.443 239.172.857.02.636.025c-.902 1.353-1.378 1.358-2.918 1.764-1.878.537-3.435 1.186-5.079 2.234-.689.345-.689.345-2.136.345.052-.653.052-.653.362-1.448.909-.59.909-.59 2.058-1.131l1.135-.545c1.719-.74 3.198-1.321 5.085-1.264Z" style="stroke-width:.362px" transform="matrix(.95354 0 0 .95354 5.037 19.088)"/><path fill="#0E304D" d="M329.546 269.979h.361v26.057l-.723-.362c-.011-1.613-.017-3.227-.023-4.841l-.009-1.393-.004-1.329-.006-1.229c.042-.979.042-.979.404-1.703h-.724l-.724-3.257h.724v-1.086h.724l-.092-1.18c-.236-3.281-.279-6.401.092-9.677Z" style="stroke-width:.362px" transform="matrix(.95354 0 0 .95354 5.037 19.088)"/><path fill="#164174" d="M159.813 284.817h.362l.016.673c.027 1.028.062 2.054.097 3.082l.025 1.058c.088 2.407.503 4.499 1.31 6.768l-1.086-.362.362 2.171h-.724v1.086l-1.086-.362h.724c-.126-.715-.126-.715-.362-1.448l-.724-.361v-1.086l-1.447.724-.362-.724c.724-.724.724-.724 1.447-1.063.84-.373.84-.373 1.448-1.471.009-.721.009-.721-.136-1.492-.334-2.445-.362-4.765.136-7.193Zm-.362 11.581.362 1.085-.362-1.085Z" style="stroke-width:.362px" transform="matrix(.95354 0 0 .95354 5.037 19.088)"/><path fill="#061223" d="M204.327 339.826c.458 1.375.197 1.654-.425 2.929l-.542 1.121-.593 1.198-.597 1.22a382.382 382.382 0 0 1-3.86 7.646l-.452.878c-1.043 1.974-1.043 1.974-1.855 2.379l1.448-4.342-.475.542c-.611.543-.611.543-1.696.543l.361-1.447 1.199-.272c1.962-.665 2.467-1.901 3.359-3.694l.519-1.039.533-1.08.533-1.066c.903-1.819 1.768-3.639 2.543-5.516Z" style="stroke-width:.362px" transform="matrix(.95354 0 0 .95354 5.037 19.088)"/><path fill="#0E2D49" d="M319.412 193.617h.362l.054 1.308.082 1.701.034.861.042.831.035.764c.086.806.086.806.839 1.773l-.362.724h-.724l.362 1.81 1.086.362.362 2.171-.707.201c-.876.49-.876.49-.961 1.702l-.051 1.399-.063 1.406-.028 1.082h-.362v-18.095Z" style="stroke-width:.362px" transform="matrix(.95354 0 0 .95354 5.037 19.088)"/><path fill="#1E4C7A" d="M185.146 244.646c.884 1.768.184 4.995-.362 6.876-.797 1.051-1.299 1.284-2.533 1.809.188-2.106.624-3.826 1.448-5.767l.299-.736c.727-1.76.727-1.76 1.148-2.182Z" style="stroke-width:.362px" transform="matrix(.95354 0 0 .95354 5.037 19.088)"/><path fill="#C77644" d="M305.298 243.198c-.538 1.077-1.317 1.17-2.42 1.606-1.229.492-2.383.98-3.551 1.606-.905.407-.905.407-1.765.294l-.588-.249c.375-1.049.656-1.407 1.63-1.985 2.357-.975 4.142-1.484 6.694-1.272Z" style="stroke-width:.362px" transform="matrix(.95354 0 0 .95354 5.037 19.088)"/><path fill="#DD5F3D" d="M242.327 199.77c1.597.504 2.426 1.241 3.528 2.488l.854.947c.632.838.904 1.332 1.046 2.355-.925-.9-1.788-1.782-2.578-2.805-.633-.904-.633-.904-1.764-1.176l-.362 1.086-.724.362c-.236.733-.236.733-.362 1.447l-2.171-2.171h.723l.724-1.81.362.724h.724v-1.447Z" style="stroke-width:.362px" transform="matrix(.95354 0 0 .95354 5.037 19.088)"/><path fill="#194266" d="M189.851 121.599h1.086v14.476h-.362l-.362-11.581h-.724l-.362 1.086v-.724l-1.809.362.52-.498c.598-.563.598-.563.927-1.312l-.362-.362-.723-1.086.882.023c.903.085.903.085 1.289-.384Z" style="stroke-width:.362px" transform="matrix(.95354 0 0 .95354 5.037 19.088)"/><path fill="#0C1F3D" d="m239.432 162.856-.362 2.533h.724c-.389 1.055-.644 1.729-1.448 2.533-.837.045-.837.045-1.81-.362-.878-1.118-1.536-2.35-2.171-3.619 1.384.525 1.879 1.224 2.533 2.534v.723l1.448-.723-.701-.113-.747-.249a276.25 276.25 0 0 0-.362-1.086l.724-1.086h.724v-.724c.724-.361.724-.361 1.448-.361Z" style="stroke-width:.362px" transform="matrix(.95354 0 0 .95354 5.037 19.088)"/><path fill="#193F64" d="M171.394 111.827h.362c.021 1.373.034 2.745.045 4.117l.019 1.185.006 1.131.012 1.045c-.082.846-.082.846-.806 1.57v1.447h-.724l-.362 1.448-1.447-.724.362-1.809h.723l-.361-1.086-2.172-.362v-.362h3.981l.362-7.6Z" style="stroke-width:.362px" transform="matrix(.95354 0 0 .95354 5.037 19.088)"/><path fill="#174473" d="m179.718 282.645 2.895 1.448-.362.724-.859.158c-1.097.235-1.359.416-2.036 1.289-.287.987-.287.987-.43 2.059l-.174 1.09-.12.832h-.362l-.362-6.876 1.086-.362.362.362.362-.724Z" style="stroke-width:.362px" transform="matrix(.95354 0 0 .95354 5.037 19.088)"/><path fill="#24537C" d="M148.232 387.237c.362 1.086.362 1.086.34 2.353.211 2.066 1.798 3.333 3.189 4.733.814.876.814.876 1.176 1.962h-.724c-.661-.702-1.255-1.444-1.863-2.193-.672-.706-1.226-1.054-2.118-1.426v-1.81h-1.447v-.724h-1.448v-1.809c.716.235 1.433.478 2.171.724.239-.601.478-1.198.724-1.81Z" style="stroke-width:.362px" transform="matrix(.95354 0 0 .95354 5.037 19.088)"/><path fill="#11324D" d="M319.412 169.732h.362v2.533h.724v1.81h-.724l.033.638c.204 4.001.366 7.998.374 12.006l.005.978a38.434 38.434 0 0 1-.412 5.558h-.362v-23.523Z" style="stroke-width:.362px" transform="matrix(.95354 0 0 .95354 5.037 19.088)"/><path fill="#255177" d="M172.118 285.903c1.193 1.192 1.413 1.869 1.877 3.46l.377 1.269c.279 1.061.279 1.061.279 1.785h-.724v.724h-.724l.362 1.085-1.085.362-.362-8.685Z" style="stroke-width:.362px" transform="matrix(.95354 0 0 .95354 5.037 19.088)"/><path fill="#255176" d="M108.785 113.637h.362v2.171l2.533-.362v-1.085h.724v.723l.724.362-.724 1.086h-.724l-.362 1.086h-.724l-.724-.724h-.723v7.6h-.362v-10.857Z" style="stroke-width:.362px" transform="matrix(.95354 0 0 .95354 5.037 19.088)"/><path fill="#A53619" d="M236.536 240.303c1.612 1.458 2.3 2.918 2.534 5.066-.123 1.242-.123 1.242-.339 2.488l-.214 1.265-.171.952h-.362v-4.343h-.724c-.531-1.891-.805-3.467-.724-5.428Z" style="stroke-width:.362px" transform="matrix(.95354 0 0 .95354 5.037 19.088)"/><path fill="#F4B17D" d="M302.765 235.598c1.719.271 1.719.271 2.533 1.086.068 1.108.068 1.108 0 2.171-.362.362-.362.362-1.199.43-1.001-.07-1.566-.285-2.42-.792.679-2.081.679-2.081 1.086-2.895Z" style="stroke-width:.362px" transform="matrix(.95354 0 0 .95354 5.037 19.088)"/><path fill="#8D2F16" d="M189.127 216.055h.362v3.619l.136-1.244.226-1.289.724-.362c-.193 3.206-.776 6.278-1.448 9.41h-.362c-.087-2.039.223-3.817.724-5.791h-.724l-.362 3.257h-.362c-.056-1.832.135-3.439.543-5.225l.306-1.355.237-1.02Z" style="stroke-width:.362px" transform="matrix(.95354 0 0 .95354 5.037 19.088)"/><path fill="#0A2037" d="M262.593 378.913c1.212 1.817 1.122 3.29 1.086 5.429-.239-.123-.478-.239-.724-.362-.119.235-.238.478-.362.724l-2.171-1.086c.091-.861.091-.861.362-1.809 1.103-.724 1.103-.724 1.809-.724v-2.172Z" style="stroke-width:.362px" transform="matrix(.95354 0 0 .95354 5.037 19.088)"/><path fill="#091E34" d="M223.508 330.778h.724l1.085 2.172.86-.724c.95-.724.95-.724 1.674-.724v1.81h-.724l.362 1.086-.362 1.085a36.407 36.407 0 0 0 0 1.81c-1.161-1.34-1.905-2.658-2.624-4.275l-.571-1.274-.424-.966Z" style="stroke-width:.362px" transform="matrix(.95354 0 0 .95354 5.037 19.088)"/><path fill="#F0BA84" d="M244.136 155.256c1.086 2.352 1.086 2.352 1.086 3.98h-.724l-.362-.723a28.524 28.524 0 0 0-1.809-.724v-1.086h-.724l-.362.724-.724-.362v1.81c-.723-1.358-.723-1.358-.723-2.172l1.764-.724.992-.407c.863-.316.863-.316 1.586-.316Z" style="stroke-width:.362px" transform="matrix(.95354 0 0 .95354 5.037 19.088)"/><path fill="#164376" d="m176.099 274.684.723.361.136.86c.282 1.183.672 1.398 1.674 2.036l.724.723-.724.362-.724 1.086h-.362v.724h1.086v.724h-.724l-.362 1.447c-1.662-5.697-1.662-5.697-1.447-8.323Z" style="stroke-width:.362px" transform="matrix(.95354 0 0 .95354 5.037 19.088)"/><path fill="#244F75" d="M144.251 116.532c.588.859.588.859 1.086 1.809l1.086.724-1.063.294-1.109.43-.362 1.086-1.085.362-.362-1.81h1.085l.362-1.809-.623.013c-1.768.02-3.425-.078-5.167-.375v-.362a1428.2 1428.2 0 0 1 2.058-.181l1.158-.102c2.098-.147 2.098-.147 2.936-.079Z" style="stroke-width:.362px" transform="matrix(.95354 0 0 .95354 5.037 19.088)"/><path fill="#10314C" d="M319.412 340.55c1.086 1.086 1.086 1.086 1.448 2.171h-1.086l.184 1.044c.24 1.693.186 3.357.134 5.062l-.026 1.011c-.027 1.059-.058 2.117-.088 3.175l-.058 2.162c-.046 1.76-.095 3.52-.146 5.28h-.362V340.55Z" style="stroke-width:.362px" transform="matrix(.95354 0 0 .95354 5.037 19.088)"/><path fill="#295278" d="M160.175 281.198c.353 1.059.422 1.79.43 2.895l.015.95c-.083.86-.083.86-.807 1.945a38.413 38.413 0 0 0-.226 2.602l-.082 1.395-.054 1.07-.724-.724c.009-1.02.009-1.02.136-2.217l.122-1.201.104-.925h-.724v-1.809l-.723-.362h1.085c.829-1.243.789-1.804.724-3.257l.724-.362Z" style="stroke-width:.362px" transform="matrix(.95354 0 0 .95354 5.037 19.088)"/><path fill="#264F79" d="m169.584 300.017.362.724 1.086.361v1.448h-1.086v-.724l-1.809.724.362-1.448h-.724l-.362 1.81-1.086-.362c0-.724 0-.724.362-1.086-.148-.743-.148-.743-.362-1.447 1.205-.301 2.082-.462 3.257 0Z" style="stroke-width:.362px" transform="matrix(.95354 0 0 .95354 5.037 19.088)"/><path fill="#0F2F4B" d="m319.412 270.341.362 1.447.724.362-.362.362c-.036.902-.05 1.791-.045 2.692l-.005.761c-.02 1.396-.02 1.396.412 2.699l1.086.724-.724.362c-.886.722-.886.722-.769 2.149l.065.734c-.02.736-.02.736-.744 2.184v-14.476Z" style="stroke-width:.362px" transform="matrix(.95354 0 0 .95354 5.037 19.088)"/><path fill="#265177" d="M163.432 267.445h.724c.067 3.822.067 3.822-.362 5.429h-1.086l-.362.724-1.447-.724.362-1.809c1.085-.362 1.085-.362 2.171-.362l-.362-.724h.724l-.384-.656c-.34-.792-.34-.792.022-1.878Z" style="stroke-width:.362px" transform="matrix(.95354 0 0 .95354 5.037 19.088)"/><path fill="#903117" d="M235.813 236.322a9.004 9.004 0 0 1 2.239 5.428l-.068.724c-.724-1.086-.724-1.086-1.086-1.809v2.171c-.723-.362-.723-.362-1.123-1.401l-.392-1.29-.4-1.288c-.256-1.088-.256-1.088.106-1.811l1.086 2.171-.362-2.895Z" style="stroke-width:.362px" transform="matrix(.95354 0 0 .95354 5.037 19.088)"/><path fill="#E16F4D" d="m211.555 191.002.861.011.933.008.976.018.984.01c.803.008 1.605.02 2.409.035v.362l-1.041.158c-1.092.142-1.092.142-1.855.566v.723h.724l-.362.724c-1.086 0-1.086 0-1.809-.362l.362-1.085c-1.922.21-1.922.21-3.619 1.085 0-2.087 0-2.087 1.437-2.253Z" style="stroke-width:.362px" transform="matrix(.95354 0 0 .95354 5.037 19.088)"/><path fill="#F6B785" d="M293.717 236.684h2.895c-.916.759-1.795 1.439-2.827 2.035l-.792.498v.724h1.81l-.724 1.086h-.724v.723h-1.447l-1.448-1.447 1.086-.362.724.362.361-1.81 1.086-.362v-1.447Z" style="stroke-width:.362px" transform="matrix(.95354 0 0 .95354 5.037 19.088)"/><path fill="#DD522F" d="m206.86 192.17-1.085 1.085.724 1.448c-1.514.504-2.185-.105-3.62-.724-1.01-.091-1.01-.091-1.809 0 .362-.724.362-.724 1.033-1.032 1.637-.542 3.008-.912 4.757-.777Zm-3.257 2.171h.724v.724h-.724v-.724Z" style="stroke-width:.362px" transform="matrix(.95354 0 0 .95354 5.037 19.088)"/><path fill="#F1A56D" d="M302.38 233.517c.385.633.385.633.385 2.081-1.102.03-1.836-.008-2.896-.362v-1.448l-2.895.362.362-.723c1.595-.469 3.595-.845 5.044.09Z" style="stroke-width:.362px" transform="matrix(.95354 0 0 .95354 5.037 19.088)"/><path fill="#154074" d="M161.623 277.941c.479 1.438.065 2.464-.34 3.868l-.214.769c-.175.627-.353 1.252-.532 1.877h-.362v-2.895l-1.81.362-.361-1.086h.723l.362-.724v.724h1.086l.362-1.086c.353-.608.714-1.212 1.086-1.809Zm-3.981 3.981 1.447.723-.362.724-1.085-1.447Z" style="stroke-width:.362px" transform="matrix(.95354 0 0 .95354 5.037 19.088)"/><path fill="#071F38" d="m246.308 309.426.724.362c.271 1.222.271 1.222.362 2.533-.724 1.086-.724 1.086-1.81 1.81l-.362-.362-.724.724v-.724l-1.085-.362c.656-.724.656-.724 1.447-1.447h1.086l.362-2.534Z" style="stroke-width:.362px" transform="matrix(.95354 0 0 .95354 5.037 19.088)"/><path fill="#0A192D" d="m207.222 166.475.724 1.085 1.086-.362.724.362.362-.724-.362 1.81-1.086.362c.093.848.215 1.693.362 2.533l.724.362c.226.928.226.928.362 1.81h-.724c-1.092-2.417-2.018-4.574-2.172-7.238Z" style="stroke-width:.362px" transform="matrix(.95354 0 0 .95354 5.037 19.088)"/><path fill="#24547E" d="M153.661 374.571c.358.235.716.477 1.085.723.12-.238.239-.481.362-.723 1.737.89 1.737.89 2.104 1.874l.068.659c-.717.593-1.433 1.194-2.172 1.809.436-.904.888-1.697 1.448-2.533h-1.086v.724c-.358.119-.716.235-1.086.362v-1.086c-.597-.123-1.194-.239-1.809-.362.119-.239.239-.481.362-.724h.724v-.723Z" style="stroke-width:.362px" transform="matrix(.95354 0 0 .95354 5.037 19.088)"/><path fill="#123661" d="M153.299 117.98c4.17-.067 4.17-.067 6.152.361v.362h-3.619l1.448.362.362 1.086c-.958.529-1.41.724-2.534.724l-.724-1.81h.724l.362-.724h-2.171v-.361Z" style="stroke-width:.362px" transform="matrix(.95354 0 0 .95354 5.037 19.088)"/><path fill="#06213C" d="M173.203 116.532c.724.724.724.724.993 1.644.378.997.378.997 1.476 1.224l1.196.14 1.201.155.925.094v.362c-2.203.041-4.341.033-6.514-.362-.49-.979-.286-1.495 0-2.533l.723-.724Z" style="stroke-width:.362px" transform="matrix(.95354 0 0 .95354 5.037 19.088)"/><path fill="#102236" d="M256.441 343.083h.362c.831 4.934.831 4.934.724 7.238h-.724l-.362-2.533-1.086.362v-.724h.724l-.012-.674a240.03 240.03 0 0 1-.01-.886l-.013-.878c.035-.819.035-.819.397-1.905Z" style="stroke-width:.362px" transform="matrix(.95354 0 0 .95354 5.037 19.088)"/><path fill="#E8AB7C" d="M169.946 292.417c1.448.362 1.448.362 2.172.724v2.895h-2.172v-3.619Z" style="stroke-width:.362px" transform="matrix(.95354 0 0 .95354 5.037 19.088)"/><path fill="#A03A1F" d="M188.765 220.398h.724c-.051.943-.104 1.885-.158 2.828l-.043.809c-.068 1.151-.156 2.14-.523 3.239l-1.085.362v-5.066l.723-.362c.238-.915.238-.915.362-1.81Z" style="stroke-width:.362px" transform="matrix(.95354 0 0 .95354 5.037 19.088)"/><path fill="#143964" d="m138.099 393.751.362.724c.239.12.477.235.724.362h-.724c-.112.221-.224.445-.339.677l-.747 1.495.362 1.085c-1.365.634-2.413.804-3.913.768-.53-.011-.53-.011-1.07-.019-.267-.01-.533-.018-.807-.025v-.362h1.809c.119-.239.239-.481.362-.724.836.12 1.672.236 2.533.362l-.067-.839c.081-1.162.327-1.296 1.153-2.056.258-.764.258-.764.362-1.448Z" style="stroke-width:.362px" transform="matrix(.95354 0 0 .95354 5.037 19.088)"/><path fill="#23537D" d="m149.68 381.447 2.171 1.085c-.531 1.122-1.158 2.136-1.855 3.167-.292.431-.292.431-.591.876-.148.217-.296.434-.449.662-.119-.239-.239-.481-.362-.724.35-.731.712-1.454 1.086-2.171v-.724c-.239-.123-.478-.239-.724-.362v-.724h.724v-1.085Z" style="stroke-width:.362px" transform="matrix(.95354 0 0 .95354 5.037 19.088)"/><path fill="#E4AD7C" d="M164.156 272.15h.362l.158 1.357c.126 1.022.307 1.989.566 2.986v1.086l-2.172.362c-.248-.611-.248-.611-.362-1.448.36-.604.722-1.207 1.086-1.809.26-1.338.26-1.338.362-2.534Z" style="stroke-width:.362px" transform="matrix(.95354 0 0 .95354 5.037 19.088)"/><path fill="#C46F3A" d="M168.499 289.16h.362c.368 1.815.405 3.542.384 5.383l-.005.859c-.004.694-.011 1.388-.017 2.081l-1.086-.361c-.01-.988-.017-1.976-.023-2.963l-.009-.844c-.006-1.436.037-2.753.394-4.155Z" style="stroke-width:.362px" transform="matrix(.95354 0 0 .95354 5.037 19.088)"/><path fill="#E86642" d="M189.489 212.436c.448 1.346.206 1.969-.158 3.325l-.316 1.192-.25.912-.362-1.086h-.723l-.724 1.448-.724-1.086c.271-.679.271-.679.724-1.448l.701-.294c1.184-.681 1.366-1.704 1.832-2.963Z" style="stroke-width:.362px" transform="matrix(.95354 0 0 .95354 5.037 19.088)"/><path fill="#DB4F2B" d="M249.927 210.627c.921.46.975.796 1.335 1.742l.298.753c.201.868.095 1.373-.186 2.209l-.723-.723c-.749-.233-.749-.233-1.448-.362l-.362.724-.724-.362c.38-.949.597-1.373 1.493-1.9l.679-.272-.362-1.809Z" style="stroke-width:.362px" transform="matrix(.95354 0 0 .95354 5.037 19.088)"/><path fill="#14222B" d="M168.861 408.589c1.223.192 2.38.362 3.619.362.239.236.477.478.723.724-.882.069-1.763.138-2.646.203-.25.018-.5.04-.757.061-1.166.084-1.99.109-3.111-.264v-1.086c.935-.47 1.173-.271 2.172 0Z" style="stroke-width:.362px" transform="matrix(.95354 0 0 .95354 5.037 19.088)"/><path fill="#24527A" d="m168.137 347.788.362 1.448h.724c-.395 1.366-.691 2.341-1.81 3.257l.362-1.81-1.086-.362-.362.724v-1.448h.724l-.362-1.085 1.448-.724Z" style="stroke-width:.362px" transform="matrix(.95354 0 0 .95354 5.037 19.088)"/><path fill="#D95032" d="M214.822 191.446c2.896-.074 5.523-.049 8.324.724l-1.448.362-.361 1.447v-1.447h-.724l-.362 1.085-.724-.362.362-.723-5.067-.724v-.362Z" style="stroke-width:.362px" transform="matrix(.95354 0 0 .95354 5.037 19.088)"/><path fill="#09102A" d="M245.584 150.189h.362c-.068 1.563-.16 2.88-.905 4.275-1.231 1.077-2.584 1.792-4.162 2.239l-1.085-.362.362-.724 1.357-.293c1.575-.37 2.364-.91 3.347-2.24.344-.969.534-1.878.724-2.895Z" style="stroke-width:.362px" transform="matrix(.95354 0 0 .95354 5.037 19.088)"/><path fill="#214E76" d="M189.489 127.751h1.086v3.981l-.724-.724c-.486.106-.969.227-1.448.362l-.723-.362.361-1.086 1.448.362-.203-1.063-.159-1.108.362-.362Z" style="stroke-width:.362px" transform="matrix(.95354 0 0 .95354 5.037 19.088)"/><path fill="#10325B" d="M159.813 118.703c.746-.009 1.493-.016 2.239-.022l1.26-.013a14.29 14.29 0 0 1 3.015.397v1.086l.724.362h-.724v1.086l-.724-.362.362-1.81c-1.467.17-2.702.319-3.981 1.086l-.361-1.448h-1.81v-.362Z" style="stroke-width:.362px" transform="matrix(.95354 0 0 .95354 5.037 19.088)"/><path fill="#09182C" d="M232.556 357.197h2.171l-.362 1.086h-.724l.362 5.065c-1.2-1.798-1.587-3.992-1.447-6.151Z" style="stroke-width:.362px" transform="matrix(.95354 0 0 .95354 5.037 19.088)"/><path fill="#143764" d="M146.785 394.837c.358.235.716.478 1.085.724-.119.235-.239.478-.362.724.836.119 1.672.235 2.534.362v.362c-1.796.477-3.587.39-5.429.361.358-.123.717-.238 1.086-.361.265-.731.265-.731.362-1.448h.724v-.724Z" style="stroke-width:.362px" transform="matrix(.95354 0 0 .95354 5.037 19.088)"/><path fill="#07172B" d="m229.298 343.445.362.724h.724l.362.724 1.086-.362v1.086h-.724l-.362 3.257c-.631-.946-.874-1.45-1.131-2.511l-.184-.733c-.133-.737-.133-.737-.133-2.185Z" style="stroke-width:.362px" transform="matrix(.95354 0 0 .95354 5.037 19.088)"/><path fill="#25537B" d="M118.194 246.817c.702.113.702.113 1.448.362l.362 1.086.724-.724c.769.136.769.136 1.447.362-2.081 1.447-2.081 1.447-2.895 1.447l-.362-.723c-.915-.238-.915-.238-1.81-.362l.724-.362.362-1.086Z" style="stroke-width:.362px" transform="matrix(.95354 0 0 .95354 5.037 19.088)"/><path fill="#26547E" d="m130.137 257.674.362.724.724.362v1.086h-.724l-.724.723-.362-.362-.837.86c-.972.95-.972.95-2.058 1.674l-.724-.724c2.081-1.448 2.081-1.448 2.895-1.448l.317-.633 1.131-2.262Z" style="stroke-width:.362px" transform="matrix(.95354 0 0 .95354 5.037 19.088)"/><path fill="#DA5233" d="m253.546 238.493.724.362c-1 .557-2.004 1.105-3.008 1.652l-.862.479-.831.449-.764.42c-.688.257-.688.257-1.773-.105l1.063-.474c1.208-.503 1.208-.503 1.47-1.697l1.086-.362v.724l.608-.329.794-.417.789-.42.704-.282Z" style="stroke-width:.362px" transform="matrix(.95354 0 0 .95354 5.037 19.088)"/><path fill="#E16643" d="M236.536 250.436h1.086c.091.572.172 1.145.249 1.719l.14.967c-.033 1.135-.362 1.555-1.113 2.381l-.362-2.896-1.447.362c.362-1.085.362-1.085 1.447-1.809v-.724Z" style="stroke-width:.362px" transform="matrix(.95354 0 0 .95354 5.037 19.088)"/><path fill="#F7B886" d="m304.936 243.56.724 1.086c-.633.565-.633.565-1.448 1.085a32.884 32.884 0 0 1-1.447-.362c-.605.237-1.209.478-1.81.724l-1.086-.362 1.923-.882 1.082-.496c.976-.431.976-.431 2.062-.793Z" style="stroke-width:.362px" transform="matrix(.95354 0 0 .95354 5.037 19.088)"/><path fill="#10212A" d="m246.67 407.504 1.809.724c0 1.447 0 1.447-.362 2.533-1.23-.413-1.466-.771-2.171-1.81.239-.481.478-.959.724-1.447Z" style="stroke-width:.362px" transform="matrix(.95354 0 0 .95354 5.037 19.088)"/><path fill="#091519" d="M168.861 384.342c2.437.702 2.437.702 3.257 1.809.185 1.054.185 1.054.249 2.237l.072 1.194.041.912c-.506-.948-.775-1.672-1.018-2.739-.506-1.462-.907-1.647-2.239-2.327l-.362-1.086Z" style="stroke-width:.362px" transform="matrix(.95354 0 0 .95354 5.037 19.088)"/><path fill="#CB7A44" d="M168.499 292.779h.362l.362 3.981h.361v2.533l-1.085.362c-.478-2.334-.252-4.519 0-6.876Z" style="stroke-width:.362px" transform="matrix(.95354 0 0 .95354 5.037 19.088)"/><path fill="#1B4578" d="M181.889 253.693c.397 1.191.29 1.706 0 2.895l1.086.362-.724 1.81-1.448-.362c.042-.513.088-1.026.136-1.538l.076-.865c.156-.885.435-1.523.874-2.302Z" style="stroke-width:.362px" transform="matrix(.95354 0 0 .95354 5.037 19.088)"/><path fill="#F3A56B" d="m295.165 250.436 1.809.362a45.33 45.33 0 0 1-3.981 3.619l-.723-.362.361-1.086c.928-.429.928-.429 1.81-.723v-1.086l.724-.362v-.362Z" style="stroke-width:.362px" transform="matrix(.95354 0 0 .95354 5.037 19.088)"/><path fill="#DC4B2A" d="M242.327 199.77c1.597.504 2.426 1.241 3.528 2.488l.854.947c.632.838.904 1.332 1.046 2.355-.917-.892-1.768-1.754-2.533-2.782-.666-.901-.666-.901-1.696-1.221l-.837-.34c-.294-.769-.294-.769-.362-1.447Z" style="stroke-width:.362px" transform="matrix(.95354 0 0 .95354 5.037 19.088)"/><path fill="#2C597D" d="M108.785 376.018h.362l.723 4.705h-.723v5.067h-.362v-9.772Z" style="stroke-width:.362px" transform="matrix(.95354 0 0 .95354 5.037 19.088)"/><path fill="#051E38" d="m186.594 371.675.362.724a42.654 42.654 0 0 1-1.606 2.577l-.476.724c-.389.59-.782 1.176-1.175 1.766-.12-.239-.239-.482-.362-.724.361-.641.723-1.281 1.118-1.9.413-.677.413-.677.329-1.719v-.724c.359.12.717.235 1.086.362l.724-1.086Z" style="stroke-width:.362px" transform="matrix(.95354 0 0 .95354 5.037 19.088)"/><path fill="#D35D40" d="m185.508 259.484 1.086 1.085-.362 1.086h-1.81v1.086l-1.085-.362v-2.533l1.085.723v.724h.724l.362-1.809Z" style="stroke-width:.362px" transform="matrix(.95354 0 0 .95354 5.037 19.088)"/><path fill="#F4A66B" d="M305.298 243.56h.724c.294.792.294.792.362 1.809-.865 1.119-1.459 1.709-2.828 2.104l-.791.068 1.447-1.086-.362-.724.724-.678c.807-.681.807-.681.724-1.493Z" style="stroke-width:.362px" transform="matrix(.95354 0 0 .95354 5.037 19.088)"/><path fill="#F8BA87" d="m300.231 241.388 1.086.362-.362 1.448 1.81-.362c-.825.824-1.425 1.105-2.534 1.448-.837-.136-.837-.136-1.447-.362h.724l-.362-1.086c.52-.791.52-.791 1.085-1.448Z" style="stroke-width:.362px" transform="matrix(.95354 0 0 .95354 5.037 19.088)"/><path fill="#071B31" d="M234.365 141.503c2.805.272 2.805.272 3.619 1.086h-1.809l.723.724c-.854.854-1.367.902-2.533 1.085.222-1.071.454-1.585 1.086-2.533l-1.086-.362Z" style="stroke-width:.362px" transform="matrix(.95354 0 0 .95354 5.037 19.088)"/><path fill="#1F4C73" d="m182.251 286.626.724 2.172h-.724v1.085l-1.448.724-.361-2.171h1.085v-1.448l.724-.362Z" style="stroke-width:.362px" transform="matrix(.95354 0 0 .95354 5.037 19.088)"/><path fill="#A0391F" d="m190.575 214.608.362 2.533h-.724l-.136 1.244-.226 1.289-.724.362v-5.066c1.086-.362 1.086-.362 1.448-.362Z" style="stroke-width:.362px" transform="matrix(.95354 0 0 .95354 5.037 19.088)"/><path fill="#24537B" d="m167.051 352.493.362.723c-.427.863-.427.863-1.04 1.855l-.608.998-.523.767h-.362l-.362-3.981 1.447 1.447 1.086-1.809Z" style="stroke-width:.362px" transform="matrix(.95354 0 0 .95354 5.037 19.088)"/><path fill="#0E315D" d="M140.632 395.923c.12.235.239.478.362.724-.119.235-.239.477-.362.723h3.257v.362c-1.94.406-3.819.395-5.79.362.478-.123.955-.239 1.447-.362l.136-.702.226-.745c.239-.123.478-.239.724-.362Z" style="stroke-width:.362px" transform="matrix(.95354 0 0 .95354 5.037 19.088)"/><path fill="#184576" d="M167.413 241.75h.362c.052 2.689.052 2.689-.362 3.981h-1.086c-.407-1.719-.407-1.719 0-2.533h1.086v-1.448Z" style="stroke-width:.362px" transform="matrix(.95354 0 0 .95354 5.037 19.088)"/><path fill="#EE6431" d="m181.527 211.712.362.724c-.367.628-.735 1.254-1.112 1.875-.434.851-.449 1.529-.335 2.468h-1.086l-.724.724c.204-1.574.78-2.598 1.651-3.913l.703-1.07.541-.808Z" style="stroke-width:.362px" transform="matrix(.95354 0 0 .95354 5.037 19.088)"/><path fill="#12232D" d="M245.584 394.113c.239.12.478.236.724.362-.239.717-.478 1.43-.724 2.172-1.075-.181-1.075-.181-2.171-.362.119-.601.238-1.198.362-1.81.597.12 1.194.235 1.809.362v-.724Z" style="stroke-width:.362px" transform="matrix(.95354 0 0 .95354 5.037 19.088)"/><path fill="#F8C081" d="m171.032 295.674 1.086.362c.029.588.05 1.176.068 1.764l.038.993-.106.862-1.086.724.362-2.534h-1.086l.724-2.171Z" style="stroke-width:.362px" transform="matrix(.95354 0 0 .95354 5.037 19.088)"/><path fill="#25557E" d="m163.432 357.197 1.086.362c-.559 1.984-1.504 3.661-2.534 5.427l-.361-1.084c.345-.612.709-1.215 1.085-1.809.236-.733.236-.733.362-1.448l.362-1.448Z" style="stroke-width:.362px" transform="matrix(.95354 0 0 .95354 5.037 19.088)"/><path fill="#D4603D" d="M205.413 273.598v.724l.724.362-.362 1.085h-1.81v-1.085l-.724-.724c.724-.362.724-.362 2.172-.362Z" style="stroke-width:.362px" transform="matrix(.95354 0 0 .95354 5.037 19.088)"/><path fill="#275377" d="M165.965 248.265h.362c.067 3.405.067 3.405-.362 5.066l-.723-.362.361-2.533h-.723c.207-1.038.311-1.397 1.085-2.171Z" style="stroke-width:.362px" transform="matrix(.95354 0 0 .95354 5.037 19.088)"/><path fill="#C3723E" d="m303.398 239.172.877.02.661.025c-.724 1.086-.724 1.086-1.809 1.357-1.086.091-1.086.091-1.81-.271l-1.086-.362c1.109-.646 1.89-.806 3.167-.769Z" style="stroke-width:.362px" transform="matrix(.95354 0 0 .95354 5.037 19.088)"/><path fill="#ED642F" d="M186.956 203.751c0 1.365-.41 1.797-1.199 2.895l-.674.95a15.509 15.509 0 0 1-1.746 1.945c.227-1.339.82-2.208 1.606-3.302l.677-.953c.612-.812.612-.812 1.336-1.535Z" style="stroke-width:.362px" transform="matrix(.95354 0 0 .95354 5.037 19.088)"/><path fill="#102D46" d="m209.394 150.551.724 1.447-.362.724.723.362c-.271.702-.271.702-.723 1.448l-1.448.362 1.086-4.343Z" style="stroke-width:.362px" transform="matrix(.95354 0 0 .95354 5.037 19.088)"/><path fill="#285A84" d="M182.975 280.836h.362c.05 2.557-.091 5.057-.362 7.6-1.163-1.743-.963-3.866-.56-5.891.165-.576.359-1.144.56-1.709Z" style="stroke-width:.362px" transform="matrix(.95354 0 0 .95354 5.037 19.088)"/><path fill="#F6B886" d="M302.041 234.874c-.95.634-1.649.961-2.714 1.312l-.849.286c-.78.212-.78.212-1.866.212l.362-1.086c1.586-.612 3.375-.833 5.067-.724Z" style="stroke-width:.362px" transform="matrix(.95354 0 0 .95354 5.037 19.088)"/><path fill="#F5B382" d="m239.07 186.379 1.809.724c-.612.739-.954 1.056-1.904 1.271l-.878.064-.886.072-.675.041.724-.362.362-.724c.747-.226.747-.226 1.448-.362v-.724Z" style="stroke-width:.362px" transform="matrix(.95354 0 0 .95354 5.037 19.088)"/><path fill="#06182D" d="M257.165 354.302c.701.113.701.113 1.448.362.419 1.257.386 2.302.361 3.619a17.177 17.177 0 0 1-1.085-2.533l-.724.362-.724-.362.724-1.448Z" style="stroke-width:.362px" transform="matrix(.95354 0 0 .95354 5.037 19.088)"/><path fill="#335678" d="M166.327 300.017c.86-.068.86-.068 1.81 0l.724 1.085h-1.086l-.362 1.81-1.086-.362c0-.724 0-.724.362-1.086-.148-.743-.148-.743-.362-1.447Z" style="stroke-width:.362px" transform="matrix(.95354 0 0 .95354 5.037 19.088)"/><path fill="#F1A66E" d="m304.574 236.322.724.362c.016.724.015 1.448 0 2.171-.362.362-.362.362-1.289.385l-.882-.023.362-1.448h.723l.362-1.447Z" style="stroke-width:.362px" transform="matrix(.95354 0 0 .95354 5.037 19.088)"/><path fill="#244F74" d="m152.937 117.618 1.086.362c.481.124.964.245 1.447.361l-.362 1.086h-1.447v-.724l-1.81.724v-1.086h1.086v-.723Z" style="stroke-width:.362px" transform="matrix(.95354 0 0 .95354 5.037 19.088)"/><path fill="#1E4A70" d="M155.47 375.656c.478.235.956.478 1.448.724-.597.836-1.194 1.668-1.81 2.533-.239-.481-.477-.959-.724-1.447.359-.123.717-.239 1.086-.362l-.362-1.086c.12-.123.239-.239.362-.362Z" style="stroke-width:.362px" transform="matrix(.95354 0 0 .95354 5.037 19.088)"/><path fill="#102C47" d="m259.698 359.369-.362 2.895-.362-.724-1.085-.362v-1.085l-.724-.362c1.312-.769 1.312-.769 2.533-.362Z" style="stroke-width:.362px" transform="matrix(.95354 0 0 .95354 5.037 19.088)"/><path fill="#EEAF7B" d="M163.432 292.055h.362v4.343l-1.81-.724.724-1.81h.362l.362-1.809Z" style="stroke-width:.362px" transform="matrix(.95354 0 0 .95354 5.037 19.088)"/><path fill="#E7AE7D" d="m160.537 290.245 1.809 1.086-.362 1.086-1.809.362a50.733 50.733 0 0 1 0-2.172l.362-.362Z" style="stroke-width:.362px" transform="matrix(.95354 0 0 .95354 5.037 19.088)"/><path fill="#021B40" d="M209.756 276.493h4.342l-1.447.724c-.291.742-.291.742-.362 1.447l-.724-.361.362-.724-1.448.362v-.724l-.723-.724Z" style="stroke-width:.362px" transform="matrix(.95354 0 0 .95354 5.037 19.088)"/><path fill="#DC5632" d="m254.994 225.465.723.362c-.207 1.038-.311 1.397-1.085 2.171h-1.448l.362-1.448h.724l.362-.723.362-.362Z" style="stroke-width:.362px" transform="matrix(.95354 0 0 .95354 5.037 19.088)"/><path fill="#164E81" d="M185.87 204.112c0 1.229-.189 1.472-.905 2.421l-.509.683-.395.515c-.201-.75-.362-1.39-.362-2.171h.723l.362-1.086 1.086-.362Z" style="stroke-width:.362px" transform="matrix(.95354 0 0 .95354 5.037 19.088)"/><path fill="#D16042" d="M186.594 243.922c.2.751.362 1.391.362 2.171h-.724l-.362 1.448h-.724c-.09-.995-.09-.995 0-2.172.724-.859.724-.859 1.448-1.447Z" style="stroke-width:.362px" transform="matrix(.95354 0 0 .95354 5.037 19.088)"/><path fill="#DB532F" d="m199.622 193.979 1.086.362h1.086c-.113.701-.113.701-.362 1.448l-1.086.362v-.724l-1.086.362-.361-1.448.723-.362Z" style="stroke-width:.362px" transform="matrix(.95354 0 0 .95354 5.037 19.088)"/><path fill="#265782" d="M171.756 385.79a25.25 25.25 0 0 1 4.343 1.809c-.478.12-.956.235-1.448.362-.119-.239-.239-.481-.362-.724h-2.171l-.362-1.447Z" style="stroke-width:.362px" transform="matrix(.95354 0 0 .95354 5.037 19.088)"/><path fill="#06162A" d="M255.355 338.74c.829 1.244.789 1.805.724 3.257l-1.085.362v-1.447h-1.086l.362-.724h1.085v-1.448Z" style="stroke-width:.362px" transform="matrix(.95354 0 0 .95354 5.037 19.088)"/><path fill="#EBAB7C" d="m171.032 283.731 2.171 1.086-.723 1.086h-1.086l-.362.723c-.362-1.085-.362-1.085-.362-2.171l.362-.724Z" style="stroke-width:.362px" transform="matrix(.95354 0 0 .95354 5.037 19.088)"/><path fill="#25547C" d="M189.489 389.047c.358.119.717.235 1.086.362v2.533c-.478-.123-.956-.239-1.448-.362h1.086c-.12-.239-.239-.481-.362-.724h-1.086c.239-.601.478-1.198.724-1.809Z" style="stroke-width:.362px" transform="matrix(.95354 0 0 .95354 5.037 19.088)"/><path fill="#F2AE7C" d="M175.013 289.16h2.533l-.362 1.809-.362-.724h-1.809v-1.085Z" style="stroke-width:.362px" transform="matrix(.95354 0 0 .95354 5.037 19.088)"/><path fill="#E8AA7A" d="M166.689 258.76c.365 1.822.353 2.982-.362 4.705h-.362l-.362-4.343c.724-.362.724-.362 1.086-.362Z" style="stroke-width:.362px" transform="matrix(.95354 0 0 .95354 5.037 19.088)"/><path fill="#E76743" d="m236.536 236.684.476.543c.609.663.609.663 1.696.542l.362 1.81-.362-1.086-1.448.724c-.528-.958-.724-1.409-.724-2.533Z" style="stroke-width:.362px" transform="matrix(.95354 0 0 .95354 5.037 19.088)"/><path fill="#1F4A71" d="m188.991 370.904.86.044c-.724.727-1.448 1.451-2.171 2.175-.359-.123-.717-.239-1.086-.362 1.198-1.799 1.198-1.799 2.397-1.857Z" style="stroke-width:.362px" transform="matrix(.95354 0 0 .95354 5.037 19.088)"/><path fill="#C1713E" d="m297.336 245.369.656.204c.851.238.851.238 1.877-.204v.724c-.851.518-1.259.756-2.261.588l-.634-.226.362-1.086Z" style="stroke-width:.362px" transform="matrix(.95354 0 0 .95354 5.037 19.088)"/><path fill="#F6C287" d="M172.842 230.169c1.366.395 2.341.691 3.257 1.81l-2.192-.318c-.733-.105-.733-.105-1.427.318l.362-1.81Z" style="stroke-width:.362px" transform="matrix(.95354 0 0 .95354 5.037 19.088)"/><path fill="#1B476F" d="M142.804 395.561c.358.119.716.235 1.085.362l-.362 1.086h1.086v.723c-.716-.238-1.433-.481-2.171-.723.119-.482.239-.959.362-1.448Z" style="stroke-width:.362px" transform="matrix(.95354 0 0 .95354 5.037 19.088)"/><path fill="#132D47" d="M196.003 356.112c.227.678.227.678.362 1.447l-.724.724h-.723l-.724-1.809c.724-.362.724-.362 1.809-.362Z" style="stroke-width:.362px" transform="matrix(.95354 0 0 .95354 5.037 19.088)"/><path fill="#144073" d="m165.603 300.017 2.172.362-1.086.723.724.362-.362.724c-1.086 0-1.086 0-1.809-.362a2835 2835 0 0 1 .361-1.809Z" style="stroke-width:.362px" transform="matrix(.95354 0 0 .95354 5.037 19.088)"/><path fill="#C4703D" d="M168.861 287.35h1.085l-.362 3.619h-.361l-.362-3.619Z" style="stroke-width:.362px" transform="matrix(.95354 0 0 .95354 5.037 19.088)"/><path fill="#152C42" d="M246.67 311.598h1.085c.249.837.249.837.362 1.809-.52.656-.52.656-1.085 1.086-.216-1-.362-1.868-.362-2.895Z" style="stroke-width:.362px" transform="matrix(.95354 0 0 .95354 5.037 19.088)"/><path fill="#1A4875" d="m180.442 258.76.248.678c.612.992 1.196 1.15 2.285 1.493l-.362 1.086-1.086-.362v-.724l-1.085-.362v-1.809Z" style="stroke-width:.362px" transform="matrix(.95354 0 0 .95354 5.037 19.088)"/><path fill="#214E77" d="M183.699 121.237h2.533v1.085c-.679.227-.679.227-1.448.362-.723-.724-.723-.724-1.085-1.447Z" style="stroke-width:.362px" transform="matrix(.95354 0 0 .95354 5.037 19.088)"/><path fill="#19272F" d="M262.593 408.228c.359.235.717.477 1.086.723v.724c-1.194-.123-2.388-.239-3.619-.362v-.362c1.199-.409 1.199-.409 2.533-.723Z" style="stroke-width:.362px" transform="matrix(.95354 0 0 .95354 5.037 19.088)"/><path fill="#14222B" d="M158.727 402.075c.717.594 1.433 1.194 2.172 1.81-.12.235-.239.477-.362.724-.905-.453-.905-.453-1.81-1.086v-1.448Z" style="stroke-width:.362px" transform="matrix(.95354 0 0 .95354 5.037 19.088)"/><path fill="#15242D" d="M282.498 401.351c.358.236.717.478 1.086.724-.446.89-1.007 1.238-1.81 1.81-.239-.123-.477-.239-.723-.362l1.447-2.172Z" style="stroke-width:.362px" transform="matrix(.95354 0 0 .95354 5.037 19.088)"/><path fill="#0E3E7A" d="M185.146 244.646c.555 1.11.199 2.063 0 3.257h-1.085c.18-1.352.316-2.104 1.085-3.257Z" style="stroke-width:.362px" transform="matrix(.95354 0 0 .95354 5.037 19.088)"/><path fill="#8E2F17" d="M232.194 229.808c.723.384.723.384 1.447 1.085.091 1.335.091 1.335 0 2.534-1.025-1.16-1.274-2.092-1.447-3.619Z" style="stroke-width:.362px" transform="matrix(.95354 0 0 .95354 5.037 19.088)"/><path fill="#A0391F" d="M230.746 224.017c.906 1.064 1.255 1.874 1.448 3.257h-.724c-.565-1.017-.565-1.017-1.086-2.171l.362-1.086Z" style="stroke-width:.362px" transform="matrix(.95354 0 0 .95354 5.037 19.088)"/><path fill="#F1C88A" d="M229.66 174.436c.702.249.702.249 1.448.724.271.95.271.95.362 1.81l-1.448.362.226-.837c.257-1.052.257-1.052-.588-2.059Z" style="stroke-width:.362px" transform="matrix(.95354 0 0 .95354 5.037 19.088)"/><path fill="#315B7B" d="m127.242 114.722-.362 1.086c-1.041.226-1.041.226-2.172.362l-.723-.724c1.243-.829 1.804-.788 3.257-.724Z" style="stroke-width:.362px" transform="matrix(.95354 0 0 .95354 5.037 19.088)"/><path fill="#0D2B46" d="M191.299 390.494h1.809l.362 1.086h-2.171v-1.086Z" style="stroke-width:.362px" transform="matrix(.95354 0 0 .95354 5.037 19.088)"/><path fill="#F7CB8B" d="m227.851 171.903 2.533 1.448-.724.362-.362.723c-1.447-1.719-1.447-1.719-1.447-2.533Z" style="stroke-width:.362px" transform="matrix(.95354 0 0 .95354 5.037 19.088)"/></g></svg>