<svg xmlns="http://www.w3.org/2000/svg" viewBox="38.537 116.416 386.796 296.071"><path fill="#E46E37" d="M196.909 129.551c2.554 1.898 4.477 4.003 6.054 6.778l.801 1.371c.802 2.781 1.014 5.974-.155 8.687-1.604 2.695-4.361 4.942-7.265 6.076h-.827l.455 1.023c1.371 3.229 2.463 6.472 3.372 9.862l.307 1.111c1.923 7.433 1.801 15.059 1.788 22.679-.002 1.188.001 2.376.008 3.564.076 12.091-.745 22.584-9.653 31.672l-.834.879c-3.79 3.704-8.42 5.642-13.567 6.541-2.233.375-2.233.375-4.132 1.518-.437 1.071-.476 1.896-.496 3.059l-.126 1.855c-.031.674-.058 1.348-.081 2.023l-.04 1c-.023 1.065-.023 1.065.247 2.568 1.403 1.283 3.15 1.592 4.964 2.068 14.074 3.938 30.538 10.038 38.155 23.433l.731 1.388.756 1.427c7.893 15.547 9.143 35.283 11.24 52.351l.131 1.07c2.274 18.562 4.284 37.157 5.973 55.782l.096 1.066.098 1.073c.281 3.08.58 6.158.882 9.237l.145 1.486c.285 2.92.285 2.92.573 5.839.133 1.34.264 2.68.395 4.02l.121 1.203a465.24 465.24 0 0 0 .206 2.106c.09 1.465.067 2.935.067 4.404H93.752c0-3.026.019-5.975.227-8.98l.073-1.126c.081-1.225.164-2.449.247-3.673l.174-2.643c.124-1.881.25-3.761.376-5.641.198-2.959.394-5.918.589-8.878l.706-10.678c.566-8.534 1.126-17.067 1.679-25.601.163-2.515.327-5.029.492-7.544.102-1.554.203-3.109.303-4.664a11741.407 11741.407 0 0 0 .33-5.067l.107-1.644a85.95 85.95 0 0 0 .075-4.87c-.698.758-1.397 1.516-2.094 2.275l-.637.693a127.01 127.01 0 0 0-3.215 3.625c-6.651 7.616-16.197 16.291-26.734 17.4-7.119.391-12.571-.871-18.099-5.688-5.331-5.081-8.508-11.934-8.835-19.311a213.229 213.229 0 0 1-.039-3.394l-.009-1.279c-.007-1.374-.01-2.747-.011-4.12l-.001-1.428c.005-8.451.423-16.779 1.346-25.177l.097-.888c.385-3.518.804-7.03 1.239-10.541.257-2.092.493-4.187.719-6.283a380.042 380.042 0 0 1 3.323-23.656h3.723c.377-3.427-.404-5.746-1.828-8.843-2.567-5.876-3.263-12.605-4.377-18.873-.421-2.362-.843-4.723-1.268-7.084l-.158-.886c-.689-3.821-1.438-7.61-2.396-11.372a32.911 32.911 0 0 1-.858-6.797l-.047-1.259c.224-1.459.663-1.922 1.831-2.8 2.269-.36 2.269-.36 3.309 0 2.124 1.975 2.702 4.116 3.387 6.877l.319 1.223c.713 2.794 1.321 5.582 1.672 8.447h.827c-.345-2.437-.691-4.873-1.038-7.31l-.352-2.485-.508-3.577-.158-1.119a89.125 89.125 0 0 0-.839-4.952 67.74 67.74 0 0 1-.13-3.154l-.047-1.645c.177-1.406.177-1.406.91-2.206 1.407-.674 2.723-.69 4.231-.441 1.163.517 1.163.517 2.068 1.654 1.258 3.701 1.657 7.618 2.12 11.48l.212 1.702c.191 1.535.377 3.071.564 4.607.136 1.103.275 2.206.414 3.309l1.241.414-.063-.736c-.217-2.551-.432-5.101-.644-7.652l-.241-2.847c-.117-1.372-.231-2.744-.345-4.117l-.11-1.265c-.677-8.28-.677-8.28.524-10.143 1.195-1.301 1.482-1.352 3.283-1.499 1.334.016 1.729.127 2.922.853 1.402 1.484 1.802 2.726 2.015 4.739l.142 1.313.144 1.42.155 1.467a968.769 968.769 0 0 1 .579 5.697c.395 3.98.778 7.961 1.153 11.942.435-2.176.505-4.303.562-6.514l.081-2.367c.042-1.236.081-2.471.111-3.707.031-1.199.074-2.397.119-3.595l.018-1.11c.112-2.583.713-3.918 2.419-5.873 1.267-.633 2.323-.508 3.723-.413 1.13.502 1.825.891 2.532 1.91.518 1.407.471 2.77.457 4.249l.001.991a582.138 582.138 0 0 1-.014 3.237l-.004 2.247c-.003 1.969-.011 3.939-.02 5.908-.008 2.01-.012 4.021-.016 6.031-.009 3.943-.023 7.887-.041 11.83h1.655l.331-.913c.499-1.162 1.076-2.071 1.815-3.094a244.561 244.561 0 0 0 3.82-5.494c.653-.841.653-.841 1.894-1.668 2.008-.197 2.914-.212 4.706.75 1.085.905 1.085.905 1.913 2.146.213 2.495-.135 3.967-1.293 6.231-.269.544-.537 1.09-.803 1.635l-.409.832c-1.513 3.162-2.707 6.454-3.761 9.793-2.115 6.673-5.469 12.647-10.023 17.99-1.543 1.867-2.018 3.325-2.327 5.714h4.964l.828 22.338 4.137-4.136c10.837-9.443 25.065-15.394 38.964-18.597 3.307-.767 3.307-.767 5.687-3.095 2.196-5.454 2.349-10.965 2.369-16.763.009-1.338.043-2.674.076-4.011.11-5.941.11-5.941-2.687-11.003-1.546-1.148-3.16-1.397-5.033-1.694-2.85-.583-5.171-2.528-6.966-4.769-3.055-4.817-3.884-10.703-2.776-16.266a38.44 38.44 0 0 1 1.296-3.577c.15-1.409-.455-2.388-1.042-3.659-3.968-8.844-5.204-19.42-1.758-28.673 2.24-5.616 5.902-10.716 11.604-13.192 1.016-.578 1.494-1.245 2.176-2.191 5.89-7.742 14.545-10.786 23.864-12.333l1.166-.215c14.471-2.186 32.079 1.088 44.076 9.57Z" style="stroke-width:.414px"/><path fill="#092A45" d="M375.786 251.277c1.261.425 2.514.868 3.766 1.321l1.369.496c5.768 2.129 11.448 4.575 16.47 8.166l1.265.895c5.041 3.669 9.877 8.009 12.802 13.583.343.65.343.65.695 1.312 6.851 13.756 11.839 32.903 11.302 48.33-8.791 1.673-17.714 3.116-26.632 3.852l-1.119.096c-3.982.288-7.975.213-11.964.188a697.208 697.208 0 0 0 2.921 40.05l.103 1.013c.336 3.286.697 6.559 1.165 9.828 1.313 9.693-.966 19.894-2.121 29.363H285.285c.474-6.634.474-6.634.924-9.637l.303-2.105.16-1.095c3.45-23.701 6.263-46.846 3.163-70.726l-1.168-.145a139.587 139.587 0 0 1-10.415-1.717l-1.336-.266c-2.206-.447-4.371-.935-6.523-1.595-.042-2.491.064-4.856.439-7.317l.16-1.048c2.609-16.085 7.209-32.956 17.602-45.827l.674-.88c5.363-6.654 14.098-11.331 22.079-14.012h1.654l.184.926c1.157 5.229 3.347 9.659 7.96 12.609 7.899 4.285 17.314 3.781 25.739 1.437 5.596-1.852 10.448-5.015 14.931-8.767l1.215-1.008c2.49-2.159 4.436-4.433 6.323-7.112 1.688-2.252 4.109-.936 6.433-.208Z" style="stroke-width:.414px"/><path fill="#F8B483" d="M196.909 129.551c2.554 1.898 4.477 4.003 6.054 6.778l.801 1.371c.802 2.781 1.014 5.974-.155 8.687-1.604 2.695-4.361 4.942-7.265 6.076h-.827l.455 1.023c1.371 3.229 2.463 6.472 3.372 9.862l.307 1.111c1.923 7.433 1.801 15.059 1.788 22.679-.002 1.188.001 2.376.008 3.564.076 12.091-.745 22.584-9.653 31.672l-.834.879c-3.79 3.704-8.42 5.642-13.567 6.541-2.233.375-2.233.375-4.132 1.518-.439 1.074-.48 1.892-.496 3.059l-.04.879c-.361 4.096-.361 4.096.867 7.808-3.132 5.464-5.877 8.905-11.997 11.169-8.082 1.876-16.562.046-23.579-4.137-3.368-2.196-7.256-4.996-9.101-8.687-.834-.469-.834-.469-1.655-.827l.905-.181c2.123-1.179 2.875-3.245 3.589-5.497 1.061-4.421 1.143-8.806 1.159-13.334.009-1.338.043-2.674.076-4.011.11-5.941.11-5.941-2.687-11.003-1.546-1.148-3.16-1.397-5.033-1.694-2.85-.583-5.171-2.528-6.966-4.769-3.055-4.817-3.884-10.703-2.776-16.266a38.44 38.44 0 0 1 1.296-3.577c.15-1.409-.455-2.388-1.042-3.659-3.968-8.844-5.204-19.42-1.758-28.673 2.24-5.616 5.902-10.716 11.604-13.192 1.016-.578 1.494-1.245 2.176-2.191 5.89-7.742 14.545-10.786 23.864-12.333l1.166-.215c14.471-2.186 32.079 1.088 44.076 9.57Z" style="stroke-width:.414px"/><path fill="#0A2A45" d="m335.004 125.806 1.005-.007c6.163-.031 12.062.723 17.972 2.541l1.041.319c5.49 1.755 10.224 4.381 14.653 8.084l1.234 1.015c13.284 11.494 17.561 28.767 20.02 45.418.539 3.596 1.16 7.121 2.128 10.629l.25.908c1.286 4.425 3.838 7.684 6.835 11.083 4.813 5.488 6.675 11.394 6.406 18.641-.381 5.626-3.053 10.264-7.088 14.07-3.075 2.427-6.211 3.033-10.058 2.974l-1.016-.001c-2.461-.019-2.461-.019-3.405-.491l-.285 1.138c-.656 1.625-1.114 2.095-2.611 2.999-7.16 2.719-14.229 1.53-21.511 0-.986-3.29-1.625-6.553-2.094-9.954l-.212-1.527c-1.19-8.867-1.554-17.635-1.417-26.577l1.302-.017c4.202-.12 7.305-.65 10.617-3.448l.905-1.086.538-.642c2.945-3.771 3.199-7.971 2.771-12.595-.652-2.482-2.049-3.959-4.136-5.378-2.876-1.149-6.312-1.502-9.284-.48-2.132 1.239-3.677 3.119-5.195 5.03-1.241-.413-1.241-.413-1.745-1.275l-.53-1.129c-2.779-5.162-5.434-7.628-10.947-9.327-6.942-2.156-13.075-5.974-18.631-10.607l-.696-.575c-4.845-4.059-8.235-8.842-11.379-14.269a48.968 48.968 0 0 0-1.576-2.531l-.412.579a63.537 63.537 0 0 1-3.622 4.541l-.903 1.029c-.942 1.015-1.954 1.858-3.043 2.713-4.82 3.972-6.529 7.394-7.21 13.588a185.538 185.538 0 0 0-.316 4.146c-.098 1.389-.24 2.775-.376 4.161-.785 8.419-1.109 16.716.162 25.09l.121.865c1.239 8.783 4.011 17.873 11.053 23.755 3.877 2.913 7.928 4.758 12.78 5.009 1.411.253 2.071 1.144 2.935 2.224l.827.414c.36.811.36.811.714 1.868l.388 1.155.398 1.217.407 1.197a1480.396 1480.396 0 0 0 .736 2.224c.264 1.07.299 1.997.253 3.094-13.113.343-30.387-.468-40.628-9.929-3.18-3.549-3.924-7.013-3.833-11.632.161-2.909.839-5.702 1.49-8.534 1.294-5.647 2.197-11.29 2.922-17.038l.155-1.228a969.101 969.101 0 0 0 1.472-12.393l.315-2.789.198-1.76c.407-3.635.908-7.198 1.865-10.733.6-2.267.297-3.829-.374-6.041-1.594-5.932.111-11.877 2.858-17.179 5.908-10.005 15.982-17.303 27.157-20.348l1.439-.362.782-.226c5.096-1.457 10.167-1.595 15.429-1.61Z" style="stroke-width:.414px"/><path fill="#F8B483" d="M308.865 148.326c1.181.591 1.317 1.363 1.861 2.56 2.857 5.854 7.118 11.163 12.204 15.228l1.282 1.031c5.469 4.263 11.484 7.475 18.083 9.595 3.074.997 5.195 1.96 7.11 4.68l.788 1.042c1.302 1.78 2.448 3.564 3.349 5.577 1.41-.47 1.682-.854 2.585-1.991 1.763-2.033 3.085-3.246 5.801-3.527 3.2-.086 6.115-.117 8.56 2.128 2.758 2.989 3.138 5.612 3.038 9.561-.217 3.889-1.893 7.256-4.678 9.962-2.918 2.107-5.169 2.963-8.765 2.922l-.94-.006c-.764-.004-1.528-.012-2.292-.02.53 14.106.53 14.106 2.068 28.13l.157 1.07c.576 5.553.576 5.553 3.296 10.156l1.124.641 1.212.705c1.776.95 3.558 1.876 5.381 2.734-4.576 8.511-14.165 15.445-23.271 18.396-8.191 2.384-18.009 2.635-25.647-1.529-4.065-2.621-6.957-6.696-8.026-11.447-.118-1.025-.118-1.025-.144-2.524l1.5-.491 1.013-.343c.904-.304 1.81-.6 2.718-.892l1.569-.523 1.498-.49c1.214-.462 1.214-.462 1.8-1.283.648-2.5.112-4.608-.764-6.966-.541-1.489-1.035-2.905-1.27-4.48l-.204-1.079c-.997-.516-.997-.516-2.068-.828l-.828-1.241c-1.188-.227-1.188-.227-2.585-.31-6.344-.798-11.629-4.568-15.539-9.515-9.682-13.641-8.629-32.792-7.136-48.607l.079-.846c.681-7.078 1.409-13.485 7.135-18.312 1.289-1.038 2.627-1.995 3.992-2.931 2.085-1.649 3.489-3.734 4.954-5.937Z" style="stroke-width:.414px"/><path fill="#0A2A45" d="M196.909 129.551c2.554 1.898 4.477 4.003 6.054 6.778l.801 1.371c.802 2.781 1.014 5.974-.155 8.687-2.452 4.05-6.429 5.96-10.833 7.212-8.245 1.737-16.892.296-24.975-1.55l.051 1.164c-.051 1.318-.051 1.318-.879 2.559-5.159 1.72-11.978.549-16.96-1.241l-1.442-.512a108.052 108.052 0 0 1-7.659-3.211l.257 1.046c2.613 10.916 1.317 20.186-4.394 29.98-1.537 0-1.802-.367-2.948-1.345-3.27-2.635-6.595-3.79-10.775-3.768-1.837.234-3.046 1.102-4.479 2.217l-1.241.827c-4.919-9.247-6.944-20.152-3.854-30.39 2.268-6.09 5.521-11.06 11.3-14.287l.849-.368c1.016-.578 1.494-1.245 2.176-2.191 5.89-7.742 14.545-10.786 23.864-12.333l1.166-.215c14.471-2.186 32.079 1.088 44.076 9.57Z" style="stroke-width:.414px"/><path fill="#F7B382" d="M418.077 326.207a559.248 559.248 0 0 1 1.497 19.003c.029.44.054.879.083 1.332.617 10.217.989 20.369-.339 30.547l-.199 1.53c-1.34 10.424-3.048 20.783-4.765 31.151h-28.546c.237-4.03.471-7.88 1.035-11.842.217-1.705.421-3.411.62-5.119l.131-1.093c.338-3.08.335-6.133.148-9.178.153 1.539.296 3.08.426 4.623l.122 1.511h.414c.149-1.781.296-3.563.441-5.345l.18-2.205c.37-4.428 1.41-9.584.437-13.955-3.513-17.803-3.513-17.803-4.687-35.951l-.094-1.286h-.827c-.064 6.357-.088 12.678.204 19.005-.07-1.053-.144-2.105-.217-3.157-.366-5.428-.467-10.823-.401-16.262l1.046-.062c9.328-.566 18.543-1.319 27.793-2.701l1.436-.213 1.286-.194c1.121-.139 1.121-.139 2.776-.139Z" style="stroke-width:.414px"/><path fill="#F8B382" d="M63.14 167.769c1.485.903 2.234 1.725 2.896 3.309.188 1.01.188 1.01.309 2.154l.142 1.313.144 1.42.155 1.467a968.769 968.769 0 0 1 .579 5.697c.395 3.98.778 7.961 1.153 11.942.435-2.176.505-4.303.562-6.514l.081-2.367c.042-1.236.081-2.471.111-3.707.031-1.199.074-2.397.119-3.595l.018-1.11c.112-2.583.713-3.918 2.419-5.873 1.267-.633 2.323-.508 3.723-.413 1.13.502 1.825.891 2.532 1.91.518 1.407.471 2.77.457 4.249l.001.991a582.138 582.138 0 0 1-.014 3.237l-.004 2.247c-.003 1.969-.011 3.939-.02 5.908-.008 2.01-.012 4.021-.016 6.031-.009 3.943-.023 7.887-.041 11.83h1.655l.331-.913c.499-1.162 1.076-2.071 1.815-3.094a244.561 244.561 0 0 0 3.82-5.494c.653-.841.653-.841 1.894-1.668 2.008-.197 2.914-.212 4.706.75 1.085.905 1.085.905 1.913 2.146.213 2.495-.135 3.967-1.293 6.231-.269.544-.537 1.09-.803 1.635l-.409.832c-1.513 3.162-2.707 6.454-3.761 9.793-2.233 7.044-5.86 13.388-10.834 18.887-.955 1.517-1.214 3.066-1.516 4.817-9.934.08-19.855-.152-29.784-.414v-.414h3.723c.377-3.427-.404-5.746-1.828-8.843-2.567-5.876-3.263-12.605-4.377-18.873-.421-2.362-.843-4.723-1.268-7.084l-.158-.886c-.689-3.821-1.438-7.61-2.396-11.372a32.911 32.911 0 0 1-.858-6.797l-.047-1.259c.224-1.459.663-1.922 1.831-2.8 2.269-.36 2.269-.36 3.309 0 2.124 1.975 2.702 4.116 3.387 6.877l.319 1.223c.713 2.794 1.321 5.582 1.672 8.447h.827c-.345-2.437-.691-4.873-1.038-7.31l-.352-2.485-.508-3.577-.158-1.119a89.125 89.125 0 0 0-.839-4.952 67.74 67.74 0 0 1-.13-3.154l-.047-1.645c.177-1.406.177-1.406.91-2.206 1.407-.674 2.723-.69 4.231-.441 1.163.517 1.163.517 2.068 1.654 1.258 3.701 1.657 7.618 2.12 11.48l.212 1.702c.191 1.535.377 3.071.564 4.607.136 1.103.275 2.206.414 3.309l1.241.414-.063-.736c-.217-2.551-.432-5.101-.644-7.652l-.241-2.847c-.117-1.372-.231-2.744-.345-4.117l-.11-1.265c-.677-8.28-.677-8.28.524-10.143 1.461-1.59 2.933-1.662 5.015-1.37Z" style="stroke-width:.414px"/><path fill="#F8B482" d="M277.955 324.048c2.431.03 4.759.602 7.123 1.125l1.39.299c1.123.242 2.245.487 3.367.735 3.634 15.121 2.003 30.653.414 45.918l-.1.962c-1.057 10.092-2.47 20.147-3.835 30.201l-.169 1.259-.16 1.168-.138 1.016c-.156 1.018-.36 2.028-.562 3.039H263.36c.257-2.822.516-5.374 1.138-8.093.7-3.188 1.333-6.384 1.939-9.592.631-3.33 1.303-6.646 2.042-9.954a778.834 778.834 0 0 0 1.258-5.847c1.665-7.839 2.952-15.569 3.495-23.567.416-6.064 1.076-12.094 1.763-18.133l.168-1.506c.159-1.409.319-2.818.481-4.227l.146-1.3.139-1.182.119-1.037c.236-1.352.469-1.188 1.907-1.284Z" style="stroke-width:.414px"/><path fill="#AD461E" d="M207.1 293.94h2.482c.796 10.078 1.078 20.174 1.366 30.277.182 6.674.182 6.674.497 13.344.195 3.345.296 6.692.383 10.042l.022.848c.039 1.483.077 2.966.114 4.45.343 13.441.8 26.877 1.314 40.314l.16 4.231.112 2.893.068 1.769.059 1.526c.05 1.907.042 3.815.042 5.722h23.579v.414H93.752v-.414h117.485l-.414-4.551a107.01 107.01 0 0 1-.102-2.775c-.149-6.08-.36-12.154-.649-18.229-.459-9.735-.752-19.473-1.012-29.215-.125-4.672-.256-9.343-.389-14.015l-.041-1.415c-.309-10.779-.715-21.553-1.152-32.327l-.039-.967c-.059-1.472-.12-2.944-.181-4.416-.103-2.505-.186-4.999-.158-7.506Z" style="stroke-width:.414px"/><path fill="#A54C24" d="M82.997 262.914c.492.985.445 1.52.406 2.615l-.037 1.137-.047 1.251-.045 1.315c-.05 1.44-.103 2.88-.156 4.32l-.107 2.993c-.075 2.093-.153 4.186-.231 6.279-.1 2.687-.195 5.373-.288 8.06-.072 2.061-.148 4.122-.224 6.183-.037.99-.072 1.981-.106 2.972-.048 1.384-.1 2.767-.154 4.151l-.04 1.249-.047 1.14-.037.992c-.128.848-.128.848-.956 2.089l-1.654-.414c-.106-8.332.153-16.645.462-24.971.069-1.878.131-3.756.191-5.634.049-1.461.102-2.921.157-4.382.025-.693.049-1.387.07-2.08.029-.962.067-1.923.106-2.885l.058-1.65c.285-2.058 1.158-3.353 2.679-4.73Z" style="stroke-width:.414px"/><path fill="#0A2645" d="M162.837 205.413c1.272.142 1.901.234 2.789 1.191 1.174 1.104 2.257 1.471 3.778 1.99l1.496.522c2.5.748 5.048 1.152 7.656.848.937-.607.937-.607 1.655-1.241.931.129.931.129 1.655.413-.21 1.831-.786 2.82-2.069 4.137-2.125 1.344-3.921 1.456-6.36 1.448l-1.018.035c-2.589.009-4.282-.656-6.273-2.31-1.047-1.11-1.047-1.11-1.862-2.249l-.84-1.136c-.691-1.326-.729-2.174-.607-3.648Z" style="stroke-width:.414px"/><path fill="#D06A3A" d="M152.495 226.511c1.923.21 3.637.776 5.455 1.422 5.199 1.772 10.194 2.087 15.642 2.301l-.827 4.137c-6.667.247-14.072-1.049-19.708-4.855-.562-.523-.562-.523-1.002-1.661.026-.931.026-.931.44-1.344Z" style="stroke-width:.414px"/><path fill="#001A2C" d="M291.49 293.94h1.655c.151 4.458-.275 8.823-.709 13.255-.586 6.055-1.071 12.108-1.36 18.185l-2.482.413c.13-6.6.408-13.155 1.035-19.727.026-.289.054-.579.082-.876.455-4.797.455-4.797.952-6.286.125-1.185.209-2.37.297-3.558.116-.992.116-.992.53-1.406Z" style="stroke-width:.414px"/><path fill="#0A2544" d="M326.239 210.791c.138 1.335.069 1.954-.637 3.117l-.863 1.046-.843 1.048c-1.549 1.594-2.884 2.703-5.142 2.869-.608.004-1.216 0-1.823-.013l-.919.019c-2.68-.019-4.19-.992-6.088-2.889-.646-1.06-.646-1.06-.542-2.224l.31-.905c1.603.776 1.603.776 2.068 1.241 3.995.384 8.621.087 11.842-2.54.982-.769.982-.769 2.637-.769Z" style="stroke-width:.414px"/><path fill="#001A2C" d="m376.708 304.282 2.482.827c.733 4.197 1.345 8.41 1.95 12.626.171 1.187.344 2.374.517 3.561l.328 2.284.157 1.065c.252 1.779.415 3.483.357 5.285-.982-.103-.982-.103-2.068-.414-1.042-1.49-1.176-3.31-1.448-5.067l-.16-.998c-.739-4.699-1.307-9.393-1.611-14.142-.117-1.683-.303-3.352-.504-5.027Z" style="stroke-width:.414px"/><path fill="#D57746" d="M339.89 227.752c.207 1.086.207 1.086 0 2.482-3.833 4.426-10.982 6.262-16.547 7.032-2.217.141-3.218-.233-4.964-1.654l-.414-1.241 1.382-.108c6.506-.576 13.268-1.776 18.518-5.965.784-.546.784-.546 2.025-.546Z" style="stroke-width:.414px"/><path fill="#112445" d="M178.143 181.42h1.241c1.551 2.899 2.871 5.832 4.059 8.894l.378.974c.949 2.484 1.747 4.796 1.354 7.506-.896 1.473-1.718 2.269-3.309 2.896-1.157.081-1.157.081-2.379.052l-1.235-.023-.937-.029-.413-1.655 1.266-.336c1.577-.447 3.031-1.061 4.525-1.732-.167-3.54-1.668-6.522-3.074-9.732-.321-.737-.635-1.477-.95-2.217l-.576-1.322c-.392-1.301-.34-1.991.05-3.276Z" style="stroke-width:.414px"/><path fill="#A54C24" d="m102.026 295.181 2.482.414c.044 2.688-.114 5.28-.424 7.949l-.133 1.174c-.092.812-.186 1.624-.281 2.435a678.482 678.482 0 0 0-.422 3.739l-.275 2.373-.124 1.131-.126 1.042-.105.918c-.178.75-.178.75-1.006 1.577h-1.654c-.228-4.766.456-9.447 1.034-14.168l.298-2.503c.242-2.027.488-4.054.736-6.081Z" style="stroke-width:.414px"/><path fill="#0F2545" d="M311.76 185.97h1.241c.176 2.477-.379 4.145-1.396 6.387-1.483 3.331-2.647 6.455-2.327 10.16 1.21.909 1.21.909 2.715 1.19 1.422.465 1.422.465 2.016 1.344l.233.776c-.413.414-.413.414-1.271.422-2.346-.186-3.929-.473-5.761-2.077-.852-1.122-1.005-2.232-.955-3.636.494-3.54 2.009-6.977 3.282-10.299l.377-.992a271.344 271.344 0 0 0 .685-1.755c.334-.692.334-.692 1.161-1.52Z" style="stroke-width:.414px"/><path fill="#E59364" d="M78.446 207.482v.827l-.835.231c-6.417 2.02-9.907 6.703-12.971 12.386l-.564 1.031c-.452.827-.902 1.656-1.349 2.485h-.414c-.372-4.759 1.108-8.579 4.188-12.203 3.304-2.873 7.452-5.112 11.945-4.757Z" style="stroke-width:.414px"/><path fill="#102846" d="M165.732 166.528c1.293.827 1.293.827 2.069 1.654l-.414 2.069c-1.45.461-2.728.402-4.24.336-1.831-.027-3.078.054-4.68.956l-1.422.776c-.916-.365-.916-.365-1.655-.827.396-1.432.735-1.999 1.939-2.904 5.233-2.832 5.233-2.832 8.403-2.06Z" style="stroke-width:.414px"/><path fill="#0F2846" d="M162.009 177.413c1.241.284 1.241.284 2.224 1.086.906 1.709 1.008 3.093.672 4.989-.672 1.267-.672 1.267-1.655 2.069-1.267.207-1.267.207-2.482 0-1.059-.767-1.232-1.215-1.655-2.482-.164-1.744-.081-2.723.673-4.318.982-1.06.982-1.06 2.223-1.344Z" style="stroke-width:.414px"/><path fill="#071E42" d="M190.553 166.114c2.081.821 4.195 1.713 5.791 3.309-.155 1.086-.155 1.086-.413 2.069l-.879-.362-1.19-.466-1.112-.465c-1.835-.484-3.617-.515-5.507-.362l-.413.414c-.689.017-1.379.017-2.069 0-.127-1.398-.143-2.235.569-3.465 1.731-1.071 3.246-1.037 5.223-.672Z" style="stroke-width:.414px"/><path fill="#0D2B47" d="M187.243 178.524c1.422-.181 1.422-.181 2.896 0 .967.939 1.222 1.517 1.406 2.859l-.01 1.304.01 1.307c-.165 1.149-.165 1.149-.732 1.912-.674.478-.674.478-1.682.659-1.416-.241-1.83-.718-2.715-1.836-.191-1.203-.191-1.203-.155-2.507l.016-1.308c.139-1.149.139-1.149.966-2.39Z" style="stroke-width:.414px"/><path fill="#0E2846" d="M303.306 183.669c1.422.233 1.422.233 2.223.88.607 1.391.598 2.398.44 3.903-.479.957-.9 1.728-1.655 2.482-2.227.194-2.227.194-3.232-.568-1.072-1.468-1.057-2.593-.905-4.396.873-1.64 1.276-2.008 3.129-2.301Z" style="stroke-width:.414px"/><path fill="#0D2445" d="M329.135 175.215c2.491.921 4.476 2.12 6.205 4.137l-.414 1.241c-1.263-.192-2.166-.465-3.309-1.06-1.892-.873-3.838-.649-5.877-.558-1.156-.037-1.156-.037-1.983-.865.07-1.087.334-1.565 1.06-2.378 1.467-.753 2.728-.808 4.318-.517Z" style="stroke-width:.414px"/><path fill="#0C2645" d="M328.152 185.324c1.161.275 1.497.541 2.224 1.474.371 1.975.256 3.662-.699 5.429-.956.776-.956.776-1.99 1.034-1.034-.258-1.034-.258-1.991-1.111-.886-1.543-.976-2.355-.698-4.111.75-1.401 1.541-2.369 3.154-2.715Z" style="stroke-width:.414px"/><path fill="#0C2946" d="M305.969 173.56c1.038.588 1.648 1.191 2.482 2.068l-.414 2.069c-.775.258-.775.258-1.655.413l-.827-.827c-2.717-1.006-5.574-.272-8.273.414.077-.957.077-.957.413-2.069.931-.697.931-.697 2.069-1.241l.904-.491c1.778-.513 3.47-.637 5.301-.336Z" style="stroke-width:.414px"/><path fill="#F4AF7F" d="M129.329 205h3.309l.257 1.118.338 1.467.334 1.454c.167.716.338 1.431.537 2.138.202.916.229 1.712.211 2.65l-.017 1.062-.026 1.138-.024 1.177c-.017.821-.036 1.641-.055 2.462-.03 1.256-.052 2.511-.074 3.767l-.054 2.393-.019 1.137-.029 1.063-.02.931c-.134.978-.462 1.664-.945 2.518l.006-.77c.02-2.665.016-5.329-.001-7.994a246.02 246.02 0 0 1 .007-2.976c.31-7.185.31-7.185-3.026-13.213l-.709-.695V205Z" style="stroke-width:.414px"/><path fill="#DE571B" d="M64.381 241.817h16.547v17.788h-.413l-.414-16.961-15.72-.414v-.413Z" style="stroke-width:.414px"/><path fill="#0C2043" d="M311.76 185.97h1.241c.232 2.671-.565 4.615-1.654 7.033h-2.069c-.413-.827-.413-.827-.03-2.055l.573-1.461.564-1.461c.548-1.228.548-1.228 1.375-2.056Z" style="stroke-width:.414px"/><path fill="#0C1836" d="M129.329 205h3.309c.219.878.434 1.757.646 2.637l.364 1.483c.231 1.257.231 1.257-.183 2.085a329.536 329.536 0 0 1-1.603-1.939l-.901-1.091c-.759-1.044-1.217-1.961-1.632-3.175Z" style="stroke-width:.414px"/><path fill="#0A2042" d="m302.659 173.974-.827 1.654h2.068a23.662 23.662 0 0 1-3.542 1.5l-.958.327c-.877.242-.877.242-2.118.242.077-.957.077-.957.413-2.069 1.008-.723 1.008-.723 2.069-1.241 1.019-.509 1.77-.443 2.895-.413Z" style="stroke-width:.414px"/><path fill="#1B2740" d="M322.516 242.644c.827 1.241.827 1.241 1.241 4.964h-9.928l-.414-.827h9.515l-.828-2.896.414-1.241Z" style="stroke-width:.414px"/><path fill="#9C451F" d="M82.997 262.914c.569 1.14.426 2.009.378 3.282l-.055 1.514-.065 1.591-.055 1.547c-.115 3.02-.304 6.02-.617 9.027h-.413V265.81l-1.242.414c.225-1.57.911-2.264 2.069-3.31Z" style="stroke-width:.414px"/><path fill="#142444" d="M191.794 167.769c1.629-.152 2.302-.125 3.671.827l.879.827-.413 2.069-.879-.362a66.833 66.833 0 0 0-3.672-1.293l.414-2.068Z" style="stroke-width:.414px"/><path fill="#EDC186" d="M318.793 162.804c1.543.95 2.857 1.975 4.188 3.206 2.152 1.958 4.532 3.51 6.981 5.068l-1.241.414c-.986-.582-.986-.582-2.12-1.448l-1.214-.921-1.216-.941-1.127-.837c-1.931-1.451-1.931-1.451-2.597-2.058v-.828l-1.654-.827v-.828Z" style="stroke-width:.414px"/><path fill="#071D42" d="M308.451 198.381c.387 1.305.457 2.468.439 3.826l-.011 1.119-.014.846 2.895 1.241v.414c-1.844-.109-2.695-.239-4.111-1.474l-.853-1.008c.197-.75.395-1.5.595-2.249l.334-1.266c.312-1.036.312-1.036.726-1.449Z" style="stroke-width:.414px"/><path fill="#25334C" d="m307.21 196.312.413 1.655.569-.621c.673-.62.673-.62 1.5-.62l-.414 2.482-.827-.414-1.241 4.137-.828-.414c-.093-2.241.221-4.043.828-6.205Z" style="stroke-width:.414px"/><path fill="#E26023" d="M45.766 245.126h.414c.011.923.019 1.845.025 2.767l.015 1.556c-.034 1.247-.161 2.33-.454 3.537h-.827v2.482h-.414c-.191-3.56.526-6.873 1.241-10.342Z" style="stroke-width:.414px"/><path fill="#09163E" d="M187.243 178.524c1.422-.181 1.422-.181 2.896 0 .909.903 1.217 1.443 1.362 2.722l-.043 1.105-.034 1.118-.044.847h-.413l-.828-4.964-2.482.413-.827 3.723h-.414c-.023-.594-.038-1.189-.052-1.783l-.029-1.004c.081-.936.081-.936.908-2.177Z" style="stroke-width:.414px"/><path fill="#E15D21" d="m89.202 257.536.827.414c-.463.416-.929.83-1.396 1.241l-.785.698c-.714.543-.714.543-1.542.543l-.31.724c-.586 1.055-1.294 1.766-2.172 2.586 0-1.655 0-1.655.967-2.707.414-.369.834-.734 1.257-1.094l.636-.564c.808-.71 1.552-1.357 2.518-1.841Z" style="stroke-width:.414px"/><path fill="#0A2B47" d="m187.502 166.89.983.051-.828.828.414 1.241h-.828l-.413 1.241-1.655-.414c.451-2.858.451-2.858 2.327-2.947Z" style="stroke-width:.414px"/><path fill="#0E1D3F" d="M362.229 181.834c2.992-.225 5.264.09 7.86 1.654 1.06.931 1.06.931 1.654 1.655-1.241 0-1.241 0-2.197-.75-2.089-1.5-4.843-1.698-7.317-2.146v-.413Z" style="stroke-width:.414px"/><path fill="#0D1A41" d="m178.079 199.582 2.546.04v.413l-2.482.414 3.723.414v.827h-4.551l-.413-1.655c.413-.413.413-.413 1.177-.453Z" style="stroke-width:.414px"/><path fill="#1B2545" d="M307.623 175.628h.828l-.414 2.069c-.775.258-.775.258-1.655.413l-.827-.827c-.814-.278-.814-.278-1.706-.465l-1.603-.362v-.414c1.995-.079 3.514.101 5.377.827v-1.241Z" style="stroke-width:.414px"/><path fill="#0E2D48" d="M309.692 212.859h.827l.259.776c.795 1.229 1.671 1.347 3.051 1.706l-1.655.414.414 1.241c-1.33-.458-1.652-.821-2.379-2.068-.517-1.241-.517-1.241-.517-2.069Z" style="stroke-width:.414px"/><path fill="#0A183F" d="M324.584 210.791h1.655c.17 1.49.063 1.979-.827 3.232l-.828.905-.827-.414.62-.776c.7-.812.7-.812.621-1.706l-1.241.414.827-1.655Z" style="stroke-width:.414px"/><path fill="#152E48" d="M129.329 205h3.309v3.723a58.473 58.473 0 0 1-2.068-2.069v-.827h-1.241V205Z" style="stroke-width:.414px"/><path fill="#112545" d="M308.451 193.003h.414c.275 1.253.473 2.438.413 3.723-1.008 1.267-1.008 1.267-2.068 2.068.17-2.056.329-3.907 1.241-5.791Z" style="stroke-width:.414px"/><path fill="#102E49" d="M181.866 198.794v2.069h-4.137c.709-1.419 2.582-2.069 4.137-2.069Z" style="stroke-width:.414px"/><path fill="#071941" d="M182.279 193.417c.828.827.828.827.828 2.068h1.241c-.22 1.581-.62 2.508-1.655 3.723l-.827-.414.827-.827c.009-1.108.009-1.108-.155-2.327l-.139-1.257-.12-.966Z" style="stroke-width:.414px"/><path fill="#1B2546" d="M180.211 208.723c.879.155.879.155 1.655.413l-.414 1.655-.414-1.241-1.318.853c-1.124.651-1.455.812-2.793.698l-.853-.31v-.414l2.505-.565c.89-.222.89-.222 1.632-1.089Z" style="stroke-width:.414px"/><path fill="#0B2D48" d="M178.556 182.247c1.129.976 1.609 1.896 2.069 3.31v1.241h-.828l-.413-2.069-1.241-.413.413-2.069Z" style="stroke-width:.414px"/><path fill="#0E1A35" d="M313.001 253.4v2.895c-.827-1.241-.827-1.241-.827-2.068l-3.309.827v-.827c1.497-.544 2.521-.827 4.136-.827Z" style="stroke-width:.414px"/><path fill="#DF6027" d="m173.178 243.058 2.483.413-.776.156c-.958.205-.958.205-1.707 1.085-.292.683-.57 1.372-.827 2.069h-1.241l2.068-3.723Z" style="stroke-width:.414px"/><path fill="#0D2E49" d="M164.078 205.413c1.243 1.244 1.073 2.409 1.241 4.137-1.035-.956-1.035-.956-2.069-2.068v-1.241h.828v-.828Z" style="stroke-width:.414px"/><path fill="#E4B883" d="m308.865 213.687.827 1.241c.933 1.143 1.851 2.265 2.896 3.309-.906 0-.906 0-2.069-.414-.848-1.017-1.545-2.09-2.068-3.309l.414-.827Z" style="stroke-width:.414px"/><path fill="#0C1841" d="M178.143 181.42h1.241c.827 1.241.827 1.241.672 2.146l-.259.75-.827-1.655-.827 1.655a52.195 52.195 0 0 1-.414-2.482l.414-.414Z" style="stroke-width:.414px"/><path fill="#192947" d="M338.236 174.387c1.318.362 1.318.362 2.482.828v1.241l-3.723-1.241 1.241-.828Z" style="stroke-width:.414px"/><path fill="#F2C086" d="M132.224 179.352c2.073.592 2.873 1.648 4.137 3.309-1.649-.565-2.848-1.304-4.137-2.482v-.827Z" style="stroke-width:.414px"/><path fill="#0A2D49" d="M182.279 191.348h.828c.544 1.498.827 2.522.827 4.137h-.827c-.545-1.497-.828-2.521-.828-4.137Z" style="stroke-width:.414px"/><path fill="#122241" d="m118.159 176.869 1.655.828-2.482 2.068-.827-1.655.827-.413v.827h.827v-1.655Z" style="stroke-width:.414px"/><path fill="#08172E" d="m305.141 133.433 1.241.414c-1.36 1.205-2.316 1.86-4.136 2.068 1.965-2.016 1.965-2.016 2.895-2.482Z" style="stroke-width:.414px"/><path fill="#E06830" d="m167.801 250.504 1.241.414c-2.128 1.832-2.128 1.832-3.723 2.068v-.827c1.163-.905 1.163-.905 2.482-1.655Z" style="stroke-width:.414px"/><path fill="#0F2F4A" d="M191.794 167.769h2.482l-.414 1.654-2.482-.413.414-1.241Z" style="stroke-width:.414px"/><path fill="#DCB080" d="m301.418 157.013.414.827c-.595 1.086-.595 1.086-1.241 2.069l-1.655-.414 2.482-2.482Z" style="stroke-width:.414px"/><path fill="#25364A" d="M305.969 245.54v.827l-4.137-.413c1.593-1.062 2.31-.758 4.137-.414Z" style="stroke-width:.414px"/><path fill="#0B1D37" d="m281.148 217.41.828.413c.077.983.077.983 0 2.069l-1.242.827c-.051-2.378-.051-2.378.414-3.309Z" style="stroke-width:.414px"/><path fill="#112A47" d="m309.278 190.934.414.828h.827l.414-.828.414 2.069h-2.069l-.413-.827.413-1.242Z" style="stroke-width:.414px"/><path fill="#F8AA72" d="m47.834 173.56 1.241.414-.388.672c-.513 1.147-.683 2.224-.853 3.464h-.413c-.012-.68-.02-1.361-.026-2.042l-.015-1.149c.041-.945.041-.945.454-1.359Z" style="stroke-width:.414px"/><path fill="#122043" d="m157.045 169.01 1.241.413-1.241.828c-.493.848-.493.848-.827 1.654l-.828-.413c.724-2.017.724-2.017 1.655-2.482Z" style="stroke-width:.414px"/><path fill="#CF6B3C" d="m339.89 227.752-.413 1.654-.414-.827-1.655 1.241-.827-.414c1.913-1.654 1.913-1.654 3.309-1.654Z" style="stroke-width:.414px"/><path fill="#E0B682" d="m308.865 148.326.827.413c.258.854.258.854.414 1.655h-2.483l1.242-2.068Z" style="stroke-width:.414px"/><path fill="#0B1C35" d="M292.731 144.603h.414v2.068h-1.241l-.828 1.655c.219-1.573.595-2.531 1.655-3.723Z" style="stroke-width:.414px"/></svg>