<svg xmlns="http://www.w3.org/2000/svg" viewBox="0 0 500 500"><path fill="#85422A" d="M50.719 41.777c.526.022.526.022 1.063.038.733.022 1.466.05 2.197.089 1.653.066 3.306.094 4.959.127l4.014.117 2.198.066 4.574.133c1.914.061 3.828.117 5.741.172 6.775.194 13.55.394 20.321.687 7.365.311 14.734.471 22.103.654 12.787.31 25.568.665 38.349 1.153 7.464.282 14.929.515 22.396.709.434.006.868.017 1.315.028 4.33.111 8.661.221 12.992.327 1.613.033 3.227.072 4.841.111 1.101.027 2.203.055 3.304.077 1.683.039 3.365.094 5.048.15.703.027 1.406.044 2.109.066 1.09.022 2.179.067 3.269.111.959.028.959.028 1.938.061 1.965.344 2.819.887 4.208 2.3.509 1.529.563 2.554.564 4.156l.004 1.679-.003 1.862.004 1.978c.003 1.818.003 3.636.001 5.459 0 1.978.003 3.951.004 5.928.004 3.927.005 7.85.006 11.777 0 4.697.003 9.401.007 14.099.008 11.357.011 22.715.013 34.073l.005 16.109c.006 18.371.012 36.741.014 55.111v6.931l.001 6.96v1.743c.002 18.664.01 37.328.021 55.992a89732.086 89732.086 0 0 1 .021 65.645v1.614c0 8.587.006 17.173.013 25.76.007 8.623.009 17.245.005 25.867-.002 5.128 0 10.257.007 15.386.005 3.42.005 6.84 0 10.26-.003 1.953-.003 3.906.003 5.858.007 2.097.002 4.194-.004 6.292l.011 1.859-.01 1.683v1.455c-.187 1.2-.187 1.2-.851 2.098-1.359.978-2.712.908-4.36 1.025l-1.073.082c-.766.057-1.531.112-2.297.164-1.223.083-2.445.174-3.666.268-1.259.096-2.519.192-3.777.285-3.867.288-7.727.631-11.586.998l-1.96.185c-5.586.531-11.165 1.114-16.746 1.694-6.622.688-13.249 1.312-19.88 1.905-7.154.64-14.304 1.311-21.45 2.033l-1.261.127-4.897.494c-9.335.944-18.67 1.84-28.022 2.592-5.591.451-11.176.964-16.76 1.503l-1.048.1c-3.164.305-6.329.611-9.493.922-4.385.431-8.77.846-13.159 1.235l-1.55.143c-1.343.119-2.686.223-4.029.322l-1.146.107c-1.638.102-2.545.107-3.874-.903-1.129-1.455-1.159-2.194-1.16-4.021l-.015-1.776.014-1.957c-.003-.695-.005-1.389-.009-2.083-.009-1.919-.005-3.838.002-5.757.004-2.083-.002-4.166-.008-6.25-.008-3.654-.009-7.31-.004-10.964.006-5.436.001-10.871-.006-16.306-.013-9.705-.013-19.411-.009-29.116.004-8.494.004-16.988 0-25.481l-.001-3.414-.003-5.143c-.006-15.947-.008-31.894-.003-47.841l.001-1.823.005-14.657c.008-19.061.004-38.121-.011-57.182-.015-21.4-.023-42.799-.018-64.199l.002-6.84.001-1.701c.001-8.489-.004-16.978-.011-25.468-.01-9.65-.01-19.301.002-28.951.006-5.404.006-10.807-.005-16.215-.006-3.607-.004-7.212.007-10.819.005-2.056.007-4.117-.003-6.173a524.33 524.33 0 0 1 .007-5.608 228.55 228.55 0 0 0-.015-2.982c.05-4.782.05-4.782 1.496-6.345 1.776-1.13 2.908-1.103 5.003-1.019Z" style="stroke-width:1px" transform="translate(-2.012 -1.288)"/><path fill="#EB6045" d="M341.733 135.505c-.1-.206 10.235-6 15.074-8.264 9.917-4.64 42.789-1.197 47.808-7.79.41-.539-5.145-8.872-8.13-9.824-.261-.083-4.814-3.393-5.511-3.883-3.213-2.26-3.898-2.442-4.429-3.606-4.811-10.534 8.977-16.078 9.182-16.064 2.505.366 4.496 1.566 6.668 2.807.439.25.878.496 1.329.751 4.62 2.626 9.107 5.443 13.555 8.35l1.448.94c26.664 17.378 26.664 17.378 30.697 28.266 1.31 6.333-.323 11.878-3.627 17.323-9.004 12.48-27.141 18.388-41.026 23.514.648 3.455 1.46 6.834 2.377 10.225 6.023 22.826 11.066 47.955 11.226 71.638l.021 1.489c-.115 1.2-.115 1.2-1.116 2.201-.145 1.135-.145 1.135-.119 2.487a781.517 781.517 0 0 0-.037 3.548c-.14 7.847-.819 15.637-1.532 23.451l-.171 1.879-.342 3.756-.169 1.858-.169 1.844a824.28 824.28 0 0 0-1.244 15.616 694.805 694.805 0 0 1-1.395 16.957 1443.98 1443.98 0 0 1-.691 7.189 300.037 300.037 0 0 0-.549 6.347 234.875 234.875 0 0 1-.255 3.03c-.295 5.929 1.61 11.203 3.39 16.789l1.02 3.294c.716 2.322 1.437 4.642 2.16 6.961 1.645 5.292 3.22 10.607 4.797 15.92.882 2.971 1.766 5.941 2.651 8.911l.532 1.79c1.02 3.426 2.045 6.851 3.077 10.275.851 2.829 1.699 5.658 2.545 8.489.358 1.192.718 2.383 1.078 3.574.497 1.646.991 3.293 1.482 4.94l.449 1.469c.785 2.651 1.498 5.066.684 7.806-.281.951-.281.951.246 1.842l.668.932c3.668 5.492 4.567 10.652 4.471 17.166l-.014 1.754a752.756 752.756 0 0 1-.049 4.25c-2.836 1.92-4.852 2.293-8.239 2.249l-1.409.005c-1.537 0-3.074-.016-4.61-.034l-1.601-.01a624.386 624.386 0 0 1-25.453-.716 562.847 562.847 0 0 0-3.67-.162 420.58 420.58 0 0 1-5.15-.259l-1.549-.06c-2.321-.147-3.526-.273-5.439-1.676-.915-1.338-.915-1.338-.947-3.308.682-3.302 2.599-5.382 5.277-7.286 2.609-1.556 5.451-2.622 8.263-3.752 5.576-2.185 5.576-2.185 10.506-5.504v-1l-.935-.683c-1.191-.914-1.536-1.531-2.109-2.901l-.543-1.276-.57-1.386-.611-1.448c-.656-1.56-1.305-3.125-1.954-4.688l-1.362-3.243c-.902-2.148-1.8-4.297-2.696-6.447a1481.697 1481.697 0 0 0-3.086-7.354c-1.425-3.378-2.84-6.759-4.248-10.144l-1.252-3.005c-10.86-26.074-10.86-26.074-14.248-36.661l-.424-1.267c-.802-2.636-1.122-5.214-1.268-7.96l-.062-1.127c-.201-3.914-.217-7.821-.202-11.739l.002-2.252c.002-1.944.007-3.887.012-5.831.006-1.995.008-3.991.01-5.988.006-3.892.014-7.785.025-11.677h-1.001l-.348 1.012c-.838 1.912-1.939 3.568-3.091 5.304-.501.763-1 1.526-1.499 2.29l-.784 1.197a488.863 488.863 0 0 0-3.752 5.894l-.752 1.193-1.517 2.409c-.771 1.223-1.545 2.443-2.32 3.663-5.881 9.227-5.881 9.227-11.202 18.782l-.513.968-.473.937c-.135.267-.272.533-.413.808-1.088 3.301-.984 7.047-1.123 10.491l-.069 1.605c-.076 1.75-.148 3.5-.222 5.25l-.159 3.708c-.14 3.266-.278 6.533-.415 9.798l-.414 9.741-.081 1.918c-.212 4.974-.428 9.947-.647 14.92-.145 3.312-.284 6.624-.414 9.937-.077 1.893-.158 3.786-.241 5.678a367.1 367.1 0 0 0-.102 2.576 367.72 367.72 0 0 1-.148 3.472l-.078 1.934c-.255 1.682-.663 2.326-1.743 3.593.123 1.469.578 2.75 1.012 4.159.751 3.036.693 6.114.708 9.225l.05 1.846.011 1.773.02 1.606c-.403 1.883-1.221 2.375-2.801 3.404-1.166.583-1.844.565-3.143.568l-1.362.006-1.498-.001c-.52.003-1.04.004-1.576.005-1.727.005-3.454.006-5.181.007l-3.598.005c-2.519.003-5.037.004-7.556.003-3.222 0-6.445.008-9.667.016-2.479.005-4.959.006-7.438.006-1.188.001-2.376.003-3.563.007-1.665.005-3.331.003-4.996.001l-1.478.008c-6.931-.032-6.931-.032-9.704-1.998-2.243-2.692-2.243-2.692-2.404-4.698 1.908-4.388 5.728-6.498 10.027-8.238 2.16-.839 4.336-1.635 6.514-2.425 4.198-1.525 8.377-3.044 12.358-5.084l1.576-.807c1.27-.802 1.27-.802 1.623-2.19.144-1.213.144-1.213-.454-2.207-.176-1.574-.21-3.16-.274-4.742l-.063-1.534c-.278-7.47-.266-14.946-.282-22.419l-.006-2.439c-.01-3.818-.017-7.635-.021-11.452-.005-4.362-.018-8.724-.039-13.086-.015-3.406-.022-6.811-.023-10.218a1019.71 1019.71 0 0 0-.019-6.058c-.05-8.375-.022-16.471 2.229-24.611l.295-1.101c1.463-5.383 3.646-10.281 6.083-15.284a3087.54 3087.54 0 0 1 3.461-7.203 819.798 819.798 0 0 0 3.369-7.092l.54-1.148 1.071-2.279a2159.133 2159.133 0 0 1 10.821-22.621c.941-1.941 1.878-3.883 2.814-5.825l.486-1.009 1.874-3.887 1.273-2.638.73-1.515a127.355 127.355 0 0 1 1.549-3.064c.752-1.283.752-1.283.561-2.412a42.023 42.023 0 0 0-.907-2.007c-.665-1.946-.766-3.799-.895-5.842l-.201-2.706-.107-1.442c-.74-9.906-2.106-19.576-3.979-29.329l-.263-1.381c-.163-.847-.33-1.692-.5-2.537-.448-2.299-.639-4.414-.559-6.757h-1.001l-.361 1.193c-2.6 7.361-6.418 14.132-11.146 20.321l-.967 1.276c-2.577 3.16-6.404 6.378-10.592 6.846-6.31.355-11.61-.303-17.458-2.619l-2.385-.899c-8.038-3.079-15.718-6.743-23.225-10.952l-1.449-.81c-6.078-3.465-6.078-3.465-8.463-5.85a50.902 50.902 0 0 1 0-2.502l-1.514-.127c-2.201-.319-3.873-1.227-5.771-2.343l-1.051-.606c-3.557-2.088-6.882-4.453-10.175-6.93l-.878-.652c-9.113-6.766-9.113-6.766-9.628-9.792 0-1.563 0-1.563.499-2.064 2.672-.31 3.863.483 6.004 2.001l-1.203-1.097-1.548-1.467-.796-.719c-1.343-1.291-1.929-1.999-2.159-3.873.203-1.349.203-1.349.703-1.849.834-.02 1.668-.021 2.502 0 .049-.716.049-.716-1-1.876-1.003-1.629-1.31-2.276-1.001-4.127 1.001-1.001 1.001-1.001 2.1-1.235 2.102.351 3.264 1.583 4.811 2.986l.905.795c.735.647 1.463 1.301 2.19 1.956.058-.697.058-.697-1.077-1.608l-2.783-2.72c-1.367-1.405-1.627-1.755-1.706-3.708.062-1.47.062-1.47.563-1.97 1.535-.273 2.594-.241 3.955.562a77.362 77.362 0 0 1 3.205 2.565c.795.642 1.591 1.282 2.389 1.921l1.226.987c1.939 1.525 3.937 2.958 5.954 4.377.536.383.536.383 1.084.772l1.008.708c.438.306.438.306.883.62.883.584.883.584 2.309.997l-.328-1.173c-1.933-7.232-1.933-7.232-.578-10.085.906-.75.906-.75 2.251-.875l1.157.125c1.88 3.43 3.009 6.954 4.127 10.694l.552 1.8c1.324 4.368 1.324 4.368 1.324 5.517l.854.148c3.753.694 7.356 1.75 10.998 2.885l1.911.59a139.607 139.607 0 0 1 13.725 5.098l1.329.556 1.149.501c1.069.331 1.069.331 2.112-.165 3.42-2.203 4.11-4.735 5.07-8.487 6.197-22.522 15.262-44.11 36.016-56.468 1.325-.663 2.424-.985 3.883-1.193Z" style="stroke-width:1px" transform="translate(-2.012 -1.288)"/><path fill="#242936" d="M416.779 254.078c.551 12.846-.83 25.536-2.026 38.311a716.548 716.548 0 0 0-1.257 15.628 688.853 688.853 0 0 1-1.395 16.957 1443.98 1443.98 0 0 1-.691 7.189 300.037 300.037 0 0 0-.549 6.347 234.875 234.875 0 0 1-.255 3.03c-.295 5.929 1.61 11.203 3.39 16.789l1.02 3.294c.716 2.322 1.437 4.642 2.16 6.961 1.645 5.292 3.22 10.607 4.797 15.92.882 2.971 1.766 5.94 2.651 8.911l.532 1.79c1.02 3.426 2.045 6.851 3.077 10.275.851 2.829 1.699 5.658 2.545 8.489.358 1.192.718 2.383 1.078 3.574.497 1.646.991 3.293 1.482 4.94l.449 1.469c.785 2.651 1.498 5.066.684 7.806-.281.951-.281.951.246 1.842l.668.932c3.668 5.492 4.567 10.652 4.471 17.166l-.014 1.754a752.756 752.756 0 0 1-.049 4.25c-2.836 1.92-4.852 2.293-8.239 2.249l-1.409.005c-1.537 0-3.074-.016-4.61-.034l-1.601-.01a624.386 624.386 0 0 1-25.453-.716 562.847 562.847 0 0 0-3.67-.162 420.58 420.58 0 0 1-5.15-.259l-1.549-.06c-2.321-.147-3.526-.273-5.439-1.676-.915-1.338-.915-1.338-.947-3.308.682-3.302 2.599-5.382 5.277-7.286 2.609-1.556 5.451-2.622 8.263-3.752 5.576-2.185 5.576-2.185 10.506-5.504v-1l-.935-.683c-1.191-.914-1.536-1.531-2.109-2.901l-.543-1.276-.57-1.386-.611-1.448c-.656-1.56-1.305-3.125-1.954-4.688l-1.362-3.243c-.902-2.148-1.8-4.297-2.696-6.447a1481.697 1481.697 0 0 0-3.086-7.354c-1.425-3.378-2.84-6.759-4.248-10.144l-1.252-3.005c-10.86-26.074-10.86-26.074-14.248-36.661l-.424-1.267c-.802-2.636-1.122-5.214-1.268-7.96l-.062-1.127c-.201-3.914-.217-7.821-.202-11.739l.002-2.252c.002-1.944.007-3.887.012-5.831.006-1.995.008-3.991.01-5.988.006-3.892.014-7.785.025-11.677h-1.001l-.348 1.012c-.838 1.912-1.939 3.568-3.091 5.304-.501.763-1 1.526-1.499 2.29l-.784 1.197a488.863 488.863 0 0 0-3.752 5.894l-.752 1.193-1.517 2.409c-.771 1.223-1.545 2.443-2.32 3.663-5.881 9.227-5.881 9.227-11.202 18.782l-.513.968-.473.937-.413.808c-1.088 3.301-.984 7.047-1.123 10.491l-.069 1.605c-.076 1.75-.148 3.5-.222 5.25l-.159 3.708c-.14 3.266-.278 6.533-.415 9.798l-.414 9.741-.081 1.918c-.212 4.974-.428 9.947-.647 14.92-.145 3.312-.284 6.624-.414 9.937-.077 1.893-.158 3.786-.241 5.678a367.1 367.1 0 0 0-.102 2.576 367.72 367.72 0 0 1-.148 3.472l-.078 1.934c-.255 1.682-.663 2.326-1.743 3.593.123 1.469.578 2.75 1.012 4.159.751 3.036.693 6.114.708 9.225l.05 1.846.011 1.773.02 1.606c-.403 1.883-1.221 2.375-2.801 3.404-1.166.583-1.844.565-3.143.568l-1.362.006-1.498-.001c-.52.003-1.04.004-1.576.005-1.727.005-3.454.006-5.181.007l-3.598.005c-2.519.003-5.037.004-7.556.003-3.222 0-6.445.008-9.667.016-2.479.005-4.959.006-7.438.006-1.188.001-2.376.003-3.563.007-1.665.005-3.331.003-4.996.001l-1.478.008c-6.931-.032-6.931-.032-9.704-1.998-2.243-2.692-2.243-2.692-2.404-4.698 1.908-4.388 5.728-6.498 10.027-8.238 2.16-.839 4.336-1.635 6.514-2.425 4.198-1.525 8.377-3.044 12.358-5.084l1.576-.807c1.27-.802 1.27-.802 1.623-2.19.144-1.213.144-1.213-.454-2.207-.176-1.574-.21-3.16-.274-4.742l-.063-1.535c-.278-7.469-.266-14.945-.282-22.418l-.006-2.439c-.01-3.818-.017-7.635-.021-11.452-.005-4.362-.018-8.724-.039-13.086-.015-3.406-.022-6.811-.023-10.218a1019.71 1019.71 0 0 0-.019-6.058c-.05-8.375-.022-16.471 2.229-24.611l.295-1.101c1.463-5.383 3.646-10.281 6.083-15.284a3087.54 3087.54 0 0 1 3.461-7.203 819.798 819.798 0 0 0 3.369-7.092l.54-1.148 1.071-2.279a2130.633 2130.633 0 0 1 10.823-22.625c.934-1.928 1.865-3.857 2.795-5.786l.482-1.001 1.858-3.854a588.538 588.538 0 0 1 4.744-9.673c3.591.245 7.114.632 10.661 1.25 5.994.812 12.005.871 18.044.876l1.34.001c6.931-.006 13.661-.33 20.486-1.628l1.237-.226c5.999-1.122 11.891-2.665 17.774-4.276l1.802-.492c.929-.255 1.856-.511 2.783-.769.918-.24.918-.24 1.419-.24Z" style="stroke-width:1px" transform="translate(-2.012 -1.288)"/><path fill="#FCAE50" d="M180.635 211.052c2.611 2.349 4.256 5.197 4.634 8.731.042 1.366.038 2.723.016 4.089l-.007 1.497c-.009 1.565-.027 3.13-.046 4.694l-.021 3.199c-.016 2.603-.042 5.205-.073 7.808l-1.589.201-2.069.268-1.047.132c-1.5.195-2.862.42-4.301.9-.797 2.392-.853 4.57.032 6.91 1.839 2.077 4.23 2.573 6.844 3.137l1.213.264.917.195c.05 3.131.086 6.262.11 9.393.01 1.062.023 2.123.041 3.185.128 7.978-.164 15.416-3.997 22.631l-.517.999c-1.625 3.016-3.67 5.451-6.143 7.819l-.894.94c-8.336 8.19-20.987 9.751-32.057 9.725-1.37-.002-2.739.009-4.109.022-13.335.048-25.439-2.63-35.389-12.043-8.231-8.765-7.758-21.389-7.751-32.518l-.006-3.746a2909.84 2909.84 0 0 1-.001-7.817c.002-2.671-.001-5.341-.01-8.011a2420.54 2420.54 0 0 1-.014-9.716c0-1.229-.003-2.46-.008-3.689-.006-1.718-.002-3.435.003-5.153l-.011-1.528c.025-3.414.456-6.227 2.453-9.102 2.614-2.551 5.325-4.282 9.033-4.542l1.219.125 1.001 2.502c9.822-.317 19.632-.796 29.444-1.339 1.992-.11 3.983-.217 5.974-.324 7.7-.415 15.393-.831 23.072-1.536 10.582-.935 10.582-.935 14.054 1.698Z" style="stroke-width:1px" transform="translate(-2.012 -1.288)"/><path fill="#303230" d="M88.078 90.477c35.818 0 35.818 0 46.709.2 1.254.025 2.508.045 3.763.066l7.628.134c3.26.061 6.52.116 9.78.17 2.55.04 5.101.086 7.652.131 1.206.02 2.412.045 3.618.064 1.652.025 3.304.056 4.956.086.491.01.981.015 1.486.025l1.348.03c.387.005.773.01 1.172.02.943.075.943.075 1.943.575l.501 114.571 5.003 2.502c1.47 1.281 1.47 1.281 2.502 2.501l.813.907c2.161 3.439 2.398 6.566 2.335 10.522l-.007 1.53c-.008 1.601-.027 3.201-.046 4.802-.008 1.091-.014 2.181-.02 3.271-.017 2.662-.042 5.324-.074 7.986h4.003l-.017-.987c-.02-1.474-.033-2.949-.046-4.423-.008-.513-.016-1.025-.026-1.553l-.009-1.49-.016-1.373c.114-1.181.114-1.181 1.114-2.682 1.27-.164 1.27-.164 2.814-.125l1.622.039c1.881.103 3.709.3 5.57.586v1.001h1.001v1.001l.938.438c1.063.562 1.063.562 2.064 1.563.121 1.335.121 1.335.113 3.053v1.942l-.016 2.107-.004 2.149a1186.96 1186.96 0 0 1-.025 5.661c-.01 1.925-.014 3.849-.019 5.774-.011 3.778-.028 7.556-.049 11.333h-1.001l-.313.876c-.946 1.548-2.138 2.222-3.689 3.127h-1.001v1c-4.491.393-4.491.393-6.472-1.125l-1.032-1.376-.807-.917c-.873-1.362-.868-2.189-.841-3.797l.015-1.554.038-1.612.02-1.636c.018-1.331.042-2.662.074-3.992h-4.503l.024 2.246c.027 2.775.045 5.55.059 8.325.007 1.197.017 2.394.03 3.59.018 1.729.027 3.458.033 5.187l.024 1.597c.001 5.198-1.103 9.984-3.484 14.607-.147.309-.294.617-.444.936-.798 1.583-1.566 2.857-2.835 4.119-3.483 3.529-3.986 6.305-4 11.037l.038 2.588c-.003.922-.008 1.844-.014 2.765a580.39 580.39 0 0 0 .021 7.464c.016 2.605.007 5.211 0 7.817-.01 4.929.002 9.857.023 14.786.028 6.708.023 13.416.019 20.124l-.001 4.824-.001 1.579c0 3.104.005 6.208.015 9.312.006 1.923.01 3.847.014 5.771l.01 2.686c.006 1.216.009 2.433.012 3.649l.007 1.088c0 .829-.026 1.658-.057 2.487-1.061 1.062-3.262.879-4.731 1.044l-1.328.153c-1.452.167-2.902.329-4.353.492l-1.511.17a593.64 593.64 0 0 1-20.579 1.977c-6.513.509-13.003 1.177-19.498 1.886a1226.56 1226.56 0 0 1-26.049 2.571c-1.37.123-2.741.243-4.112.363l-1.219.109c-2.062.175-4.103.328-6.174.241-.917-.918-.564-2.204-.569-3.426l.002-1.284-.004-1.354c-.003-1.509-.002-3.018-.002-4.527l-.005-3.232c-.005-2.935-.006-5.869-.006-8.804 0-2.446-.003-4.891-.004-7.337-.005-5.768-.005-11.536-.005-17.304 0-5.959-.005-11.919-.013-17.877-.007-5.109-.009-10.216-.009-15.324 0-3.055-.001-6.109-.006-9.164-.005-2.872-.005-5.744-.002-8.616.001-1.056-.001-2.112-.003-3.169-.004-1.438-.002-2.875.002-4.313l-.008-1.277c.012-1.948.027-2.902 1.132-4.561 1.012 2.557 1.21 4.864 1.31 7.574l.057 1.332c.185 4.67.201 9.338.191 14.01v2.829c0 2.525-.003 5.049-.006 7.574-.004 2.652-.004 5.303-.004 7.954-.002 5.006-.006 10.011-.011 15.016-.005 5.705-.009 11.41-.011 17.115-.005 11.721-.014 23.441-.025 35.163l6.715-.718 1.907-.203c3.017-.323 6.033-.648 9.047-.999a294.88 294.88 0 0 1 10.276-.998l3.208-.264 1.832-.151c2.728-.226 5.455-.458 8.182-.689 3.694-.313 7.39-.624 11.084-.932 2.408-.202 4.814-.404 7.221-.609 2.369-.202 4.738-.401 7.107-.598.889-.073 1.778-.149 2.666-.226 1.246-.107 2.492-.21 3.737-.312l1.067-.094c3.692-.295 7.255-.212 11.003-.212v-90.055h-1v1.001l-1.553.88a128.904 128.904 0 0 0-3.525 2.087c-13.668 8.24-32.025 10.098-47.458 6.287l-.997-.248-1.11-.252c-7.912-1.805-14.122-4.896-19.903-10.755l-1.202-1.186c-5.996-6.235-8.625-14.214-8.563-22.763l-.011-1.839a578.69 578.69 0 0 1 .002-4.93c.005-1.732 0-3.464-.004-5.196-.003-2.906.001-5.812.011-8.718a1460 1460 0 0 0-.004-10.037c-.008-2.89-.01-5.778-.005-8.668.003-1.718.004-3.436-.002-5.155-.005-1.916.002-3.832.013-5.749l-.012-1.696c.05-4.746 1.033-9.319 4.385-12.867 3.923-3.31 7.224-3.753 12.396-3.753v-27.016h1.001l-.065-1.526c.232-7.104 4.492-14.223 9.246-19.262 7.266-6.719 15.655-10.807 25.684-10.434 8.956.642 16.222 6.399 22.17 12.711 1.181 1.428 2.118 2.876 3.001 4.503l.79 1.401c2.881 5.391 3.913 10.8 4.308 16.86l.121 1.731c.416 6.508.381 13.014.285 19.532h2.001l-.501-111.069c-41.853-.741-41.853-.741-84.551-1.501.02 25.958.02 25.958.045 51.916.007 10.379-.006 20.757-.045 31.136l-.005 1.234c-.017 4.88-.047 9.76-.102 14.64-.014 1.325-.023 2.65-.03 3.976a641.416 641.416 0 0 1-.059 5.372l-.002 1.581-.029 1.432-.014 1.237c-.259 1.046-.259 1.046-2.261 2.547V90.477Zm75.288 119.101c-10.841.855-21.695 1.432-32.554 1.999l-3.901.205c-2.075.11-4.149.218-6.224.325l-2.322.121a67524.198 67524.198 0 0 0-5.049.259c-1.744.066-3.48.077-5.225.066l-1.001-2.502c-3.913.099-6.541 1.134-9.387 3.841-3.091 3.375-3.267 6.675-3.25 11.092l-.005 1.641c-.005 1.788-.001 3.575.001 5.364l-.002 3.742c-.002 2.952.001 5.903.007 8.853.005 3.006 0 6.01-.006 9.015-.003 2.579-.002 5.157 0 7.735.001 1.231 0 2.461-.002 3.692-.139 11.031-.139 11.031 2.482 21.665l.397 1.022c2.8 6.894 8.089 12.145 14.768 15.395 7.167 2.991 14.487 4.565 22.234 4.604l1.343.009c.934.005 1.867.008 2.801.01 1.404.005 2.808.02 4.213.036 11.41.067 23.311-2.274 31.919-10.331 6.871-6.791 10.533-15.876 10.677-25.496.008-2.587-.016-5.174-.048-7.762l-.021-3.237c-.016-2.621-.041-5.242-.073-7.864l-1.225-.276-1.62-.381-1.601-.369c-1.879-.573-3.49-1.243-4.716-2.82-.662-2.225-.579-4.455.156-6.66 2.217-.726 4.329-1.059 6.647-1.278l1.345-.129 1.014-.094c.049-3.124.086-6.247.11-9.372.01-1.061.023-2.122.041-3.183.024-1.532.036-3.063.044-4.594l.031-1.422c.002-3.873-1.041-6.982-3.353-10.103-2.433-2.377-4.544-3.464-7.987-3.436-3.565.052-7.107.335-10.658.618Z" style="stroke-width:1px" transform="translate(-2.012 -1.288)"/><path fill="#4F2314" d="M50.719 41.777c.526.022.526.022 1.063.038.733.022 1.466.05 2.197.089 1.653.066 3.306.094 4.959.127l4.014.117 2.198.066 4.574.133c1.914.061 3.828.117 5.741.172 6.775.194 13.55.394 20.321.687 7.365.311 14.734.471 22.103.654 12.787.31 25.568.665 38.349 1.153 7.464.282 14.929.515 22.396.709.434.006.868.017 1.315.028 4.33.111 8.661.221 12.992.327 1.613.033 3.227.072 4.841.111 1.101.027 2.203.055 3.304.077 1.683.039 3.365.094 5.048.15.703.027 1.406.044 2.109.066 1.09.022 2.179.067 3.269.111.959.028.959.028 1.938.061 1.965.344 2.819.887 4.208 2.3.509 1.529.563 2.554.564 4.156l.004 1.679-.003 1.862.004 1.978c.003 1.818.003 3.636.001 5.459 0 1.978.003 3.951.004 5.928.004 3.927.005 7.85.006 11.777 0 4.697.003 9.401.007 14.099.008 11.357.011 22.715.013 34.073l.005 16.109c.006 18.371.012 36.741.014 55.111v6.931l.001 6.96v1.743c.002 18.664.01 37.328.021 55.992a89732.086 89732.086 0 0 1 .021 65.645v1.614c0 8.587.006 17.173.013 25.76.007 8.623.009 17.245.005 25.867-.002 5.128 0 10.257.007 15.386.005 3.42.005 6.84 0 10.26-.003 1.953-.003 3.906.003 5.858.007 2.097.002 4.194-.004 6.292l.011 1.859-.01 1.683v1.455c-.187 1.2-.187 1.2-.851 2.098-1.359.978-2.712.908-4.36 1.025l-1.073.082c-.766.057-1.531.112-2.297.164-1.223.083-2.445.174-3.666.268-1.259.096-2.519.192-3.777.285-3.867.288-7.727.631-11.586.998l-1.96.185c-5.586.531-11.165 1.114-16.746 1.694-6.622.688-13.249 1.312-19.88 1.905-7.154.64-14.304 1.311-21.45 2.033l-1.261.127-4.897.494c-9.335.944-18.67 1.84-28.022 2.592-5.591.451-11.176.964-16.76 1.503l-1.048.1c-3.164.305-6.329.611-9.493.922-4.385.431-8.77.846-13.159 1.235l-1.55.143c-1.343.119-2.686.223-4.029.322l-1.146.107c-1.638.102-2.545.107-3.874-.903-1.129-1.455-1.159-2.194-1.16-4.021l-.015-1.776.014-1.957c-.003-.695-.005-1.389-.009-2.083-.009-1.919-.005-3.838.002-5.757.004-2.083-.002-4.166-.008-6.25-.008-3.654-.009-7.31-.004-10.964.006-5.436.001-10.871-.006-16.306-.013-9.705-.013-19.411-.009-29.116.004-8.494.004-16.988 0-25.481l-.001-3.414-.003-5.143c-.006-15.947-.008-31.894-.003-47.841l.001-1.823.005-14.657c.008-19.061.004-38.121-.011-57.182-.015-21.4-.023-42.799-.018-64.199l.002-6.84.001-1.701c.001-8.489-.004-16.978-.011-25.468-.01-9.65-.01-19.301.002-28.951.006-5.404.006-10.807-.005-16.215-.006-3.607-.004-7.212.007-10.819.005-2.056.007-4.117-.003-6.173a524.33 524.33 0 0 1 .007-5.608 228.55 228.55 0 0 0-.015-2.982c.05-4.782.05-4.782 1.496-6.345 1.776-1.13 2.908-1.103 5.003-1.019Zm-1.164 2.671-.5 405.75c4.327.037 4.327.037 8.54-.311l1.513-.199 1.516-.21 1.575-.204c2.363-.117 2.363-.117 4.367-1.077a43.09 43.09 0 0 0 .063-2.516l.005-1.665-.004-1.856.004-1.959c.002-1.811.002-3.621.001-5.432-.001-1.964.001-3.928.004-5.891.003-3.448.005-6.895.005-10.343 0-5.125.003-10.251.007-15.377.006-8.092.01-16.184.014-24.277.005-12.841.014-25.683.026-38.526l.012-14.809.001-1.662.031-39.192.001-1.733c.009-13.345.017-26.691.024-40.036l.001-1.739.006-13.884c.009-19.059.022-38.118.042-57.176l.008-8.067.001-1.604c.009-8.536.011-17.071.012-25.608 0-8.57.007-17.141.018-25.712.007-5.097.01-10.196.006-15.294-.002-3.402.002-6.799.01-10.201.004-1.941.006-3.883.001-5.824a931.49 931.49 0 0 1 .01-6.253l-.01-1.851.011-1.672.002-1.446.188-1.131c1.77-1.18 2.504-1.119 4.6-1.114.639 0 1.277.006 1.935.006.504.005.504.005 1.019.005.972.006 1.945.011 2.917.011 4.124.017 8.235.156 12.355.333 7.378.321 14.756.415 22.139.51 8.029.105 16.048.243 24.072.565 5.799.233 11.598.327 17.401.41 3.16.044 6.318.1 9.478.15.619.011 1.237.022 1.875.038 21.77.366 21.77.366 32.288 1.087.497 1.49.563 2.468.562 4.024l.003 1.591-.005 1.746c.002.92.002.92.002 1.856a5047.166 5047.166 0 0 0-.004 10.611c0 3.177-.002 6.359-.005 9.536-.004 4.598-.005 9.196-.005 13.792-.001 7.458-.005 14.915-.01 22.373-.005 7.245-.008 14.49-.01 21.735l-.001 1.353-.001 6.719c-.005 18.586-.014 37.172-.025 55.758-1.044-.842-1.465-1.284-1.691-2.627l-.003-1.347-.014-1.557.007-1.715-.01-1.818a927.412 927.412 0 0 1-.007-5.004c0-1.798-.008-3.595-.015-5.392-.012-3.116-.017-6.232-.02-9.347-.003-4.504-.015-9.009-.028-13.513-.022-7.308-.037-14.616-.048-21.923a18903.862 18903.862 0 0 0-.044-22.625l-.018-6.584a58510.05 58510.05 0 0 1-.111-54.639l-13.081-.375c-2.026-.061-4.052-.115-6.078-.175-12.236-.35-24.472-.68-36.711-.952-1.342-.027-2.684-.061-4.025-.088a7084.37 7084.37 0 0 0-32.905-.693c-1.128-.017-2.256-.039-3.384-.055-10.3-.2-20.588-.161-30.893-.161v380.231c3.994 0 7.833-.084 11.79-.443.544-.046 1.088-.094 1.648-.143 1.785-.156 3.57-.317 5.355-.478l1.883-.167c10.822-.962 21.631-2.038 32.438-3.156a2474.57 2474.57 0 0 1 24.464-2.399 3593.12 3593.12 0 0 0 32.377-3.164l1.4-.142c2.453-.247 4.906-.478 7.362-.692l1.547-.135c.981-.085 1.962-.167 2.943-.248l1.319-.114 1.167-.097c.895-.042.895-.042 1.384-.63.05-.805.065-1.612.065-2.419l.006-1.596-.002-1.775.005-1.868c.003-1.72.004-3.44.005-5.159.001-1.852.004-3.703.008-5.555.006-3.21.01-6.421.013-9.632a12855.607 12855.607 0 0 1 .038-20.414l.002-1.313.03-14.806.002-1.367c.013-7.317.022-14.635.031-21.952.008-7.505.023-15.009.042-22.514.012-4.633.019-9.267.02-13.9.001-3.173.008-6.346.018-9.52.006-1.833.01-3.666.006-5.499-.003-1.983.006-3.967.015-5.95l-.008-1.772.013-1.6.002-1.388.189-1.093 1.502-1.001.5 151.593c6.102.003 6.102.003 12.132-.47l1.253-.131c2.129-.198 2.129-.198 4.126-.9.026-49.68.003-99.359-.191-179.625-.02-8.069-.04-16.137-.058-24.207-.121-52.654-.309-105.308-.752-181.403l-3.235-.1c-.964-.033-1.928-.055-2.893-.089-2.673-.083-5.345-.16-8.019-.249-9.174-.277-9.174-.277-13.308-.405-3.046-.094-6.093-.188-9.14-.277-.791-.027-.791-.027-1.597-.049-8.66-.261-17.322-.488-25.984-.671-4.366-.1-8.727-.211-13.09-.41a440.702 440.702 0 0 0-10.473-.344c-.389-.005-.779-.016-1.181-.016-.405-.011-.811-.017-1.229-.028-.865-.022-1.73-.033-2.595-.05-.439-.011-.876-.022-1.328-.028-7.175-.144-14.346-.382-21.518-.653-.906-.034-1.812-.061-2.717-.1-4.081-.155-8.162-.311-12.243-.477l-5.225-.199c-.797-.028-1.594-.061-2.391-.094-8.984-.377-17.93-.266-26.935-.266Z" style="stroke-width:1px" transform="translate(-2.012 -1.288)"/><path fill="#542616" d="M88.078 90.477c35.818 0 35.818 0 46.709.2 1.254.025 2.508.045 3.763.066l7.628.134c3.26.061 6.52.116 9.78.17 2.55.04 5.101.086 7.652.131 1.206.02 2.412.045 3.618.064 1.652.025 3.304.056 4.956.086.491.01.981.015 1.486.025l1.348.03c.387.005.773.01 1.172.02.943.075.943.075 1.943.575l.501 114.571 5.003 2.502c1.47 1.281 1.47 1.281 2.502 2.501l.813.907c2.161 3.439 2.398 6.566 2.335 10.522l-.007 1.53c-.008 1.601-.027 3.201-.046 4.802-.008 1.091-.014 2.181-.02 3.271-.017 2.662-.042 5.324-.074 7.986h4.003l-.017-.987c-.02-1.474-.033-2.949-.046-4.423-.008-.513-.016-1.025-.026-1.553l-.009-1.49-.016-1.373c.114-1.181.114-1.181 1.114-2.682 1.27-.164 1.27-.164 2.814-.125l1.622.039c1.881.103 3.709.3 5.57.586v1.001h1.001v1.001l.938.438c1.063.562 1.063.562 2.064 1.563.121 1.335.121 1.335.113 3.053v1.942l-.016 2.107-.004 2.149a1186.96 1186.96 0 0 1-.025 5.661c-.01 1.925-.014 3.849-.019 5.774-.011 3.778-.028 7.556-.049 11.333h-1.001l-.313.876c-.946 1.548-2.138 2.222-3.689 3.127h-1.001v1c-4.491.393-4.491.393-6.472-1.125l-1.032-1.376-.807-.917c-.873-1.362-.868-2.189-.841-3.797l.015-1.554.038-1.612.02-1.636c.018-1.331.042-2.662.074-3.992h-4.503l.024 2.246c.027 2.775.045 5.55.059 8.325.007 1.197.017 2.394.03 3.59.018 1.729.027 3.458.033 5.187l.024 1.597c.001 5.198-1.103 9.984-3.484 14.607-.147.309-.294.617-.444.936-.798 1.583-1.566 2.857-2.835 4.119-3.483 3.529-3.986 6.305-4 11.037l.038 2.588c-.003.922-.008 1.844-.014 2.765a580.39 580.39 0 0 0 .021 7.464c.016 2.605.007 5.211 0 7.817-.01 4.929.002 9.857.023 14.786.028 6.708.023 13.416.019 20.124l-.001 4.824-.001 1.579c0 3.104.005 6.208.015 9.312.006 1.923.01 3.847.014 5.771l.01 2.686c.006 1.216.009 2.433.012 3.649l.007 1.088c0 .829-.026 1.658-.057 2.487-1.061 1.062-3.262.879-4.731 1.044l-1.328.153c-1.452.167-2.902.329-4.353.492l-1.511.17a593.64 593.64 0 0 1-20.579 1.977c-6.513.509-13.003 1.177-19.498 1.886a1226.56 1226.56 0 0 1-26.049 2.571c-1.37.123-2.741.243-4.112.363l-1.219.109c-2.062.175-4.103.328-6.174.241-.917-.918-.564-2.204-.569-3.426l.002-1.284-.004-1.354c-.003-1.509-.002-3.018-.002-4.527l-.005-3.232c-.005-2.935-.006-5.869-.006-8.804 0-2.446-.003-4.891-.004-7.337-.005-5.768-.005-11.536-.005-17.304 0-5.959-.005-11.919-.013-17.877-.007-5.109-.009-10.216-.009-15.324 0-3.055-.001-6.109-.006-9.164-.005-2.872-.005-5.744-.002-8.616.001-1.056-.001-2.112-.003-3.169-.004-1.438-.002-2.875.002-4.313l-.008-1.277c.012-1.948.027-2.902 1.132-4.561 1.012 2.557 1.21 4.864 1.31 7.574l.057 1.332c.185 4.67.201 9.338.191 14.01v2.829c0 2.525-.003 5.049-.006 7.574-.004 2.652-.004 5.303-.004 7.954-.002 5.006-.006 10.011-.011 15.016-.005 5.705-.009 11.41-.011 17.115-.005 11.721-.014 23.441-.025 35.163l6.715-.718 1.907-.203c3.017-.323 6.033-.648 9.047-.999a294.88 294.88 0 0 1 10.276-.998l3.208-.264 1.832-.151c2.728-.226 5.455-.458 8.182-.689 3.694-.313 7.39-.624 11.084-.932 2.408-.202 4.814-.404 7.221-.609 2.369-.202 4.738-.401 7.107-.598.889-.073 1.778-.149 2.666-.226 1.246-.107 2.492-.21 3.737-.312l1.067-.094c3.692-.295 7.255-.212 11.003-.212v-90.055h-1v1.001l-1.553.88a128.904 128.904 0 0 0-3.525 2.087c-13.668 8.24-32.025 10.098-47.458 6.287l-.997-.248-1.11-.252c-7.912-1.805-14.122-4.896-19.903-10.755l-1.202-1.186c-5.996-6.235-8.625-14.214-8.563-22.763l-.011-1.839a578.69 578.69 0 0 1 .002-4.93c.005-1.732 0-3.464-.004-5.196-.003-2.906.001-5.812.011-8.718a1460 1460 0 0 0-.004-10.037c-.008-2.89-.01-5.778-.005-8.668.003-1.718.004-3.436-.002-5.155-.005-1.916.002-3.832.013-5.749l-.012-1.696c.05-4.746 1.033-9.319 4.385-12.867 3.011-2.541 6.1-3.835 10.02-3.784l1.352.014 1.024.017c.629 1.454 1.001 2.4 1.001 4.003l9.505.5v.501c-1.562.112-3.126.213-4.69.312l-1.348.098-1.29.078-1.191.079c-.986-.067-.986-.067-1.987-1.068v-2.001c-3.99.619-7.203 1.918-9.943 4.972-2.225 3.206-2.209 6.191-2.194 9.961l-.005 1.641c-.004 1.788-.001 3.575.002 5.364l-.003 3.742c-.002 2.952.002 5.903.007 8.853.005 3.006 0 6.01-.005 9.015-.004 2.579-.002 5.157 0 7.735.001 1.231 0 2.461-.002 3.692-.139 11.031-.139 11.031 2.482 21.665l.395 1.02c2.744 6.765 7.747 11.681 14.269 14.897 7.164 2.994 14.488 4.564 22.234 4.604l1.343.008c.934.005 1.867.008 2.801.01 1.404.005 2.808.021 4.213.036 11.746.07 23.706-2.475 32.447-10.85 8.622-9.19 9.722-20.249 9.85-32.238l.052-3.237c.042-2.621.077-5.242.105-7.864l-1.25-.186-1.638-.255c-.537-.082-1.073-.165-1.625-.248-2.306-.481-3.706-1.311-5.18-3.188-.483-1.738-.657-3.362-.314-5.128 1.087-1.459 1.886-2.273 3.597-2.908 1.339-.09 2.654-.103 3.996-.1l1.369.003 1.045.003c-.022-3.124-.057-6.248-.104-9.372a482.526 482.526 0 0 1-.032-3.183 468.711 468.711 0 0 0-.06-4.594l-.002-1.422c-.09-4.127-1.275-8.002-4.305-10.947-2.415-1.559-4.655-2.264-7.505-2.501v-1.001h1.001l-.5-2.001h2.001l-.501-111.069c-41.853-.741-41.853-.741-84.551-1.501.02 25.958.02 25.958.045 51.916.007 10.379-.006 20.757-.045 31.136l-.005 1.234c-.017 4.88-.047 9.76-.102 14.64-.014 1.325-.023 2.65-.03 3.976a641.416 641.416 0 0 1-.059 5.372l-.002 1.581-.029 1.432-.014 1.237c-.259 1.046-.259 1.046-2.261 2.547V90.477Z" style="stroke-width:1px" transform="translate(-2.012 -1.288)"/><path fill="#242937" d="M368.224 56.218a109.674 109.674 0 0 1 4.528 3.242c.165-.66.33-1.325.5-2.001 4.261.233 7.908 1.635 10.882 4.782 3.001 3.763 4.841 8.004 5.629 12.727-.288-.361-.576-.726-.872-1.096-3.834-4.765-7.858-9.68-14.137-10.91v.997l.899.416c1.729.92 3.048 2.239 4.479 3.558.301.271.602.543.912.814.769.707 1.495 1.463 2.215 2.218v1.501c-2.378-.25-3.969-1.376-5.848-2.751-2.787-1.999-4.145-2.819-7.661-2.752v1.502c.416.188.416.188.839.387 3.984 2.103 8.155 5.26 11.169 8.617v1.501c-2.009-.325-3.484-1.336-5.191-2.407-.551-.345-1.102-.684-1.669-1.04a142.583 142.583 0 0 1-3.279-2.161c-1.194-.781-1.982-1.181-3.37-1.396 1.769 3.287 4.626 5.223 7.505 7.505.777.65 1.549 1.305 2.314 1.971.316.27.632.545.958.825 1.24 1.201 1.347 2.197 1.418 3.862-.224 11.257-10.927 22.504-18.249 30.31-.969.983-.969.983-1.45 2.056-4.658.345-8.504-1.239-12.129-4.153-1.99-1.924-3.082-4.017-4.006-6.603.168-2.348 1.177-3.183 2.763-4.839 1.873-1.986 2.123-4.103 2.052-6.744-.39-2.442-1.664-4.253-3.476-5.889-1.981-1.351-3.736-1.541-6.081-1.171-1.696.57-2.9 1.561-4.227 2.742-.912.64-.912.64-2.913.64-1.162-1.095-1.473-1.806-1.7-3.392.03-4.057.656-7.699 1.7-11.617-.358.011-.716.016-1.085.025-1.64.03-3.279.05-4.919.07l-1.706.04c-5.7.051-9.977-1.556-14.202-5.468-3.43-3.716-3.919-7.451-3.811-12.394.376-3.236 1.849-5.098 4.21-7.22 2.514-1.785 4.365-2.2 7.442-2.167l1.88.022c1.684.078 1.684.078 3.56.449 2.13.166 3.54-.504 5.463-1.369 11.656-5.037 28.655.216 38.664 6.761Z" style="stroke-width:1px" transform="translate(-2.012 -1.288)"/><path fill="#A95632" d="M317.75 76.284c1.47.185 1.47.185 2.47.685.943.08 1.888.125 2.834.16a1611.303 1611.303 0 0 0 3.483.12c.592.025 1.184.045 1.793.065 1.467.055 2.932.105 4.398.155l-.234 1.311c-1.422 6.619-1.422 6.619-.006 12.883.244.27.488.54.74.815 1.373-.605 2.437-1.35 3.597-2.281 2.031-1.456 3.911-2.001 6.409-1.721 2.773 1 4.664 2.867 6.08 5.418.892 2.287.838 4.363.057 6.674-.817 1.781-1.575 2.862-3.041 4.198-1.26 1.15-1.26 1.15-1.188 2.848 1.481 4.675 3.94 6.885 8.196 9.224 2.017.944 3.563 1.221 5.781 1.188l1.212-.013c.301-.007.603-.012.914-.018.575 1.136 1.148 2.272 1.72 3.408l.493.975c.685 1.362 1.307 2.673 1.79 4.122 1.757.616 1.757.616 3.502 1.001-2.323 1.548-4.996 1.807-7.704 2.327-6.272 1.217-12.443 2.581-18.312 5.177-2.438-2.151-3.912-4.689-5.503-7.504l-.831.109c-12.648 1.481-12.648 1.481-17.787-2.458-4.769-4.38-6.219-9.907-6.775-16.141-.125-1.04-.349-2.014-.623-3.024-.547-.051-1.094-.1-1.658-.155-2.255-.421-2.255-.421-3.346-1.847-.461-1.565-.399-2.926 0-4.502.911-1.211 1.932-2.247 2.989-3.332 3.085-3.558 3.629-9.021 4.598-13.503 1.346-6.049 1.346-6.049 3.952-6.364Z" style="stroke-width:1px" transform="translate(-2.012 -1.288)"/><path fill="#532515" d="m104.714 207.518 1.352.014 1.024.017c.629 1.454 1.001 2.4 1.001 4.003l9.505.5v.501c-1.562.112-3.126.213-4.69.312l-1.348.098-1.29.078-1.191.079c-.986-.067-.986-.067-1.987-1.068v-2.001c-3.99.619-7.203 1.918-9.943 4.972-2.225 3.206-2.209 6.191-2.194 9.961l-.005 1.641c-.004 1.788-.001 3.575.002 5.364l-.003 3.742c-.002 2.952.002 5.903.007 8.853.005 3.006 0 6.01-.005 9.015-.004 2.579-.002 5.157 0 7.735.001 1.231 0 2.461-.002 3.692-.139 11.031-.139 11.031 2.482 21.665l.395 1.02c2.744 6.765 7.747 11.681 14.269 14.897 7.164 2.994 14.488 4.564 22.234 4.604a871.75 871.75 0 0 0 4.144.018c1.404.005 2.808.021 4.213.036 11.746.07 23.706-2.475 32.447-10.85 8.549-9.112 9.721-20.091 9.85-31.988l.052-3.165c.042-2.562.076-5.123.105-7.685h3.502c.038 3.523.064 7.048.083 10.571.007 1.197.017 2.394.03 3.59.018 1.729.027 3.458.033 5.187l.024 1.597c.001 5.198-1.103 9.984-3.484 14.607-.147.309-.294.617-.444.936-.798 1.583-1.566 2.857-2.835 4.119-3.483 3.529-3.986 6.305-4 11.037l.038 2.588c-.003.922-.008 1.844-.014 2.765a580.39 580.39 0 0 0 .021 7.464c.016 2.605.007 5.211 0 7.817-.01 4.929.002 9.857.023 14.786.028 6.708.023 13.416.019 20.124l-.001 4.824-.001 1.579c0 3.104.005 6.208.015 9.312.006 1.923.01 3.847.014 5.771l.01 2.686c.006 1.216.009 2.433.012 3.649l.007 1.088c0 .829-.026 1.658-.057 2.487-1.061 1.062-3.262.879-4.731 1.044l-1.328.153c-1.452.167-2.902.329-4.353.492l-1.511.17a593.64 593.64 0 0 1-20.579 1.977c-6.513.509-13.003 1.177-19.498 1.886a1226.56 1226.56 0 0 1-24.577 2.439l-1.472.132c-1.37.123-2.741.243-4.112.363l-1.219.109c-2.062.175-4.103.328-6.174.241-.917-.918-.564-2.204-.569-3.426l.002-1.284-.004-1.354c-.003-1.509-.002-3.018-.002-4.527l-.005-3.232c-.005-2.935-.006-5.869-.006-8.804 0-2.446-.003-4.891-.004-7.337-.005-5.768-.005-11.536-.005-17.304 0-5.959-.005-11.919-.013-17.877-.007-5.109-.009-10.216-.009-15.324 0-3.055-.001-6.109-.006-9.164-.005-2.872-.005-5.744-.002-8.616.001-1.056-.001-2.112-.003-3.169-.004-1.438-.002-2.875.002-4.313l-.008-1.277c.012-1.948.027-2.902 1.132-4.561 1.012 2.557 1.21 4.864 1.31 7.574l.057 1.332c.185 4.67.201 9.338.191 14.01v2.829c0 2.525-.003 5.049-.006 7.574-.004 2.652-.004 5.303-.004 7.954-.002 5.006-.006 10.011-.011 15.016-.005 5.705-.009 11.41-.011 17.115-.005 11.721-.014 23.441-.025 35.163l6.715-.718 1.907-.203c3.017-.323 6.033-.648 9.047-.999a294.88 294.88 0 0 1 10.276-.998l3.208-.264 1.832-.151c2.728-.226 5.455-.458 8.182-.689 3.694-.313 7.39-.624 11.084-.932 2.408-.202 4.814-.404 7.221-.609 2.369-.202 4.738-.401 7.107-.598.889-.073 1.777-.149 2.666-.226 1.246-.107 2.492-.21 3.737-.312l1.067-.094c3.692-.295 7.255-.212 11.003-.212v-90.055h-1v1.001l-1.553.88a128.904 128.904 0 0 0-3.525 2.087c-13.668 8.24-32.025 10.098-47.458 6.287l-.997-.248-1.11-.252c-7.912-1.805-14.122-4.896-19.903-10.755l-1.202-1.186c-5.996-6.235-8.625-14.214-8.563-22.763l-.011-1.839a578.69 578.69 0 0 1 .002-4.93c.005-1.732 0-3.464-.004-5.196-.003-2.906.001-5.812.011-8.718.011-3.346.008-6.691-.004-10.037-.008-2.89-.01-5.778-.005-8.668.003-1.718.004-3.436-.002-5.155-.005-1.916.002-3.832.013-5.749l-.012-1.696c.05-4.746 1.033-9.319 4.385-12.867 3.011-2.541 6.1-3.835 10.02-3.784Z" style="stroke-width:1px" transform="translate(-2.012 -1.288)"/><path fill="#602E1E" d="M307.087 435.563c1.856.041 3.396.433 5.128 1.127v1c2.991.37 5.91.571 8.921.588l2.46.036c1.274.018 2.547.033 3.821.039 1.242.008 2.483.028 3.726.051l1.152-.004c1.736.04 2.745.149 4.152 1.203 2.431 3.378 1.984 8.004 2.003 11.971l.05 1.846.011 1.773.02 1.606c-.403 1.883-1.221 2.375-2.801 3.404-1.166.583-1.844.565-3.143.568l-1.362.006-1.498-.001c-.52.003-1.04.004-1.576.005-1.727.005-3.454.006-5.181.007l-3.598.005c-2.519.003-5.037.004-7.556.003-3.222 0-6.445.008-9.667.016-2.479.005-4.959.006-7.438.006-1.188.001-2.376.003-3.563.007-1.665.005-3.331.003-4.996.001l-1.478.008c-6.931-.032-6.931-.032-9.704-1.998-2.243-2.692-2.243-2.692-2.404-4.698 1.908-4.388 5.728-6.498 10.027-8.238 2.16-.839 4.336-1.635 6.514-2.425 5.159-1.874 13.091-7.586 17.98-7.912Z" style="stroke-width:1px" transform="translate(-2.012 -1.288)"/><path fill="#522314" d="M51.188 41.865c.423.006.845.011 1.282.022.46.011.92.028 1.394.034l1.478.033c1.626.033 3.25.077 4.876.116 1.158.033 2.316.056 3.474.083 8.501.2 16.998.499 25.494.832 10.709.415 21.418.698 32.132.964 11.645.288 23.285.62 34.924 1.064 7.463.282 14.926.515 22.392.709.434.006.868.017 1.315.028 4.33.111 8.661.221 12.992.327 1.613.033 3.227.072 4.841.111 1.101.027 2.203.055 3.304.077 1.683.039 3.365.094 5.048.15.703.027 1.406.044 2.109.066 1.09.022 2.179.067 3.269.111.959.028.959.028 1.938.061 1.965.344 2.819.887 4.208 2.3.451 1.352.563 2.128.562 3.519l.003 1.247-.004 1.374.001 1.463c.001 1.635-.001 3.269-.005 4.904v3.536c0 2.909-.003 5.814-.006 8.721-.004 2.416-.005 4.828-.007 7.244-.021 34.833-.143 69.665-.267 104.498l-.064 18.366-.004 1.332-.023 6.62c-.06 17.937-.123 35.872-.186 53.808l-1.001.5-.5-3.002-.5 81.55h-.501c-.065-24.301-.129-48.603-.191-72.904l-.023-8.795-.004-1.768-.064-24.208c-.037-13.992-.074-27.984-.108-41.976l-.005-1.678c-.119-48.116-.135-96.233-.105-144.351-.63 0-.63 0-1.272.005-1.592 0-3.184 0-4.776.006-1.014 0-2.028 0-3.042.005-6.405 0-12.801-.149-19.203-.327-1.205-.033-2.409-.066-3.615-.094-2.495-.072-4.991-.144-7.487-.205-3.16-.094-6.321-.177-9.481-.26-2.478-.072-4.956-.139-7.434-.205-1.164-.034-2.328-.061-3.493-.094-6.521-.178-13.04-.388-19.558-.665a519.513 519.513 0 0 0-12.168-.333c-13.012-.238-26.017-.748-39.021-1.236-1.742-.066-3.484-.133-5.225-.194-1.169-.038-2.337-.088-3.506-.133-8.606-.321-17.21-.532-25.82-.775v384.236h-.5l-.001-1.011c-.022-36.328-.045-72.656-.079-108.985l-.001-1.642-.034-35.349-.016-17.334-.002-1.742c-.018-18.654-.031-37.307-.041-55.961a100134.548 100134.548 0 0 0-.058-65.592l-.002-1.613c-.009-8.581-.013-17.163-.016-25.745-.002-8.619-.01-17.234-.023-25.855-.008-5.123-.011-10.251-.009-15.374.001-3.424-.004-6.837-.012-10.256-.005-1.951-.008-3.901-.003-5.858.004-2.094-.003-4.189-.011-6.284l.01-1.867-.013-1.674-.001-1.457-.189-1.136c-.495-.333-.99-.66-1.5-1.003 1.454-.826 2.464-1.12 4.134-1.081Z" style="stroke-width:1px" transform="translate(-2.012 -1.288)"/><path fill="#85422B" d="M147.115 167.525c3.942 2.74 6.867 6.147 7.777 10.946.372 2.758.289 5.537.277 8.314-.002.595-.002 1.189-.003 1.802-.002 1.891-.009 3.782-.015 5.673l-.007 3.857c-.005 3.144-.014 6.288-.025 9.432-1.949.975-4.357.705-6.503.782l-1.705.064c-7.601.256-15.206.199-22.81.155-.059-3.679-.103-7.359-.13-11.039-.013-1.71-.031-3.419-.059-5.128a530.315 530.315 0 0 1-.056-5.917l-.039-1.829c-.002-5.494 1.618-10.894 5.566-14.901 4.875-4.463 11.757-5.247 17.732-2.211Z" style="stroke-width:1px" transform="translate(-2.012 -1.288)"/><path fill="#602E1E" d="m433.289 432.186 1.001 1.001.717.619c1.076 1.211 1.642 2.508 2.316 3.977l.768 1.648c1.67 4.192 1.831 7.79 1.765 12.267l-.014 1.754a752.756 752.756 0 0 1-.049 4.25c-2.836 1.92-4.852 2.293-8.239 2.249l-1.409.005c-1.537 0-3.074-.016-4.61-.034l-1.601-.01a624.386 624.386 0 0 1-25.453-.716 562.847 562.847 0 0 0-3.67-.162 420.58 420.58 0 0 1-5.15-.259l-1.549-.06c-2.321-.147-3.526-.273-5.439-1.676-.915-1.338-.915-1.338-.947-3.308.682-3.302 2.599-5.382 5.277-7.286 2.609-1.556 5.451-2.622 8.263-3.752 6.23-2.471 6.23-2.471 11.507-6.504 1.02-.09 1.02-.09 2.277-.045l1.395.033 1.488.043c7.25.138 7.25.138 13.851-2.532 1.595-.063 1.595-.063 3.002 0v-1.001c1.622-.541 2.804-.609 4.503-.501Z" style="stroke-width:1px" transform="translate(-2.012 -1.288)"/><path fill="#C9682B" d="m107.09 210.051.375 1.188c.703 1.475 1.13 1.765 2.627 2.314l-1.376.969c-2.252 1.902-3.391 4.404-3.811 7.31a67.819 67.819 0 0 0-.075 4.207l-.011 1.605c-.008 1.74-.002 3.48.004 5.22a1630.736 1630.736 0 0 0 .005 11.32c.011 3.254.005 6.507-.007 9.761-.007 2.519-.005 5.039.001 7.557 0 1.199-.001 2.398-.005 3.596-.036 11.822 1.453 22.273 9.936 31.228 6.435 6.094 14.288 9.06 22.856 10.784v.501c-12.707.467-24.922-2.173-34.521-11.007-5.782-5.47-8.214-14.076-8.565-21.823-.102-3.849-.094-7.7-.091-11.551l-.006-3.746a2909.84 2909.84 0 0 1-.001-7.817c.002-2.671-.001-5.341-.01-8.011a2420.54 2420.54 0 0 1-.014-9.716c0-1.229-.003-2.46-.008-3.689-.006-1.718-.002-3.435.003-5.153l-.011-1.528c.025-3.414.456-6.227 2.453-9.102 2.885-2.816 6.077-4.845 10.252-4.417Z" style="stroke-width:1px" transform="translate(-2.012 -1.288)"/><path fill="#A75430" d="M235.44 172.302c2.552.334 3.952 1.733 5.888 3.353.795.642 1.591 1.282 2.389 1.921l1.226.987c1.939 1.525 3.937 2.958 5.954 4.377l1.084.772 1.008.708c.292.205.583.408.883.62.883.584.883.584 2.309.997l-.328-1.173c-1.933-7.232-1.933-7.232-.578-10.085.906-.75.906-.75 2.251-.875l1.157.125c1.877 3.421 2.99 6.93 4.096 10.663l1.054 3.496c.151.512.304 1.023.461 1.551.283.938.583 1.871.892 2.802-.538 1.715-1.316 3.032-2.376 4.471-3.286 4.833-5.053 10.46-6.629 16.041-1.683.567-2.407.537-4.088-.116a64.69 64.69 0 0 1-1.791-.979l-.981-.54c-4.091-2.316-7.88-5.074-11.651-7.871l-.952-.701c-9.034-6.686-9.034-6.686-9.554-9.743 0-1.563 0-1.563.499-2.064 2.672-.31 3.863.483 6.004 2.001l-1.203-1.097-1.548-1.467c-.263-.236-.525-.474-.796-.719-1.343-1.291-1.929-1.999-2.159-3.873.203-1.349.203-1.349.703-1.849.834-.02 1.668-.021 2.502 0 .049-.716.049-.716-1-1.876-1.003-1.629-1.31-2.276-1.001-4.127 1.001-1.001 1.001-1.001 2.1-1.235 2.102.351 3.264 1.583 4.811 2.986l.905.795c.735.647 1.463 1.301 2.19 1.956.058-.697.058-.697-1.077-1.608l-2.783-2.72c-1.367-1.405-1.627-1.755-1.706-3.708.08-1.884.08-1.884 1.835-2.196Z" style="stroke-width:1px" transform="translate(-2.012 -1.288)"/><path fill="#30302D" d="M154.082 238.004c3.506 1.908 6.449 4.314 8.042 8.069.489 4.727-1.386 8.47-4.221 12.162-.782.846-.782.846-1.813 1.401-1.231 1.2-1.226 2.11-1.274 3.786l-.001 1.137-.025 1.171c-.025 1.234-.035 2.467-.046 3.701-.014.837-.029 1.674-.045 2.51a701.332 701.332 0 0 0-.08 6.151c-1.494.851-2.638 1.145-4.35 1.226l-1.335.065-1.382.054c-.46.024-.919.048-1.393.071-3.412.153-3.412.153-4.548-.415l.01-1.598a400.68 400.68 0 0 0-.031-5.904c-.007-.85-.007-1.7-.001-2.549.195-4.792.195-4.792-1.23-9.218-.871-.842-1.772-1.531-2.75-2.244-.981-1.475-.981-1.475-1.689-2.846l-.731-1.381c-1.338-2.932-1.682-5.992-.647-9.08 1.517-3.297 3.435-5.641 6.704-7.272 4.112-1.306 8.977-.827 12.836 1.003Z" style="stroke-width:1px" transform="translate(-2.012 -1.288)"/><path fill="#2F3038" d="M194.143 228.062c1.27-.164 1.27-.164 2.814-.125l1.622.039c1.881.103 3.709.3 5.57.586v1.001h1.001v1.001l.938.438c1.063.562 1.063.562 2.064 1.563.121 1.335.121 1.335.113 3.053v1.942l-.016 2.107-.004 2.149a1186.96 1186.96 0 0 1-.025 5.661c-.01 1.925-.014 3.849-.019 5.774-.011 3.778-.028 7.556-.049 11.333h-1.001l-.313.876c-.946 1.548-2.138 2.222-3.689 3.127h-1.001v1c-4.491.393-4.491.393-6.472-1.125l-1.032-1.376-.807-.917c-.873-1.362-.868-2.189-.841-3.797l.015-1.554.038-1.612.02-1.636c.018-1.331.042-2.662.074-3.992l-1.54.052c-5.382.128-11.184.168-15.471-3.554-1.168-1.488-1.165-3.096-1.28-4.955.457-1.714 1.421-2.458 2.781-3.551 4.923-1.421 10.422-1.121 15.51-1l-.017-.987c-.02-1.474-.033-2.949-.046-4.423-.008-.513-.016-1.025-.026-1.553l-.009-1.49-.016-1.373c.114-1.181.114-1.181 1.114-2.682Z" style="stroke-width:1px" transform="translate(-2.012 -1.288)"/><path fill="#30322F" d="M150.617 162.022a48.859 48.859 0 0 1 5.003 4.002l.795.702c.959 1.087 1.565 2.27 2.238 3.551.778 1.473 1.545 2.865 2.47 4.253.295 1.085.551 2.182.782 3.282l.377 1.754c.718 4.129.915 8.199.891 12.384l-.002 1.493c-.003 1.554-.009 3.109-.015 4.664l-.007 3.185c-.006 2.586-.014 5.172-.024 7.759h5.002v.5c-7.204.798-14.406 1.321-21.644 1.717-1.736.096-3.472.198-5.208.299a320.37 320.37 0 0 1-22.177.485l-.501-1.501h1.001l-.007-1.169c-.02-3.651-.035-7.301-.045-10.952-.005-1.877-.012-3.753-.024-5.629-.011-1.814-.017-3.627-.019-5.441-.002-.688-.006-1.378-.011-2.068-.052-6.933 1.017-13.206 5.984-18.455 2.811-2.589 6.06-4.482 9.631-5.816l1.449-.551c4.687-1.356 9.789-.756 14.061 1.552Zm-21.951 8.411c-2.807 3.506-4.699 7.563-4.679 12.104v1.76l.016 1.876.004 1.939c.005 1.693.014 3.385.025 5.078.01 1.731.015 3.461.02 5.192.01 3.39.027 6.778.049 10.168 8.174.048 16.344.09 24.515-.219l1.652-.059c2.508-.01 2.508-.01 4.851-.723.026-3.765.043-7.53.056-11.295.005-1.28.011-2.559.02-3.839.012-1.844.018-3.688.022-5.532l.016-1.72c0-5.652-.761-10.75-4.741-15.011-3.841-3.61-8.061-4.354-13.206-4.296-3.583.359-6.194 1.972-8.62 4.577Z" style="stroke-width:1px" transform="translate(-2.012 -1.288)"/><path fill="#44474E" d="m140.986 154.924 1.626-.019c7.116-.013 12.868 2.66 18.011 7.617 8.683 10.27 8.679 22.725 8.567 35.553l-.013 3.065c-.011 2.47-.028 4.94-.049 7.41-1.442.481-2.35.554-3.846.532l-1.225-.014-.932-.017-.031-1.956c-.038-2.426-.082-4.853-.128-7.279-.019-1.044-.036-2.088-.053-3.132-.089-5.802-.273-11.427-1.29-17.152l-.375-2.626c-.584-2.823-2.048-5.008-3.627-7.379l-.875-1.564c-2.968-3.792-6.898-6.469-11.633-7.442-7.115-.603-13.122 1.458-18.667 6.004a20.607 20.607 0 0 0-6.417 13.953l-.01 1.519-.015 1.735-.011 1.853-.044 3.903c-.021 2.047-.039 4.093-.052 6.14a902.617 902.617 0 0 1-.061 5.935l-.005 1.856-.025 1.731-.012 1.518c-.25 1.762-.93 3.116-2.198 4.384-1 .02-2.001.021-3.001 0-.647-1.294-.571-2.24-.581-3.689l-.015-1.708-.006-1.86-.009-1.92c-.005-1.348-.008-2.696-.01-4.044a560.629 560.629 0 0 0-.02-4.1c-.17-20.562-.17-20.562 4.643-26.206l1.132-1.479c5.503-7.098 12.28-11.117 21.257-11.122Z" style="stroke-width:1px" transform="translate(-2.012 -1.288)"/><path fill="#3F190E" d="M217.658 112.992h.5a354581.245 354581.245 0 0 1 .043 93.631l.008 29.646a70441.468 70441.468 0 0 0 .005 16c.003 15.644.011 31.289.021 46.933a129135.421 129135.421 0 0 1 .018 55.013v1.353c.002 7.197.006 14.395.012 21.592.006 7.227.008 14.455.007 21.682-.001 4.3.001 8.599.007 12.898.003 2.867.003 5.735.001 8.602-.002 1.636-.001 3.273.003 4.91.004 1.758.002 3.516-.002 5.274l.008 1.561-.007 1.408v1.22c-.124.974-.124.974-1.125 1.975-1.345.134-2.647.043-4.002 0v-.501l3.502-.5c.58-1.738.535-3.183.5-5.003l-1 3.002h-.5V262.583l1 .5.5 2.502.501-152.593Z" style="stroke-width:1px" transform="translate(-2.012 -1.288)"/><path fill="#A85733" d="M374.754 62.962c4.008 0 6.951 2.477 9.717 5.209 1.485 1.549 2.885 3.175 4.291 4.795.248.225.496.446.752.676.92 1.016 1.29 1.956 1.771 3.237l.532 1.406c.179.485.357.971.541 1.465.184.491.368.976.558 1.477 1.349 3.602 1.349 3.602 1.349 4.748h2.502c-.496.165-.991.329-1.501.5l-.133 1.551c-.401 2.131-1.073 3.392-2.244 5.203-.179.285-.359.565-.544.855a97.874 97.874 0 0 1-3.051 4.463c-1.093 1.371-1.093 1.371-1.533 2.937l-1.5.5a45.413 45.413 0 0 1-3.503-2.407c-.625-.459-1.25-.925-1.876-1.385-.276-.21-.551-.416-.836-.631-.748-.55-1.519-1.065-2.291-1.581.22-1.756.585-3.261 1.283-4.877.893-2.307 1.223-4.693.718-7.13-1.292-1.921-2.852-3.287-4.658-4.722-.482-.386-.964-.776-1.461-1.176a519.986 519.986 0 0 0-2.505-1.991c-1.594-1.302-2.526-2.077-2.883-4.118 1.811.285 3.098.741 4.646 1.721.389.24.778.48 1.18.73.399.256.798.511 1.21.771a3141.266 3141.266 0 0 1 3.457 2.171 36.164 36.164 0 0 0 3.016 1.611c-1.227-2.496-3.009-3.872-5.16-5.533-.326-.26-.652-.515-.988-.781-1.484-1.17-2.968-2.276-4.568-3.283-1.292-.908-1.292-.908-1.792-2.41.5-.499.5-.499 2.001-.721 2.654.034 4.445 1.718 6.504 3.222.725.476 1.454.946 2.189 1.406l.95.606c.936.57.936.57 2.365.99-1.176-2.246-2.669-3.719-4.534-5.376-.272-.249-.543-.498-.822-.748-1.468-1.341-1.468-1.341-3.149-2.383v-.997Z" style="stroke-width:1px" transform="translate(-2.012 -1.288)"/><path fill="#E3CAB7" d="M338.231 451.198h.5l.501 3.502 1.171-.038c3.685-.119 7.37-.237 11.056-.353 1.894-.06 3.788-.12 5.682-.182 16.079-.522 16.079-.522 24.116-.427l.407 1.688c.423 1.923.423 1.923 2.095 2.814 1.295.151 2.548.255 3.846.313l1.064.059c.865.047 1.729.088 2.594.129v-.501a79.61 79.61 0 0 1 7.583.219c8.113.632 16.2.902 24.338.932 1.105.004 2.21.011 3.315.02 1.567.012 3.133.014 4.699.012l1.424.014c2.58-.019 4.467-.194 6.671-1.697.468-1.354.468-1.354.437-2.846l.059-1.506.004-1.151h.5l.501 3.502.883-.016c6.139-.095 12.058.042 18.128 1.017v1.5c-9.299 1.708-18.721 2.066-28.152 2.278l-1.377.032c-9.801.225-19.598.258-29.401.242-2.342-.003-4.683-.003-7.024-.004-4.396-.001-8.791-.005-13.186-.01-5.021-.006-10.041-.009-15.062-.011-10.291-.005-20.583-.014-30.874-.025l1.22-.969c.919-.735.919-.735 1.782-1.533a97.03 97.03 0 0 0 .282-3.534l.126-1.956.092-1.514Z" style="stroke-width:1px" transform="translate(-2.012 -1.288)"/><path fill="#43454D" d="M204.149 228.562v1.001h1.001v1.001l.938.438c1.063.562 1.063.562 2.064 1.563.121 1.335.121 1.335.113 3.053v1.942l-.016 2.107-.004 2.149a1186.96 1186.96 0 0 1-.025 5.661c-.01 1.925-.014 3.849-.019 5.774-.011 3.778-.028 7.556-.049 11.333h-1.001l-.313.876c-.936 1.533-2.174 2.204-3.689 3.127-.565-1.696-.368-2.296 0-4.003.108-2.021.092-4.042.094-6.066l.018-1.663c.001-.526.003-1.051.003-1.593.002-.479.005-.958.006-1.452-.036-1.36-.036-1.36-1.122-2.734-1.623-.295-1.623-.295-3.547-.348l-1.062-.057a376.698 376.698 0 0 0-3.364-.158c-1.121-.054-2.24-.11-3.36-.168-1.017-.052-2.035-.098-3.053-.145-1.623-.124-1.623-.124-3.125-.625v-1.001l-1.5-.499c-.154-1.696-.228-2.67.749-4.099 1.757-1.27 3.313-1.106 5.387-.991l1.203.042c1.265.047 2.528.108 3.793.169.858.034 1.716.068 2.575.1 2.102.081 4.204.175 6.305.275a697.637 697.637 0 0 0-.188-4.784l-.047-1.357c-.114-2.609-.351-4.911-1.266-7.367-.994-.749-.994-.749-2.001-1 1.598-.533 2.83-.538 4.502-.501Z" style="stroke-width:1px" transform="translate(-2.012 -1.288)"/><path fill="#68301C" d="M52.182 41.887c.539.011 1.078.017 1.634.028l1.243.033v.499c1.981.166 3.962.333 6.003.499-.165.499-.33.992-.5 1.502H49.555v384.236h-.5l-.001-1.011c-.022-36.328-.045-72.656-.079-108.985l-.001-1.642-.034-35.349-.016-17.334-.002-1.742c-.018-18.654-.031-37.307-.041-55.961a100134.548 100134.548 0 0 0-.058-65.592l-.002-1.613c-.009-8.581-.013-17.163-.016-25.745-.002-8.619-.01-17.234-.023-25.855-.008-5.123-.011-10.251-.009-15.374.001-3.424-.004-6.837-.012-10.256-.005-1.951-.008-3.901-.003-5.858.004-2.094-.003-4.189-.011-6.284l.01-1.867-.013-1.674-.001-1.457-.189-1.136c-.495-.333-.99-.66-1.5-1.003 1.739-1.07 3.108-1.103 5.128-1.059Z" style="stroke-width:1px" transform="translate(-2.012 -1.288)"/><path fill="#502415" d="M196.645 284.096h1.001v141.586h-.501l-.5-8.505h-.501c-.066-14.044-.13-28.089-.195-42.134l-.091-19.571a96933.909 96933.909 0 0 1-.121-26.111c-.029-6.032-.055-12.064-.075-18.096-.01-3.153-.028-6.307-.049-9.459-.014-2.032-.023-4.063-.031-6.095a677.4 677.4 0 0 0-.02-2.851 628.585 628.585 0 0 1-.019-3.884l-.015-1.156c.002-2.609.002-2.609 1.117-3.724Z" style="stroke-width:1px" transform="translate(-2.012 -1.288)"/><path fill="#411A15" d="M439.293 449.197h.5v8.505c-3.94 2.252-3.94 2.252-5.713 2.253l-1.221.013-1.305-.017-1.409.005c-1.537 0-3.074-.016-4.61-.034l-1.601-.01a624.386 624.386 0 0 1-25.453-.716 562.847 562.847 0 0 0-3.67-.162 420.58 420.58 0 0 1-5.15-.259l-1.549-.06c-2.344-.149-3.52-.26-5.431-1.711-1.017-1.436-1.169-2.086-.923-3.805l1-.5v2.001c1.279.121 2.559.238 3.839.352.998.089 1.996.18 2.993.275 5.531.485 11.072.551 16.62.655l1.603.032c6.637.13 13.273.236 19.91.25l1.831.007a84.3 84.3 0 0 0 9.739-.57v-6.504Z" style="stroke-width:1px" transform="translate(-2.012 -1.288)"/><path fill="#D9C0AE" d="M439.793 452.199h.5l.501 3.502.883-.016c6.139-.095 12.058.042 18.128 1.017v1.5c-9.299 1.708-18.721 2.066-28.152 2.278l-1.377.032c-9.801.225-19.598.258-29.401.242-2.342-.003-4.683-.003-7.024-.004-4.396-.001-8.791-.005-13.186-.01-5.021-.006-10.041-.009-15.062-.011-10.291-.005-20.583-.014-30.874-.025 1.569-1.046 1.9-1.124 3.682-1.111l1.349.002 1.477.018 1.558.007c1.118.006 2.236.014 3.354.023 1.768.015 3.536.024 5.304.03 5.028.021 10.055.053 15.083.088 3.074.022 6.147.036 9.221.046 1.173.005 2.345.013 3.518.025 1.639.015 3.277.021 4.916.026l1.473.021 1.355-.002 1.173.008c1.344-.228 1.998-.866 3.071-1.683 3.131-.2 6.224.113 9.348.357 7.522.567 15.03.765 22.573.794 1.105.004 2.21.011 3.315.02 1.567.012 3.133.014 4.699.012l1.424.014c2.58-.019 4.467-.194 6.671-1.697.468-1.354.468-1.354.437-2.846l.059-1.506.004-1.151Z" style="stroke-width:1px" transform="translate(-2.012 -1.288)"/><path fill="#4B2019" d="M288.201 457.702c6.097-.011 12.194-.021 18.291-.026 2.832-.002 5.662-.006 8.493-.012 2.732-.005 5.463-.008 8.195-.009 1.043-.001 2.085-.003 3.128-.006 1.459-.004 2.918-.004 4.377-.004l1.311-.006 1.207.003 1.046-.002c1.044.066 1.976.279 2.982.562-.501 1.502-.501 1.502-1.407 2.088-1.125.425-1.907.537-3.102.534l-1.195.004-1.296-.011-1.376.001c-1.5-.001-3-.008-4.499-.017a3242.732 3242.732 0 0 1-11.333-.028c-2.793-.01-5.587-.015-8.381-.02-5.48-.011-10.961-.028-16.441-.049l1-.501v-2.001l-1-.5Z" style="stroke-width:1px" transform="translate(-2.012 -1.288)"/><path fill="#2F2F37" d="M86.578 230.564c.5.5.5.5.557 1.659l-.008 1.517-.005 1.636-.012 1.722-.008 1.729c-.006 1.415-.013 2.829-.024 4.244-2.64.089-4.927.078-7.442-.844l-1.372-.475c-1.489-.852-1.981-1.636-2.693-3.183-.387-2.198-.234-4.625 1-6.505 3.066-1.975 6.455-1.768 10.007-1.5Z" style="stroke-width:1px" transform="translate(-2.012 -1.288)"/><path fill="#653524" d="M217.658 50.455h.5c.012 7.691.021 15.394.026 23.087.002 3.577.006 7.154.011 10.731.031 18.417-.1 36.82-.537 55.235h-.501l-.5-9.005-1 .5-.501 10.506h-.5v-39.525h.5l.501 22.515c.613-1.228.557-2.027.549-3.397l-.005-1.426-.013-1.493-.007-1.505c-.006-1.229-.014-2.458-.024-3.686h-.5a848.893 848.893 0 0 1-.031-4.222l-.014-1.216c-.004-1.022.019-2.043.045-3.068.247-.245.247-.245.5-.501.078-.78.125-1.56.158-2.346l.063-1.431.061-1.506.064-1.511c.054-1.235.105-2.476.154-3.712h.5l.501-43.024Z" style="stroke-width:1px" transform="translate(-2.012 -1.288)"/><path fill="#482012" d="M155.119 207.549v2.002l.813-.11c4.068-.481 8.108-.436 12.195-.39v.5c-7.204.798-14.406 1.321-21.644 1.717-1.736.096-3.472.198-5.208.299a320.37 320.37 0 0 1-22.177.485v-.5h5.003v-2.501c24.237-1.502 24.237-1.502 31.018-1.502Z" style="stroke-width:1px" transform="translate(-2.012 -1.288)"/><path fill="#39546C" d="M385.76 286.097h2.001c1.001 1.501 1.001 1.501.966 2.66-.612 1.765-1.672 2.952-2.904 4.313a617.79 617.79 0 0 0-1.505 1.722l-.782.897c-1.27 1.495-2.459 3.05-3.654 4.605-1.684 2.176-3.409 4.222-5.41 6.116-1.013.986-1.869 2.077-2.72 3.202l-2.002-1.001a672.594 672.594 0 0 1 9.478-13.041 109.318 109.318 0 0 0 5.708-8.494l.824-.979Z" style="stroke-width:1px" transform="translate(-2.012 -1.288)"/><path fill="#65301E" d="M197.646 68.963h.5c.011 18.843.02 37.684.025 56.523l.002 6.667.001 1.341c.002 7.172.006 14.344.01 21.515.005 7.355.008 14.709.009 22.064 0 4.541.003 9.082.007 13.622.002 3.111.003 6.222.002 9.333 0 1.796 0 3.593.003 5.39.003 1.945.002 3.89.001 5.835l.004 1.733-.003 1.572.001 1.361c-.062 1.136-.062 1.136-.562 2.637l-1.502-.5.501-10.006h.5l.501-139.087Z" style="stroke-width:1px" transform="translate(-2.012 -1.288)"/><path fill="#5C3625" d="M317.875 86.289c1.765.246 2.518 1.031 3.846 2.187.372.185.743.37 1.126.565.875.435.875.435 1.376 1.436.296 3.027-.201 4.638-2.002 7.005-1.735.665-2.589.635-4.346.065-1.724-1.586-2.26-3.288-2.658-5.569-.017-1.546.081-3.012.5-4.503 1.001-1 1.001-1 2.158-1.186Z" style="stroke-width:1px" transform="translate(-2.012 -1.288)"/><path fill="#5E2B1A" d="M217.157 249.075h.501v16.51l-1.001.5-.5-3.002-.5 81.55h-.501v-95.058l1.001 2.001 1-2.501Z" style="stroke-width:1px" transform="translate(-2.012 -1.288)"/><path fill="#8F2116" d="M343.734 180.533c.661.33 1.321.661 2.002 1-.349 2.254-1.135 4.284-2.002 6.38l-.46 1.118c-1.605 3.803-3.524 7.419-5.521 11.028-.718 1.356-1.346 2.752-1.966 4.155-.7 1.047-1.411 1.361-2.559 1.835.071-4.063 1.621-7.155 3.385-10.73 1.597-3.304 3.094-6.659 4.619-9.997l.763-1.658.687-1.499c.552-1.131.552-1.131 1.052-1.632Z" style="stroke-width:1px" transform="translate(-2.012 -1.288)"/><path fill="#4F2519" d="m186.639 216.055.969.75c.887.8.887.8 1.532.751v23.014h-3.001c-.097-3.17-.186-6.34-.269-9.509a866.91 866.91 0 0 0-.094-3.235c-.047-1.55-.087-3.1-.126-4.65l-.049-1.461-.03-1.365-.034-1.199c.114-1.233.485-2.031 1.102-3.096Z" style="stroke-width:1px" transform="translate(-2.012 -1.288)"/><path fill="#4A201A" d="m382.258 452.699.5 2.001c1.281.121 2.562.238 3.843.352.986.088 1.971.179 2.956.275 5.86.524 11.743.55 17.623.655l3.381.066 8.219.153v.501l-1.514.073-1.956.114-1.953.106-1.581.207-.5 1c-3.802.064-7.603.107-11.406.138-1.293.013-2.586.03-3.879.051-1.86.031-3.718.045-5.578.056l-1.751.039c-4.474.002-4.474.002-6.026-1.464-.963-1.449-1.162-2.121-.878-3.823l.5-.5Z" style="stroke-width:1px" transform="translate(-2.012 -1.288)"/><path fill="#30120E" d="m326.364 457.635 1.527-.001 1.585.005 1.585-.005 1.526.001 1.39.003c1.158.059 2.145.238 3.254.564-.501 1.502-.501 1.502-1.407 2.088-1.125.425-1.907.537-3.102.534l-1.195.004-1.296-.011-1.376.001c-1.5-.001-3-.008-4.499-.017a3242.732 3242.732 0 0 1-11.333-.028c-2.793-.01-5.587-.015-8.381-.02-5.48-.011-10.961-.028-16.441-.049v-.501l33.02-.499.5-1.502c1.516-.594 3.03-.564 4.643-.567Z" style="stroke-width:1px" transform="translate(-2.012 -1.288)"/><path fill="#532515" d="M216.657 86.475h.5c.065 4.232-.029 8.44-.219 12.662l-.059 1.426-.064 1.321-.056 1.191c-.102.91-.102.91-.602 1.411a93.559 93.559 0 0 0-.032 3.784l.007 1.078c.006.881.015 1.763.025 2.643h.5c.029 1.824.047 3.648.063 5.472l.025 1.549c.02 3.164-.278 5.929-1.088 8.989h-.501l-.214-10.565a2471.156 2471.156 0 0 1-.286-15.452l-.027-1.505a559.919 559.919 0 0 1-.051-4.098l-.023-1.186c-.016-3.162.309-6.028 2.102-8.72Z" style="stroke-width:1px" transform="translate(-2.012 -1.288)"/><path fill="#4F2417" d="M183.41 45.911c.322 0 .644.005.976.005 1.084.011 2.169.017 3.253.033.588.006.588.006 1.188.017 2.544.022 5.088.066 7.632.116.885.017 1.77.034 2.655.045 1.296.011 2.591.038 3.886.066.396.006.791.006 1.199.011 2.725.078 2.725.078 3.962 1.014.162.244.324.482.491.732-9.512.493-18.996.559-28.517.504v-.504c-.826-.161-1.652-.327-2.502-.499v-1.003c1.96-.46 3.766-.554 5.777-.537Z" style="stroke-width:1px" transform="translate(-2.012 -1.288)"/><path fill="#451D17" d="m274.692 450.698 1.001.5c-.5 1.501-.5 1.501-1.501 2.001l.5 2.001 1.971.219c1.969.219 1.969.219 2.532.782 1.262.2 2.517.376 3.784.532l1.077.138c.881.112 1.763.222 2.644.331l-.501 1.501 1.001.5v1c-9.971.649-9.971.649-12.601-1.563-.982-1.154-1.454-2.054-2.033-3.471.165-1.934.943-2.965 2.126-4.471Z" style="stroke-width:1px" transform="translate(-2.012 -1.288)"/><path fill="#891D11" d="M409.275 123.498c3.231-.167 5.763.382 8.817 1.407l1.243.396c2.256.735 4.354 1.571 6.449 2.7l-.5 1.501c-3.598-.278-6.822-1.068-10.256-2.158l-1.516-.448-1.439-.453-1.303-.402c-.995-.541-.995-.541-1.389-1.601l-.106-.942Z" style="stroke-width:1px" transform="translate(-2.012 -1.288)"/><path fill="#5A2918" d="M186.639 253.578h2.001v25.515h-.5l-.501-6.003h-.5c-.445-6.512-.558-12.986-.5-19.512Z" style="stroke-width:1px" transform="translate(-2.012 -1.288)"/><path fill="#4B1D10" d="M164.625 45.949h15.51v.499h-2.502v1.003h12.508v.499c-3.425.016-6.85.022-10.275.033-1.163 0-2.325.006-3.487.006-6.273.022-12.507.033-18.758-.538v-.499l7.004-.504v-.499Z" style="stroke-width:1px" transform="translate(-2.012 -1.288)"/><path fill="#831D13" d="M397.267 149.014c2.2 1.896 2.834 4.666 3.815 7.317l.617 1.601c1.151 3.073 1.873 5.815 2.072 9.093-.942-.091-.942-.091-2.001-.5-.533-1.104-.533-1.104-.927-2.553l-.445-1.588-.442-1.676-.453-1.639a386.41 386.41 0 0 1-.857-3.153c-.309-1.144-.64-2.278-.984-3.412-.395-1.489-.395-1.489-.395-3.49Z" style="stroke-width:1px" transform="translate(-2.012 -1.288)"/><path fill="#5F321E" d="m322.722 109.49 1.501.5c-.506 2.807-1.318 4.11-3.569 5.861-2.052 1.412-3.971 2.282-6.437 2.644-1.077-1.615-1.102-2.143-1.001-4.002l.989.088c3.081.186 3.081.186 5.734-1.183 1.144-1.256 2.008-2.402 2.783-3.908Z" style="stroke-width:1px" transform="translate(-2.012 -1.288)"/><path fill="#502414" d="m104.714 207.518 1.352.014 1.024.017c.629 1.454 1.001 2.4 1.001 4.003l9.505.5v.501c-1.562.112-3.126.213-4.69.312l-1.348.098-1.29.078-1.191.079c-.986-.067-.986-.067-1.987-1.068v-2.001c-2.752.52-4.997 1.217-7.504 2.502l-1.001-.501 1.032-.875.969-1.126c-.068-1.11-.068-1.11-.5-2.001 1.579-.469 2.985-.553 4.628-.532Z" style="stroke-width:1px" transform="translate(-2.012 -1.288)"/><path fill="#451A10" d="M185.138 253.578h1.501c.144 20.224.144 20.224-1.501 23.514v-23.514Z" style="stroke-width:1px" transform="translate(-2.012 -1.288)"/><path fill="#5A2A1A" d="m186.639 216.055.969.75c.887.8.887.8 1.532.751v23.014h-.5l-.5-15.01-1.001 3.503h-.5c-.099-1.887-.191-3.773-.282-5.66l-.084-1.625-.074-1.559-.072-1.436c.012-1.227.012-1.227.512-2.728Z" style="stroke-width:1px" transform="translate(-2.012 -1.288)"/><path fill="#481B0F" d="m147.021 441.16 1.76.014 1.335.018v.5h10.007v.501c-2.115.256-4.232.504-6.348.75l-1.787.217a85.842 85.842 0 0 1-11.877.533v-1h1v-1.001c2-.478 3.856-.552 5.91-.532Z" style="stroke-width:1px" transform="translate(-2.012 -1.288)"/><path fill="#461B0E" d="M116.096 44.448c2.03-.023 4.058-.039 6.088-.056.691-.005 1.381-.005 2.071-.017.993-.011 1.987-.016 2.98-.022.896-.011.896-.011 1.811-.016 1.524.111 2.259.377 3.56 1.114 1.163.194 2.33.365 3.502.498v.499c-2.393.017-4.786.022-7.179.033-.812 0-1.623.006-2.436.011-4.493.017-8.929.006-13.399-.543v-.498c.99-.167 1.981-.333 3.002-.499v-.504Z" style="stroke-width:1px" transform="translate(-2.012 -1.288)"/><path fill="#D75C44" d="M310.214 170.026c.561 1.687.546 1.907-.281 3.628l-.569 1.065c-2.909 5.862-4.567 12.273-6.298 18.554a306.358 306.358 0 0 1-1.857 6.272h-.501c.276-3.121.796-5.953 1.72-8.943l.384-1.261c1.219-3.907 2.61-7.751 4.025-11.591l.661-1.795c1.586-4.233 1.586-4.233 2.716-5.929Z" style="stroke-width:1px" transform="translate(-2.012 -1.288)"/><path fill="#360F07" d="M84.076 43.45c10.521-.055 21.008-.005 31.519.499v.499c-2.222.077-4.446.144-6.669.216-.752.027-1.505.05-2.259.072-4.864.16-9.718.249-14.586.216v-.504c-2.642-.167-5.283-.327-8.005-.499v-.499Z" style="stroke-width:1px" transform="translate(-2.012 -1.288)"/><path fill="#1D181F" d="M416.779 254.078c.013 2.083.022 4.165.028 6.248.002.707.006 1.415.01 2.122.006 1.021.008 2.042.011 3.062l.008 1.859c-.054 1.62-.249 3.13-.558 4.72h-.499c-.102-5.015.21-10.005.499-15.009l-5.503 1 .501-1h2.001v-1.001l-1.376.532c-1.629.47-2.089.446-3.627-.031a3822.815 3822.815 0 0 1 4.055-1.515c2.937-.987 2.937-.987 4.45-.987Z" style="stroke-width:1px" transform="translate(-2.012 -1.288)"/><path fill="#A45837" d="M374.754 62.962c3.783 0 6.14 2.227 9.005 4.5l-1.001.504v.997h1.001v1.002l-1.501.5c-.458-.425-.916-.856-1.387-1.297-.601-.554-1.202-1.114-1.802-1.673-.302-.283-.604-.56-.915-.859a51.3 51.3 0 0 1-.88-.815c-.267-.244-.534-.493-.81-.748-.712-.659-.712-.659-1.71-1.114v-.997Z" style="stroke-width:1px" transform="translate(-2.012 -1.288)"/><path fill="#A2593A" d="M368.249 71.966c2.311.275 3.994 1.296 5.911 2.532l.905.575c.732.46 1.461.93 2.19 1.396-.495.25-.495.25-1.001.5l-.5 1-1 1.001a268.6 268.6 0 0 1-2.971-2.376c-.282-.221-.564-.441-.855-.671-2.079-1.696-2.079-1.696-2.618-3.122l-.061-.835Z" style="stroke-width:1px" transform="translate(-2.012 -1.288)"/><path fill="#5A2A19" d="M163.624 91.478c2.231-.015 4.462-.025 6.692-.03l1.927-.015c.91 0 .91 0 1.837-.005.841 0 .841 0 1.699-.005 1.354.055 1.354.055 2.354.555-.128.731-.265 1.461-.406 2.192l-.229 1.23c-.365 1.081-.365 1.081-1.866 2.082l-1-3.002-4.503-.501v-.5l2.501-.5v-.501l-9.006-.5v-.5Z" style="stroke-width:1px" transform="translate(-2.012 -1.288)"/><path fill="#582717" d="m162.124 439.691 1.001 2.502c-1.977.036-3.954.064-5.931.082-1.004.011-2.007.03-3.011.05l-1.905.014-1.763.024-1.399-.17-1.001-1.501c1.772-.169 3.544-.336 5.316-.501l1.514-.144c2.401-.223 4.764-.422 7.179-.356Z" style="stroke-width:1px" transform="translate(-2.012 -1.288)"/><path fill="#8C1F14" d="M296.706 202.546c1.938.876 1.938.876 2.501 2.002a45.9 45.9 0 0 1 .094 2.751c.007.491.015.981.021 1.486-.115 1.266-.115 1.266-1.115 2.267h-1.501c-.566-1.698-.567-3.029-.563-4.815l-.004-1.772c.067-1.418.067-1.418.567-1.919Z" style="stroke-width:1px" transform="translate(-2.012 -1.288)"/><path fill="#1F1F26" d="M380.257 59.958c3.184.848 4.735 3.192 6.326 5.908 1.574 3.009 2.622 5.759 3.18 9.102-.284-.361-.569-.721-.862-1.096a100.672 100.672 0 0 0-8.144-8.91c2.984.638 4.245 2.173 6.004 4.502-1.682-3.809-3.138-6.513-6.504-9.007v-.499Z" style="stroke-width:1px" transform="translate(-2.012 -1.288)"/><path fill="#924A2B" d="m257.526 173.904 1.157.125c3.301 6.314 3.301 6.314 2.501 9.006l-.293-.932-.395-1.226-.386-1.213c-.421-1.245-.421-1.245-1.427-2.633l-1.501 1.501v-1.501h-1.001l-.5 4.502c-1.235-1.852-1.277-3.355-1.001-5.503.769-1.617 1.048-1.959 2.846-2.126Z" style="stroke-width:1px" transform="translate(-2.012 -1.288)"/><path fill="#7B3B20" d="M309.714 95.98c0 1.502 0 1.502-1.282 2.877-1.196 1.356-1.22 1.546-1.22 3.502.353 1.756.353 1.756 2.001 2.627 1.167.04 2.336.045 3.503 0 .797 1.596.551 3.318.532 5.067l-.008 1.143c-.006.932-.015 1.865-.024 2.797-1.003-1.504-1.146-2.004-1.282-3.722-.123-1.481-.324-2.848-.719-4.284-.547-.051-1.094-.1-1.658-.155-2.265-.421-2.265-.421-3.346-1.847-.416-1.555-.376-2.941 0-4.502 1.009-1.376 2.169-2.442 3.503-3.503Z" style="stroke-width:1px" transform="translate(-2.012 -1.288)"/><path fill="#582918" d="M88.579 289.599c1.728 1.729 1.58 3.609 1.595 5.973l.021 1.546c-.119 1.537-.505 2.585-1.116 3.988a79.558 79.558 0 0 0-.5 3.503h-.501c-.014-2.221-.023-4.441-.03-6.661a1075.1 1075.1 0 0 1-.013-1.914l-.005-1.832-.008-1.691c.056-1.41.056-1.41.557-2.912Z" style="stroke-width:1px" transform="translate(-2.012 -1.288)"/><path fill="#623325" d="m202.743 46.326 1.251-.033c2.956-.017 2.956-.017 4.031.92l.627.737c-2.324.088-4.647.166-6.971.244-.791.027-1.582.049-2.372.083l-3.408.116c-.355.011-.708.028-1.072.039-1.556.05-2.697.022-4.188-.482v-.998a158.26 158.26 0 0 1 12.102-.626Z" style="stroke-width:1px" transform="translate(-2.012 -1.288)"/><path fill="#613020" d="M123.1 43.949v.499l4.002.504v.499c-4.21.249-4.21.249-8.505.498v.499h-9.506c.496-.493.991-.986 1.501-1.496v-.504c4.181-.549 8.299-.549 12.508-.499Z" style="stroke-width:1px" transform="translate(-2.012 -1.288)"/><path fill="#303540" d="M370.751 324.621h.5c.517 4.03.56 8.011.532 12.07l-.007 1.884c-.006 1.519-.014 3.038-.024 4.557h-1.501c-.013-2.154-.022-4.308-.028-6.461-.002-.732-.006-1.464-.01-2.196a835.115 835.115 0 0 1-.011-3.167l-.008-1.921c.053-1.637.245-3.16.557-4.766Z" style="stroke-width:1px" transform="translate(-2.012 -1.288)"/><path fill="#29221C" d="M184.637 241.07c-1.518 1.012-2.098 1.161-3.845 1.313l-1.226.113-.932.075 2.001 1-2.502.501v1.001h-1v-1.001h-1.001c-.104 1.769-.105 3.192.47 4.878 1.534 1.674 3.377 2.07 5.534 2.626v.501c-2.644.251-3.957-.327-6.004-2.001-1.172-1.492-1.241-3.144-1.192-5.019.337-1.734 1.316-2.476 2.693-3.487 2.205-.796 4.682-.545 7.004-.5Z" style="stroke-width:1px" transform="translate(-2.012 -1.288)"/><path fill="#5E2E1E" d="M183.637 438.19c.95-.042 1.9-.118 2.846-.219l1.506-.154 1.151-.127-.5 1.001 1 1h-16.009l-.501-1.501c7.816-.897 7.816-.897 10.507 0Z" style="stroke-width:1px" transform="translate(-2.012 -1.288)"/><path fill="#994A29" d="M231.26 176.781c2.143.381 3.378 1.769 4.909 3.252-1.501 0-1.501 0-3.002-1.001l-1 2.501h-1.001l-.501 1.001c-1.008-1.134-1.475-1.787-1.657-3.314.211-1.602.679-2.08 2.252-2.439Z" style="stroke-width:1px" transform="translate(-2.012 -1.288)"/><path fill="#5F3020" d="m93.582 446.695-1.501 1.001 2.501.501v.499H79.573c3.275-3.274 9.617-2.053 14.009-2.001Z" style="stroke-width:1px" transform="translate(-2.012 -1.288)"/><path fill="#5F3223" d="M134.201 44.287c.464 0 .928.005 1.407.005.464-.011.928-.011 1.407-.022h1.344c.408 0 .815-.005 1.236-.005.335.061.67.122 1.015.183l1.001 1.501-.5 1.003h-10.006c.495-.332.99-.665 1.501-1.003-1.486-.244-1.486-.244-3.002-.498 1.442-1.441 2.624-1.148 4.597-1.164Z" style="stroke-width:1px" transform="translate(-2.012 -1.288)"/><path fill="#EBD1BE" d="M398.268 459.203c2.137-.014 4.274-.024 6.41-.031l1.812-.013c3.627-.01 7.185.135 10.789.545v.499c-2.225.097-4.45.187-6.674.269-.757.03-1.513.061-2.269.094-1.09.047-2.18.087-3.271.126l-1.985.079c-1.804-.067-3.143-.406-4.812-1.067v-.501Z" style="stroke-width:1px" transform="translate(-2.012 -1.288)"/><path fill="#E86950" d="M397.768 256.079h2.501v1.001c2.839-.309 5.673-.641 8.505-1.001-2.329 1.553-4.958 1.925-7.66 2.564l-1.712.42-1.66.397-1.512.362c-1.518.269-2.927.305-4.466.259 1.718-1.145 2.494-1.089 4.502-1v-1.001l1.502-.5v-1.501Z" style="stroke-width:1px" transform="translate(-2.012 -1.288)"/><path fill="#E0593F" d="M395.266 86.475c3.18.215 5.396 1.361 8.13 2.942.401.22.802.445 1.215.675 1.763 1.001 3.275 1.891 4.664 3.387-2.524-.446-4.611-1.906-6.811-3.157-1.748-.871-3.312-1.371-5.197-1.846v1h-2.001v-3.001Z" style="stroke-width:1px" transform="translate(-2.012 -1.288)"/><path fill="#582818" d="m88.078 198.544 2.002.5c.054 1.304.094 2.605.125 3.909l.051 1.119c.02 1.079.02 1.079-.176 2.977l-2.002 1.501v-10.006Z" style="stroke-width:1px" transform="translate(-2.012 -1.288)"/><path fill="#43170C" d="M50.556 42.447h13.508c.165.333.33.659.501 1.003 2.806.166 5.613.327 8.505.499v.499H60.562v-.998l-10.006-.504v-.499Z" style="stroke-width:1px" transform="translate(-2.012 -1.288)"/><path fill="#E2573D" d="m342.234 136.006-3.002 1.001v1c-1.501 1.001-1.501 1.001-3.002 1.001l.5 1.501c-1.991.586-3.96 1.129-6.003 1.501 2.404-2.833 7.723-7.265 11.507-6.004Z" style="stroke-width:1px" transform="translate(-2.012 -1.288)"/><path fill="#43170E" d="m80.511 447.634 1.31-.004c1.254.066 1.254.066 2.22.318 1.402.336 2.723.295 4.163.28l1.634-.014 1.242-.017v.499c-5.209.707-10.242 1.151-15.509 1.001l1.501-.5v-1c1.231-.616 2.067-.567 3.439-.563Z" style="stroke-width:1px" transform="translate(-2.012 -1.288)"/><path fill="#2B221A" d="M155.119 239.069c2.796.678 4.348 2.792 6.004 5.003 1.158 1.959 1.224 3.769 1.001 6.004-.501 1.751-.501 1.751-1.001 3.001-.546-1.637-.455-2.638-.344-4.346.028-2.804-.487-4.225-2.324-6.315l-.834-.846-.757-.799a52.848 52.848 0 0 0-1.745-1.702Z" style="stroke-width:1px" transform="translate(-2.012 -1.288)"/><path fill="#4E1E0A" d="m179.134 207.049-1.001 1.501.915.661c2.334 1.739 4.275 3.214 5.589 5.843l-.5 1.501-.533-.915c-1.959-3.169-3.576-4.927-7.194-5.927a59.855 59.855 0 0 0-3.28-.662v-1.001c2.062-.647 3.837-1.132 6.004-1.001Z" style="stroke-width:1px" transform="translate(-2.012 -1.288)"/><path fill="#9A5131" d="M313.716 83.973c.456 1.536.545 2.902.501 4.503.164-1.156.329-2.311.5-3.502l.187.97.313 1.031 1.001.5-.501 4.503-1-1.501c-1.238.746-1.238.746-2.502 1.501.241-2.786.65-5.338 1.501-8.005Z" style="stroke-width:1px" transform="translate(-2.012 -1.288)"/><path fill="#572F28" d="M286.7 457.202h3.002c-.188 1.469-.188 1.469-.501 3.001-1.533.767-3.136.552-4.815.532l-1.071-.007c-.873-.005-1.746-.015-2.619-.024l-.5-1.501 6.003-.5.501-1.501Z" style="stroke-width:1px" transform="translate(-2.012 -1.288)"/><path fill="#5C2C15" d="m147.834 209.426 1.862.039c2.815.126 5.619.325 8.425.586v.5c-5.18.351-10.314.575-15.509.501 1.715-1.594 2.918-1.679 5.222-1.626Z" style="stroke-width:1px" transform="translate(-2.012 -1.288)"/><path fill="#491D11" d="M91.08 446.195a567.2 567.2 0 0 1 4.128.188l1.178.047c3.562.182 3.562.182 5.201 1.266-3.129.569-6.333.784-9.506.501l-1.001-1.001v-1.001Z" style="stroke-width:1px" transform="translate(-2.012 -1.288)"/><path fill="#64392A" d="M64.064 42.447H74.57v.499c1.239.255 1.239.255 2.502.504v.499H64.064v-1.502Z" style="stroke-width:1px" transform="translate(-2.012 -1.288)"/><path fill="#E3573D" d="m335.73 217.055 1 .501c.185 1.33.303 2.603.375 3.94l.085 1.112c.117 1.955.154 2.782-.96 4.454-1.732-7.545-1.732-7.545-.5-10.007Z" style="stroke-width:1px" transform="translate(-2.012 -1.288)"/><path fill="#DF5C42" d="M412.276 205.548c2.33 2.33 2.064 6.995 2.064 10.131-.015.793-.034 1.585-.063 2.377l-1-.5v-6.004h-1.001v-6.004Z" style="stroke-width:1px" transform="translate(-2.012 -1.288)"/><path fill="#502415" d="M58.561 449.197h7.004v.5l3.502.501v.5a35.308 35.308 0 0 1-10.006 0l-.5-1.501Z" style="stroke-width:1px" transform="translate(-2.012 -1.288)"/><path fill="#592C1D" d="m173.13 439.691.501 1.501-8.505.5v-1.501c2.694-.459 5.274-.556 8.004-.5Z" style="stroke-width:1px" transform="translate(-2.012 -1.288)"/><path fill="#F1E3DB" d="M227.663 185.036h.501l.34 1.332c.77 1.948 1.713 2.925 3.225 4.359l1.38 1.325c.349.326.698.653 1.059.988-1.501 0-1.501 0-2.439-.719-1.2-.881-2.105-1.079-3.565-1.282l1.001-1h-2.001l.499-5.003Z" style="stroke-width:1px" transform="translate(-2.012 -1.288)"/><path fill="#512313" d="M144.113 45.451v.498c3.962.167 7.925.333 12.007.499v.504c-2.082.011-4.165.017-6.247.028-.708 0-1.416.006-2.123.011-1.021.006-2.042.011-3.063.011l-1.858.011c-1.62-.055-3.13-.255-4.72-.565v-.499c2.022-.316 3.956-.559 6.004-.498Z" style="stroke-width:1px" transform="translate(-2.012 -1.288)"/><path fill="#F6B65B" d="m145.68 306.17 1.222.073a292.773 292.773 0 0 0 2.564.165c1.05.064 2.101.133 3.152.202-1.532.889-2.622 1.121-4.386 1.098-.445-.003-.89-.007-1.348-.009l-1.395-.026-1.419-.014a444.207 444.207 0 0 1-3.46-.048c3.128-1.564 3.128-1.564 5.07-1.441Z" style="stroke-width:1px" transform="translate(-2.012 -1.288)"/><path fill="#5D2814" d="M155.119 207.549v1.502c-4.699.071-9.326-.138-14.008-.501v-.5l6.441-.25 1.855-.073 1.768-.068 1.636-.063a65.81 65.81 0 0 1 2.308-.047Z" style="stroke-width:1px" transform="translate(-2.012 -1.288)"/><path fill="#592D1C" d="m52.932 450.354 1.058.093c.857.076 1.714.162 2.569.251l-.5 1.501-9.005-.501c2.251-1.688 3.264-1.623 5.878-1.344Z" style="stroke-width:1px" transform="translate(-2.012 -1.288)"/><path fill="#8F2114" d="m402.27 162.022 1.001.5c.207 1.034.207 1.034.312 2.283l.114 1.252.074.968-2.001-.5-1.001-4.003 1.501-.5Z" style="stroke-width:1px" transform="translate(-2.012 -1.288)"/><path fill="#5B2D1C" d="M127.102 442.693h4.503l-.5 2.502-4.503-.501.5-2.001Z" style="stroke-width:1px" transform="translate(-2.012 -1.288)"/><path fill="#DE5A3F" d="m265.186 192.04 6.004 1.501c-2.001.5-2.001.5-3.002.5v1.001c-2.376.063-2.376.063-3.502-.5.166-.826.331-1.651.5-2.502Z" style="stroke-width:1px" transform="translate(-2.012 -1.288)"/><path fill="#251F17" d="m107.09 209.551 1.001.5v1.501l9.505.5v.501c-1.562.112-3.126.213-4.69.312l-1.348.098-1.29.078-1.191.079c-.986-.067-.986-.067-1.987-1.068-.062-1.313-.062-1.313 0-2.501Z" style="stroke-width:1px" transform="translate(-2.012 -1.288)"/><path fill="#642F1B" d="M88.579 289.599c1.248 1.249 1.181 1.838 1.313 3.565l.114 1.38.074 1.059-.5-1h-1.001v3.001h-.501a663.694 663.694 0 0 1-.03-3.158l-.018-1.776c.048-1.569.048-1.569.549-3.071Z" style="stroke-width:1px" transform="translate(-2.012 -1.288)"/><path fill="#DF593F" d="M288.201 199.545c2.93.831 5.733 1.736 8.505 3.001-.876.313-.876.313-2.002.501l-.906-.47c-1.164-.663-1.164-.663-2.908-.531h-1.689l-1-1v-1.501Z" style="stroke-width:1px" transform="translate(-2.012 -1.288)"/><path fill="#5B2E1E" d="M211.654 434.688c1.522-.127 2.304-.12 3.627.688.876.813.876.813 1.376 1.813h-5.503l.5-2.501Z" style="stroke-width:1px" transform="translate(-2.012 -1.288)"/><path fill="#F4ECE6" d="M254.68 180.033h.501l1 6.004c-2.001-.501-2.001-.501-3.001-1.001l1.5-5.003Z" style="stroke-width:1px" transform="translate(-2.012 -1.288)"/><path fill="#30281F" d="m160.123 253.077.5 1.501c-.664 1.114-.664 1.114-1.626 2.314l-.946 1.208c-.93.981-.93.981-2.431 1.482v-1.502h1l.501-2.501h2.001l1.001-2.502Z" style="stroke-width:1px" transform="translate(-2.012 -1.288)"/><path fill="#4F291D" d="M309.213 435.689c1.751.5 1.751.5 3.002 1.001v1h-6.004l1.502-.501v-1l-1.439.781-1.563.72-1.001-.501c1.346-2.018 3.323-1.751 5.503-1.5Z" style="stroke-width:1px" transform="translate(-2.012 -1.288)"/><path fill="#491D11" d="M184.137 280.094h1.001c.696 2.089-.089 3.069-1.001 5.003h-1l-1.001 2.001c.495-2.419.979-4.741 2.001-7.004Z" style="stroke-width:1px" transform="translate(-2.012 -1.288)"/><path fill="#D85841" d="m403.771 165.524.501 1.501 1.157-.532c1.344-.469 1.344-.469 2.845.032l-3.503 1.5.501 5.504c-1.464-1.464-1.214-2.894-1.329-4.896l-.172-1.108-1.001-.5h1.001v-1.501Z" style="stroke-width:1px" transform="translate(-2.012 -1.288)"/><path fill="#8B251D" d="m419.062 125.468 1.219.032-1.001.5v1l.95.075 1.239.113 1.232.105c1.082.208 1.082.208 2.083 1.209l-7.004-.501-.501-2.001c.501-.5.501-.5 1.783-.532Z" style="stroke-width:1px" transform="translate(-2.012 -1.288)"/><path fill="#5F2E1E" d="M198.146 435.689h5.003v1.001l4.002-.501v1l2.002.501-7.505-.501v-1h-3.502v-.5Z" style="stroke-width:1px" transform="translate(-2.012 -1.288)"/><path fill="#4B1C0E" d="M116.596 444.194v1.501l1.501.5h-5.003v-.5l-2.502-.5c1.952-1.301 3.739-1.076 6.004-1.001Z" style="stroke-width:1px" transform="translate(-2.012 -1.288)"/><path fill="#5E3122" d="M116.596 443.693h4.002l.501 2.502-4.503-.5v-2.002Z" style="stroke-width:1px" transform="translate(-2.012 -1.288)"/><path fill="#E05237" d="m336.73 228.562 2.001 1.001-.5 7.504h-.5l-1.001-8.505Z" style="stroke-width:1px" transform="translate(-2.012 -1.288)"/><path fill="#934422" d="m229.884 183.91 1.282.125 1.001 1.501-2.502.501v2.501l-1.501-1.001c-.125-1.532-.125-1.532 0-3.002.5-.5.5-.5 1.72-.625Z" style="stroke-width:1px" transform="translate(-2.012 -1.288)"/><path fill="#DC553A" d="M430.288 107.489c2.179.724 3.66 1.839 5.409 3.314l1.48 1.239 1.115.95c-2.282 0-3.535-1.401-5.316-2.736-1.162-.902-1.162-.902-2.688-.766v-2.001Z" style="stroke-width:1px" transform="translate(-2.012 -1.288)"/><path fill="#592615" d="M61.062 42.946c-.165.499-.33.992-.5 1.502-3.302-.167-6.604-.327-10.006-.499v-.499c1.094-.089 2.188-.166 3.283-.249l1.847-.144c1.797-.106 3.576-.122 5.376-.111Z" style="stroke-width:1px" transform="translate(-2.012 -1.288)"/><path fill="#DEC3B1" d="M395.766 458.202c1.142.51 1.142.51 2.002 1.001l-1.626.218c-1.751.217-1.751.217-2.909.595-1.392.269-2.595-.032-3.971-.312 1.839-1.92 4.011-1.84 6.504-1.502Z" style="stroke-width:1px" transform="translate(-2.012 -1.288)"/><path fill="#DD644C" d="m341.733 257.08 3.502.5-2.001 1.001 4.003.5c-1.001 1-1.001 1-2.176 1.024l-1.358-.148c-.449-.045-.899-.088-1.362-.133-.366-.081-.731-.16-1.108-.242l-.501-1.001 1.001-1.501Z" style="stroke-width:1px" transform="translate(-2.012 -1.288)"/><path fill="#C76E37" d="m106.59 210.051-.501 1.501-1.844.156c-1.879.223-3.063.813-4.659 1.845l-1.001-.5c.635-.408 1.271-.814 1.907-1.22.355-.226.709-.452 1.073-.686 1.72-1.003 3.073-1.148 5.025-1.096Z" style="stroke-width:1px" transform="translate(-2.012 -1.288)"/><path fill="#6D3421" d="M88.078 201.546h.501v3.002l1.501-.5c.125 1.406.125 1.406 0 3.001l-2.002 1.501v-7.004Z" style="stroke-width:1px" transform="translate(-2.012 -1.288)"/><path fill="#7D170E" d="M397.267 149.014c1.372 1.184 2.014 2.254 2.502 4.002-.188 1.657-.188 1.657-.501 3.002-1.493-2.24-2.001-4.321-2.001-7.004Z" style="stroke-width:1px" transform="translate(-2.012 -1.288)"/><path fill="#EDB45F" d="m135.608 254.078.781 1c1.526 1.878 3.12 3.691 4.722 5.504-1.621 0-2.185-.096-3.502-1-1.078-1.797-1.697-3.435-2.001-5.504Z" style="stroke-width:1px" transform="translate(-2.012 -1.288)"/><path fill="#E2583D" d="m291.703 233.065 5.003 1.001v1.501c-2.029-.235-3.736-.441-5.503-1.501.164-.331.329-.66.5-1.001Z" style="stroke-width:1px" transform="translate(-2.012 -1.288)"/><path fill="#1F2B3A" d="M373.252 71.966c1.705.966 3.374 1.916 5.004 3.002v1c-2.309-.66-4.053-1.606-6.004-3.002l1-1Z" style="stroke-width:1px" transform="translate(-2.012 -1.288)"/><path fill="#2C292F" d="M380.757 68.963c1.251.907 1.251.907 2.502 2.002v1.501c-2.259-.265-3.676-1.18-5.504-2.501l1.001-.501c1.313.721 1.313.721 2.501 1.501l-.5-2.002Z" style="stroke-width:1px" transform="translate(-2.012 -1.288)"/><path fill="#592818" d="m82.753 447.049 1.917.053 1.929.041 1.479.053v.5h-3.001v1h-5.504c1.501-1.5 1.501-1.5 3.18-1.647Z" style="stroke-width:1px" transform="translate(-2.012 -1.288)"/><path fill="#F5E6DD" d="M234.668 177.531c2.264 1.84 4.199 3.708 6.004 6.004-1.74-.759-2.98-1.79-4.378-3.064l-1.211-1.099-.915-.84.5-1.001Z" style="stroke-width:1px" transform="translate(-2.012 -1.288)"/><path fill="#A46348" d="m332.728 77.469-.501 3.502h-.5V78.47h-9.005v-.501c1.479-.079 2.96-.165 4.44-.25l1.276-.069c.403-.026.806-.046 1.221-.071.373-.02.745-.04 1.128-.065a43.345 43.345 0 0 1 1.941-.045Z" style="stroke-width:1px" transform="translate(-2.012 -1.288)"/><path fill="#5B2E1E" d="M159.122 439.691h3.002l1.001 2.502-4.503-.501.5-2.001Z" style="stroke-width:1px" transform="translate(-2.012 -1.288)"/><path fill="#572A1A" d="M196.645 208.05h.5l.501 10.506-1.502-.5.501-10.006Z" style="stroke-width:1px" transform="translate(-2.012 -1.288)"/><path fill="#50281F" d="m128.103 209.551 6.004.5v1.001h-6.504l.5-1.501Z" style="stroke-width:1px" transform="translate(-2.012 -1.288)"/><path fill="#F4EAE3" d="M229.165 182.034c.969.031.969.031 2.001.5.875 1.282.875 1.282 1.501 2.502l-4.503-.501c0-1.5 0-1.5 1.001-2.501Z" style="stroke-width:1px" transform="translate(-2.012 -1.288)"/><path fill="#E25B3F" d="m447.298 139.508.5 1.501c-.906 1.595-.906 1.595-2.001 3.002h-1.001c-.156-1.126-.156-1.126 0-2.502 1.251-1.157 1.251-1.157 2.502-2.001Z" style="stroke-width:1px" transform="translate(-2.012 -1.288)"/><path fill="#252228" d="M314.717 74.468h2.502v1l6.003 1.001v.5c-5.626.195-5.626.195-7.942-1.811-.186-.23-.372-.455-.563-.69Z" style="stroke-width:1px" transform="translate(-2.012 -1.288)"/><path fill="#945B45" d="M374.754 62.962c1.155.166 2.311.327 3.502.499-.33.332-.661.659-1.001 1.003.661.493 1.321.986 2.001 1.496-.165.499-.33.992-.5 1.502-.67-.56-1.336-1.12-2.001-1.685l-1.126-.953c-.289-.283-.578-.565-.875-.865v-.997Z" style="stroke-width:1px" transform="translate(-2.012 -1.288)"/><path fill="#4B1D0B" d="M118.597 305.61c2.892.315 5.676.825 8.505 1.5v.501l-8.004-.501-.501-1.5Z" style="stroke-width:1px" transform="translate(-2.012 -1.288)"/><path fill="#8F4121" d="m228.946 191.008 1.22.031-2.002.501v1.001h1.001v1h-1.001l1.001 2.501c-1.961-1.654-1.961-1.654-2.158-3.346.219-1.623.282-1.648 1.939-1.688Z" style="stroke-width:1px" transform="translate(-2.012 -1.288)"/><path fill="#4B1D11" d="m163.906 439.66 1.72.031-.5 2.001h-3.002l-.501-1.501c.501-.5.501-.5 2.283-.531Z" style="stroke-width:1px" transform="translate(-2.012 -1.288)"/><path fill="#4D1D0F" d="M190.641 436.69h2.502l-2.002 1-.5-1Zm-1.501 1h2.001v1.501h-4.502l2.001-1.001.5-.5Z" style="stroke-width:1px" transform="translate(-2.012 -1.288)"/><path fill="#EBB260" d="M177.633 210.051c2.176.251 3.449 1.55 5.003 3.002.688 1.157.688 1.157 1.001 2.001-1.722-.574-2.268-1.195-3.502-2.501l-1.376-1.376-1.126-1.126Z" style="stroke-width:1px" transform="translate(-2.012 -1.288)"/><path fill="#E25B40" d="M440.293 150.014c-2.876 2.502-2.876 2.502-4.002 2.502l.5-2.502c2.377-.562 2.377-.562 3.502 0Z" style="stroke-width:1px" transform="translate(-2.012 -1.288)"/><path fill="#491909" d="m162.124 305.61-.841.293-1.098.394-1.091.387c-1.064.396-1.064.396-1.973 1.427v-1.001l-2.002-.5c.79-.267 1.583-.526 2.377-.782l1.337-.439c1.329-.288 2.025-.227 3.291.221Z" style="stroke-width:1px" transform="translate(-2.012 -1.288)"/><path fill="#E15539" d="M404.272 119.496c2.876.938 2.876.938 4.002 1.501.312 1.031.312 1.031.5 2.001-2.211-.675-3.173-1.632-4.502-3.502Z" style="stroke-width:1px" transform="translate(-2.012 -1.288)"/><path fill="#401A14" d="M334.729 457.702c1.313.188 1.313.188 2.502.5l-.501 1.502-2.501.499-.501-1.5 1.001-1.001Z" style="stroke-width:1px" transform="translate(-2.012 -1.288)"/><path fill="#45160C" d="M131.605 442.693h2.502l-.501 2.001h-4.503v-.5h2.502v-1.501Z" style="stroke-width:1px" transform="translate(-2.012 -1.288)"/><path fill="#F7BA62" d="M181.636 285.097c.5 1.501.5 1.501.002 2.632l-.721 1.214-.718 1.226-.565.932c-.5-1.001-.5-1.001-.031-2.564l.532-1.439h1l.501-2.001Z" style="stroke-width:1px" transform="translate(-2.012 -1.288)"/><path fill="#9D2D1F" d="m297.206 203.547 1.001.501v2.501l-.501-1.501h-1v4.503h-.5v-5.503l1-.501Z" style="stroke-width:1px" transform="translate(-2.012 -1.288)"/><path fill="#71412C" d="M316.718 86.475c1.157-.125 1.157-.125 2.502 0 .907 1 .907 1 1.5 2.001l-1.5.501-1.502-1.001v-1.001l-1-.5Z" style="stroke-width:1px" transform="translate(-2.012 -1.288)"/><path fill="#1A1E29" d="M321.221 50.953c1.486.167 2.972.333 4.503.499v1.003c-1.321.166-2.642.327-4.003.499l-.5-2.001Z" style="stroke-width:1px" transform="translate(-2.012 -1.288)"/><path fill="#4D2218" d="m389.262 445.195 1.001.5-1.501 1-1.001 1.502h-2.001v-1.001c2.638-1.613 2.638-1.613 3.502-2.001Z" style="stroke-width:1px" transform="translate(-2.012 -1.288)"/><path fill="#2E323D" d="m410.275 325.121 1.501.501c.094 1.438.094 1.438 0 3.002l-1.501 1c-.554-1.663-.422-2.813 0-4.503Z" style="stroke-width:1px" transform="translate(-2.012 -1.288)"/><path fill="#764435" d="M207.151 264.584h1.001c-.538 1.459-.89 2.391-2.001 3.503-1.064-.188-1.064-.188-2.002-.501l1.22-.938c1.302-.934 1.302-.934 1.782-2.064Z" style="stroke-width:1px" transform="translate(-2.012 -1.288)"/><path fill="#F35C3E" d="M305.712 182.534c.494.496.99.991 1.5 1.501l-2.001 3.502c-.637-1.274-.401-1.715-.031-3.064l.294-1.098.238-.841Z" style="stroke-width:1px" transform="translate(-2.012 -1.288)"/><path fill="#E7543A" d="M411.276 201.546h1v3.502l-1 .5c-.563-2.876-.563-2.876 0-4.002Z" style="stroke-width:1px" transform="translate(-2.012 -1.288)"/><path fill="#322524" d="M387.761 70.465h1.001l1.001 4.503c-2.002-2.251-2.002-2.251-2.002-4.503Z" style="stroke-width:1px" transform="translate(-2.012 -1.288)"/><path fill="#4F2016" d="m384.259 448.696 1.001.501c-.125.938-.125.938-.501 2.001-1.031.625-1.031.625-2.001 1.001.375-2.377.375-2.377 1.501-3.503Z" style="stroke-width:1px" transform="translate(-2.012 -1.288)"/><path fill="#41170C" d="m173.13 298.105 1.001.5-2.001 2.501-2.001-.5 3.001-2.501Z" style="stroke-width:1px" transform="translate(-2.012 -1.288)"/><path fill="#E65537" d="m422.783 158.02 2.501.499c-.593.751-.593.751-1.501 1.502-1.344.093-1.344.093-2.501 0v-1.001h1.501v-1Z" style="stroke-width:1px" transform="translate(-2.012 -1.288)"/><path fill="#8D5945" d="M368.249 71.966c1.846.25 2.804.551 4.003 2.001-1.085-.25-2.001-.5-3.002-1.001l-.5 1.001-.501-2.001Z" style="stroke-width:1px" transform="translate(-2.012 -1.288)"/></svg>