<?xml version="1.0" encoding="utf-8"?>
<svg xmlns="http://www.w3.org/2000/svg" viewBox="108.204 96.323 279.648 280.162">
  <g style="" transform="matrix(0.289512, 0, 0, 0.289512, -77.775726, 208.085587)">
    <path d="M 1047.37 -360.94 C 1053.32 -355.38 1057.3 -348.92 1058.24 -340.74 C 1058.6 -329.56 1054.39 -318.96 1050 -308.83 C 1050.78 -308.79 1051.57 -308.75 1052.37 -308.7 C 1059.7 -306.93 1066.07 -302.48 1071 -296.83 C 1071.68 -296.06 1072.36 -295.3 1073.06 -294.51 C 1080.49 -284.21 1082.03 -273.85 1080.6 -261.39 C 1078.05 -245.86 1071.14 -232.35 1060.29 -221 C 1057.55 -217.21 1057.5 -215.9 1058 -211.33 C 1058.06 -210.65 1058.12 -209.96 1058.18 -209.26 C 1058.51 -205.81 1058.93 -202.37 1059.36 -198.93 C 1061.51 -181.68 1062.32 -164.7 1062.37 -147.33 C 1062.38 -146.32 1062.39 -145.32 1062.4 -144.29 C 1062.65 -102.5 1052.67 -59.391 1022.7 -28.534 C 1021.81 -27.641 1020.92 -26.748 1020 -25.827 C 1019.21 -25.027 1018.42 -24.226 1017.61 -23.401 C 1007.43 -13.646 994.842 -7.35 981.998 -1.827 C 981.998 -0.177 981.998 1.473 981.998 3.173 C 983.144 3.384 984.291 3.595 985.472 3.812 C 1041.46 14.145 1083.55 26.579 1124.5 67.485 C 1125.02 68.003 1125.54 68.521 1126.07 69.054 C 1131.93 74.915 1137.61 80.869 1143 87.173 C 1144.45 88.78 1145.91 90.385 1147.37 91.985 C 1151.25 96.279 1154.92 100.704 1158.56 105.2 C 1161.28 108.51 1164.07 111.748 1166.87 114.985 C 1171.84 120.735 1176.57 126.631 1181.23 132.63 C 1183.55 135.607 1185.9 138.546 1188.28 141.477 C 1193.58 148.04 1198.7 154.722 1203.75 161.485 C 1206.16 164.715 1208.58 167.944 1211 171.173 C 1211.45 171.782 1211.91 172.392 1212.38 173.019 C 1213.47 174.475 1214.58 175.918 1215.68 177.36 C 1216.25 178.096 1216.81 178.832 1217.38 179.591 C 1218.92 181.231 1218.92 181.231 1220.82 182.22 C 1224.45 182.142 1226.58 179.57 1229.12 177.235 C 1230.29 176.204 1231.46 175.174 1232.63 174.145 C 1233.21 173.635 1233.78 173.125 1234.37 172.599 C 1238.12 169.305 1242.08 166.261 1246 163.173 C 1246.98 162.389 1247.97 161.605 1248.99 160.798 C 1264.63 148.417 1280.52 136.388 1296.74 124.789 C 1299.14 123.073 1301.52 121.347 1303.91 119.618 C 1304.72 119.031 1305.53 118.444 1306.36 117.84 C 1307.9 116.722 1309.45 115.604 1310.99 114.485 C 1312.36 113.488 1313.74 112.496 1315.13 111.509 C 1316.81 110.305 1318.48 109.078 1320.15 107.849 C 1323.26 106.017 1325.29 105.598 1328.87 105.423 C 1329.84 105.366 1330.81 105.309 1331.8 105.251 C 1332.53 105.225 1333.25 105.199 1334 105.173 C 1334.32 104.31 1334.63 103.448 1334.96 102.56 C 1345.01 76.276 1360 57.154 1379.68 37.36 C 1380.39 36.655 1381.09 35.949 1381.81 35.223 C 1385.1 31.941 1388.43 28.755 1391.95 25.72 C 1396.53 21.767 1400.79 17.523 1405.06 13.235 C 1405.82 12.475 1406.59 11.715 1407.38 10.933 C 1411.6 6.698 1415.64 2.386 1419.49 -2.201 C 1421.44 -4.307 1423.18 -5.68 1426.05 -6.198 C 1430.41 -6.326 1432.55 -6.101 1436.37 -3.765 C 1441.49 1.96 1442.56 7.423 1442.5 14.86 C 1442.49 15.652 1442.49 16.444 1442.48 17.259 C 1442.27 24.381 1440.46 29.932 1437 36.173 C 1436.43 37.213 1435.87 38.253 1435.28 39.325 C 1432.16 44.849 1428.8 50.099 1425 55.173 C 1426.76 54.709 1426.76 54.709 1428.56 54.235 C 1432.76 53.278 1436.76 53.015 1441.06 52.86 C 1453.57 52.112 1464.3 47.666 1475.46 42.254 C 1497.34 31.729 1521.45 25.913 1544.93 20.11 C 1545.74 19.906 1546.54 19.703 1547.37 19.493 C 1553.87 17.949 1560.28 16.765 1566.37 19.923 C 1570.68 23.618 1570.68 23.618 1572 26.173 C 1572.04 28.506 1572.05 30.84 1572 33.173 C 1573.14 33.138 1574.29 33.103 1575.47 33.067 C 1577 33.039 1578.53 33.012 1580.06 32.985 C 1581.19 32.948 1581.19 32.948 1582.34 32.909 C 1589.09 32.821 1593.7 34.129 1598.87 38.735 C 1601.58 41.838 1602.22 43.27 1602 47.298 C 1601.3 53.053 1598.16 56.364 1594 60.173 C 1592.68 61.193 1591.35 62.199 1590 63.173 C 1590.93 63.544 1590.93 63.544 1591.87 63.923 C 1594.43 65.43 1594.92 66.438 1596 69.173 C 1596.35 75.334 1594.62 81.21 1591 86.173 C 1586.15 91.265 1581.4 95.215 1575 98.173 C 1575.09 98.767 1575.18 99.361 1575.28 99.974 C 1575.89 107.035 1573.97 111.004 1569.56 116.458 C 1539.5 148.308 1485.97 163.912 1443.62 168.028 C 1442.14 168.18 1440.66 168.331 1439.18 168.483 C 1436.29 168.779 1433.39 169.028 1430.49 169.251 C 1421.05 170.116 1415.85 172.709 1409 179.173 C 1406.05 181.264 1403.04 183.232 1400 185.173 C 1401.98 186.163 1403.96 187.153 1406 188.173 C 1406.56 193.605 1404.9 196.511 1401.68 200.673 C 1401.24 201.275 1400.79 201.878 1400.33 202.498 C 1398.9 204.404 1397.45 206.29 1396 208.173 C 1395.53 208.778 1395.07 209.383 1394.59 210.006 C 1391.44 214.099 1388.23 218.145 1385 222.173 C 1384.26 223.096 1383.52 224.019 1382.76 224.97 C 1378.39 230.368 1373.9 235.661 1369.37 240.923 C 1368.85 241.537 1368.32 242.151 1367.78 242.784 C 1364.58 246.477 1361.24 249.952 1357.76 253.379 C 1355.99 255.177 1354.35 257.038 1352.71 258.95 C 1348.24 264.124 1343.4 268.914 1338.56 273.735 C 1337.66 274.642 1336.75 275.549 1335.82 276.483 C 1330.71 281.59 1325.48 286.472 1320 291.173 C 1318.39 292.627 1316.79 294.085 1315.18 295.548 C 1300.64 308.635 1285.14 320.694 1268 330.173 C 1267.11 330.666 1267.11 330.666 1266.21 331.169 C 1250.22 339.953 1233.62 343.536 1215.5 343.485 C 1214.35 343.501 1213.21 343.518 1212.03 343.534 C 1186.58 343.549 1165.13 328.637 1147 312.173 C 1146.09 311.366 1145.19 310.559 1144.26 309.727 C 1142.62 308.266 1140.99 306.799 1139.37 305.325 C 1137.72 303.83 1136.07 302.344 1134.41 300.864 C 1129.95 296.893 1125.61 292.883 1121.47 288.583 C 1119.85 286.946 1119.85 286.946 1117 285.173 C 1117 284.513 1117 283.853 1117 283.173 C 1116.34 283.503 1115.68 283.833 1115 284.173 C 1114.78 291.183 1115.67 297.86 1116.62 304.798 C 1118.77 320.993 1120.36 337.246 1121.93 353.505 C 1122.12 355.515 1122.32 357.525 1122.51 359.535 C 1127.38 409.756 1127.38 409.756 1127.12 429.798 C 1127.11 431.221 1127.1 432.644 1127.1 434.067 C 1127.07 437.436 1127.04 440.804 1127 444.173 C 1124.35 445.633 1123.1 446.173 1120 446.173 C 1120.09 447.051 1120.09 447.051 1120.19 447.946 C 1123.34 476.792 1126.32 505.638 1128.81 534.548 C 1128.97 536.355 1128.97 536.355 1129.13 538.2 C 1129.43 541.677 1129.72 545.155 1130.02 548.634 C 1130.1 549.624 1130.19 550.613 1130.28 551.633 C 1131.06 561.146 1131.49 570.625 1132 580.173 C 1003.63 580.173 875.258 580.173 742.998 580.173 C 742.998 562.888 742.998 562.888 743.881 554.169 C 743.975 553.182 744.07 552.195 744.168 551.178 C 744.478 547.988 744.8 544.799 745.123 541.61 C 745.232 540.511 745.34 539.412 745.452 538.28 C 747.292 519.713 749.545 501.213 752.117 482.733 C 752.243 481.817 752.369 480.902 752.498 479.958 C 752.73 478.273 752.967 476.588 753.211 474.904 C 754.751 465.848 754.751 465.848 752.998 457.173 C 753.421 454.361 753.904 451.589 754.435 448.798 C 755.749 441.521 756.39 434.586 755.998 427.173 C 754.93 427.101 753.863 427.028 752.763 426.954 C 746.76 426.195 741.342 423.889 735.748 421.673 C 734.603 421.224 733.459 420.776 732.28 420.314 C 711.113 411.937 691.176 403.571 674.998 387.173 C 674.321 386.495 673.644 385.817 672.947 385.118 C 649.106 359.639 647.91 320.455 648.896 287.709 C 650.165 256.232 655.358 224.172 662.462 193.51 C 663.07 190.857 663.646 188.199 664.224 185.54 C 675.183 136.402 695.37 85.249 736.998 54.173 C 738.006 53.399 739.014 52.626 740.052 51.829 C 759.724 37.038 781.962 26.827 804.873 18.173 C 805.989 17.75 807.106 17.327 808.257 16.892 C 814.515 14.595 820.75 12.656 827.217 11.067 C 841.24 8.539 841.24 8.539 851.927 0.626 C 853.488 -3.109 853.758 -6.798 853.998 -10.827 C 854.323 -12.412 854.668 -13.992 855.029 -15.569 C 856.203 -21.238 856.3 -26.742 856.248 -32.515 C 856.244 -33.562 856.24 -34.609 856.236 -35.688 C 856.156 -42.876 855.612 -49.815 854.435 -56.901 C 854.032 -59.599 853.917 -62.106 853.998 -64.827 C 853.276 -64.827 852.554 -64.827 851.81 -64.827 C 847.339 -66.417 846.02 -69.69 843.998 -73.827 C 838.998 -85.457 838.998 -85.457 838.998 -89.827 C 837.947 -89.781 836.897 -89.734 835.814 -89.687 C 827.687 -89.435 821.108 -89.387 813.998 -93.827 C 812.925 -94.467 811.853 -95.106 810.748 -95.765 C 807.851 -97.937 805.467 -100.18 802.998 -102.83 C 802.463 -103.34 801.928 -103.86 801.377 -104.4 C 790.813 -115.27 786.184 -131.05 785.56 -145.89 C 785.986 -158.18 790.178 -166.43 798.998 -174.83 C 799.658 -175.49 800.318 -176.15 800.998 -176.83 C 800.615 -184.53 798.733 -191.95 796.998 -199.45 C 790.467 -227.85 791.08 -253.03 806.498 -278.28 C 814.462 -289.75 826.705 -298.18 840.373 -301.08 C 845.958 -302.55 848.024 -306.35 851.095 -311 C 860.967 -325.69 878.651 -334.93 893.998 -342.83 C 894.719 -343.2 895.439 -343.57 896.182 -343.96 C 935.223 -363.93 1007.37 -392.71 1047.37 -360.94 Z" fill="#EC623E" style="stroke-width: 1px;"/>
    <path d="M 1047.37 -360.94 C 1053.32 -355.38 1057.3 -348.92 1058.24 -340.74 C 1058.6 -329.56 1054.39 -318.96 1050 -308.83 C 1050.78 -308.79 1051.57 -308.75 1052.37 -308.7 C 1059.7 -306.93 1066.07 -302.48 1071 -296.83 C 1071.68 -296.06 1072.36 -295.3 1073.06 -294.51 C 1080.49 -284.21 1082.03 -273.85 1080.6 -261.39 C 1078.05 -245.86 1071.14 -232.35 1060.29 -221 C 1057.55 -217.21 1057.5 -215.9 1058 -211.33 C 1058.06 -210.65 1058.12 -209.96 1058.18 -209.26 C 1058.51 -205.81 1058.93 -202.37 1059.36 -198.93 C 1061.51 -181.68 1062.32 -164.7 1062.37 -147.33 C 1062.38 -146.32 1062.39 -145.32 1062.4 -144.29 C 1062.65 -102.5 1052.67 -59.391 1022.7 -28.534 C 1021.81 -27.641 1020.92 -26.748 1020 -25.827 C 1019.21 -25.027 1018.42 -24.226 1017.61 -23.401 C 1007.43 -13.646 994.842 -7.35 981.998 -1.827 C 981.988 -1.229 981.979 -0.63 981.969 -0.014 C 981.647 16.44 980.855 33.392 969.08 46.27 C 957.309 56.994 943.682 59.055 928.193 58.583 C 903.403 57.105 878.927 43.935 861.998 26.173 C 859.339 22.993 857.136 19.718 854.998 16.173 C 854.361 15.26 853.724 14.347 853.068 13.407 C 850.206 8.812 848.692 5.88 849.67 0.427 C 850.473 -2.136 851.445 -4.508 852.498 -6.991 C 855.943 -15.234 856.327 -23.685 856.248 -32.515 C 856.244 -33.562 856.24 -34.609 856.236 -35.688 C 856.156 -42.876 855.612 -49.815 854.435 -56.901 C 854.032 -59.599 853.917 -62.106 853.998 -64.827 C 853.276 -64.827 852.554 -64.827 851.81 -64.827 C 847.339 -66.417 846.02 -69.69 843.998 -73.827 C 838.998 -85.457 838.998 -85.457 838.998 -89.827 C 837.947 -89.781 836.897 -89.734 835.814 -89.687 C 827.687 -89.435 821.108 -89.387 813.998 -93.827 C 812.925 -94.467 811.853 -95.106 810.748 -95.765 C 807.851 -97.937 805.467 -100.18 802.998 -102.83 C 802.463 -103.34 801.928 -103.86 801.377 -104.4 C 790.813 -115.27 786.184 -131.05 785.56 -145.89 C 785.986 -158.18 790.178 -166.43 798.998 -174.83 C 799.988 -175.82 799.988 -175.82 800.998 -176.83 C 800.615 -184.53 798.733 -191.95 796.998 -199.45 C 790.467 -227.85 791.08 -253.03 806.498 -278.28 C 814.462 -289.75 826.705 -298.18 840.373 -301.08 C 845.958 -302.55 848.024 -306.35 851.095 -311 C 860.967 -325.69 878.651 -334.93 893.998 -342.83 C 894.719 -343.2 895.439 -343.57 896.182 -343.96 C 935.223 -363.93 1007.37 -392.71 1047.37 -360.94 Z" fill="#F6A678" style="stroke-width: 1px;"/>
    <path d="M 1120 447.173 C 1123.25 476.252 1126.3 505.332 1128.81 534.485 C 1128.97 536.296 1128.97 536.296 1129.13 538.142 C 1129.43 541.627 1129.72 545.113 1130.02 548.599 C 1130.1 549.592 1130.19 550.585 1130.28 551.608 C 1131.06 561.129 1131.49 570.617 1132 580.173 C 1003.63 580.173 875.258 580.173 742.998 580.173 C 742.998 562.885 742.998 562.885 743.845 554.485 C 743.938 553.523 744.03 552.56 744.124 551.568 C 744.428 548.435 744.743 545.304 745.06 542.173 C 745.167 541.091 745.275 540.01 745.385 538.896 C 748.031 512.254 751.468 485.71 754.998 459.173 C 756.087 459.433 757.177 459.694 758.299 459.962 C 790.294 467.576 822.588 472.355 855.31 475.423 C 856.185 475.506 857.06 475.589 857.961 475.674 C 878.403 477.591 898.844 478.407 919.373 478.423 C 920.33 478.424 921.287 478.425 922.273 478.426 C 942.613 478.412 962.764 477.195 982.998 475.173 C 983.727 475.1 984.456 475.028 985.208 474.953 C 1028.27 470.611 1075.81 464.799 1115.93 447.951 C 1118 447.173 1118 447.173 1120 447.173 Z" fill="#175087" style="stroke-width: 1px;"/>
    <path d="M 1433 -5.827 C 1437.95 -2.799 1440.32 0.705 1442 6.173 C 1442.45 9.081 1442.52 11.92 1442.5 14.86 C 1442.49 15.652 1442.49 16.444 1442.48 17.259 C 1442.27 24.381 1440.46 29.932 1437 36.173 C 1436.43 37.213 1435.87 38.253 1435.28 39.325 C 1432.16 44.849 1428.8 50.099 1425 55.173 C 1426.17 54.863 1427.35 54.554 1428.56 54.235 C 1432.76 53.278 1436.76 53.015 1441.06 52.86 C 1453.57 52.112 1464.3 47.666 1475.46 42.254 C 1497.34 31.729 1521.45 25.913 1544.93 20.11 C 1545.74 19.906 1546.54 19.703 1547.37 19.493 C 1553.87 17.949 1560.28 16.765 1566.37 19.923 C 1570.68 23.618 1570.68 23.618 1572 26.173 C 1572.04 28.506 1572.05 30.84 1572 33.173 C 1573.72 33.121 1573.72 33.121 1575.47 33.067 C 1577 33.039 1578.53 33.012 1580.06 32.985 C 1580.81 32.96 1581.57 32.935 1582.34 32.909 C 1589.09 32.821 1593.7 34.129 1598.87 38.735 C 1601.58 41.838 1602.22 43.27 1602 47.298 C 1601.3 53.053 1598.16 56.364 1594 60.173 C 1592.68 61.193 1591.35 62.199 1590 63.173 C 1590.62 63.42 1591.23 63.668 1591.87 63.923 C 1594.43 65.43 1594.92 66.438 1596 69.173 C 1596.35 75.334 1594.62 81.21 1591 86.173 C 1586.15 91.265 1581.4 95.215 1575 98.173 C 1575.09 98.767 1575.18 99.361 1575.28 99.974 C 1575.89 107.035 1573.97 111.004 1569.56 116.458 C 1539.5 148.308 1485.97 163.912 1443.62 168.028 C 1442.14 168.18 1440.66 168.331 1439.18 168.483 C 1436.29 168.779 1433.39 169.028 1430.49 169.251 C 1421.06 170.114 1415.83 172.684 1409 179.173 C 1407.01 180.623 1404.97 181.88 1402.87 183.173 C 1401.94 183.75 1401.01 184.328 1400.05 184.923 C 1399.37 185.335 1398.7 185.748 1398 186.173 C 1397.43 185.417 1396.86 184.662 1396.27 183.884 C 1394.18 181.394 1392.28 179.709 1389.68 177.798 C 1379.44 169.781 1370.2 160.195 1362.22 149.931 C 1360.29 147.537 1358.3 145.271 1356.23 142.993 C 1351.92 138.176 1348.03 133.11 1344.18 127.923 C 1343.2 126.616 1343.2 126.616 1342.2 125.282 C 1333.84 114.076 1333.84 114.076 1333 108.173 C 1329.7 107.843 1326.4 107.513 1323 107.173 C 1323 106.843 1323 106.513 1323 106.173 C 1328.44 105.678 1328.44 105.678 1334 105.173 C 1334.32 104.31 1334.63 103.448 1334.96 102.56 C 1345.01 76.276 1360 57.154 1379.68 37.36 C 1380.39 36.655 1381.09 35.949 1381.81 35.223 C 1385.1 31.941 1388.43 28.755 1391.95 25.72 C 1396.53 21.767 1400.79 17.523 1405.06 13.235 C 1405.82 12.475 1406.59 11.715 1407.38 10.933 C 1411.6 6.698 1415.64 2.386 1419.49 -2.2 C 1423.48 -6.503 1427.47 -6.733 1433 -5.827 Z" fill="#F6A577" style="stroke-width: 1px;"/>
    <path d="M 1047.37 -360.94 C 1053.32 -355.38 1057.3 -348.92 1058.24 -340.74 C 1058.6 -329.56 1054.39 -318.96 1050 -308.83 C 1050.78 -308.79 1051.57 -308.75 1052.37 -308.7 C 1059.7 -306.93 1066.07 -302.48 1071 -296.83 C 1071.68 -296.06 1072.36 -295.3 1073.06 -294.51 C 1080.49 -284.21 1082.03 -273.85 1080.6 -261.39 C 1078.31 -247.43 1072.45 -234.41 1063 -223.83 C 1062.42 -223.14 1061.85 -222.45 1061.26 -221.74 C 1059.88 -220.07 1058.44 -218.44 1057 -216.83 C 1056.67 -216.83 1056.34 -216.83 1056 -216.83 C 1055.76 -217.98 1055.76 -217.98 1055.53 -219.16 C 1049.1 -253.52 1049.1 -253.52 1031 -282.83 C 1027.85 -283.17 1027.85 -283.17 1025.75 -280.7 C 1024.84 -279.75 1023.93 -278.81 1023 -277.83 C 1002.34 -257.17 970.057 -252.55 942.301 -252.44 C 915.798 -252.46 892.824 -258.75 870.998 -273.83 C 871.007 -273.27 871.016 -272.71 871.025 -272.13 C 871.832 -218.92 871.832 -218.92 866.998 -199.83 C 866.811 -199.06 866.623 -198.29 866.43 -197.5 C 863.527 -185.97 859.089 -173.87 849.998 -165.83 C 847.56 -165.58 847.56 -165.58 844.998 -166.83 C 843.496 -168.48 842.131 -170.22 840.74 -171.98 C 835.957 -177.06 829.465 -179.66 822.607 -180 C 815.779 -180.03 809.552 -179.97 802.998 -177.83 C 800.093 -184.85 798.472 -191.98 796.873 -199.39 C 796.476 -201.18 796.476 -201.18 796.072 -203 C 790.141 -230.09 791.938 -254.44 806.498 -278.28 C 814.462 -289.75 826.705 -298.18 840.373 -301.08 C 845.958 -302.55 848.024 -306.35 851.095 -311 C 860.967 -325.69 878.651 -334.93 893.998 -342.83 C 894.719 -343.2 895.439 -343.57 896.182 -343.96 C 935.223 -363.93 1007.37 -392.71 1047.37 -360.94 Z" fill="#372E43" style="stroke-width: 1px;"/>
    <path d="M 1007.71 369.579 C 1015.72 377.189 1024.65 387.711 1025.5 399.235 C 1024.87 404.222 1023.48 405.687 1020 409.173 C 1016.45 407.682 1014.41 405.67 1011.81 402.86 C 998.721 389.52 982.569 379.123 966.185 370.298 C 965.504 369.928 964.823 369.559 964.121 369.178 C 956.964 365.419 950.163 362.652 941.998 363.173 C 942.216 365.128 942.216 365.128 942.998 367.173 C 944.614 368.31 944.614 368.31 946.689 368.997 C 947.461 369.299 948.233 369.6 949.029 369.911 C 949.864 370.224 950.7 370.537 951.56 370.86 C 965.728 376.509 978.078 383.65 989.998 393.173 C 990.87 393.853 991.743 394.534 992.642 395.235 C 995.121 397.184 997.565 399.168 999.998 401.173 C 1000.78 401.808 1001.57 402.444 1002.37 403.099 C 1008.07 407.904 1016.28 415.286 1017.24 423.126 C 1017.41 428.672 1016.88 431.896 1013 436.173 C 1010.69 437.902 1008.66 438.961 1006 440.173 C 1002.21 438.911 1001.8 437.615 999.685 434.298 C 987.176 416.726 960.01 400.739 938.998 396.173 C 936.599 395.976 934.409 396.019 931.998 396.173 C 932.133 398.119 932.133 398.119 932.998 400.173 C 935.087 401.492 935.087 401.492 937.748 402.399 C 938.741 402.786 939.734 403.173 940.757 403.571 C 941.826 403.976 942.896 404.381 943.998 404.798 C 963.021 412.36 988.927 424.586 998.685 443.735 C 1000.37 448.208 1000.52 452.618 998.998 457.173 C 997.035 459.599 996.043 460.158 992.998 461.173 C 991.522 461.29 990.041 461.348 988.56 461.36 C 987.798 461.374 987.037 461.389 986.252 461.403 C 983.706 461.143 982.154 460.538 979.998 459.173 C 979.091 457.763 978.186 456.352 977.291 454.935 C 966.514 440.251 940.561 426.809 922.998 423.173 C 920.286 423.522 920.286 423.522 917.998 424.173 C 917.998 425.493 917.998 426.813 917.998 428.173 C 918.586 428.404 919.174 428.634 919.779 428.872 C 962.41 445.7 962.41 445.7 972.998 462.173 C 973.382 465.481 973.292 466.707 971.498 469.548 C 967.928 471.868 964.988 470.915 960.998 470.173 C 957.33 469.382 953.696 468.477 950.06 467.548 C 949.013 467.282 947.965 467.016 946.885 466.742 C 927.916 461.887 909.167 456.393 890.49 450.517 C 885.96 449.092 881.423 447.69 876.875 446.323 C 874.187 445.514 871.501 444.699 868.814 443.884 C 866.911 443.309 865.005 442.744 863.098 442.179 C 861.949 441.829 860.799 441.479 859.615 441.118 C 858.6 440.814 857.586 440.51 856.54 440.197 C 853.972 439.162 852.659 438.365 850.998 436.173 C 850.242 431.021 852.029 427.457 854.435 423.048 C 857.621 416.973 860.51 410.837 863.248 404.548 C 867.719 394.42 872.968 384.799 878.358 375.138 C 880.125 371.943 881.858 368.733 883.584 365.517 C 884.174 364.417 884.765 363.317 885.374 362.184 C 886.521 360.045 887.666 357.905 888.809 355.764 C 889.328 354.8 889.846 353.837 890.381 352.845 C 890.838 351.99 891.296 351.135 891.768 350.254 C 893.599 347.156 894.553 346.29 898.088 345.356 C 936.907 337.829 977.272 342.598 1007.71 369.579 Z" fill="#F6A678" style="stroke-width: 1px;"/>
    <path d="M 804.998 156.173 C 807.473 156.668 807.473 156.668 809.998 157.173 C 809.422 164.493 808.503 171.68 807.31 178.923 C 805.349 191.225 803.785 203.562 802.248 215.923 C 798.949 242.406 795.005 268.789 790.998 295.173 C 792.011 295.42 793.025 295.668 794.069 295.923 C 826.133 303.805 863.497 313.138 890.185 333.36 C 894.102 336.24 896.401 337.765 901.31 337.298 C 902.878 336.943 904.44 336.565 905.998 336.173 C 913.589 334.921 921.194 334.93 928.873 334.923 C 929.563 334.922 930.253 334.921 930.965 334.921 C 962.141 334.969 992.49 343.759 1015 366.173 C 1015.81 366.954 1016.63 367.735 1017.47 368.54 C 1025.77 376.997 1032.38 387.731 1032.75 399.798 C 1032.41 405.153 1031.68 408.277 1028 412.173 C 1027.46 412.792 1026.92 413.41 1026.37 414.048 C 1025 415.173 1025 415.173 1023 415.173 C 1023.33 415.957 1023.66 416.74 1024 417.548 C 1025.47 422.879 1026.21 428.118 1024.12 433.384 C 1021 438.738 1016.45 444.172 1010.35 445.942 C 1009.18 446.551 1009.18 446.551 1008 447.173 C 1007.1 450.099 1007.1 450.099 1006.93 453.485 C 1006.5 458.69 1005.78 461.467 1002 465.173 C 997.161 468.367 993.209 468.557 987.623 468.36 C 986.887 468.347 986.151 468.333 985.392 468.319 C 983.594 468.284 981.796 468.23 979.998 468.173 C 979.338 469.493 978.678 470.813 977.998 472.173 C 975.688 472.173 973.378 472.173 970.998 472.173 C 971.174 471.567 971.351 470.961 971.533 470.337 C 972.416 466.085 972.699 463.343 970.412 459.528 C 958.399 445.809 940.717 437.252 923.623 431.643 C 921.435 430.876 921.435 430.876 917.998 429.173 C 916.873 426.595 916.873 426.595 916.998 424.173 C 917.658 423.513 918.318 422.853 918.998 422.173 C 924.826 422.463 929.688 424.431 934.998 426.735 C 935.829 427.093 936.661 427.451 937.518 427.82 C 952.752 434.479 973.137 443.452 980.998 459.173 C 986.027 460.849 990.939 460.816 995.998 459.235 C 998.655 456.495 999.055 454.463 999.244 450.696 C 998.307 441.088 991.03 434.073 983.998 428.173 C 979.199 424.526 974.136 421.315 968.998 418.173 C 968.05 417.587 968.05 417.587 967.083 416.989 C 958.238 411.577 949.174 407.396 939.472 403.735 C 938.658 403.427 937.844 403.119 937.006 402.802 C 935.917 402.401 935.917 402.401 934.807 401.991 C 932.998 401.173 932.998 401.173 930.998 399.173 C 931.373 397.048 931.373 397.048 931.998 395.173 C 937.292 394.907 941.488 395.685 946.373 397.61 C 947.061 397.878 947.75 398.145 948.459 398.42 C 969.597 406.893 991.496 419.756 1004 439.173 C 1008.99 437.895 1011.61 436.044 1015 432.173 C 1016.77 428.625 1016.63 425.038 1016 421.173 C 1014.39 417.839 1012.3 415.059 1010 412.173 C 1009.59 411.6 1009.18 411.028 1008.76 410.438 C 1003.71 403.86 996.579 399.103 989.998 394.173 C 989.419 393.735 988.841 393.297 988.245 392.846 C 975.857 383.514 962.893 375.972 948.405 370.379 C 943.181 368.356 943.181 368.356 940.998 366.173 C 941.373 364.048 941.373 364.048 941.998 362.173 C 960.939 359.97 984.34 379.274 998.373 390.298 C 1005.21 395.915 1011.84 401.811 1018 408.173 C 1021.16 406.803 1021.99 406.184 1024 403.173 C 1025.39 394.969 1021.39 387.89 1017 381.173 C 1000.77 359.402 976.152 348.465 949.998 344.173 C 943.824 343.313 937.728 342.979 931.498 342.985 C 930.206 342.986 930.206 342.986 928.887 342.988 C 920.499 343.066 912.281 343.827 903.998 345.173 C 903.232 345.256 902.465 345.34 901.676 345.426 C 897.192 346.073 897.192 346.073 893.574 348.602 C 892.31 350.569 891.302 352.556 890.31 354.673 C 889.476 356.306 888.642 357.939 887.806 359.571 C 887.363 360.464 886.919 361.357 886.462 362.277 C 884.305 366.543 882.003 370.726 879.712 374.922 C 871.279 390.399 863.428 405.989 856.233 422.078 C 855.827 422.985 855.42 423.891 855.002 424.825 C 854.639 425.64 854.276 426.454 853.902 427.294 C 852.998 429.173 852.998 429.173 851.998 430.173 C 850.332 430.213 848.664 430.216 846.998 430.173 C 847.483 423.829 848.573 418.733 851.123 412.923 C 851.465 412.129 851.807 411.335 852.159 410.518 C 860.181 392.375 869.828 374.809 879.786 357.668 C 882.888 352.299 885.611 346.897 887.998 341.173 C 854.983 319.063 814.057 309.303 776.013 299.622 C 775.2 299.415 774.387 299.207 773.549 298.994 C 769.631 297.996 765.712 297.008 761.787 296.039 C 760.386 295.688 758.985 295.337 757.584 294.985 C 756.357 294.682 755.13 294.379 753.866 294.067 C 750.998 293.173 750.998 293.173 748.998 291.173 C 749.373 289.048 749.373 289.048 749.998 287.173 C 757.159 286.885 763.368 287.911 770.31 289.61 C 771.285 289.84 772.261 290.07 773.265 290.308 C 777.183 291.235 781.092 292.195 784.998 293.173 C 784.98 292.59 784.962 292.007 784.944 291.406 C 784.827 284.542 785.541 277.987 786.537 271.204 C 786.779 269.497 786.779 269.497 787.026 267.756 C 787.552 264.061 788.087 260.367 788.623 256.673 C 788.99 254.108 789.356 251.543 789.721 248.978 C 790.458 243.819 791.198 238.661 791.942 233.503 C 792.888 226.941 793.826 220.377 794.76 213.813 C 795.507 208.563 796.254 203.312 797.006 198.061 C 797.117 197.286 797.228 196.511 797.342 195.712 C 797.561 194.194 797.78 192.675 798.001 191.157 C 798.608 186.971 799.182 182.783 799.726 178.589 C 799.851 177.647 799.977 176.706 800.106 175.736 C 800.347 173.925 800.58 172.113 800.804 170.3 C 801.506 165.103 802.702 160.894 804.998 156.173 Z" fill="#242A3E" style="stroke-width: 1px;"/>
    <path d="M 932.771 -96.722 C 936.004 -95.423 938.757 -93.465 941.623 -91.515 C 952.687 -84.183 962 -81.629 975.185 -81.515 C 976.284 -81.486 977.383 -81.457 978.515 -81.427 C 984.867 -81.378 989.559 -81.936 995.18 -84.988 C 996.998 -85.827 996.998 -85.827 1000.06 -85.577 C 1002 -84.827 1002 -84.827 1002.8 -83.19 C 1003 -80.827 1003 -80.827 1001.04 -78.058 C 1000.11 -77.028 999.153 -76.014 998.185 -75.015 C 997.68 -74.484 997.176 -73.954 996.656 -73.407 C 987.364 -63.881 976.997 -58.007 963.435 -57.265 C 953.921 -57.694 945.74 -62.073 938.967 -68.589 C 933.191 -75.155 928.597 -83.434 927.623 -92.202 C 927.747 -93.068 927.87 -93.935 927.998 -94.827 C 930.998 -96.827 930.998 -96.827 932.771 -96.722 Z" fill="#272A3E" style="stroke-width: 1px;"/>
    <path d="M 1090 135.173 C 1091.65 135.173 1093.3 135.173 1095 135.173 C 1097.27 140.735 1098.63 145.82 1099.39 151.763 C 1099.51 152.571 1099.62 153.38 1099.73 154.212 C 1099.97 155.944 1100.21 157.676 1100.44 159.408 C 1101.07 164.041 1101.73 168.67 1102.39 173.298 C 1102.53 174.229 1102.66 175.161 1102.8 176.121 C 1103.99 184.327 1105.45 192.465 1107 200.61 C 1112.06 227.46 1116.94 254.784 1117 282.173 C 1115.35 282.173 1113.7 282.173 1112 282.173 C 1110.25 278.318 1109.62 274.951 1109.24 270.743 C 1109.12 269.405 1108.99 268.067 1108.86 266.729 C 1108.79 266.012 1108.72 265.296 1108.65 264.557 C 1107.01 247.481 1104.44 230.591 1101.62 213.673 C 1101.43 212.492 1101.23 211.311 1101.03 210.094 C 1099.23 199.309 1097.4 188.53 1095.56 177.753 C 1094.99 174.473 1094.44 171.191 1093.88 167.91 C 1093.52 165.77 1093.14 163.633 1092.76 161.495 C 1091.26 152.706 1090.42 144.07 1090 135.173 Z" fill="#222B3F" style="stroke-width: 1px;"/>
    <path d="M 755.998 429.173 C 762.282 429.78 767.814 431.706 773.748 433.798 C 786.974 438.34 800.408 441.895 813.998 445.173 C 814.848 445.379 815.699 445.585 816.575 445.797 C 822.422 447.162 827.988 447.961 833.998 447.173 C 836.561 445.693 836.561 445.693 837.998 443.173 C 838.74 442.1 839.483 441.028 840.248 439.923 C 840.825 439.015 841.403 438.108 841.998 437.173 C 844.968 437.668 844.968 437.668 847.998 438.173 C 846.596 445.436 844.445 450.688 838.31 455.11 C 827.992 458.42 817.143 454.663 806.998 452.173 C 806.163 451.971 805.329 451.77 804.469 451.562 C 793.548 448.922 782.693 446.108 771.935 442.86 C 770.885 442.548 769.835 442.235 768.754 441.913 C 759.593 439.035 759.593 439.035 755.998 435.173 C 755.685 431.923 755.685 431.923 755.998 429.173 Z" fill="#252C3F" style="stroke-width: 1px;"/>
    <path d="M 929.873 -233.08 C 931.066 -233.1 932.26 -233.13 933.49 -233.16 C 938.268 -232.71 941.603 -231.22 944.998 -227.83 C 945.552 -221.73 945.552 -221.73 943.951 -219.12 C 940.971 -217.15 937.893 -217.51 934.435 -217.51 C 920.417 -217.08 907.989 -211.79 895.818 -205.15 C 892.998 -203.83 892.998 -203.83 888.998 -203.83 C 888.457 -206.92 888.495 -209.04 890.205 -211.73 C 900.273 -223.66 913.944 -232.87 929.873 -233.08 Z" fill="#322C42" style="stroke-width: 1px;"/>
    <path d="M 972.998 -193.83 C 977.704 -193.12 977.704 -193.12 978.998 -191.83 C 979.313 -189.84 979.621 -187.84 979.897 -185.85 C 982.089 -170.11 985.999 -156.61 993.814 -142.73 C 1000.82 -130.27 1000.82 -130.27 999.72 -124.06 C 997.293 -116.57 991.897 -112.69 985.267 -108.96 C 981.026 -106.85 977.688 -106.74 972.998 -106.83 C 972.503 -109.3 972.503 -109.3 971.998 -111.83 C 972.555 -112.05 973.112 -112.27 973.685 -112.49 C 980.463 -115.31 986.848 -118.6 990.998 -124.83 C 990.811 -131.17 989.05 -135.2 985.748 -140.51 C 976.23 -156.63 970.975 -174.03 971.998 -192.83 C 972.328 -193.16 972.658 -193.49 972.998 -193.83 Z" fill="#25283D" style="stroke-width: 1px;"/>
    <path d="M 1034.83 -234.27 C 1038.83 -231.61 1042.21 -228.54 1043.58 -223.82 C 1043.87 -221.89 1043.87 -221.89 1044 -218.83 C 1039.76 -217.58 1037.76 -218.06 1033.87 -220.08 C 1023.44 -225.07 1013.63 -227.09 1002 -225.83 C 999.216 -224.79 997.441 -223.58 994.998 -221.83 C 992.185 -220.95 992.185 -220.95 989.998 -220.83 C 987.998 -222.83 987.998 -222.83 987.623 -225.58 C 988.213 -230.69 990.706 -233.6 994.373 -237.08 C 1006.13 -244.91 1023.23 -240.59 1034.83 -234.27 Z" fill="#322C42" style="stroke-width: 1px;"/>
    <path d="M 888.998 -33.827 C 894.193 -33.827 896.874 -32.415 900.998 -29.265 C 923.744 -11.965 950.119 -7.618 977.998 -6.827 C 978.493 -4.847 978.493 -4.847 978.998 -2.827 C 970.314 2.962 955.342 1.102 945.541 -0.733 C 926.549 -4.823 899.33 -12.83 887.998 -29.827 C 888.373 -32.015 888.373 -32.015 888.998 -33.827 Z" fill="#26293D" style="stroke-width: 1px;"/>
    <path d="M 1329 114.173 C 1331.61 113.696 1331.61 113.696 1335 114.173 C 1337.49 116.391 1339.29 119.071 1341.18 121.798 C 1342.33 123.366 1343.48 124.934 1344.62 126.501 C 1345.47 127.683 1345.47 127.683 1346.34 128.89 C 1348.72 132.166 1351.18 135.366 1353.68 138.548 C 1354.13 139.116 1354.58 139.684 1355.04 140.269 C 1358.74 144.946 1362.68 149.355 1366.74 153.727 C 1368.69 155.838 1370.57 157.985 1372.43 160.173 C 1379.34 168.087 1386.72 175.296 1395.2 181.517 C 1395.79 182.063 1396.39 182.61 1397 183.173 C 1397 184.163 1397 185.153 1397 186.173 C 1394 188.173 1394 188.173 1391.67 188.114 C 1388.12 186.862 1385.84 184.691 1383.18 182.11 C 1382.63 181.584 1382.08 181.059 1381.51 180.517 C 1379.66 178.748 1377.83 176.962 1376 175.173 C 1375.33 174.527 1374.66 173.881 1373.98 173.216 C 1365.77 165.239 1358.05 157.2 1351 148.173 C 1349.56 146.463 1348.12 144.755 1346.68 143.048 C 1342.79 138.27 1339.11 133.357 1335.5 128.36 C 1334.97 127.643 1334.44 126.925 1333.89 126.186 C 1331.06 122.198 1329.31 119.205 1329 114.173 Z" fill="#232A3E" style="stroke-width: 1px;"/>
    <path d="M 1571 32.173 C 1571.49 34.153 1571.49 34.153 1572 36.173 C 1562.37 41.846 1551.59 44.694 1541 47.985 C 1539.02 48.607 1537.04 49.23 1535.06 49.854 C 1526.57 52.522 1518.08 55.157 1509.57 57.759 C 1507.79 58.304 1507.79 58.304 1505.97 58.861 C 1503.86 59.504 1501.74 60.143 1499.63 60.776 C 1495.65 61.976 1491.8 63.194 1488.01 64.899 C 1484.73 66.284 1483.33 66.282 1480 65.173 C 1479.62 62.923 1479.62 62.923 1480 60.173 C 1485.35 55.592 1491.93 54.058 1498.57 52.056 C 1499.8 51.676 1501.03 51.296 1502.3 50.905 C 1505.57 49.896 1508.85 48.899 1512.13 47.904 C 1515.39 46.911 1518.65 45.907 1521.92 44.903 C 1526.95 43.355 1531.99 41.819 1537.03 40.291 C 1541.39 38.971 1545.74 37.632 1550.08 36.266 C 1550.99 35.981 1551.91 35.697 1552.85 35.405 C 1554.5 34.891 1556.15 34.371 1557.79 33.842 C 1562.37 32.43 1566.2 31.927 1571 32.173 Z" fill="#26293D" style="stroke-width: 1px;"/>
    <path d="M 1580 60.173 C 1580.49 62.648 1580.49 62.648 1581 65.173 C 1573.62 69.355 1565.75 71.409 1557.62 73.61 C 1556.17 74.009 1554.73 74.408 1553.28 74.809 C 1550.45 75.59 1547.62 76.367 1544.79 77.139 C 1540.21 78.388 1535.63 79.653 1531.06 80.923 C 1530.38 81.111 1529.7 81.298 1529 81.492 C 1523.82 82.93 1518.66 84.415 1513.5 85.923 C 1512.77 86.134 1512.05 86.345 1511.3 86.562 C 1507.57 87.65 1507.57 87.65 1504 89.173 C 1501.33 89.307 1498.67 89.216 1496 89.173 C 1495.31 87.36 1495.31 87.36 1495 85.173 C 1497.45 81.7 1500.92 81.031 1504.85 79.856 C 1505.55 79.646 1506.25 79.436 1506.97 79.219 C 1517.31 76.135 1527.73 73.321 1538.15 70.478 C 1540.9 69.725 1543.65 68.968 1546.4 68.208 C 1547.29 67.962 1548.18 67.717 1549.09 67.464 C 1555.91 65.551 1562.62 63.366 1569.26 60.91 C 1573.22 59.505 1575.95 58.838 1580 60.173 Z" fill="#26293D" style="stroke-width: 1px;"/>
    <path d="M 1458.71 104.999 C 1465.1 107.026 1471.42 108.852 1478 110.173 C 1478.49 112.648 1478.49 112.648 1479 115.173 C 1472 118.673 1463.29 115.335 1456.4 113.12 C 1455.15 112.704 1453.91 112.289 1452.62 111.86 C 1428.5 103.213 1428.5 103.213 1403.99 107.102 C 1401.78 108.249 1401.78 108.249 1399 110.173 C 1396.31 109.798 1396.31 109.798 1394 109.173 C 1393.68 106.923 1393.68 106.923 1394 104.173 C 1412.85 86.842 1437.76 98.327 1458.71 104.999 Z" fill="#23283C" style="stroke-width: 1px;"/>
    <path d="M 923.998 -184.83 C 928.335 -182.57 931.132 -180.39 932.998 -175.83 C 933.616 -169.44 932.836 -164.33 928.666 -159.18 C 925.58 -156.68 921.855 -156.73 917.998 -156.83 C 913.833 -158.31 911.759 -160.88 909.728 -164.8 C 908.393 -168.51 908.295 -171.97 908.998 -175.83 C 912.594 -182.76 916.037 -185.79 923.998 -184.83 Z" fill="#292B3E" style="stroke-width: 1px;"/>
    <path d="M 1013.97 -189.22 C 1017.32 -188.57 1019.44 -187.02 1022 -184.83 C 1024.95 -180.18 1024.49 -175.14 1024 -169.83 C 1022.74 -166.12 1021.73 -164.44 1018.75 -161.95 C 1014.31 -160.13 1010.72 -160.16 1006.25 -161.89 C 1002.61 -165.03 1001.29 -168.47 1000.71 -173.11 C 1000.53 -177.86 1000.94 -181 1004 -184.83 C 1004.55 -185.59 1005.11 -186.35 1005.68 -187.14 C 1008.45 -189.16 1010.57 -189.4 1013.97 -189.22 Z" fill="#282A3E" style="stroke-width: 1px;"/>
    <path d="M 1567 94.173 C 1567.25 96.735 1567.25 96.735 1567 99.173 C 1565.13 101.038 1561.83 100.387 1559.34 100.474 C 1551.33 100.892 1544.17 102.828 1536.56 105.36 C 1535.29 105.768 1534.02 106.175 1532.75 106.581 C 1524.74 109.173 1516.85 111.969 1509.06 115.177 C 1505.86 116.218 1503.34 116.37 1500 116.173 C 1499.67 114.523 1499.34 112.873 1499 111.173 C 1503.85 108.242 1508.52 106.071 1513.88 104.263 C 1514.98 103.882 1514.98 103.882 1516.11 103.494 C 1517.66 102.962 1519.21 102.434 1520.77 101.909 C 1523.1 101.118 1525.43 100.313 1527.76 99.507 C 1558.94 88.803 1558.94 88.803 1567 94.173 Z" fill="#272B3E" style="stroke-width: 1px;"/>
    <path d="M 996.998 541.173 C 997.81 543.36 997.81 543.36 997.998 546.173 C 988.402 557.147 974.707 561.746 960.998 565.173 C 960.338 570.123 959.678 575.073 958.998 580.173 C 956.358 580.173 953.718 580.173 950.998 580.173 C 950.629 572.807 951.615 566.179 953.998 559.173 C 956.797 556.373 960.085 555.961 963.81 554.985 C 972.876 552.471 981.32 549.052 988.65 542.974 C 991.6 540.711 993.37 540.835 996.998 541.173 Z" fill="#272C40" style="stroke-width: 1px;"/>
    <path d="M 811.998 -157.83 C 820.35 -157.03 825.069 -151.34 830.244 -145.14 C 835.132 -138.64 840.406 -131.56 841.435 -123.33 C 840.998 -120.83 840.998 -120.83 838.998 -118.83 C 837.678 -118.83 836.358 -118.83 834.998 -118.83 C 834.634 -119.66 834.271 -120.5 833.896 -121.36 C 828.977 -132.37 823.868 -140.57 814.872 -148.58 C 813.314 -150.03 813.314 -150.03 810.998 -152.83 C 811.15 -155.69 811.15 -155.69 811.998 -157.83 Z" fill="#24283C" style="stroke-width: 1px;"/>
    <path d="M 839.998 -91.827 C 841.648 -91.827 843.298 -91.827 844.998 -91.827 C 849.364 -83.716 853.745 -75.289 852.998 -65.827 C 850.728 -65.909 850.728 -65.909 847.998 -66.827 C 846.5 -69.094 845.406 -71.067 844.31 -73.515 C 843.868 -74.434 843.868 -74.434 843.418 -75.372 C 838.329 -86.155 838.329 -86.155 839.998 -91.827 Z" fill="#232739" style="stroke-width: 1px;"/>
    <path d="M 1217 184.173 C 1219.06 184.61 1219.06 184.61 1221 185.173 C 1219.76 193.217 1214.8 200.136 1210.43 206.86 C 1209.9 207.689 1209.36 208.518 1208.81 209.372 C 1207 211.173 1207 211.173 1204.28 211.442 C 1203.53 211.353 1202.78 211.264 1202 211.173 C 1202.15 203.963 1205.81 199.8 1210 194.173 C 1211.13 192.493 1212.26 190.806 1213.37 189.11 C 1215.89 185.28 1215.89 185.28 1217 184.173 Z" fill="#232A3E" style="stroke-width: 1px;"/>
    <path d="M 1527 102.173 C 1526.34 103.493 1525.68 104.813 1525 106.173 C 1525.76 105.945 1526.52 105.716 1527.3 105.481 C 1528.79 105.05 1528.79 105.05 1530.31 104.61 C 1531.3 104.32 1532.28 104.03 1533.3 103.731 C 1536 103.173 1536 103.173 1539 104.173 C 1534.73 105.708 1530.46 107.224 1526.18 108.735 C 1524.97 109.173 1523.76 109.611 1522.5 110.061 C 1521.34 110.471 1520.18 110.88 1518.98 111.302 C 1517.37 111.875 1517.37 111.875 1515.72 112.46 C 1513 113.173 1513 113.173 1510 112.173 C 1511.65 111.843 1513.3 111.513 1515 111.173 C 1514.67 110.183 1514.34 109.193 1514 108.173 C 1514.66 107.513 1515.32 106.853 1516 106.173 C 1516.33 105.183 1516.66 104.193 1517 103.173 C 1520.65 101.549 1523.19 100.709 1527 102.173 Z" fill="#1B233A" style="stroke-width: 1px;"/>
    <path d="M 942.998 398.173 C 945.125 398.958 947.25 399.751 949.373 400.548 C 950.556 400.989 951.74 401.43 952.959 401.884 C 955.998 403.173 955.998 403.173 957.998 405.173 C 957.008 406.658 957.008 406.658 955.998 408.173 C 950.198 409.188 945.187 406.47 939.998 404.173 C 940.571 401.306 940.859 400.311 942.998 398.173 Z" fill="#2A2D3F" style="stroke-width: 1px;"/>
    <path d="M 804.998 156.173 C 806.648 156.503 808.298 156.833 809.998 157.173 C 809.884 158.944 809.756 160.715 809.623 162.485 C 809.553 163.471 809.484 164.458 809.412 165.474 C 808.998 168.173 808.998 168.173 806.998 171.173 C 806.338 169.853 805.678 168.533 804.998 167.173 C 804.668 167.173 804.338 167.173 803.998 167.173 C 802.748 159.548 802.748 159.548 804.998 156.173 Z" fill="#342F3D" style="stroke-width: 1px;"/>
    <path d="M 801.998 199.173 C 802.328 199.173 802.658 199.173 802.998 199.173 C 803.253 206.7 802.281 213.761 800.998 221.173 C 800.668 221.173 800.338 221.173 799.998 221.173 C 799.668 219.523 799.338 217.873 798.998 216.173 C 796.487 217.428 796.127 218.673 794.998 221.173 C 794.629 214.773 794.629 214.773 796.498 211.735 C 796.993 211.22 797.488 210.704 797.998 210.173 C 798.988 210.503 799.978 210.833 800.998 211.173 C 800.977 210.121 800.957 209.069 800.935 207.985 C 800.987 204.846 801.263 202.204 801.998 199.173 Z" fill="#172840" style="stroke-width: 1px;"/>
    <path d="M 991.998 358.173 C 1001.13 363.279 1007.88 369.607 1015 377.173 C 1014.34 377.833 1013.68 378.493 1013 379.173 C 1012.32 378.492 1011.64 377.812 1010.93 377.11 C 1010.48 376.653 1010.01 376.195 1009.54 375.724 C 1008.49 374.669 1007.45 373.603 1006.42 372.528 C 1002.48 368.451 998.307 365 993.72 361.653 C 993.152 361.165 992.584 360.676 991.998 360.173 C 991.998 359.513 991.998 358.853 991.998 358.173 Z" fill="#F46D40" style="stroke-width: 1px;"/>
    <path d="M 954.998 -6.827 C 962.588 -6.827 970.178 -6.827 977.998 -6.827 C 978.328 -5.507 978.658 -4.187 978.998 -2.827 C 975.909 -0.768 975.288 -0.588 971.81 -0.702 C 969.923 -0.764 969.923 -0.764 967.998 -0.827 C 967.998 -1.157 967.998 -1.487 967.998 -1.827 C 972.453 -2.322 972.453 -2.322 976.998 -2.827 C 976.668 -3.487 976.338 -4.147 975.998 -4.827 C 975.152 -4.816 974.307 -4.804 973.435 -4.792 C 967.182 -4.742 961.178 -4.858 954.998 -5.827 C 954.998 -6.157 954.998 -6.487 954.998 -6.827 Z" fill="#111B36" style="stroke-width: 1px;"/>
    <path d="M 1111 261.173 C 1111.99 261.503 1112.98 261.833 1114 262.173 C 1114.83 265.402 1115.14 268.539 1115.25 271.86 C 1115.27 272.627 1115.3 273.394 1115.33 274.185 C 1115.16 275.169 1115.16 275.169 1115 276.173 C 1114.01 276.833 1113.02 277.493 1112 278.173 C 1111.34 277.843 1110.68 277.513 1110 277.173 C 1110.33 271.893 1110.66 266.613 1111 261.173 Z" fill="#2E2E3E" style="stroke-width: 1px;"/>
    <path d="M 799.998 179.173 C 800.328 179.173 800.658 179.173 800.998 179.173 C 800.998 182.143 800.998 185.113 800.998 188.173 C 802.318 187.513 803.638 186.853 804.998 186.173 C 805.284 194.744 805.284 194.744 802.998 198.173 C 802.998 196.523 802.998 194.873 802.998 193.173 C 801.678 193.173 800.358 193.173 798.998 193.173 C 798.813 183.763 798.813 183.763 799.998 179.173 Z" fill="#18283F" style="stroke-width: 1px;"/>
    <path d="M 852.998 420.173 C 854.465 423.988 853.431 426.463 851.998 430.173 C 850.348 430.173 848.698 430.173 846.998 430.173 C 847.328 427.203 847.658 424.233 847.998 421.173 C 848.988 421.173 849.978 421.173 850.998 421.173 C 851.658 420.843 852.318 420.513 852.998 420.173 Z" fill="#2D2D3D" style="stroke-width: 1px;"/>
    <path d="M 797.998 215.173 C 798.658 215.503 799.318 215.833 799.998 216.173 C 800.412 218.239 800.412 218.239 800.623 220.735 C 800.698 221.562 800.772 222.388 800.849 223.239 C 800.898 223.877 800.947 224.515 800.998 225.173 C 800.379 224.987 799.76 224.802 799.123 224.61 C 796.956 223.936 796.956 223.936 794.998 225.173 C 793.643 222.464 793.933 220.163 793.998 217.173 C 795.873 216.11 795.873 216.11 797.998 215.173 Z" fill="#312F3F" style="stroke-width: 1px;"/>
    <path d="M 978.998 -114.83 C 979.658 -114.5 980.318 -114.17 980.998 -113.83 C 980.008 -113.17 979.018 -112.51 977.998 -111.83 C 978.658 -111.83 979.318 -111.83 979.998 -111.83 C 979.998 -111.17 979.998 -110.51 979.998 -109.83 C 979.338 -109.83 978.678 -109.83 977.998 -109.83 C 977.998 -108.84 977.998 -107.85 977.998 -106.83 C 976.348 -106.83 974.698 -106.83 972.998 -106.83 C 972.668 -108.48 972.338 -110.13 971.998 -111.83 C 974.301 -112.89 976.638 -113.89 978.998 -114.83 Z" fill="#20253B" style="stroke-width: 1px;"/>
    <path d="M 1055 -227.83 C 1055.99 -226.84 1056.98 -225.85 1058 -224.83 C 1059.98 -225.49 1061.96 -226.15 1064 -226.83 C 1062.33 -222.88 1059.82 -220.01 1057 -216.83 C 1056.67 -216.83 1056.34 -216.83 1056 -216.83 C 1055.67 -220.46 1055.34 -224.09 1055 -227.83 Z" fill="#24223A" style="stroke-width: 1px;"/>
    <path d="M 755.998 429.173 C 758.308 429.503 760.618 429.833 762.998 430.173 C 762.008 430.503 761.018 430.833 759.998 431.173 C 760.328 433.153 760.658 435.133 760.998 437.173 C 761.658 437.173 762.318 437.173 762.998 437.173 C 762.998 437.833 762.998 438.493 762.998 439.173 C 760.083 438.099 758.22 437.395 755.998 435.173 C 755.873 432.048 755.873 432.048 755.998 429.173 Z" fill="#36303D" style="stroke-width: 1px;"/>
    <path d="M 1457 105.173 C 1457.66 105.503 1458.32 105.833 1459 106.173 C 1461.33 107.178 1463.66 108.178 1466 109.173 C 1465.01 109.503 1464.02 109.833 1463 110.173 C 1463 110.833 1463 111.493 1463 112.173 C 1461.02 112.503 1459.04 112.833 1457 113.173 C 1455.87 107.423 1455.87 107.423 1457 105.173 Z" fill="#2C2E3F" style="stroke-width: 1px;"/>
    <path d="M 1096 149.173 C 1096.99 149.833 1097.98 150.493 1099 151.173 C 1098.67 153.813 1098.34 156.453 1098 159.173 C 1097.01 158.843 1096.02 158.513 1095 158.173 C 1095.33 159.823 1095.66 161.473 1096 163.173 C 1095.01 163.173 1094.02 163.173 1093 163.173 C 1093.59 158.304 1094.57 153.845 1096 149.173 Z" fill="#312E3D" style="stroke-width: 1px;"/>
    <path d="M 1391 181.173 C 1392.98 181.833 1394.96 182.493 1397 183.173 C 1397 184.163 1397 185.153 1397 186.173 C 1394 188.173 1394 188.173 1391.87 187.985 C 1391.25 187.717 1390.63 187.449 1390 187.173 C 1389.67 186.183 1389.34 185.193 1389 184.173 C 1389.66 183.183 1390.32 182.193 1391 181.173 Z" fill="#33303F" style="stroke-width: 1px;"/>
    <path d="M 1104 189.173 C 1105.39 193.349 1103.82 195.308 1102 199.173 C 1101.01 198.843 1100.02 198.513 1099 198.173 C 1100.62 191.423 1100.62 191.423 1104 189.173 Z" fill="#2A2D3E" style="stroke-width: 1px;"/>
    <path d="M 871.998 478.173 C 875.958 478.173 879.918 478.173 883.998 478.173 C 883.998 478.833 883.998 479.493 883.998 480.173 C 884.988 480.833 885.978 481.493 886.998 482.173 C 885.018 482.503 883.038 482.833 880.998 483.173 C 880.668 481.853 880.338 480.533 879.998 479.173 C 877.358 479.173 874.718 479.173 871.998 479.173 C 871.998 478.843 871.998 478.513 871.998 478.173 Z" fill="#0C5091" style="stroke-width: 1px;"/>
    <path d="M 1008 400.173 C 1011.7 401.595 1013.84 403.952 1016.43 406.833 C 1018.25 408.391 1019.66 408.766 1022 409.173 C 1021.34 409.833 1020.68 410.493 1020 411.173 C 1017.24 410.985 1016.13 410.301 1014.11 408.395 C 1013.52 407.683 1012.92 406.97 1012.31 406.235 C 1011.71 405.525 1011.11 404.815 1010.49 404.083 C 1009 402.173 1009 402.173 1008 400.173 Z" fill="#1C233B" style="stroke-width: 1px;"/>
    <path d="M 983.998 468.173 C 988.618 468.173 993.238 468.173 997.998 468.173 C 997.338 468.833 996.678 469.493 995.998 470.173 C 995.998 471.163 995.998 472.153 995.998 473.173 C 993.688 472.843 991.378 472.513 988.998 472.173 C 990.318 471.513 991.638 470.853 992.998 470.173 C 990.028 469.843 987.058 469.513 983.998 469.173 C 983.998 468.843 983.998 468.513 983.998 468.173 Z" fill="#D95E3F" style="stroke-width: 1px;"/>
    <path d="M 724.998 64.173 C 725.658 64.503 726.318 64.833 726.998 65.173 C 724.028 68.473 721.058 71.773 717.998 75.173 C 717.338 74.843 716.678 74.513 715.998 74.173 C 717.122 72.88 718.247 71.589 719.373 70.298 C 719.999 69.578 720.626 68.859 721.271 68.118 C 722.472 66.765 723.719 65.452 724.998 64.173 Z" fill="#EC5731" style="stroke-width: 1px;"/>
    <path d="M 1421 -3.827 C 1421.66 -3.167 1422.32 -2.507 1423 -1.827 C 1420.03 1.143 1417.06 4.113 1414 7.173 C 1413.34 6.843 1412.68 6.513 1412 6.173 C 1414.97 2.873 1417.94 -0.427 1421 -3.827 Z" fill="#F59D6B" style="stroke-width: 1px;"/>
    <path d="M 1229 177.173 C 1229.66 177.503 1230.32 177.833 1231 178.173 C 1230.17 178.896 1230.17 178.896 1229.32 179.634 C 1228.59 180.265 1227.87 180.897 1227.12 181.548 C 1226.4 182.174 1225.68 182.801 1224.94 183.446 C 1223.59 184.647 1222.28 185.894 1221 187.173 C 1220.01 185.853 1219.02 184.533 1218 183.173 C 1219.33 182.802 1219.33 182.802 1220.68 182.423 C 1224.1 181.133 1226.28 179.573 1229 177.173 Z" fill="#DD4E2B" style="stroke-width: 1px;"/>
    <path d="M 839.998 -91.827 C 842.373 -92.015 842.373 -92.015 844.998 -91.827 C 845.658 -90.837 846.318 -89.847 846.998 -88.827 C 846.668 -87.837 846.338 -86.847 845.998 -85.827 C 845.544 -86.487 845.09 -87.147 844.623 -87.827 C 844.087 -88.487 843.55 -89.147 842.998 -89.827 C 842.338 -89.827 841.678 -89.827 840.998 -89.827 C 840.998 -88.177 840.998 -86.527 840.998 -84.827 C 840.338 -85.487 839.678 -86.147 838.998 -86.827 C 839.373 -89.452 839.373 -89.452 839.998 -91.827 Z" fill="#161C31" style="stroke-width: 1px;"/>
    <path d="M 844.998 432.173 C 846.648 432.503 848.298 432.833 849.998 433.173 C 849.668 435.153 849.338 437.133 848.998 439.173 C 847.348 438.843 845.698 438.513 843.998 438.173 C 844.328 436.193 844.658 434.213 844.998 432.173 Z" fill="#DF593A" style="stroke-width: 1px;"/>
    <path d="M 918.998 422.173 C 920.673 422.459 922.342 422.791 923.998 423.173 C 921.536 426.988 921.536 426.988 918.81 427.923 C 918.212 428.005 917.614 428.088 916.998 428.173 C 917.873 423.298 917.873 423.298 918.998 422.173 Z" fill="#303041" style="stroke-width: 1px;"/>
    <path d="M 930.998 396.173 C 933.968 396.503 936.938 396.833 939.998 397.173 C 938.513 398.658 938.513 398.658 936.998 400.173 C 933.81 399.86 933.81 399.86 930.998 399.173 C 930.998 398.183 930.998 397.193 930.998 396.173 Z" fill="#292E3F" style="stroke-width: 1px;"/>
    <path d="M 887.998 475.173 C 886.29 477.279 885.476 478.111 882.736 478.466 C 881.936 478.431 881.135 478.396 880.31 478.36 C 879.098 478.32 879.098 478.32 877.861 478.278 C 876.939 478.226 876.939 478.226 875.998 478.173 C 875.998 477.843 875.998 477.513 875.998 477.173 C 880.117 475.88 883.666 474.91 887.998 475.173 Z" fill="#DC6040" style="stroke-width: 1px;"/>
    <path d="M 816.998 446.173 C 817.988 446.503 818.978 446.833 819.998 447.173 C 817.998 449.173 815.998 451.173 813.998 453.173 C 813.008 452.843 812.018 452.513 810.998 452.173 C 811.658 451.843 812.318 451.513 812.998 451.173 C 813.328 450.513 813.658 449.853 813.998 449.173 C 814.998 447.173 814.998 447.173 816.998 446.173 Z" fill="#322F40" style="stroke-width: 1px;"/>
    <path d="M 801.998 182.173 C 803.318 183.163 804.638 184.153 805.998 185.173 C 805.668 186.163 805.338 187.153 804.998 188.173 C 803.678 188.173 802.358 188.173 800.998 188.173 C 800.955 186.507 800.957 184.839 800.998 183.173 C 801.328 182.843 801.658 182.513 801.998 182.173 Z" fill="#2E2F3F" style="stroke-width: 1px;"/>
    <path d="M 1497 83.173 C 1497.99 83.503 1498.98 83.833 1500 84.173 C 1499.34 84.173 1498.68 84.173 1498 84.173 C 1498 85.493 1498 86.813 1498 88.173 C 1499.32 88.503 1500.64 88.833 1502 89.173 C 1500.02 89.173 1498.04 89.173 1496 89.173 C 1495.37 87.298 1495.37 87.298 1495 85.173 C 1495.66 84.513 1496.32 83.853 1497 83.173 Z" fill="#322E3E" style="stroke-width: 1px;"/>
    <path d="M 1027 -281.83 C 1027.33 -280.84 1027.66 -279.85 1028 -278.83 C 1025.69 -277.18 1023.38 -275.53 1021 -273.83 C 1020.34 -274.16 1019.68 -274.49 1019 -274.83 C 1021.64 -277.14 1024.28 -279.45 1027 -281.83 Z" fill="#F4B27D" style="stroke-width: 1px;"/>
    <path d="M 688.998 114.173 C 689.658 114.503 690.318 114.833 690.998 115.173 C 690.998 115.833 690.998 116.493 690.998 117.173 C 690.338 117.173 689.678 117.173 688.998 117.173 C 688.709 118.122 688.42 119.07 688.123 120.048 C 686.998 123.173 686.998 123.173 684.998 125.173 C 685.605 121.045 687.036 117.841 688.998 114.173 Z" fill="#EB522B" style="stroke-width: 1px;"/>
    <path d="M 714.998 75.173 C 714.998 79.562 712.87 80.942 709.998 84.173 C 709.338 83.843 708.678 83.513 707.998 83.173 C 710.308 80.533 712.618 77.893 714.998 75.173 Z" fill="#EA5029" style="stroke-width: 1px;"/>
    <path d="M 1022 -177.83 C 1022.66 -177.83 1023.32 -177.83 1024 -177.83 C 1024 -175.19 1024 -172.55 1024 -169.83 C 1023.01 -169.33 1023.01 -169.33 1022 -168.83 C 1020.87 -175.58 1020.87 -175.58 1022 -177.83 Z" fill="#181F39" style="stroke-width: 1px;"/>
    <path d="M 1405 179.173 C 1405.66 179.503 1406.32 179.833 1407 180.173 C 1402.54 183.143 1402.54 183.143 1398 186.173 C 1397.67 185.183 1397.34 184.193 1397 183.173 C 1398.13 182.698 1399.27 182.224 1400.43 181.735 C 1403.76 180.537 1403.76 180.537 1405 179.173 Z" fill="#F39E6E" style="stroke-width: 1px;"/>
    <path d="M 1500 112.173 C 1500.99 112.503 1501.98 112.833 1503 113.173 C 1503 113.833 1503 114.493 1503 115.173 C 1504.98 114.513 1506.96 113.853 1509 113.173 C 1507.87 114.673 1507.87 114.673 1506 116.173 C 1502.81 116.36 1502.81 116.36 1500 116.173 C 1500 114.853 1500 113.533 1500 112.173 Z" fill="#1C233B" style="stroke-width: 1px;"/>
    <path d="M 1363 55.173 C 1363 59.562 1360.87 60.942 1358 64.173 C 1357.34 63.843 1356.68 63.513 1356 63.173 C 1358.31 60.533 1360.62 57.893 1363 55.173 Z" fill="#F59A67" style="stroke-width: 1px;"/>
    <path d="M 944.998 -361.83 C 944.668 -361.17 944.338 -360.51 943.998 -359.83 C 941.623 -359.08 941.623 -359.08 938.998 -358.83 C 938.008 -359.49 937.018 -360.15 935.998 -360.83 C 941.623 -362.95 941.623 -362.95 944.998 -361.83 Z" fill="#3D3649" style="stroke-width: 1px;"/>
  </g>
</svg>