<svg xmlns="http://www.w3.org/2000/svg" viewBox="97.094 208.059 296.565 63.407"><path fill="#FBFDFD" d="m677.526-8.624 2.219.997c9.164 4.535 17.104 12.34 20.781 22.003v4l3 .188c6.289.893 12 4.979 16 9.812v2l2.156-.984c2.983-1.065 5.191-1.283 8.344-1.266l2.781-.015c2.897.283 5.083 1.062 7.719 2.265l.312-2.632c2.214-10.842 10.058-18.952 18.981-24.895 9.592-5.696 20.347-7.179 31.328-4.937 2.204.699 4.27 1.517 6.379 2.464l2.008.809c10.339 4.562 17.571 12.885 21.992 23.191.183 2.864.183 2.864 0 5l2-1c6.982-.752 12.623-.691 18.383 3.586 5.315 4.648 5.777 7.054 7.617 14.414h-289c1.165-8.157 2.95-10.634 9.062-15.375 5.001-2.587 10.481-2.497 15.938-1.625 2.987 1.323 5.482 2.927 8 5l1.101-1.574c5.087-7.056 10.154-12.378 18.899-14.426 2.726-.214 5.259-.146 8 0l.125-2.437c2.015-8.203 8.335-15.4 14.875-20.563 12.394-7.244 27.485-10.623 41-4Z" style="stroke-width:1px" transform="translate(-459.393 224.131)"/><path fill="#DCE8FC" d="M657.838 22.626c3.962 2.58 7.048 4.791 9.688 8.75v4l2.937.375 3.063.625 1 2c2.519.357 5.013.444 7.554.559 2.836.512 3.784 1.114 5.446 3.441v3a4536.5 4536.5 0 0 0 23.333-.262c2.648-.033 5.295-.061 7.942-.084 3.8-.033 7.6-.086 11.401-.142l3.598-.019 3.336-.06 2.941-.034c2.857-.465 3.59-1.273 5.449-3.399h2v-2h10l.312-2.25c.737-2.947 1.636-4.533 3.688-6.75h2v-2c5.306-3.351 9.908-3.714 16-3 4.546 1.191 8.03 3.317 11 7v2l3.625-.312c3.424-.018 5.215.518 7.875 2.687 2.5 2.625 2.5 2.625 2.5 4.625h7l2 4 36-1v2h-289v-5l1 4h44l2-4c3.127-1.563 6.58-1.399 10-1l3 2 .812-2.375c1.188-2.625 1.188-2.625 4.188-4.625a97.836 97.836 0 0 1 7 0v-2.562c1.454-5 4.823-7.488 9-10.438 5.414-1.804 10.976-1.763 16.312.25Z" style="stroke-width:1px" transform="translate(-459.393 224.131)"/><path fill="#E6EBF6" d="M657.526-5.624c7.978-.625 7.978-.625 12.062 1.875 1.938 2.125 1.938 2.125 1.938 4.125l1.793-.175c4.425-.253 6.52-.325 10.207 2.363 1.972 2.773 2.712 4.46 3 7.812l-3-1-.887-2.003c-.935-2.224-.935-2.224-3.32-2.649l-2.606-.285c-5.02-.789-6.602-2.477-10.187-6.063-2.995-.713-5.928-.926-9-1v-3Z" style="stroke-width:1px" transform="translate(-459.393 224.131)"/><path fill="#E8F5FD" d="m636.526-4.624 2 1c-5.966 7.668-5.966 7.668-11 9 .936-1.105 1.874-2.209 2.812-3.312L631.92.201a87.403 87.403 0 0 1 4.606-4.825Z" style="stroke-width:1px" transform="translate(-459.393 224.131)"/><path fill="#D9ECFC" d="m566.526 33.376 2 1-6 7-1-2 5-6Z" style="stroke-width:1px" transform="translate(-459.393 224.131)"/><path fill="#EAF5FC" d="M690.526 1.376c4.875 3.625 4.875 3.625 6 7-3.367-1.393-4.986-2.978-7-6l1-1Z" style="stroke-width:1px" transform="translate(-459.393 224.131)"/></svg>