<svg xmlns="http://www.w3.org/2000/svg" viewBox="75.297 206.077 345.443 75.297"><path fill="#FCFDFE" d="M662.526 360.376a36.072 36.072 0 0 1 5 5v2l3-1c10.092-.977 17.648-.18 26 6a42.014 42.014 0 0 1 5 5l1.328-1.136c11.157-9.003 23.494-11.861 37.601-11.094 10.708 1.194 20.93 7.52 28.137 15.289 3.154 1.536 5.685-.038 8.934-1.059 16.028-1.524 16.028-1.524 22.316 3.364 3.116 3.029 6.17 6.078 8.684 9.636v2l2.414-.105c10.998-.281 10.998-.281 15.586 3.105 3.598 3.52 6.663 7.055 8 12v4h-340c2.259-10.164 2.259-10.164 5.375-13.437l1.773-1.934c4.103-3.609 7.167-3.862 12.602-3.754l3.547.055 2.703.07.812-2.277c2.591-5.94 7.261-9.612 13.125-12.16 6.097-2.149 10.963-2.316 17.125-.188 3.72 1.021 3.72 1.021 5.785-.472 1.785-1.55 1.785-1.55 3.317-3.227 5.106-4.661 9.959-5.107 16.523-4.926l2.299.016c3.244.046 5.919.203 9.014 1.234l.996-1.468c7.469-10.526 16.729-17.737 29.359-21.172 16.511-2.244 30.11.646 43.645 10.64Z" style="stroke-width:1px" transform="translate(-418.159 -136.812)"/><path fill="#DBE7FC" d="m647.838 380.189 3.364-.043c3.42.237 6.133 1.009 9.324 2.23v2c1.175.434 1.175.434 2.375.875 2.625 1.125 2.625 1.125 4.625 3.125 2.496.352 2.496.352 5.312.438 4.275.314 7.327.666 10.688 3.562v2l2.238-1.312c6.996-3.84 12.756-6.384 20.762-4.688 4.252 1.606 8.248 3.422 12 6l1 3 1.5-1c3.517-1.406 6.798-1.59 10.5-1 3.752 2.015 5.636 3.455 8 7 2.056.65 2.056.65 4.375.938 3.985.776 6.255 1.56 8.625 5.062v4h81l1-3v4h-340l1-3v2h83l1-5c1.627-2.267 2.529-2.893 5.261-3.511l2.426-.176 2.449-.199 1.864-.114v-2h2l.625-1.875c2.016-3.115 3.779-3.34 7.375-4.125 2.33-.011 4.624.059 6.949.223 2.656-.288 3.25-1.327 5.051-3.223 3.651-1.337 7.154-.958 10.976-.742l2.024-.258 2-3h2v-2c1.644-1.253 1.644-1.253 3.812-2.562l2.145-1.316c3.856-2.117 7.023-2.284 11.355-2.309Z" style="stroke-width:1px" transform="translate(-418.159 -136.812)"/><path fill="#E6EBF6" d="m631.963 357.126 2.371-.078c2.7.405 3.566 1.175 5.192 3.328v2l-1.5-.5a43.284 43.284 0 0 0-6.5-.812l-2-.113c-2.216.272-2.216.272-3.879 2.437-2.121 1.988-2.121 1.988-4.961 2.309l-3.098-.196c-4.307-.25-7.142.013-11.062 1.875v2h-3c1.533-4.292 3.967-6.019 8-8 2.877-.152 5.639-.066 8.511.153 2.541.092 2.541.092 4.196-1.586l1.293-1.567c2.327-1.163 3.847-1.198 6.437-1.25Z" style="stroke-width:1px" transform="translate(-418.159 -136.812)"/><path fill="#E3F2FD" d="M526.526 385.376v3l-2 2c-.643 2.069-.643 2.069-1 4-5.899 1.791-9.932 2.084-16 1v-1h13l2-5c2.125-2.312 2.125-2.312 4-4Z" style="stroke-width:1px" transform="translate(-418.159 -136.812)"/><path fill="#E6F5FD" d="M507.526 395.376v2l-3 1-1.438 2.5c-1.562 2.5-1.562 2.5-3.75 3.313l-1.812.187c1.487-4.016 5.432-9 10-9Z" style="stroke-width:1px" transform="translate(-418.159 -136.812)"/><path fill="#E0EFFD" d="m599.526 359.376 2 1-2.875 2.75c-2.271 2.26-3.958 4.216-5.125 7.25l-2-1c1.651-4.292 4.737-6.879 8-10Z" style="stroke-width:1px" transform="translate(-418.159 -136.812)"/><path fill="#E5F4FD" d="M824.526 396.376c1.172.952 2.338 1.912 3.5 2.875l1.969 1.618 1.531 1.507v2c-3.356-1.388-5.073-2.916-7-6v-2Z" style="stroke-width:1px" transform="translate(-418.159 -136.812)"/></svg>