<svg xmlns="http://www.w3.org/2000/svg" viewBox="0 0 1024 1024"><path fill="#0D505C" d="M474.125 16.438c4.218 2.47 7.693 5.82 11.25 9.144 3.443 3.171 7.064 6.087 10.703 9.027 2.64 2.16 5.233 4.36 7.816 6.586a521.71 521.71 0 0 0 6.586 5.526 170.332 170.332 0 0 1 4.145 3.638c4.469 3.7 4.469 3.7 10.027 4.57 3.214-.766 6.235-1.821 9.348-2.929 3.05-.898 6.12-1.726 9.188-2.563l2.23-.633c7.927-2.248 15.302-4.083 23.582-3.992l3.938.02C576 45 576 45 577 46c.37 11.86-7.604 21.152-15.238 29.426-3.983 4.09-7.839 7.67-12.762 10.574-3.76-1.446-5.75-3.815-8.242-6.855-1.775-1.391-1.775-1.391-4.383-1.09-4.462 1.25-8.383 3.153-12.5 5.257l-2.635 1.334c-15.433 7.936-30.354 17.11-44.365 27.354-2.875 2-2.875 2-4.875 2l1.023 2.09c6.463 13.617 8.228 26.32 3.247 40.894-2.77 6.58-6.784 12.42-12.27 17.016-3.605 0-4.605-.887-7.5-2.938-5.134-3.619-9.105-4.29-15.313-4.375l-2.119-.087c-5.143-.063-7.976 1.044-12.068 4.4-4.025 5.366-3.632 11.581-3 18 2.525 8.105 6.806 13.731 14.035 18.055 4.498 2.164 8.797 2.068 13.715 2.007l2.113-.013c1.713-.012 3.425-.03 5.137-.049 2.78 5.91 2.23 11.602 2 18l-.125 3.625c-1.854 7.151-5.44 14.401-11.875 18.375 1.406 3.18 3.078 5.335 5.527 7.793l2.134 2.146 2.276 2.248 2.333 2.317c5.655 5.561 11.48 10.614 17.73 15.496a1219.19 1219.19 0 0 1 6 5c3.794 3.17 7.604 6.316 11.438 9.438 18.4 15.05 18.4 15.05 26.562 23.562 2.91-9.476 5.061-18.822 6.625-28.625l.641-3.922A397.398 397.398 0 0 0 534 253c3.91 1.185 7.133 2.5 10.5 4.813l2.156 1.457C549 261 549 261 551.668 263.629c3.955 3.321 8.156 3.258 13.144 3.496 1.895.14 3.79.284 5.684.434l2.836.214c48.148 4.097 91.616 33.1 126.262 65.032a173.342 173.342 0 0 0 4.08 3.628c6.04 5.178 11.652 10.744 17.264 16.38l2.9 2.888 2.752 2.756 2.496 2.5c3.195 3.41 2.964 5.531 3.039 10.106.44 6.102 1.78 8.953 5.773 13.449 12.35 14.621 18.122 32.477 17.281 51.462-.975 11.024-9.134 19.761-17.116 26.674-23.438 17.997-53.218 25.835-81.125 33.914l-2.631.763-2.405.679-2.078.588C648 499 648 499 645 499c1.871 14.14 4.317 28.037 7.5 41.938 3.815 16.678 7.288 33.42 10.688 50.187l.763 3.754a3634.777 3634.777 0 0 1 8.338 42.263A912.132 912.132 0 0 0 677.188 661c5.142 23.633 5.142 23.633 5.437 28.75l.227 2.61c-1.797 5.571-8.083 8.332-13.016 10.949-31.038 15.184-65.462 21.66-99.836 22.004l-3.748.054-3.502-.004-3.14.01c-3.08-.44-3.663-1.034-5.61-3.373-.825-1.802-.825-1.802-1.467-3.84l-.752-2.34-.785-2.543-.848-2.67c-.913-2.887-1.812-5.778-2.71-8.67l-1.874-5.967a2781.776 2781.776 0 0 1-11.439-37.408c-.215-.714-.43-1.428-.65-2.164-.6-2.004-1.192-4.01-1.78-6.02l-1-3.388c-.649-2.792-.839-5.138-.695-7.99h-2l-.354 3.975c-.522 4.665-1.595 8.95-2.982 13.423l-.713 2.367c-.767 2.54-1.546 5.075-2.326 7.61l-1.615 5.306a4479.056 4479.056 0 0 1-4.181 13.624c-.812 2.64-1.619 5.28-2.424 7.92a3110.06 3110.06 0 0 1-3.759 12.23c-.47 1.522-.937 3.044-1.403 4.568-.647 2.114-1.305 4.226-1.966 6.336l-1.117 3.609c-1.114 2.911-1.943 4.852-4.16 7.032-8.113 2.733-17.351 2.316-25.813 2.25l-3.827-.018A318.39 318.39 0 0 1 437 727l-2.522-.292c-18.961-2.287-37.48-6.864-55.603-12.833l-2.997-.983c-10.549-3.595-10.549-3.595-14.878-6.892-2.283-6.074-.251-12.614.916-18.82.723-3.863 1.403-7.735 2.084-11.606l.47-2.665c2.179-12.462 4.085-24.969 6.023-37.47.537-3.467 1.076-6.932 1.615-10.398l1.96-12.62c4.88-31.426 9.84-62.84 14.932-94.234l.449-2.776c.41-2.54.824-5.079 1.238-7.618l.362-2.239c.53-3.227 1.154-6.384 1.951-9.554.352-5.818-.723-10.834-2.063-16.438-5.634-24.812-9.466-50.055-13.375-75.187l-.398-2.54c-.371-2.374-.736-4.749-1.098-7.124l-.33-2.106c-.585-3.904-.84-7.66-.736-11.605l-1.555-.445c-5.635-1.651-11.21-3.455-16.777-5.32l-2.39-.8a13530.477 13530.477 0 0 1-11.518-3.854l-2.05-.687-8.344-2.79-4.448-1.49c-9.1-3.051-18.215-6.04-27.371-8.919l-5.126-1.622a951.92 951.92 0 0 0-7.438-2.328 836.603 836.603 0 0 1-6.862-2.151l-2.06-.618c-3.877-1.25-6.154-2.306-8.061-5.976-.975-3.46-1.119-6.718-1.098-10.3l.01-2.96.026-3.053.013-3.11c.012-2.526.028-5.052.049-7.577l3.105 1.277 4.082 1.66 2.042.842c3.573 1.447 6.935 2.633 10.771 3.221l.371-3.426c.373-3.01.9-5.916 1.602-8.867 2.825-12.359 3.395-24.337 3.34-36.957l-.009-2.436c-.046-8.486-.263-16.882-1.304-25.314 3.967-1.046 6.75-.868 10.734.04l3.387.751 3.629.834c2.558.565 5.117 1.129 7.676 1.691l3.885.864c20.529 4.562 41.093 7.744 61.949 10.351 2.072.26 4.144.525 6.212.81 7.974 1.04 16.06 1.018 24.09 1.221l4.792.131c3.882.107 7.764.208 11.646.307l.398-2.883c.687-3.555 1.42-4.332 4.164-6.555 3.035-2.774 3.393-3.16 3.875-7.5L440 244c-2.192-.22-2.192-.22-4 1.75-6.97 5.227-13.55 6.634-22.125 6.75l-2.278.056c-5.36-.059-10.343-1.099-14.597-4.556-1.324-3.2-.992-4.023.215-7.453.562-1.271 1.137-2.537 1.723-3.797l.88-1.969c.717-1.598 1.448-3.19 2.182-4.781l-2.605 1.469c-6.015 2.713-12.874 2.813-19.098.547-3.878-2.08-7.65-4.448-10.297-8.016v-4c1.77-.982 3.54-1.96 5.313-2.938l2.988-1.652C381 214 381 214 384 213c1.17-2.424 1.17-2.424 2-5l1-2a95.33 95.33 0 0 0 .063-5.125l-.028-2.758L387 196l-2.965 1.207c-3.386 1.373-6.78 2.724-10.18 4.062a660.938 660.938 0 0 0-4.503 1.797c-5.425 2.027-10.574 2.53-16.352 1.934l-1-1c0-11.463 10.53-21.59 17.133-30.3.475-.63.95-1.26 1.438-1.91C372 170 372 170 373.515 168.433c2.575-2.685 3.48-3.982 3.524-7.76-1.225-4.331-2.83-8.319-4.664-12.422-2.939-6.77-5.707-13.571-8.25-20.5l-.866-2.343c-4.21-11.56-7.34-23.904-1.947-35.594 9.717-16.784 25.518-31.034 40.935-42.5a298.946 298.946 0 0 0 5.124-3.946c46.273-35.719 46.273-35.719 66.754-26.93Z"/><path fill="#F59A6C" d="M578 269c21.439 1.054 42.308 10.003 61 20l1.804.96C662.306 301.527 681.852 316.766 700 333l2.938 2.598c6.62 5.95 12.944 12.183 19.25 18.464.85.847 1.702 1.693 2.579 2.565l2.401 2.408 2.165 2.168c3.012 3.246 2.721 5.537 2.792 9.86.44 6.102 1.78 8.953 5.773 13.449 12.35 14.621 18.122 32.477 17.281 51.462-.975 11.024-9.134 19.761-17.116 26.674-20.16 15.48-45.041 23.18-69.063 30.352l-3.302.993a282.255 282.255 0 0 1-42.475 9.147c-6.734.981-12.12 2.397-18.087 5.692-2.76 1.51-5.563 2.459-8.573 3.356l-2.997.917c-8.853 2.221-17.25 3.231-26.379 3.145l-3.189-.023C548.58 516.015 529.513 514.602 518 503c-3.21-3.54-3.123-4.737-4-10h-21l-.48-6.828c-1.204-16.523-2.693-32.954-5.02-49.36l-.307-2.177C485.64 423.727 483.845 412.862 482 402c9.259-.766 18.518-1.532 27.777-2.295l12.902-1.066a26770.011 26770.011 0 0 1 17.216-1.422c28.928-2.4 28.928-2.4 41.543-2.28l2.83.014c2.244.012 4.488.028 6.732.049 1.535 4.237 2.448 8.234 3.035 12.7l.513 3.89c.172 1.365.344 2.731.514 4.098l.267 2.085c1.41 11.06 2.387 22.079 2.671 33.227 2.814-.428 5.626-.867 8.438-1.313l2.373-.357 2.373-.38 2.142-.334c3.985-.918 7.812-2.28 11.674-3.616-1.27-13.423-3.054-26.698-5.25-40l-.465-2.836C616.73 386.64 613.815 371.273 610 356l-.795-3.223C601.96 323.75 592.014 295.49 578 269Z"/><path fill="#DEB37D" d="m643 909 1.188 1.625L646 913l1.875 2.75c9.136 10.762 25.8 15.89 38.61 20.7l3.471 1.308c2.27.85 4.542 1.69 6.82 2.515 9.539 3.554 17.942 7.559 23.314 16.551 1.09 2.608 1.11 4.548 1.035 7.364l-.055 2.667L721 969v1l1-9c47.133 2.454 47.133 2.454 61.754 14.438C785 977 785 977 785 980.438c-1.224 4.359-2.265 5.098-6 7.562-2.79 1.215-5.641 2.09-8.563 2.938l-2.616.766c-30.958 8.67-63.567 10.536-95.485 12.964-3.77.287-7.54.59-11.309.894-43.114 3.403-86.245 3.763-129.464 3.695-5.315-.007-10.63-.005-15.945.004-32.704.05-65.377-.163-98.067-1.183l-2.033-.062c-27.181-.84-54.425-1.984-81.432-5.313-7.761-.94-15.547-1.399-23.352-1.826-9.784-.633-20.46-1.602-27.734-8.877-3.51-4.179-4.727-8.303-4.441-13.742 2.37-12.124 15.613-19.969 24.878-26.668C316.877 941.85 326.724 926.83 332 911c3.698 1.405 7.131 3.087 10.625 4.938 11.994 6.033 23.878 7.259 37.125 7.25l2.907.001c7.283-.054 14.202-.68 21.343-2.189a111.943 111.943 0 0 1 1.316 13.809l.127 3.76.12 3.869.13 3.95c.106 3.204.208 6.408.307 9.612l2.419-.181c14.76-1.018 29.545-1.434 44.331-1.881l2.204-.068c34.35-1.054 68.684-1.088 103.046-.87l.354-3.849c.165-1.701.331-3.403.498-5.104l.228-2.524c1.095-10.989 4.206-21.04 9.92-30.523l1.8.351c2.733.532 5.467 1.06 8.2 1.587l2.832.552c20.154 3.876 42.411 5.223 61.168-4.49Z"/><path fill="#CC3F2E" d="M295 246c5.313.508 10.465 1.431 15.691 2.523l2.145.445c2.243.466 4.485.936 6.726 1.407l4.424.922c.726.15 1.451.302 2.198.458 2.914.606 5.829 1.21 8.743 1.813 1.952.407 3.901.822 5.851 1.237 9.898 2.066 19.826 3.464 29.847 4.757l4.813.631 2.379.312c1.55.206 3.101.415 4.652.627 3.472.474 6.928.907 10.417 1.245 8.389.925 8.389.925 11.86 4.264l1.692 3.609 1.007 2.049a194.463 194.463 0 0 1 2.244 4.808 391.48 391.48 0 0 0 3.847 8.194c8.96 18.626 16.9 37.38 23.401 57.012l.788 2.37C453.525 392.365 464 442.628 464 493l-70 1c-7.002-32.677-7.002-32.677-9.5-47.313l-.428-2.473c-2.291-13.26-4.44-26.542-6.51-39.839l-.398-2.542c-.371-2.373-.736-4.747-1.098-7.122l-.33-2.106c-.585-3.904-.84-7.66-.736-11.605l-1.555-.445c-5.635-1.651-11.21-3.455-16.777-5.32l-2.39-.8a13530.477 13530.477 0 0 1-11.518-3.854l-2.05-.687-8.344-2.79-4.448-1.49c-9.1-3.051-18.215-6.04-27.371-8.919l-5.126-1.622a951.92 951.92 0 0 0-7.438-2.328 836.603 836.603 0 0 1-6.862-2.151l-2.06-.618c-3.877-1.25-6.154-2.306-8.061-5.976-.975-3.46-1.119-6.718-1.098-10.3l.01-2.96.026-3.053.013-3.11c.012-2.526.028-5.052.049-7.577l3.105 1.277 4.082 1.66 2.042.842c3.573 1.447 6.935 2.633 10.771 3.221l.371-3.426c.373-3.01.9-5.916 1.602-8.867 2.825-12.359 3.395-24.337 3.34-36.957l-.009-2.436c-.038-7.143-.105-14.253-.886-21.36L294 247l1-1Z"/><path fill="#F5996B" d="M540 78c1.95 1.594 1.95 1.594 3.688 3.5 2.372 2.624 2.372 2.624 5.312 4.5a250.702 250.702 0 0 1 3 5c2.086 2.884 4.218 5.728 6.355 8.574C560 102 560 102 560 104l2.5-1.531c9.095-5.244 17.038-7.29 27.5-5.469 4.988 2.207 8.993 5.858 11 11 .573 5.257-.067 8.6-3 13-5.604 6.18-12.493 9.584-20 13 0 3.62 1.084 5.798 2.5 9.125 2.312 5.86 4.111 11.425 1.86 17.645-.559 3.463.579 6.542 1.515 9.855 1.642 6.12 2.82 12.022 3.125 18.375l4 1c.954 11.74-2.364 22.968-10 32-9.329 10.467-24.401 17.277-38 20-2.333.023-4.667.026-7 0l-.304 3.123C530.8 295.103 530.8 295.103 524 318a308.367 308.367 0 0 1-11.226-9.9c-6.065-5.621-12.308-10.94-18.774-16.1l-2.523-2.02L489 288l-5-4-2.613-2.078C469.526 272.378 458.668 261.842 448 251c1.242-2.713 2.155-4.147 4.375-6.25 7.67-8.036 7.733-17.13 7.758-27.762-.112-2.52-.398-4.59-1.133-6.988l-3 .105c-10.068.253-17.639-.242-25.395-7.359-6.443-7.008-7.985-13.419-7.882-22.766.413-4.442 1.502-6.475 4.277-9.98 4.493-3.63 8.075-4.684 13.75-4.563l2.126.023c8.116.303 13.8 3.684 20.124 8.54 8.962-8.17 14.07-18.165 15.348-30.3.27-9.821-1.576-19.066-6.348-27.7v-2a106.828 106.828 0 0 1 6.375-4.438l2.03-1.33C493.622 99.634 507.139 91.518 521 84l1.972-1.081a415.56 415.56 0 0 1 5.716-3.044l3.324-1.758c3.328-1.244 4.697-1.383 7.988-.117Z"/><path fill="#368886" d="M474.125 16.438c4.218 2.47 7.693 5.82 11.25 9.144 3.443 3.171 7.064 6.087 10.703 9.027 2.64 2.16 5.233 4.36 7.816 6.586a521.71 521.71 0 0 0 6.586 5.526 170.332 170.332 0 0 1 4.145 3.638c4.469 3.7 4.469 3.7 10.027 4.57 3.214-.766 6.235-1.821 9.348-2.929 3.05-.898 6.12-1.726 9.188-2.563l2.23-.633c7.927-2.248 15.302-4.083 23.582-3.992l3.938.02C576 45 576 45 577 46c.37 11.86-7.604 21.152-15.238 29.426-3.983 4.09-7.839 7.67-12.762 10.574-3.76-1.446-5.75-3.815-8.242-6.855-1.775-1.391-1.775-1.391-4.383-1.09-4.462 1.25-8.383 3.153-12.5 5.257l-2.635 1.334C507.293 91.818 493.885 100.066 481 109l-2.298 1.587c-2.633 1.82-5.262 3.647-7.89 5.475l-2.521 1.752c-8.304 5.812-16.206 12.074-24.041 18.499-4.965 4.055-9.964 8.05-15.063 11.937-10.523 8.036-20.557 16.599-30.526 25.305a630.204 630.204 0 0 1-4.29 3.691l-2.121 1.816-1.734 1.473c-3.099 2.995-4.472 4.624-4.704 9.028L386 193v3c-21.737 10.44-21.737 10.44-33 9l-1-1c0-11.463 10.53-21.59 17.133-30.3.475-.63.95-1.26 1.438-1.91C372 170 372 170 373.515 168.433c2.575-2.685 3.48-3.982 3.524-7.76-1.225-4.331-2.83-8.319-4.664-12.422-2.939-6.77-5.707-13.571-8.25-20.5l-.866-2.343c-4.21-11.56-7.34-23.904-1.947-35.594 9.717-16.784 25.518-31.034 40.935-42.5a298.946 298.946 0 0 0 5.124-3.946c46.273-35.719 46.273-35.719 66.754-26.93Z"/><path fill="#F59A6C" d="M276.5 58.063c4.639 3.462 7.06 7.156 7.957 12.832.26 2.704.445 5.39.543 8.105l1.793.48C292.095 81.046 295.39 82.6 299 87c1.847 3.695 1.712 7.046 1 11-6.52 18.152-19.958 34.94-37 44h-2c-4.292 43.241-4.292 43.241 1 86l.494 2.094c.88 3.046 1.636 5.215 4.163 7.222 2.074 1.132 4.151 2.052 6.343 2.934l2.297 1.002c5.146 2.214 10.373 4.219 15.7 5.959C293 248 293 248 295 250c.957 4.935 1.196 9.849 1.273 14.863l.038 2.248c.032 2.4.05 4.8.064 7.202l.016 2.478c.044 14.887-1.716 28.742-5.391 43.209l-.574 2.299L290 324c-7.238-.41-12.49-2.826-19-6l-1 14h-1l.45-2.93c.262-4.358.484-8.077-1.45-12.07-4.515-4.167-10.77-6.223-16.309-8.697-20.038-9.7-39.74-26.82-47.699-47.983-2.39-7.634-3.153-15.138-3.23-23.101l-.03-2.54c-.025-2.727-.037-5.453-.044-8.179l-.008-2.834c-.006-17.227 1.526-33.663 4.32-50.666.375-2.393.749-4.786 1.121-7.18.79-5.041 1.61-10.077 2.462-15.109.936-6.086 1.55-12.065 1.812-18.219.068-1.414.138-2.828.209-4.242.106-2.178.208-4.355.295-6.534.797-19.51 5.754-35.741 20.101-49.716 10.945-10.083 30.47-22.478 45.5-13.938Z"/><path fill="#CC3F2E" d="M471 115c2.875 2.448 3.894 4.838 5.125 8.375l1.008 2.836c3.564 11.463 2.5 22.786-2.133 33.789-2.872 5.318-6.356 10.11-11 14-3.605 0-4.605-.887-7.5-2.938-5.134-3.619-9.105-4.29-15.313-4.375l-2.119-.087c-5.143-.063-7.976 1.044-12.068 4.4-4.025 5.366-3.632 11.581-3 18 2.525 8.105 6.806 13.731 14.035 18.055 4.498 2.164 8.797 2.068 13.715 2.007l2.113-.013c1.713-.012 3.425-.03 5.137-.049 2.78 5.91 2.23 11.602 2 18l-.125 3.625c-1.854 7.151-5.44 14.401-11.875 18.375 1.406 3.18 3.078 5.335 5.527 7.793l2.134 2.146 2.276 2.248 2.333 2.317c5.655 5.561 11.48 10.614 17.73 15.496a1219.19 1219.19 0 0 1 6 5c3.794 3.17 7.604 6.316 11.438 9.438 18.4 15.05 18.4 15.05 26.562 23.562 2.91-9.476 5.061-18.822 6.625-28.625l.641-3.922A397.398 397.398 0 0 0 534 253c5.832 1.768 10.09 4.484 15 8l3.063 2.063C562.965 272.716 569.48 290.884 575 304v2c-2.5 1.625-2.5 1.625-5 3a525.145 525.145 0 0 0 4.938 15.953l1.023 3.129c.688 2.098 1.38 4.194 2.078 6.29 2.539 7.8 4.374 15.581 5.961 23.628l-2.806-.048C544.931 357.427 509.03 360.038 473 364l-.576-1.806c-8.581-26.75-18.936-52.784-31.787-77.788l-1.68-3.28a510.586 510.586 0 0 0-3.25-6.199c-4.731-9.139-4.731-9.139-3.707-14.927 1.496-2.398 1.496-2.398 3.438-4.375l1.933-2.023L439 252c1.416-1.184 1.416-1.184 1.063-4.563L440 244c-2.192-.22-2.192-.22-4 1.75-6.97 5.227-13.55 6.634-22.125 6.75l-2.278.056c-5.36-.059-10.343-1.099-14.597-4.556-1.324-3.2-.992-4.023.215-7.453.562-1.271 1.137-2.537 1.723-3.797l.88-1.969c.717-1.598 1.448-3.19 2.182-4.781l-2.605 1.469c-6.015 2.713-12.874 2.813-19.098.547-3.878-2.08-7.65-4.448-10.297-8.016v-4a381301165.24 381301165.24 0 0 1 8.3-4.59C381 214 381 214 384 213c1.17-2.424 1.17-2.424 2-5l1-2c.121-1.643.175-3.29.188-4.938l.042-2.652c-.063-2.672-.063-2.672-2.23-5.41-.688-3.063-.688-3.063 0-7 5.667-8.358 14.232-14.676 22-21l2.715-2.238c2.753-2.265 5.518-4.514 8.285-6.762l3.75-3.063c7.075-5.773 14.182-11.5 21.38-17.12 3.343-2.61 6.647-5.26 9.933-7.942 5.746-4.624 11.834-8.743 17.937-12.875ZM578 269c21.439 1.054 42.308 10.003 61 20l1.804.96C662.306 301.527 681.852 316.766 700 333l2.938 2.598c6.62 5.95 12.944 12.183 19.25 18.464.85.847 1.702 1.693 2.579 2.565l2.401 2.408 2.165 2.168c3.021 3.256 2.776 5.58 2.73 9.922l-.028 3.32L732 377l-3.438-2.938-1.933-1.652A49.663 49.663 0 0 1 724 370c-12.242-1.204-22.283 5.175-32 12l-2.664 1.84c-7.721 5.703-14.261 13.355-16.137 23.035-.41 4.372-.344 8.74-.199 13.125l1.938-2.125c4.492-4.505 10.76-9.69 17.324-9.973l2.426.036 2.449.027L699 408l1 3-2.902 1.222c-3.587 1.51-7.173 3.025-10.758 4.54l-4.637 1.955c-2.236.94-4.47 1.885-6.703 2.83l-2.062.865c-4.171 1.77-8.18 3.71-12.16 5.88-1.778.708-1.778.708-4.95.24-3.138-1.7-5.485-3.582-8.078-6.032l-2.578-2.406A319.18 319.18 0 0 1 641 416l.219 2.273c.6 6.61.879 13.092.781 19.727l-15 7c-1.981-3.963-2.513-6.546-3.078-10.887l-.57-4.229-.295-2.253C615.807 372.88 604.029 318.201 578 269Z"/><path fill="#F59B6C" d="m380 714 2.586.664c4.466 1.133 8.939 2.238 13.414 3.336l2.955.73c26.007 6.38 51.387 8.917 78.045 10.27-1.29 6.423-3.083 12.333-5.438 18.438-2.814 7.425-2.814 7.425-5.187 15-.948 3.369-2.16 6.504-3.55 9.714-3.457 8.206-6.4 16.588-9.387 24.973-1.125 3.15-2.25 6.298-3.38 9.445l-.812 2.268a348.917 348.917 0 0 1-5.443 14.122c-.748 1.9-1.382 3.845-2.006 5.79L440.75 832l-1.016 3.313C438 838 438 838 434.57 839.351c-24.995 4.51-49.916-2.042-72.007-13.54l-1.956-1.008c-4.484-2.434-4.484-2.434-5.607-5.804.37-2.298.37-2.298 1.076-5.037l.791-3.123.887-3.399.903-3.552c.96-3.778 1.932-7.552 2.906-11.327 4.378-17.03 8.521-34.062 12.105-51.28 1.91-9.14 4.114-18.212 6.332-27.282Z"/><path fill="#F59B6D" d="M666 705a258359381.426 258359381.426 0 0 1 1.465 7.129c4.632 24.849 1.28 51.108-2.465 75.871l-.359 2.402c-.868 5.81-1.775 11.611-2.703 17.41l-.375 2.39a708.947 708.947 0 0 1-1.098 6.693l-.637 3.87c-.816 3.187-1.596 4.864-3.828 7.235-11.885 6.935-26.801 7.554-40.188 7.438l-2.174-.008c-29.898-.154-29.898-.154-39.638-8.43-.513-3.274-.513-3.274-.184-7.16l.153-2.115c.17-2.266.381-4.525.593-6.788.123-1.556.243-3.114.36-4.67.231-3.057.477-6.111.738-9.165.594-7.03.961-14.071 1.252-21.12.088-1.98.205-3.957.322-5.935.498-13.87-3.018-27.144-7.672-40.139C569 728 569 728 569 725l2.098-.12c29.926-1.784 63.845-4.97 91.03-18.977C664 705 664 705 666 705Z"/><path fill="#F5986A" d="M540 78c1.95 1.594 1.95 1.594 3.688 3.5 2.372 2.624 2.372 2.624 5.312 4.5a250.702 250.702 0 0 1 3 5c2.086 2.884 4.218 5.728 6.355 8.574C560 102 560 102 560 104l2.5-1.531c9.095-5.244 17.038-7.29 27.5-5.469 4.988 2.207 8.993 5.858 11 11 .573 5.257-.067 8.6-3 13-5.604 6.18-12.493 9.584-20 13 0 3.62 1.084 5.798 2.5 9.125 2.258 5.68 3.013 9.816 2.5 15.875l-3 1-1.023-2.117-1.352-2.758-1.336-2.742c-1.194-2.478-1.194-2.478-3.289-4.383-6.433-1.148-11.664.423-17 4-5.93 4.965-10.046 11.53-12 19-.223 2.965-.19 5.904-.125 8.875l.027 2.375c.024 1.917.06 3.833.098 5.75l-2-3-3 2v-2l-2.75 1.5c-3.385 1.562-5.591 1.5-9.25 1.5l-1 3h-2l-.938 1.875L521 197l6-3v4h-2l1 4-4 1v4h-2v-3l-1.875.563C516 205 516 205 514 204l1.063-1.875L516 200l-1-2h3v-2h-4l-1-6h-2l1 4h-2l-.813-2.438L508 189l-3-1v-3c-2.606 5.863-2.606 5.863-2 12l-5 2v-3h-2l-.875 2.938C494 202 494 202 492 203l-1 2c-2.55-1.275-2.93-2.403-4-5v-3h-2v-6l-2-1-1-1v3h-3l-.188-1.875c-.64-2.403-.64-2.403-3.375-3.375L473 186l-1 8-3 1-2 2c-1 1-1 1-3.066 1.098l-2.497-.036-2.503-.027L457 198l-1-2h2l1-5-3-1-.313-2.375c-.463-2.955-.463-2.955-3.687-4.625l1-3 3-1v-7l-3-1 2-1c3.047 1.016 5.311 2.208 8 4 8.962-8.17 14.07-18.165 15.348-30.3.27-9.821-1.576-19.066-6.348-27.7v-2a106.828 106.828 0 0 1 6.375-4.438l2.03-1.33C493.622 99.634 507.139 91.518 521 84l1.972-1.081a415.56 415.56 0 0 1 5.716-3.044l3.324-1.758c3.328-1.244 4.697-1.383 7.988-.117Zm-85 113 1 2-3-1 2-1Z"/><path fill="#412423" d="m643 909 1.188 1.625L646 913l1.875 2.75c9.136 10.762 25.8 15.89 38.61 20.7l3.471 1.308c2.27.85 4.542 1.69 6.82 2.515 9.49 3.536 18.036 7.54 23.298 16.57 1.693 3.943 1.445 7.956.926 12.157-2.548 5.626-6.573 8.424-12 11-8.257 2.744-16.159 3.484-24.813 3.375l-3.532-.026c-18.381-.305-36.003-2.968-53.393-8.974l-2.46-.844a282.731 282.731 0 0 1-4.727-1.688c-4.006-1.415-6.925-2.443-11.075-.843l-2.75 2.563c-3.082 2.702-5.45 2.747-9.543 2.63-5.297-.378-10.523-1.14-15.77-1.943l-3.431-.477c-6.556-.992-11.877-2.193-17.506-5.773-5.901-9.732-1.3-27.44 1-38 1.814-6.764 4.247-13.075 8-19l1.8.351c2.733.532 5.467 1.06 8.2 1.587l2.832.552c20.154 3.876 42.411 5.223 61.168-4.49Z"/><path fill="#F59A6C" d="M724 369c16.02 11.343 27.346 33.094 31 52 1.243 11.585.076 21.315-6.625 31.063C726.48 479.04 686.842 488.176 655 497l-3.124.881c-6.95 1.867-13.692 2.75-20.876 3.119l3-1 1-5 4-1v-3l2-1 2-3 2 1c1.158-2.947 1.158-2.947 1-6h4v-5l-3 1h-3l1-7 3-1v-2l2.438-.75L653 466c.743-1.97.743-1.97 1-4l2-2 2-3h2l1-2h5l.75-2.75c1.25-3.25 1.25-3.25 3.313-5.188 2.701-2.876 2.73-5.19 2.937-9.062l-.563-2.25L672 434l2-3c2.625-.188 2.625-.188 5 0l1 3 2-7-2-2h2l-1-7c2.79-1.17 5.582-2.337 8.375-3.5l2.406-1.012 2.305-.957 2.126-.888C698 411 698 411 700 411l-1-2c-8.93-.72-14.75 1.925-21.938 7.125A135.081 135.081 0 0 0 672 421c-.626-13.49 1.77-22.824 11-33 9.291-8.591 27.697-22.807 41-19Z"/><path fill="#412424" d="M332 911c3.698 1.405 7.131 3.087 10.625 4.938 11.994 6.033 23.878 7.259 37.125 7.25l2.907.001c7.283-.054 14.202-.68 21.343-2.189.857 5.215 1.173 10.251 1.203 15.531l.017 2.409c.01 1.67.016 3.341.02 5.012.01 2.54.041 5.081.072 7.622.007 1.632.012 3.263.016 4.895l.038 2.276c-.027 6.369-1.43 11.005-5.678 15.942-3.167 2.434-6.544 3.194-10.375 4.188-6.06 1.573-10.364 3.834-15.5 7.328C352.1 1000.074 320.78 1004.408 296 999c-7.013-2.202-11.2-5.524-15.813-11.25-1.734-4.016-1.938-7.447-1.187-11.75 4.447-10.954 15.244-17.762 24.438-24.41C316.875 941.85 326.723 926.83 332 911Z"/><path fill="#FAE8CA" d="m355 821 2.938 1.54c9.454 4.885 18.92 9.207 29.062 12.46l1.938.642c15.515 4.917 31.989 3.743 48.062 3.358-.787 2.235-1.576 4.47-2.367 6.703l-1.332 3.77c-1.043 2.828-2.15 5.55-3.426 8.277-1.419 3.06-2.459 6.067-3.375 9.313-.877 3.085-1.85 5.805-3.375 8.625-1.993 3.75-3.32 7.658-4.625 11.687-1.639 5.06-3.34 10.045-5.422 14.941a102.425 102.425 0 0 0-2.344 6.524c-3.469 10.236-3.469 10.236-6.91 12.75-2.336.79-4.372 1.173-6.824 1.41l-2.621.527c-21.021 2.94-44.084.423-61.379-12.527 2.93-14.648 2.93-14.648 3.466-17.318.36-1.804.713-3.609 1.06-5.415l.513-2.642.452-2.36c.683-3.041 1.663-5.94 2.728-8.867 1.89-5.805 3.113-11.826 4.469-17.773 2.766-11.96 6.073-23.786 9.312-35.625Z"/><path fill="#CC3F2E" d="m581.438 394.938 2.83.013c2.244.012 4.488.028 6.732.049 1.54 4.25 2.45 8.256 3.035 12.734l.513 3.906c.172 1.37.344 2.74.514 4.11l.267 2.09c1.363 10.703 2.375 21.37 2.671 32.16-4.426-1.34-8.502-3.111-12.674-5.073C571.16 438.292 556.933 431.76 541 433v10l2.027.781c3.566 1.462 7.05 3.08 10.535 4.719l1.999.934c3.166 1.483 6.322 2.98 9.439 4.566-2.57 1.285-3.944.91-6.79.578-6.535-.66-13.02-.798-19.585-.828l-3.48-.063-3.356-.015-3.01-.028c-3.29.421-5.168 1.325-7.779 3.356-.417 3.126-.417 3.126 0 6 12.578 3.817 24.992 7.057 38 9l-1 2c-21.929.96-21.929.96-32.422-3.875-3.52-1.536-5.816-1.794-9.578-1.125-2.364 3.546-2.833 4.833-2 9 11.902 11.256 31.594 12.47 47 13-1 3-1 3-2.938 4.188-11.485 3.047-24.377-.559-34.878-5.418-2.507-.884-4.545-.904-7.184-.77l-2 4h-21l-.48-6.828c-1.204-16.523-2.693-32.954-5.02-49.36l-.307-2.177C485.64 423.727 483.845 412.862 482 402c9.259-.766 18.518-1.532 27.777-2.295l12.902-1.066a26770.011 26770.011 0 0 1 17.216-1.422c28.928-2.4 28.928-2.4 41.543-2.28Z"/><path fill="#378987" d="M576 45c1 1 1 1 1.055 2.75C575.937 61.742 564.962 72.976 555 82c-1.956 1.491-3.879 2.749-6 4-3.76-1.446-5.75-3.815-8.242-6.855-1.775-1.391-1.775-1.391-4.383-1.09-4.462 1.25-8.383 3.153-12.5 5.257l-2.635 1.334C507.293 91.818 493.885 100.066 481 109l-2.298 1.587c-2.633 1.82-5.262 3.647-7.89 5.475l-2.521 1.752c-8.304 5.812-16.206 12.074-24.041 18.499-4.965 4.055-9.964 8.05-15.063 11.937-10.523 8.036-20.557 16.599-30.526 25.305a630.204 630.204 0 0 1-4.29 3.691l-2.121 1.816-1.734 1.473c-3.099 2.995-4.472 4.624-4.704 9.028L386 193v3c-21.737 10.44-21.737 10.44-33 9l-1-1c0-13.259 14.52-27.52 22.742-37.293 2.317-2.68 2.317-2.68 4.258-5.707a292.002 292.002 0 0 1 5-5c1.674-1.684 3.347-3.37 5.02-5.055l4.317-4.337c.98-.984 1.957-1.97 2.935-2.955 5.727-5.777 11.53-11.38 17.728-16.653 1.204-1.057 2.405-2.115 3.605-3.176A408.854 408.854 0 0 1 442 104l2.738-2.125C458.474 91.306 473.161 81.933 488 73l2.27-1.46C513.76 56.646 547.593 42.057 576 45Z"/><path fill="#402222" d="M471 115c2.875 2.448 3.894 4.838 5.125 8.375l1.008 2.836c3.564 11.463 2.5 22.786-2.133 33.789-2.872 5.318-6.356 10.11-11 14-3.605 0-4.605-.887-7.5-2.938-5.134-3.619-9.105-4.29-15.313-4.375l-2.119-.087c-5.143-.063-7.976 1.044-12.068 4.4-4.025 5.366-3.632 11.581-3 18 2.525 8.105 6.806 13.731 14.035 18.055 4.498 2.164 8.797 2.068 13.715 2.007l2.113-.013c1.713-.012 3.425-.03 5.137-.049 2.78 5.91 2.23 11.602 2 18l-.125 3.625c-1.723 6.647-4.848 13.293-10.438 17.5-2.978 1.625-5.088 2.57-8.437 2.875l-3-8-2.375 2.25c-6.992 5.655-13.929 7.123-22.75 7.25l-2.278.056c-5.36-.06-10.343-1.099-14.597-4.556-1.324-3.2-.992-4.023.215-7.453.562-1.271 1.137-2.537 1.723-3.797l.88-1.969c.717-1.598 1.448-3.19 2.182-4.781l-2.605 1.469c-6.015 2.713-12.874 2.813-19.098.547-3.878-2.08-7.65-4.448-10.297-8.016v-4a381301165.24 381301165.24 0 0 1 8.3-4.59C381 214 381 214 384 213c1.17-2.424 1.17-2.424 2-5l1-2c.121-1.643.175-3.29.188-4.938l.042-2.652c-.063-2.672-.063-2.672-2.23-5.41-.688-3.063-.688-3.063 0-7 5.667-8.358 14.232-14.676 22-21l2.715-2.238c2.753-2.265 5.518-4.514 8.285-6.762l3.75-3.063c7.075-5.773 14.182-11.5 21.38-17.12 3.343-2.61 6.647-5.26 9.933-7.942 5.746-4.624 11.834-8.743 17.937-12.875Z"/><path fill="#FAE7C9" d="M658 827c-1.744 13.7-4.053 27.286-6.5 40.875l-.452 2.52c-2.67 14.836-2.67 14.836-3.935 20.926l-.424 2.052c-.38 1.812-.767 3.622-1.156 5.432-.625 3.2-.625 3.2-.53 6.514C645 908 645 908 643.672 909.574c-16.588 9.609-38.028 8.832-56.422 6.114l-2.45-.357c-12.503-2.034-12.503-2.034-15.8-5.331-.5-8.771.239-17.624.813-26.375l.128-2.02C571.083 863.722 572.54 845.86 574 828l3.5 1.313c11.812 3.885 23.666 5.191 36.037 5.078a373.9 373.9 0 0 1 6.283.02c12.003.018 23.25-1.762 34.29-6.641C656 827 656 827 658 827Z"/><path fill="#F5996B" d="M574 97c15.76-1.033 15.76-1.033 20.813 2.688 3.809 3.599 5.981 6.428 6.562 11.75-.718 6.821-3.808 10.54-8.902 14.816-4.507 3.182-9.464 5.467-14.473 7.746 0 3.62 1.084 5.798 2.5 9.125 2.258 5.68 3.013 9.816 2.5 15.875l-3 1-1.023-2.117-1.352-2.758-1.336-2.742c-1.194-2.478-1.194-2.478-3.289-4.383-6.433-1.148-11.664.423-17 4-5.93 4.965-10.046 11.53-12 19-.223 2.965-.19 5.904-.125 8.875l.027 2.375c.024 1.917.06 3.833.098 5.75l-2-3-3 2v-2l-2.75 1.5c-3.385 1.562-5.591 1.5-9.25 1.5v2h-5v-2h-2v-3l-2-1v2h-3v-2l1.5-1.25c1.78-1.742 1.78-1.742 1.813-4.688-.297-2.907-.8-4.602-2.313-7.062h-2v-2l-3-1c-2-2-2-2-2.125-5.625L509 159h2v-2l1-1a43.649 43.649 0 0 0 3-7h2l.438-1.813c1.104-4.293 2.083-5.578 5.562-8.187l1-3c-1.833-3.167-1.833-3.167-5-5 1.602-.364 3.207-.716 4.813-1.063l2.707-.597C529 129 529 129 532 130v2l3 1v2c2.12-2.615 4.13-5.196 6-8l1 3c.687-2.49 1-4.379 1-7v-2h3l1-4 2 1-1 3h2c0 3.273-.3 5.847-1 9h2l.402-2.012L554 115l-3-1 1-1-2-2 1-2h9l1 3 3-1c-.348-1.975-.348-1.975-1-4l-2-1h4v3h2l-1-3c2.386-1.892 4.072-3.024 7-4l1-5Zm2 2-1 2h2l-1-2Zm-26 20 2 1-2 1v-2Z"/><path fill="#F5996B" d="M540 78c1.95 1.594 1.95 1.594 3.688 3.5 2.372 2.624 2.372 2.624 5.312 4.5a392.898 392.898 0 0 1 3 5l2.25 2.563C556 96 556 96 555.938 98.25 555 100 555 100 552 101v4c-1.5 1.75-1.5 1.75-3 3l1 2h-2v2l-2 2c-2.277 2.815-2.277 2.815-2 6l-3 1v-2l-1.813-.063c-3.445-1.476-3.76-4.61-5.187-7.937-2.069-1.043-2.069-1.043-4-1l-.313 3.75c-.811 6.024-.811 6.024-3.687 8.25-6.495.866-9.56-.587-15-4h-3c-.504 2.287-.504 2.287 0 5 1.99 1.9 3.786 3.429 6 5l2.375 1.813L518 131l-2 2-1 2 2 2h-2l-2 4-2-1v2h-3l-1 2h-3c.344 2.473.344 2.473 1 5l2 1-2.438.375L502 151l-1 2-2-2v-3c-3.113.669-3.113.669-4.188 3.063L494 153l-2-1 1-5c-2.473.344-2.473.344-5 1l-1 2h2l-1 7h-3l-2-4c-2.526 2.363-3.888 3.665-5 7l-2-1-.75 2.75c-1.29 3.354-2.57 4.927-5.25 7.25 1.868-4.727 3.872-9.393 5.879-14.063 4.063-10.646 2.65-22.334-.879-32.937-.944-2.027-1.918-4.043-3-6v-2a106.828 106.828 0 0 1 6.375-4.438l2.03-1.33C493.622 99.634 507.139 91.518 521 84l1.972-1.081a415.56 415.56 0 0 1 5.716-3.044l3.324-1.758c3.328-1.244 4.697-1.383 7.988-.117Z"/><path fill="#0B515C" d="M506.555 43.563c2.743 1.612 5.123 3.401 7.57 5.437 2.585 2.137 5.081 4.138 7.875 6v2l-2.727 1.11c-29.122 12.13-56.31 30.004-80.773 49.828a2320.405 2320.405 0 0 0-5.728 4.627c-1.605 1.3-3.213 2.594-4.823 3.888-6.168 4.99-12.097 10.19-17.949 15.547l-2.8 2.52c-7.46 6.748-14.598 13.778-21.668 20.932-2.169 2.192-4.35 4.37-6.532 6.548a403.313 403.313 0 0 1-3.063-5.688l-1.722-3.199c-1.352-3.465-1.538-4.682-.215-8.113 6.216-9.252 14.837-17.015 22.688-24.875l1.504-1.508c5.756-5.754 11.586-11.366 17.808-16.617l1.92-1.637C438.485 82.919 460.682 67.534 484 54l1.909-1.11C489.92 50.56 493.94 48.246 498 46l3.09-1.852C504 43 504 43 506.555 43.562Z"/><path fill="#F5996B" d="m495 234-1 2 2 2c2.603-.32 2.603-.32 5-1 1.76 3.326 2.108 4.592 1.125 8.313L501 248l3 2 1 2.563 1 2.437 3 1c.75 1.938.75 1.938 1 4l-1 2c3.958-.565 6.666-1.809 10-4l-1 2.438c-1.06 2.259-1.06 2.259-1 3.562l2-1v3h2l.438 1.938c.372 2.037.372 2.037 1.562 3.062l2-2a197.599 197.599 0 0 1 5-3l3 2c-.726 16.879-4.2 33.836-9 50a308.367 308.367 0 0 1-11.226-9.9c-6.065-5.621-12.308-10.94-18.774-16.1l-2.523-2.02L489 288c-.803-.645-1.606-1.29-2.434-1.953a571.147 571.147 0 0 0-5.601-4.406l-3.027-2.391-2.786-2.172c-2.192-2.117-2.989-3.062-3.152-6.078 1.438-2.25 1.438-2.25 3-4h-2l-1 2-1-6-7-1-1 2-13-13 4-4h2a174.184 174.184 0 0 0 4-2c2.323-1.024 4.661-2.01 7-3l3 5 2.313-2c2.687-2 2.687-2 5.687-2l-1-3a277.821 277.821 0 0 1-1-4c4 0 4 0 6.625.563 2.382.685 2.382.685 4.375-.563v-2c3.053-.981 4.947-.981 8 0Zm-27 14 1 2 1-2h-2Zm41 15v2h2v-2h-2Z"/><path fill="#F4976A" d="M277 77c3.79 1.58 5.833 3.533 8 7 2.082 6.245 1.377 13.632 0 20l2.313-.25c2.687.25 2.687.25 4.5 2.25l1.187 2 1-7 3 1c-2.994 14.971-16.182 27.277-27.613 36.477-2.701 1.724-5.32 2.63-8.387 3.523-2.53 25.97-2.21 51.936-2 78l-2-3v2h-5l2-6-2-1-.438 2.25C251 217 251 217 250.25 219c-.376 3.004 1.078 4.592 2.75 7l-4 2-1-1-1.875.563L244 228l-3-2a84.76 84.76 0 0 1 2-7l-2-1-1 3c-1.46-2.647-2-3.894-2-7l-4 2 2-5h-2v-8l2-1 2 1v2l3 1 1 2h3v-4h-2c1.875-4.75 1.875-4.75 3-7l3-1v-2h2v-2h2v-2h2v-4h-2l1-2h3v-16l-3-1 1-1-2.188-2.063c-3.047-3.03-5.384-6.4-7.812-9.937h2l.438-2.375C248 149 248 149 249 147h3c1.686-3.51 1.686-3.51 1.625-7.313L253 138h2v-3l5-1-1.758-.043c-6.108-.373-9.001-1.51-13.242-5.957-2.525-4.2-2.733-8.21-2-13 2-3.063 2-3.063 4-5l4 1-.035 2.555-.028 3.32-.035 3.305c-.1 2.772-.1 2.772 1.098 4.82 6.145.64 10.19.038 15.27-3.582 3.721-3.05 5.526-5.014 6.23-9.856-.77-5.488-3.012-8.345-7.25-11.812-3.783-2.037-7.054-2.882-11.25-3.75l1-4c12.885-.86 12.885-.86 16.563 2.063 2.659 3.204 4.549 6.233 6.437 9.937 1.734-5.203 1.405-9.571-.063-14.75-2.388-4.006-4.611-5.647-8.937-7.25-2.37-.543-4.567-.801-7-1l1-3c3.923-1.961 8.713-1.347 13-1Zm-31 128 2 2v-2h-2Zm-8 2v3l3-1-1-2h-2Zm0 5 1 2Z"/><path fill="#381B1B" d="M573 147c8.916 7.529 11.909 22.898 13.252 34.105.952 11.425.952 11.425-2.53 15.676-6.066 4.944-12.089 6.98-19.94 6.672-5.922-.964-10.826-3.6-15.157-7.703L547 193l-1.117-1.86c-3.83-7.238-4.168-15.013-2.188-22.913 3.35-9.15 8.525-15.865 17.305-20.227 4.083-1.361 7.74-1.759 12-1Z"/><path fill="#F5986A" d="m586 185 1 4 4 1c.954 11.74-2.364 22.968-10 32-9.454 10.608-26.236 18.831-40.36 20.234-1.952.016-1.952.016-4.64-.234l-1 8c-3.215 1.062-5.023.945-8.195-.188l-2.406-.857-2.524-.955-2.583-.966C512.83 244.52 507.284 241.543 502 237l-1.738-1.41c-1.45-1.278-1.45-1.278-3.262-3.59.387-2.145.387-2.145 1-4l3.445 1.61c17.07 8.012 17.07 8.012 35.555 10.39l1-3h2c-.344-2.473-.344-2.473-1-5l-2-1c.255-2.294.53-4.585.813-6.875l.457-3.867C539 217 539 217 542 215c1.192-2.05 1.192-2.05 2-4l2 3h-2v2c3.041-1.67 3.041-1.67 4-4-.4-2.098-.4-2.098-1-4l6-2 1 3 2 1v2h-2v2h3a158.623 158.623 0 0 0 3-5h2v-3l6-1-3 1-1 5 2-2c2.125-.625 2.125-.625 4-1l.25-1.875c.75-2.125.75-2.125 2.625-3.25L575 202c2.892-1.87 2.892-1.87 5.063-3.625C582 197 582 197 584 197l2-12Z"/><path fill="#0E4C5A" d="m775 84 1 5c-6.531 4.21-13.268 7.91-20.125 11.563l-7.008 3.753-3.516 1.884A2110.958 2110.958 0 0 0 731 114a3950.102 3950.102 0 0 1-23.875 12.938l-3.306 1.779c-8.865 4.77-8.865 4.77-12.939 6.96a7326.318 7326.318 0 0 0-9.067 4.886l-2.943 1.584a619.513 619.513 0 0 0-15.308 8.556l-3.175 1.83c-2.002 1.16-4 2.327-5.991 3.506-.898.52-1.795 1.04-2.72 1.574l-2.378 1.4c-2.624 1.127-4.47 1.25-7.298.987-1-1-1-1-1.063-3.563L641 154a5762.814 5762.814 0 0 1 38.33-20.79 3069.297 3069.297 0 0 0 20.42-11.085c8.798-4.817 17.644-9.541 26.5-14.25 8.347-4.438 16.681-8.894 24.938-13.5l2.136-1.19a689.634 689.634 0 0 0 9.028-5.123l2.96-1.687 2.426-1.414c2.58-1.096 4.486-1.148 7.262-.961Z"/><path fill="#88231B" d="M729.734 363.137C732 365 732 365 732.488 367.918l-.176 3.27-.136 3.292L732 377l-3.438-2.938-1.933-1.652A49.663 49.663 0 0 1 724 370c-12.242-1.204-22.283 5.175-32 12l-2.664 1.84c-7.721 5.703-14.261 13.355-16.137 23.035-.41 4.372-.344 8.74-.199 13.125l1.938-2.125c4.492-4.505 10.76-9.69 17.324-9.973l2.426.036 2.449.027L699 408l1 3-2.902 1.222c-3.587 1.51-7.173 3.025-10.758 4.54l-4.637 1.955c-2.236.94-4.47 1.885-6.703 2.83l-2.062.865a128.07 128.07 0 0 0-12.127 5.908c-1.811.68-1.811.68-5.311-.07L653 427c0-14.4 16.75-33.78 26.375-43.875 5.399-5.185 11.233-9.26 17.625-13.125l2.336-1.496c8.43-5.128 20.82-9.349 30.398-5.367Z"/><path fill="#DFB47E" d="M286 964c0 3.947-1.525 5.016-4 8-2.525 4.304-2.636 8.118-2 13 1.498 5.058 4.22 7.39 8.75 9.938 1.408.706 2.821 1.4 4.25 2.062v1c-12.932-.578-25.178-2.704-37.563-6.438l-1.983-.584c-5.265-1.664-9.544-4.068-13.454-7.978-.625-2.813-.625-2.813 0-6 10.192-9.908 32.3-13.634 46-13Z"/><path fill="#0D505D" d="M709 49c2.625.375 2.625.375 5 1 .668 1.782.668 1.782 1 4-1.012 1.714-1.012 1.714-2.688 3.492l-1.978 2.118L708 62l-2.632 2.709c-3.097 3.164-6.23 6.292-9.364 9.42l-3.477 3.48c-2.419 2.42-4.838 4.838-7.26 7.254a6896.733 6896.733 0 0 0-9.242 9.246c-2.389 2.392-4.78 4.783-7.173 7.173a3633.58 3633.58 0 0 0-3.405 3.407c-5.451 5.46-10.914 10.843-16.782 15.861-2.342 2.04-4.494 4.236-6.645 6.473l-2.588 2.653a1227.93 1227.93 0 0 0-5.274 5.469l-2.576 2.628-2.305 2.389c-2.52 2.034-4.055 2.685-7.277 2.838l-2-2c.32-3.44 1.767-5.139 4.162-7.522l2.047-2.06 2.26-2.228 2.37-2.372c2.594-2.59 5.198-5.171 7.802-7.752 1.803-1.797 3.606-3.596 5.408-5.395a7777.76 7777.76 0 0 1 12.816-12.752c4.848-4.815 9.688-9.638 14.527-14.462 8.279-8.253 16.564-16.5 24.857-24.739A3928 3928 0 0 0 707 51l2-2Z"/><path fill="#0C4D5A" d="m757 167 2 2c-.25 2.063-.25 2.063-1 4-3.352 1.676-7.146 1.64-10.837 2.016l-2.774.29c-3.04.319-6.08.631-9.12.944l-6.33.661c-5.569.582-11.138 1.159-16.707 1.735-8.896.92-17.792 1.848-26.688 2.776l-9.318.966-5.742.596-2.606.268c-3.598.375-7.17.79-10.75 1.305-3.395.48-6.639.54-10.066.506l-3.464-.028L641 185v-5c4.114-1.496 7.898-2.37 12.248-2.822l3.7-.395 3.986-.404 4.19-.44c3.692-.389 7.384-.768 11.076-1.146 2.918-.3 5.835-.606 8.752-.912 12.3-1.291 24.601-2.558 36.912-3.737l2.164-.207c3.393-.325 6.786-.647 10.18-.964l3.64-.344 3.174-.297c2.05-.228 4.094-.519 6.128-.86 3.352-.555 6.46-.668 9.85-.472Z"/><path fill="#C8442E" d="M277 77c3.79 1.58 5.833 3.533 8 7 2.253 6.76 1.552 14.418-1 21-1.5 2.438-1.5 2.438-3 4h-2l-.125 3.438c-.942 7.288-5.372 12.674-11.063 17.062-5.274 3.745-10.464 4.389-16.812 3.5-3.912-1.992-6.34-4.971-8-9-.724-4.707-.634-8.03 2-12.063l2-1.937 4 1-.035 2.555-.028 3.32-.035 3.305c-.1 2.772-.1 2.772 1.098 4.82 6.145.64 10.19.038 15.27-3.582 3.721-3.05 5.526-5.014 6.23-9.856-.77-5.488-3.012-8.345-7.25-11.812-3.783-2.037-7.054-2.882-11.25-3.75l1-4c12.885-.86 12.885-.86 16.563 2.063 2.659 3.204 4.549 6.233 6.437 9.937 1.734-5.203 1.405-9.571-.063-14.75-2.388-4.006-4.611-5.647-8.937-7.25-2.37-.543-4.567-.801-7-1l1-3c3.923-1.961 8.713-1.347 13-1Z"/><path fill="#F39769" d="M556 98a90.488 90.488 0 0 1 4 4v2l2.266-1.348c.984-.566 1.97-1.131 2.984-1.715l2.953-1.722C571 98 571 98 573.36 98.316L575 99h-2l1 4-7 3v3h-2v-3l-2 1 1 4-4 3v-2l-2-1 1-1-2.875.063C553 110 553 110 551 109v2l2 2v1l2 1a709.2 709.2 0 0 1-.875 5.813l-.492 3.269C553 127 553 127 551 130h-2c-.687-2.49-1-4.379-1-7h2v-2h-2l-1-3-1 3c-1.563 1.688-1.563 1.688-3 3l2 3h-2l-1 4-2-1-2 3h-2l-1 3-2-1 1-2-2-1v-2l-3.29.14c-1.444.038-2.89.075-4.335.11l-2.16.102c-5.236.096-8.007-.987-12.215-4.352l-1.875-1.438c-1.584-2.2-1.339-3.923-1.125-6.562 1.563-.75 1.563-.75 4-1a232.03 232.03 0 0 1 5.05 3.074c3.332 1.583 6.32 1.18 9.95.926 1.962-3.668 3.393-6.872 4-11 2.375.313 2.375.313 5 1l2 3 2-1v6h4v-4c1.375-1.75 1.375-1.75 3-3h2v-2l-1-1 1.313-1.625c1.82-2.414 1.82-2.414 3.187-5.563C553 99 553 99 556 98Zm-6 21 1 2 1-2h-2Zm26-20 1 2-2-1 1-1Z"/><path fill="#CD3F2E" d="M552 267c2.5.369 3.72.697 5.461 2.576 4.028 6.27 7.36 12.796 10.546 19.529a864.01 864.01 0 0 0 2.665 5.561C575 303.726 575 303.726 575 306l-6 3-1.563-2.75c-2.436-3.591-5.36-5.775-9.437-7.25-4.988-.927-9.939-1.036-15-1l3-2 2-2-1 1h-4l2-4h2v-3h-5l1-5h2v-3l7-1 1-5h-3l2-7Z"/><path fill="#07394B" d="m583 588-1 4h-2v2a102.83 102.83 0 0 1-6.563 4.688l-2.037 1.35c-7.602 4.914-15.709 8.858-24.2 11.997-3.988 1.508-6.448 2.627-8.513 6.465-1.868 4.49-3.222 9.193-4.562 13.863-1.255 2.942-2.43 3.992-5.125 5.637-1-1-1-1-1.055-3.16.393-6.34 1.474-12.259 3.242-18.34l.558-2.067c1.57-5.05 3.66-6.972 8.255-9.433a94.006 94.006 0 0 1 4.875-2.313l2.867-1.273c2.378-1.032 4.758-2.058 7.14-3.078 1.373-.59 2.746-1.182 4.118-1.774l2.071-.887c5.09-2.217 9.868-4.787 14.597-7.706 2.862-1.19 4.408-.841 7.332.031Z"/><path fill="#88251D" d="M625 340c2.445.375 3.69.658 5.377 2.52 3.073 5.098 5.108 10.06 6.686 15.793l.754 2.699c4.509 17 9.096 37.493 5.183 54.988-2.877-2.4-3.49-4.171-4.027-7.84l-.455-2.94-.456-3.158c-.344-2.198-.69-4.396-1.039-6.593l-.52-3.324c-2.172-13.579-5.336-26.73-9.217-39.922l-.895-3.067-.812-2.724C625 344 625 344 625 340Z"/><path fill="#9F281D" d="M270 317a524.621 524.621 0 0 1 8.938 3.188l2.576.884c6.109 2.264 6.109 2.264 7.756 5.162-.39 3.997-1.83 7.214-3.52 10.829-.313.707-.626 1.414-.95 2.142-1.618 3.576-3.253 6.768-5.8 9.795-5.75-1.625-5.75-1.625-8-5-.913-3.475-1.119-6.718-1.098-10.3l.01-2.96.026-3.053.013-3.11c.012-2.526.028-5.052.049-7.577Z"/><path fill="#F59D6E" d="m640 414 2 2.063a247.43 247.43 0 0 0 6.938 6.625l1.902 1.761c2.812 2.02 4.715 2.968 8.16 3.551 3.034-.893 5.72-2.32 8.5-3.813 4.847-2.525 8.961-4.652 14.5-5.187.934 3.01 1.044 3.867 0 7l2 2h-2l-1 6h-3v-2l-4-1c-.838 2.513-1.028 3.876-.438 6.5.514 2.936-.004 4.026-1.562 6.5h-4c1-2 1-2 3-3l-2-3c.277-2.664.277-2.664.938-5.625.39-1.784.754-3.575 1.062-5.375l-1-1-1 2c-2.563.625-2.563.625-5 1v2l-3.75-.375c-6.544-.063-11.698 3.218-17.25 6.375-1.975-7.638-2.575-15.133-3-23Z"/><path fill="#F5996C" d="m580 202 4 1v3h3c.95 3.094 1.178 4.567-.074 7.605l-1.614 2.583c-.519.86-1.038 1.72-1.574 2.605-1.84 2.336-3.068 3.03-5.738 4.207a78.413 78.413 0 0 0-3.5 3c-2.374 2.158-4.576 3.666-7.5 5l-1-5h-3v-2h2v-4c0-3.883.923-5.716 3-9 2.886-2.154 6.094-3.595 9.375-5.063 1.983-.904 1.983-.904 2.625-3.937Z"/><path fill="#CD4B33" d="m498 228 3.445 1.61c11.277 5.188 22.202 9.485 34.555 11.39l-1 9c-3.964.991-4.637 1.083-8.195-.188l-2.406-.857-2.524-.955-2.583-.966C512.83 244.52 507.284 241.543 502 237l-1.738-1.41c-1.45-1.278-1.45-1.278-3.262-3.59.387-2.145.387-2.145 1-4Z"/><path fill="#281113" d="M530 110c4.875.875 4.875.875 6 2 .602 4.69.444 8.143-1.75 12.375-2.826 3.297-4.665 5.38-9.055 6.059-6.242.008-10.336-.073-15.195-4.434l-1.875-1.438c-1.584-2.2-1.339-3.923-1.125-6.562 1.563-.75 1.563-.75 4-1a232.03 232.03 0 0 1 5.05 3.074c3.332 1.583 6.32 1.18 9.95.926 1.962-3.668 3.393-6.872 4-11Z"/><path fill="#CD4230" d="M447 249c1.15 2.22 2.098 4.303 2.875 6.688L451 258c1.946.59 1.946.59 4 1 1.75 2.063 1.75 2.063 3 4-1.645 1.81-2.867 2.941-5.125 3.938-2.082.908-2.082.908-2.625 3.187L450 272c-3-2-3-2-4-4h-3l1 2c.25 3 .25 3 0 6l-3 2c-2.799-2.528-4.458-4.204-5-8h2l-1-3h2l1-6h2l-1-7h2v-2l-3-1 7-2Z"/><path fill="#371A1A" d="m559 178 3 1-1 2.813c-1.15 3.107-1.15 3.107-1 6.187h-2l.25 2.813C558 194 558 194 556 195.875L554 197l5 2v-4h3c1.063 1.813 1.063 1.813 2 4l-1 3c-5.459-.437-8.8-1.439-13-5-4.177-5.077-5.651-9.485-6-16l1 4c3.726-1.119 3.726-1.119 6-4 1.454.03 1.454.03 2.938.063 2.937.293 2.937.293 4.062-1.063l1-2Zm3 5c3.023 2.635 4.8 4.268 5.875 8.188C568 194 568 194 567 196l-5-1v-2l-3-1 .938-1.688c1.12-2.437 1.622-4.674 2.062-7.312Z"/><path fill="#84241C" d="M501 304c2.777 1.624 5.014 3.462 7 6v2l-3-.105c-13.454-.345-19.86 2.602-30.145 10.925C472 325 472 325 469 326c.927-6.937 5.88-11.248 10.938-15.75 6.55-4.813 12.713-8.09 21.062-6.25Z"/><path fill="#D83D29" d="M441 479c0 3 0 3-1 5h2v2l-2 2c1.84 0 3.396-1.172 5-2l3 3 2-2c2.125.375 2.125.375 4 1v3h-2v-2h-2v2l14 1v1h-69v-1h32l-1-3 1-2-2-1 2-2 1-2 2.688.063c5.743-.034 5.743-.034 10.312-3.063Z"/><path fill="#8F251C" d="M729.734 363.137C732 365 732 365 732.488 367.918l-.176 3.27-.136 3.292L732 377l-3.438-2.938-1.933-1.652A49.663 49.663 0 0 1 724 370c-6.923-.335-13.232.583-20 2l-1-2-1 4-3-1c-.688-2.063-.688-2.063-1-4 9.01-5.024 21.587-10.082 31.734-5.863Z"/><path fill="#83231B" d="M561.875 299.75c3.056 2.2 5.097 4.086 7.125 7.25v3c-3.245-.584-6.167-1.415-9.25-2.563-7.383-2.311-15.105-1.676-22.75-1.437 1.462-4.585 1.462-4.585 3.813-6.398 7.244-3.235 13.887-3.593 21.062.148Z"/><path fill="#3B1E1D" d="m568.688 146.938 2.449.027L573 147l1 4h-5l4 2-1 3-4-1 2 7-7 1v-2l-2-1 3-1c-3.003-.332-3.003-.332-4.688 1.5L558 162v-2h-2v6l-2-1 1-6-4-1c.353-2.806.77-3.804 2.96-5.668.798-.501 1.594-1.003 2.415-1.52l2.398-1.542c3.422-1.951 6.048-2.389 9.914-2.333Z"/><path fill="#3D2122" d="m569 911 12 3-3 1 1 4h-3l-1-3h-2v4l-3 1 4 2v2l-5 1 2 4-3 1-1 3-2.438.375L562 935l-1 2c-.25-5.273.473-9.188 2.313-14.125l1.3-3.57C566 916 566 916 569 911Z"/><path fill="#442625" d="M402 950h1c.054 2.73.094 5.458.125 8.188l.05 2.33c.037 4.256-.064 7.657-2.175 11.482-2.375 1.875-2.375 1.875-5 3-2.313-.313-2.313-.313-4-1v-8h-3v-2h2v-2l2-1v-3l4 2v2l3-1 1-5-1 1h-3c1.375-2 1.375-2 3-4h2v-3Z"/><path d="m0 0 2 2.063C6.876 6.925 11.881 11.75 18 15c-2.983 1.988-5.976 3.537-9.188 5.125L5.52 21.758 3 23C1.025 15.362.425 7.867 0 0Z" style="fill:#84241c" transform="translate(640 414)"/><path fill="#391C1D" d="M665 968h2l1 5-3-1 1 5 6 1-2 1v2c2.584-.114 5.167-.24 7.75-.375.73-.03 1.46-.062 2.21-.094 3.78-.206 6.82-.446 10.04-2.531l-1 5c-11.55.224-22.59-.09-34-2 .375-1.938.375-1.938 1-4l2-1 .938-2c1.062-2 1.062-2 4.062-3l2-3Z"/><path fill="#0C4856" d="M735 170c-1.75 2-1.75 2-4 4h-4v-2l-12 2v1l8 1v1l-11.938 1.438-3.384.408c-3.226.388-6.452.771-9.678 1.154l-2.63.319c-3.998.47-7.898.8-11.933.744l-2.566-.028L679 181v-1l25-3c-2.118-1.118-2.118-1.118-5-2v-2c3.936-.511 7.874-1.007 11.813-1.5l3.333-.434C721.14 170.2 727.955 169.81 735 170Z"/><path fill="#0B4052" d="M705 62c0 3 0 3-1.139 4.5l-1.615 1.594-1.82 1.82-1.989 1.941-2.017 2.005a1797.897 1797.897 0 0 1-6.42 6.328 6366.163 6366.163 0 0 0-4.336 4.294A3717.866 3717.866 0 0 1 675 95l-2-1v-5c-5.223 4.464-10.21 9.074-15 14 0-3 0-3 1.367-4.727l1.938-1.918 2.184-2.184 2.386-2.339 2.421-2.408A2597.66 2597.66 0 0 1 676 81.812a9189 9189 0 0 0 5.203-5.162c4.258-4.224 8.524-8.44 12.797-12.65 0 3 0 3-1.836 5.177l-2.539 2.491-2.734 2.705L684 77.187l-2.89 2.85A1783.8 1783.8 0 0 1 674 87l3 3 28-28Z"/><path fill="#DBAE77" d="M645 981h4v3l1-2c2.285-.414 2.285-.414 5.063-.625l2.785-.227L660 981l-3 2 1 3c-2 2-2 2-4 3l6 1-1.813.5c-3.372 2.313-4.02 5.699-5.187 9.5h-2c1.67 3.224 1.67 3.224 4.625 3.688L658 1004v1h-9l1-6-2-1 2-2v2h2l-1-6-3-1-2-2c-2.108.319-2.108.319-4 1l-1-2 2.938-1.313c3.34-1.388 3.34-1.388 4.062-4.687h-2l-1 2v-3Z"/><path fill="#094152" d="M669 177v1l-6.152.586L661 179l-1 2 8 1v1c-9.12 1.531-17.744 2.277-27 2v-5c8.958-3.536 18.515-3.147 28-3Z"/><path fill="#3B1F1F" d="m400 237 1 4 2-3 4 1c-1.065 2.13-2.292 3.366-4 5l3-1v3c3.492.1 6.594-.222 10-1l-2 1v2h-2v2l8 1v1c-16.378.768-16.378.768-23-4-.816-1.906-.816-1.906-1-4 1.037-2.563 2.51-4.65 4-7Z"/><path fill="#CE4A33" d="m694.688 407.938 2.449.027L699 408l1 3c-3.662 1.595-7.328 3.18-10.999 4.755a904.051 904.051 0 0 0-3.742 1.62c-1.789.78-3.582 1.548-5.376 2.316l-3.27 1.413L674 422l-2-1c2.8-3.84 5.522-6.265 9.563-8.75l2.878-1.797c3.578-2.031 6.202-2.574 10.246-2.515Z"/><path fill="#F7A473" d="m482 123 2 1c-.375 1.938-.375 1.938-1 4l-2 1-2-1 1.023 1.918c1.347 4.25.95 7.993.602 12.394l-.172 2.534A749.98 749.98 0 0 1 480 151c3.545-1.398 3.545-1.398 7-3v2h2l-1 7h-3l-2-4c-2.526 2.363-3.888 3.665-5 7l-2-1-.75 2.75c-1.29 3.354-2.57 4.927-5.25 7.25 1.868-4.727 3.872-9.393 5.879-14.063 3.615-9.471 2.459-20.072 1.121-29.937h5v-2Z"/><path fill="#10535F" d="m639 121 3 1c-.496 4.303-3.249 6.896-6 10l-1.523 1.836c-5.44 6.544-5.44 6.544-8.477 8.164-2.25-.313-2.25-.313-4-1 .574-3.664 1.973-5.328 4.598-7.89l2.177-2.15 2.288-2.21 2.298-2.258c1.873-1.837 3.753-3.668 5.639-5.492Z"/><path fill="#195962" d="m402 264 6.25-.188 3.516-.105c3.457.313 4.75.95 7.234 3.293h-2c-1.002 3.583-1.002 3.583 0 7-4.625 4-4.625 4-8 4l-7-14Z"/><path fill="#331A1A" d="m643 909 1.188 1.625L646 913l1.875 2.75c6.392 7.628 17.264 12.09 26.125 16.25-3 1-3 1-5 .063L667 931h-3l-1 3-5 1v-2l-2-1 5-4-2.563-1.125c-6.372-3.476-10.984-8.208-15.437-13.875l-2.266.691-2.984.871c-.975.29-1.95.58-2.953.88-2.76.55-4.188.496-6.797-.442l2.773-1.059 3.602-1.379 3.586-1.37c2.9-1.085 2.9-1.085 5.039-2.192Zm10 24h3v2h-3v-2Zm-2 1 2 1-1 3-1-4Z"/><path fill="#398E8C" d="M394 160c1.48.114 2.96.241 4.438.375.823.07 1.647.14 2.496.21L403 161l1 2c2.017 1.134 2.017 1.134 4 2-1.748 1.606-3.498 3.21-5.25 4.813l-1.488 1.369c-2.657 2.426-5.337 4.721-8.262 6.818l-2-1 2-6 1 3h2c-.613-2.962-1.254-4.38-3-7v-3l3 1-1-2-3-1h2v-2Z"/><path fill="#E8C086" d="m707 982-4 2v2h2v2l-3 3-4-3-1 2-4-1v2l-3 1-2-2 2-1h-4v-2l8-2-28-1v-1l2.75-.076c3.389-.095 6.777-.195 10.165-.296 1.463-.043 2.925-.085 4.388-.125 2.11-.059 4.22-.122 6.33-.187l3.84-.11c12.087-.704 12.087-.704 13.527-.206Zm-19 10 2 1Z"/><path fill="#0F555F" d="m731 169 14 1v1l-5 1 1 2-5 1v1c-7.475.75-14.586 1.435-22 0-1.742-1.547-1.742-1.547-3-3 5.385-.917 10.542-1.111 16-1v2l4-1v-4Z"/><path fill="#2D8182" d="M383 64c0 3 0 3-2.5 5.688L378 72l5-1c-.75 1.938-.75 1.938-2 4-2.125.75-2.125.75-4 1v3h2l-1 3-2.375.313c-2.955.463-2.955.463-4.625 3.687l-3-2-2 3-2-1c5.852-7.905 11.788-15.258 19-22Z"/><path fill="#F49566" d="M578 759h1c.941 8.167.941 15.833 0 24h-1v-24Zm9 1 2 1-1 4h-2v5l1-3h3v3l2-3 1 4h-2v2c-2.892.964-5 1-8 1v-4h-3v-5l3-1 1-3 3-1Z"/><path fill="#912A20" d="M671 406c.202 6.36-.372 11.852-2 18h-4v-2l-4 1-1-2 6-1-1-4h2l-.563-1.938L666 412l1-1-5 1c-.625-1.875-.625-1.875-1-4 3.28-3.28 5.705-3.195 10-2Z"/><path fill="#DFB47D" d="M349 997c2 2 2 2 2.125 4.625L351 1004c-2.834-.115-5.667-.242-8.5-.375-.791-.03-1.583-.062-2.398-.094-5.283-.26-10.01-1.094-15.102-2.531v-1c2.874-.506 5.749-1.005 8.625-1.5l2.45-.434c4.33-.74 8.517-1.446 12.925-1.066Z"/><path fill="#DDB179" d="M246 973c2.51 1.255 2.871 2.5 4 5l2-2c.625 2.313.625 2.313 1 5l-2 3-3-2-2 2 1 3c-2.27-.391-3.834-.887-5.75-2.188C240 983 240 983 239.437 980.063 240 977 240 977 243 974.625l3-1.625Z"/><path fill="#F7A071" d="m522 490 3.625.813 2.488.546c2.063.458 4.122.928 6.18 1.407 7.576 1.715 14.949 2.822 22.707 3.234v1c-2.625.027-5.25.047-7.875.063l-2.262.025c-5.636.025-5.636.025-7.863-1.088l-.438 2.313C538 501 538 501 537 504l-2-1 1-4-1 3h-2l-1-3h-3l-2-6-4 1-1-4Z"/><path fill="#E63A24" d="M490 446h1l.586 6.152L492 454l2 1v37h20v1h-21c-.431-5.086-.86-10.172-1.282-15.259-.144-1.726-.29-3.452-.436-5.178-.755-8.87-1.502-17.652-1.282-26.563Zm3 5h3l-1 3-2-1v-2Z"/><path fill="#2C1313" d="M585 183h1c.774 9.826.774 9.826-1.938 13.938-6.187 4.166-11.529 6.703-19.062 6.062 1.875-4.75 1.875-4.75 3-7 1.938.375 1.938.375 4 1l1 2 6-1v-4h-2l1-4v2l5-2 1 3 1-10Z"/><path fill="#2D8082" d="m363 88 1 2-1 3 2.75-.5C369 92 369 92 373 92l-1 5-1-2-3 8-3-1v-3h-5v10h-1c-.449-8.174-.407-13.976 4-21Z"/><path fill="#F6A171" d="M577 144h2c4.25 6.375 4.25 6.375 4.125 10.688l-.055 2.449L583 159l-3 1-1.023-2.117-1.352-2.758-1.336-2.742c-1.194-2.478-1.194-2.478-3.289-4.383-6.4-1.042-12.097.656-18 3 3.038-3.517 6.176-4.85 10.79-5.23l2.835.042 2.852.02C574 146 574 146 577 147v-3Z"/><path fill="#381C1C" d="M309 992c3 1 3 1 4.188 3.063L314 997c-5.75 1.125-5.75 1.125-8 0v2h23c-9.229 4.614-23.223 2.115-33 0-2.395-1.07-2.395-1.07-4-2 3.381-1.127 5.605-.633 9.066-.125 2.476.16 3.882-.533 5.934-1.875h2v-3Z"/><path fill="#341A1A" d="M596 917h24v1l-5 1 .563 1.813C616 923 616 923 615 926l-2-1-1 1c-1.666.04-3.334.043-5 0-1-3-1-3-1-5h-3v-2l-7-1v-1Z"/><path fill="#E0B782" d="M694 991h7v2l5 1-2 4-2-1v4l3 1c-4.548.178-7.88-.002-12-2v-1l5-1-1-4-2 4-7-1 1-3 4 1 1-4Z"/><path fill="#C9412E" d="M533 468c8.759.796 17.356 2.422 26 4l-1 2h-22l-1-4-2-2Z"/><path fill="#DDAE76" d="m499 1001 3 1-1 4-5 1 8 1v1h-32l2-3v2c4.248-.472 6.2-2.967 9-6l.813 2.438L485 1007l3 1 1-2v2l5-1v-2a71.492 71.492 0 0 1 4-3l1-1Z"/><path fill="#3F2221" d="m376 976 2 3 2-1c-.305 3.063-.498 4.562-2.863 6.625-6.438 3.614-13.052 7.207-20.137 9.375l-3-1 12-5v-4h3l1 2c2.309-1.982 2.309-1.982 3-5.563l1-3.437 2-1Z"/><path fill="#2C8082" d="m363 195 1 4h-2v3h7c-3.904 2.603-6.535 3.138-11.125 3.125l-2.695.008C353 205 353 205 352 204c.313-3.5.313-3.5 1-7l2-1v4l2-3c2.563-.625 2.563-.625 5-1l1-1Z"/><path fill="#E13E28" d="M621 405h1l2 10 3 1v2l3 1a158.623 158.623 0 0 1-3 5h-1l-1-5 .438 3.656.562 4.844c.095.791.19 1.583.29 2.398.581 5.072.804 9.997.71 15.102-2.004-3.425-2.536-6.576-3.07-10.488l-.528-3.83-.262-1.99c-.263-1.989-.54-3.976-.816-5.963-.807-5.97-1.423-11.695-1.324-17.729Z"/><path fill="#F8A474" d="m283 76 2 3c3.557 1.219 3.557 1.219 7 2l1 6-3-1 1 3h-2l-1-3-1 13h-1l-.113-2.414c-.495-7.981-1.794-13.28-6.887-19.586 2-1 2-1 4-1Z"/><path fill="#C83627" d="M715 348c5.661 4.698 10.852 9.747 16 15l-2 2-1.75-1.938c-2.23-2.044-3.324-2.644-6.25-3.062v-4l-1 2h-2l1 3-4-1h2v-4h-3l1-8Z"/><path fill="#371B1C" d="M477 140h1v12l-4 1-1 2c-1.658.373-3.326.707-5 1l-1 1h-2v2h-2v-2h-3l1-4 2 1-1 2h2l1-4h3l1-4 4-1-1 3h-3l1 2 5-1 2-11Z"/><path fill="#074657" d="M551 516h27c-2.139 2.139-3.133 2.427-6 3l1 2-3 2 1 2h-3v-3h-2l-1-3-14-2v-1Z"/><path fill="#2D8183" d="M367 177c.652 1.734.652 1.734 1 4-.996 2.14-.996 2.14-2.438 4.25l-1.433 2.14L363 189h5c-1.063 1.438-1.063 1.438-3 3l-7 1c-1.923 1.416-1.923 1.416-3 3 1.412-3.863 3.221-7.164 5.438-10.625l1.808-2.852c1.463-2.105 2.868-3.804 4.754-5.523Z"/><path fill="#C83626" d="M640 421h1c.993 5.707 1.105 11.214 1 17-2.813 1.563-2.813 1.563-6 3l-3-1 2-2h-1v-5l5-2 1-10Z"/><path fill="#301717" d="M404 921v19l-4 1 1 5c-2-1.313-2-1.313-4-3v-3h-2v-2h2l1-2h4l1-13-2 1c-2.672.134-5.323.043-8 0 3.546-1.97 6.922-3 11-3Z"/><path fill="#DCAE77" d="M588 976c.125 6.625.125 6.625-1 10l-2-1v-7l-3 2h2v4l-2 2-.813-2.438L580 981l-3-1v-2h2l1-2-3-1c4.442-.888 6.883-1.059 11 1Z"/><path fill="#C83827" d="m649 407 2 1v3h3c-1.453 3.83-3.429 5.12-7 7l5 7c-3.86-1.573-6.4-3.751-9-7-.313-3.813-.313-3.813 0-7h1l1 3 1-3h2l1-4Z"/><path fill="#105560" d="m668.563 176.25 2.378.266C673 177 673 177 675 179v2c-3.414 2.276-4.157 2.165-8.063 1.688l-2.66-.301C662 182 662 182 660 181c1.593-4.779 3.944-5.328 8.563-4.75Z"/><path fill="#398C8A" d="M494 38c4.128.607 7.332 2.038 11 4-3.222 3.867-6.15 4.88-11 6l-1-3 1-1-2-1 1-2 1-3Z"/><path fill="#3A1D1D" d="M389 966h3v8l2.813-.5C398 973 398 973 401 973c-4.851 4.69-11.105 6.892-17.813 7.078L381 980a56.54 56.54 0 0 1 7-4l-1-4 3-1 1-3h-2v-2Z"/><path fill="#C53628" d="M499 297c8.947 3.972 16.342 11.999 23 19l-1 2-1.207-1.242-1.606-1.633-1.582-1.617c-1.738-1.716-1.738-1.716-4.605-3.508l-1-2-2 5-2-1 1-5h-2l-.313-1.938L505 303l-3-1c-1.688-2.563-1.688-2.563-3-5Z"/><path fill="#2B1213" d="M508 117c3.86.48 6.881 1.778 10.313 3.563l2.675 1.378L523 123c-3.56 1.072-4.736.74-8-1l-2 1v3l2 2c-3.791-.542-5.661-1.993-8-5-.313-2.688-.313-2.688 0-5l1-1Z"/><path fill="#2D1314" d="M561.375 149.25 563 150c0 4.68-.996 5.621-4 9l-5-1-1-5c5.415-4.062 5.415-4.062 8.375-3.75Z"/><path fill="#34191B" d="M338 987h3v9l-3-2h2v-2l-2 1c-.652 2.025-.652 2.025-1 4l2.738-.691 3.575-.871 3.55-.88C350 994 350 994 353 995c-2.373.676-4.748 1.341-7.125 2l-2.016.578c-4.058 1.114-7.656 1.632-11.859 1.422l4-1-1-7 3-2v-2Z"/><path fill="#E03C27" d="M430 327c4.252 5.063 5.705 11.314 7.75 17.5l1.285 3.746 1.2 3.598 1.1 3.287c.655 2.826.675 4.197-.335 6.869v-2h-2l-2-4h2l-.826-2.34c-1.23-3.489-2.452-6.98-3.674-10.473-.43-1.214-.859-2.43-1.3-3.681l-1.231-3.526-1.143-3.253C430 330 430 330 430 327Z"/><path fill="#8E2920" d="m546 299 5 1v2l3-1-1-2c4.75.875 4.75.875 7 2v4l-1.863-.254-2.45-.308-2.425-.317c-2.43-.269-2.43-.269-5.262.879-2.188-.438-2.188-.438-4-1l2-5Z"/><path fill="#DDAE76" d="M527 953h30v1h-14l-1 2-3-1c-2.354.687-4.569 1.59-6.844 2.504L530 958l-3-2v-3Z"/><path fill="#2C1415" d="M365 924h27v1l-17 1-1 4-6-1-1-3-2-2Z"/><path fill="#374C52" d="M492 480h1v13h21v1l-19 1-1 7-3-1 1-21Z"/><path fill="#311717" d="M372 219c3 1 3 1 4 2l3 1v2h2v2l-5-2v3l9 4c-4 1-4 1-6.035.11l-2.027-1.36-2.036-1.328c-1.864-1.393-3.453-2.598-4.902-4.422v-4l2-1Z"/><path fill="#DA3E29" d="m433 258 3 3-2 6 4 1v2h-2l1.348 2.555 1.714 3.32 1.723 3.305L442 282l-1 2a754.231 754.231 0 0 1-4.5-8.063l-1.3-2.279c-2.586-4.739-3.821-8.118-3.2-13.658l1-2Z"/><path fill="#0F5862" d="M659 179v2h-4l-1 4-11-1 2-4c4.66-1.097 9.228-1.097 14-1Z"/><path fill="#DB3D29" d="M614 368c2.571 2.571 2.801 4.605 3.625 8.125.26 1.096.52 2.191.79 3.32L619 382l5 1-1.5 1.313c-1.832 1.684-1.832 1.684-1.5 4.687h-2l-1 3a979.847 979.847 0 0 1-3.125-14.25l-.508-2.39c-.387-2.49-.43-4.845-.367-7.36Z"/><path fill="#DDAF77" d="m593 998 2 2 2 1-1 5h-2v2h-15l2-1v-4l4-1-2 5 3.813-.438 2.144-.246c2.237-.288 2.237-.288 5.043-1.316v-2h-3v-4l2-1Z"/><path fill="#37181A" d="M471 115c3.342 2.705 4.582 6.015 6 10 .188 3.438.188 3.438 0 6a56.54 56.54 0 0 1-4-7v2c-2.993-.998-3.948-1.752-6-4h2l1-2-3-2 4-3Z"/><path fill="#E7C086" d="m376 984 2 1-3 6-3-2-2.875 1.5C366 992 366 992 364 992v3l-11 1c1.598-3.195 4.931-3.686 8.125-4.875 4.116-1.537 7.97-3.109 11.742-5.383L376 984Z"/><path fill="#165660" d="M368 650h1l1 6h2l.938 2.375c.99 2.548.99 2.548 2.062 4.625-4.75 3-4.75 3-7 3-.71-5.53-1.303-10.5 0-16Z"/><path fill="#064152" d="M555 267c8-.205 15.261-.135 23 2-3.122.967-5.52.99-8.75.563l-2.422-.31L565 269l-1 2h-4l-1 2-4-6Z"/><path fill="#C53627" d="m534 253 4 2h-3v5h2l1 8-3-1-1 9h-1c-.027-2.52-.047-5.042-.063-7.563l-.025-2.134c-.02-4.543.34-8.82 1.088-13.303Z"/><path fill="#F9A775" d="M459 202h5l-.992 3.375c-1.227 4.907-1.233 9.594-1.133 14.625l.027 2.637c.024 2.12.06 4.242.098 6.363h-1l-.184-3.07-.253-4.055-.12-2.016c-.255-4.004-.544-7.943-1.443-11.859l-2-1 2-5Z"/><path fill="#0A4753" d="M523 654c1.188 3.43.802 5.378-.438 8.75l-.87 2.422L521 667c-1.125-3.75-1.125-3.75 0-6h-3l1 3-4 1c-1.097-3.29-.8-4.713 0-8 4 0 4 0 5.75 1.5L522 660l1-6Z"/><path fill="#DA3924" d="M578 269c1.605.114 3.209.242 4.813.375.893.07 1.786.14 2.707.21C588 270 588 270 591 272h-9l1.566 2.957c.666 1.285 1.332 2.57 1.996 3.856l1.038 1.947c.877 1.71 1.645 3.473 2.4 5.24l-1 3c-1.67-3.144-3.335-6.29-5-9.438l-1.445-2.72-1.367-2.588c-.42-.79-.838-1.582-1.27-2.396C578 270 578 270 578 269Z"/><path fill="#0F5660" d="m694 125 3 1 1 3c-2.661 3.444-5.864 4.098-10 5l-2-1v-2c1.75-1.438 1.75-1.438 4-3l2.063-1.75L694 125Z"/><path fill="#0B4755" d="M506.8 43.668c2.437 1.475 3.685 2.94 5.2 5.332l-1.813-.938C507.91 46.898 507.91 46.898 505 46a110.361 110.361 0 0 0-7 3l1 4-3.25-.563c-3.154-.367-4.848-.482-7.75.563 2.672-3.06 5.855-4.835 9.375-6.813l3.398-1.957C504 43 504 43 506.801 43.668Z"/><path fill="#20797D" d="M565 45c1.812-.027 3.625-.046 5.438-.063l3.058-.035C576 45 576 45 577 46c.215 6.867-2.035 12.467-6 18l-2 1c1.065-2.786 2.202-5.372 3.625-8 1.378-3.007 1.662-4.75 1.375-8l-3 2v-4l-6-1v-1Z"/><path fill="#3E2020" d="M287 965c1.044 3.133.934 3.99 0 7l2 1-1 1 2 2-3 1v3l-3 1-2-2 3-1-1-6-3 2c1.312-3.937 2.92-6.227 6-9Z"/><path fill="#E99769" d="m580 506 4 2-2 3 1 3 3 1c-5.08.847-9.848 1.09-15 1v-2h5l1-2 2-2c.643-2.069.643-2.069 1-4Z"/><path fill="#F8A473" d="m576 203-5 1-1 5h-4l-1 3h-2l2-7-4-2c1.75-.196 3.5-.381 5.25-.563l2.953-.316c2.56-.11 4.378.102 6.797.879Z"/><path fill="#361C1D" d="m560 938 2 4 5-2c0 4 0 4-1.813 6.25C563 948 563 948 560 948v6h-1c-.027-1.73-.047-3.458-.063-5.188l-.035-2.917c.093-2.75.477-5.22 1.098-7.895Z"/><path fill="#DDAE76" d="M757 979h2l-1 4 2.688-.375c3.612.409 3.974.638 6.187 3.25C769 989 769 989 769 991l-8 1 4-3c-2.53-3.092-5.225-3.91-9-5l1-5Z"/><path fill="#D73C28" d="M462 473h1v15h-4l-1 2-2-5-1 2-2-1c.375-1.938.375-1.938 1-4l2-1 2 1v5h2l-1-3h2l1-11Z"/><path fill="#2D1415" d="M438 238h2l1.375 3.438c1.196 3.61 1.196 3.61 3.625 4.562v2l6-2c-2.834 3.254-4.686 4.52-9 5l-3-8-4 2 1.5-2.375c1.665-2.41 1.665-2.41 1.5-4.625Z"/><path fill="#F49F70" d="M586 193h4l-1 8-2-2-1.68.691-2.195.871-2.18.88C579 202 579 202 577 201c4.75-4 4.75-4 7-4l2-4Z"/><path fill="#492727" d="m436 159 1 2 5-1 1 2 2-3h3l-1 7h-9v-3l-2-1v-3Z"/><path fill="#841F18" d="m722.75 361.875 2.422.055L727 362l1 2-6-1v2l-3 1 4 2-11 2c1-2 1-2 4-3l-2-3c3.062-1.784 5.22-2.229 8.75-2.125Z"/><path fill="#3A1A1C" d="m457 209 3 1c1.365 3.347 1.167 6.931 1.188 10.5l.042 3.406C461 227 461 227 459 231v-14l-3 1 1-9Z"/><path fill="#20555E" d="m664 101 2 1c-1.536 3.68-3.782 5.988-6.625 8.75l-2.477 2.422L655 115l-5-2c3.061-2.624 3.732-3 8-3v-4c1.875-1.625 1.875-1.625 4-3l2-2Z"/><path fill="#E4BC89" d="m388 999 6 3v-2h2l2 6h6v1h-16v-1l8-1v-2l-1.75 1.063c-2.25.937-2.25.937-4.438.75L388 1004l-1-3 1-2Z"/><path fill="#E4BC83" d="M584 975h7l-2 6h2v-3h5l-1 3h-2v3l-6 1 1-9-4-1Z"/><path fill="#F5A676" d="M673 408h1v5c3.024-.588 6.018-1.227 9-2-3.494 3.596-7.111 6.835-11 10-.027-1.98-.046-3.958-.063-5.938l-.035-3.34C672 409 672 409 673 408Z"/><path fill="#E23D29" d="m489 357 2 1v2l2.313-.5c4.908-.666 9.741-.58 14.687-.5v1c-8.39 1.253-16.497 2.36-25 2l2-1 1-3v2l3-1v-2Z"/><path fill="#250F12" d="M551 156v5l-1.375 1.313c-3.921 4.072-4.08 9.322-4.625 14.687l2 1h-2v2h-2c-.553-8.564 1.199-15.11 6.25-22.125L551 156Z"/><path fill="#E03B26" d="M443 286c1.88 2.328 3.237 4.484 4.563 7.188 1.136 2.908 1.136 2.908 3.437 3.812.816 2.11.816 2.11 1.563 4.75l.753 2.61A116.953 116.953 0 0 1 455 312c-3.316-4.204-5.419-8.74-7.688-13.563-.415-.863-.83-1.726-1.26-2.615l-1.189-2.513-1.084-2.288C443 289 443 289 443 286Z"/><path fill="#F4A675" d="M528 112h1c.215 3.147.233 5.446-1 8.375-2.71 2.203-4.71 2.122-8.125 1.965C518 122 518 122 516 120.5l-1-1.5 7 2-1-4c3.133-1.044 3.99-.934 7 0v-5Z"/><path fill="#0D4654" d="M763 91h2v2l4-1c-3.04 3.37-6.069 5.304-10.125 7.313l-3.195 1.613L753 102l-2-1 1-3 8-1-1-3 3-1 1-2Z"/><path fill="#DA3D29" d="m592 296 1 2h2a135.916 135.916 0 0 1 3 7l-1 2 3 1v7h-2a1967.951 1967.951 0 0 1-3-7.813c-.43-1.106-.43-1.106-.867-2.236l-.82-2.158-.762-1.984C592 299 592 299 592 296Z"/><path fill="#482928" d="m417 245 3 1v2c1.458 1.625 1.458 1.625 3 3-3.311 1.104-5.247.927-8.688.563l-3.011-.31L409 251l3-1v-2h2l1-2 2 1v-2Z"/><path fill="#371A1C" d="M456 229c1.563 1.125 1.563 1.125 3 3-.192 4.418-1.545 7.37-4 11l-1-2 1-2-3-1v-4h2l1-3 1-2Z"/><path fill="#CA4932" d="m272 119 2 4-5 6-3-1v-3l-3-1 2.813-.813c2.95-1.098 4.243-1.811 6.187-4.187Z"/><path fill="#13545F" d="m735 103 4 2v2l3 1c-3.265 1.884-6.281 2.493-10 3v-2l-3-1 1.875-1.375c2.184-1.596 2.184-1.596 4.125-3.625Z"/><path fill="#093D50" d="M772.563 83.938 775 84c.625 2.375.625 2.375 1 5l-2 2c-2.625-.375-2.625-.375-5-1a99.984 99.984 0 0 1 0-5c1-1 1-1 3.563-1.063Z"/><path fill="#E8C085" d="M406 956c2.19.09 4.378.247 6.563.438l3.628.308L419 957c-2 2-2 2-5.438 2.063L410 959l-3 1-2 10h-1c.14-2.146.287-4.292.438-6.438.08-1.194.162-2.39.246-3.62C405 957 405 957 406 956Z"/><path fill="#D83D2A" d="M402 266c3.909 3.322 6.814 7.815 7.25 12.938L409 281l-4-1-1 3c-2.063 1.188-2.063 1.188-4 2v-3h3c1.563-4.393 1.563-4.393 2-9a264.271 264.271 0 0 0-3-5v-2Z"/><path fill="#3C1E1D" d="m514 121 5 2-2 3 6 2v1c-3.25.75-3.25.75-7 1-2.5-1.688-2.5-1.688-4-4 .19-2.218.415-3.415 2-5Z"/><path fill="#E5BE8A" d="m580 1003 1 4 13 1v1h-22v-3l2.313-.375c2.89-.506 2.89-.506 5.687-2.625Z"/><path fill="#F49463" d="m644 825 1 4h5c-1 2-1 2-4.25 3.125-3.127.73-5.576 1.067-8.75.875l2-2 .5-2.563.5-2.437c2-1 2-1 4-1Z"/><path fill="#F7A172" d="M279 91c2 2 2 2 2.25 5.875-.07 3.179-.447 5.421-2.25 8.125-2.17-2.95-3.035-4.409-2.813-8.125C277 94 277 94 279 91Z"/><path fill="#F19468" d="M285 315h2c2.152 3.228 2.2 4.284 2 8-1.813.625-1.813.625-4 1l-3-2c1.875-5.875 1.875-5.875 3-7Z"/><path fill="#281113" d="m544 181 1 4c3.726-1.119 3.726-1.119 6-4 1.938.313 1.938.313 4 1l1 3c-6.625 1-6.625 1-10 1l2 6c-2.034-1.415-2.904-2.55-3.422-4.98-.24-2.002-.413-4.011-.578-6.02Z"/><path fill="#E2BA85" d="M286 964c0 3.932-1.394 5.164-4 8h-2v-4l-6-2v-1c4.064-.774 7.864-1.098 12-1Z"/><path d="m0 0 1.25 1.137C5.562 4.958 10.034 8.085 15 11c-2.62 1.746-4.038 2.387-7 3l1-5-1.688-.688C4.338 6.625 2.28 4.534 0 2V0Z" style="fill:#84241c" transform="translate(643 418)"/><path fill="#C93626" d="M678 316c3.817 1.555 6.192 4.036 9 7l-1.813-1c-2.24-1.208-2.24-1.208-5.187-1l-3 2c-2.688.125-2.688.125-5 0l3-1-1-5h2l1 2 1-3Z"/><path fill="#E1B883" d="M630 998h5v3l3 1h-2l-1 2-2-1v2h-4v-3h-2l1-3 2 1v-2Z"/><path fill="#2F1518" d="M366 984h3l1 2 4-1c-2.68 3.272-6.2 4.646-10 6.25l-1.906.852c-4.724 2.021-4.724 2.021-8.094.898l12-5v-4Z"/><path fill="#E9BF86" d="M558 953v12h-1l-1-7c-2.156 0-3.924.447-6 1v-5c6.875-1 6.875-1 8-1Z"/><path fill="#492B2A" d="m560 934 5 2v2l5-1v3l-8 2c-1.765-3.088-2-4.233-2-8Z"/><path fill="#932D23" d="m722 363 7 1v2l-3 1-2 3-5-1-1-3 4-1v-2Z"/><path fill="#C53526" d="M447 251c3.903 1.587 6.335 4.134 9.25 7.125l2.703 2.758L461 263c-4.39 0-5.77-2.128-9-5l-1 2c-1.524-2.983-2.94-5.818-4-9Z"/><path fill="#341819" d="m471 163 1 2a336.784 336.784 0 0 1-2.75 3.875l-1.547 2.18c-1.778 2.03-3.23 2.924-5.703 3.945l-3-4 3 1 .688-1.875c1.702-2.756 3.34-3.01 6.312-4.125l2-3Z"/><path fill="#11555F" d="m662 145 1 4c-3.508 1.604-6.144 2.22-10 2v-2h2v-3c2.463-1.231 4.28-1.072 7-1Z"/><path fill="#145760" d="M707 118c3.736 1.245 4.188 2.634 6 6-6.4 1.23-6.4 1.23-9.438.063L702 123l5-5Z"/><path fill="#F9A373" d="M270 88c2.51 1.255 2.871 2.5 4 5l2-1-1 5-1.469-1.059c-4.957-3.365-8.549-4.62-14.531-4.941v-1c.94-.09.94-.09 1.898-.184l2.477-.254c.812-.08 1.624-.162 2.46-.246 2.208-.207 2.208-.207 4.165-1.316Z"/><path fill="#2F8181" d="m531 55-4 2v2l4 1-3 1-.5 2-.5 2-3 1 2-6-4-1v-3c3.426-1.618 5.38-2.34 9-1Z"/><path fill="#E0B782" d="M501 955h4v3h2l1-2c-.25 2.375-.25 2.375-1 5-2.063 1.313-2.063 1.313-4 2l-1-3-2 3c-.625-2.875-.625-2.875-1-6l2-2Z"/><path fill="#C83D29" d="m682 412 2 1-4 4 2 1c-1.287.697-2.58 1.382-3.875 2.063l-2.18 1.16L674 422l-2-1c2.875-3.98 5.821-6.436 10-9Z"/><path fill="#CA432D" d="m699 408 1 3-5 1 2-2-3.75 1c-2.996.799-5.051 1-8.25 1v-2c4.648-2.4 8.91-2.2 14-2Z"/><path fill="#297E7F" d="m415 38 1 3-2 3h-4l-2 7-1-3 1-2-5 2c3.7-3.925 7.55-6.946 12-10Z"/><path fill="#482927" d="M695 975h3l1 1h2l2 6-9-1 1-6Z"/><path fill="#1B565F" d="M391 505h1c.337 1.77.67 3.541 1 5.313l.563 2.988C394 516 394 516 394 519h-2l-1 7h-1c-.027-2.375-.047-4.75-.063-7.125l-.025-2.016c-.02-4.066.3-7.871 1.088-11.859Z"/><path fill="#DCAE76" d="m577 981 2 1-3 1v2l3-1 3 2-2 5h-2l-1-4h-2l-1-5 3-1Z"/><path fill="#452625" d="m661 975 4 2v2l4 1h-3v2c-5.538.37-5.538.37-7.875-1.5L657 979h3l1-4Z"/><path fill="#472928" d="M721 959c.054 1.625.093 3.25.125 4.875l.07 2.742C721 969 721 969 719 971c-1.354-2.709-1.065-5.01-1-8l-2-1v-2c2-1 2-1 5-1Z"/><path fill="#321918" d="M352 921c8.571.857 8.571.857 12 3l-1.875.563c-3.181 2.151-3.32 4.812-4.125 8.437h-1v-6h-2v-2h2v-2l-5-1v-1Z"/><path fill="#C12F21" d="m545 471 14 1-1 2h-18v-1l5-1v-1Z"/><path fill="#7F1D16" d="m639 400 2 1v5l1-5h1v15c-3.59-3.59-3.444-4.773-3.688-9.688l-.199-3.574L639 400Z"/><path fill="#CD4332" d="m438 353 1 3-1 1 1 3c2.015.733 2.015.733 4 1l-2 4v-2l-3-1v-2h-2l-1 2c-.553-2.076-1-3.844-1-6l4-1v-2Z"/><path fill="#C9432D" d="m498 228 10 5-3 2v-2c-3.118.646-3.118.646-4 3-2.063-1.75-2.063-1.75-4-4l1-4Z"/><path fill="#3B8A88" d="m372 189 1 2h2v3l5 2v3c-3 1-3 1-6 0l-2-10Z"/><path fill="#F8A473" d="M532 130v2l3 1-1 2h-2l-1 2-2-5-1.625.563c-2.995.551-5.412.043-8.375-.563v-1a310.5 310.5 0 0 1 4.25-1.063l2.39-.597c2.464-.355 4.016-.109 6.36.66Z"/><path fill="#125661" d="M751 94h2c.625 1.875.625 1.875 1 4l-2 2v3l-3 1-2-1c-.625-2.063-.625-2.063-1-4l2.5-1.938L751 95v-1Z"/><path fill="#F49162" d="M237 67v3c-2.277 2.247-4.638 4.28-7.09 6.328-1.354 1.168-2.637 2.416-3.91 3.672v3h-3c1.378-4.208 3.27-6.623 6.438-9.688l2.37-2.324C234 69 234 69 237 67Z"/><path fill="#F58E5E" d="m411 836 1 3h14v1c-3.437.058-6.875.094-10.313.125-.976.017-1.952.034-2.958.05l-2.842.02-2.619.032C405 840 405 840 402 838l6.152-.684c1.86-.135 1.86-.135 2.848-1.316Z"/><path fill="#0B4152" d="m551 709 2 2 2-2 2 4-2 1c.582 5.309.582 5.309 3 10-2.57-.987-3.76-1.536-5.047-4.023l-.703-2.352-.734-2.336C551 713 551 713 551 709Z"/><path fill="#EA9A6A" d="M618 448v2h-2l-1 4-2-1-1 1-6-3v-1c1.625-.336 3.25-.668 4.875-1l2.742-.563C616 448 616 448 618 448Z"/><path fill="#215059" d="M460 442h2l1 4h2l-3 11h-1l-1-15Z"/><path fill="#043F50" d="M644 119h5c-3.805 4.56-7.75 8.85-12 13l-2-1 2.813-2.625c2.858-2.839 4.59-5.647 6.187-9.375Z"/><path fill="#3A1C1D" d="M530 110c4 2 4 2 5 3 .04 2.333.042 4.667 0 7l-3 1-2-11Z"/><path fill="#248487" d="M539 77c2.268 1.053 4.04 2.035 5.938 3.688 2.046 1.606 2.046 1.606 4.812 1L552 81v3l-5 2c-1.336-1.31-2.669-2.623-4-3.938l-2.25-2.214C539 78 539 78 539 77Z"/><path fill="#DCAE75" d="m450 1003 4 1 1 4h-15l2-1 1-2 2.375.563c2.596.697 2.596.697 4.625-.563v-2Z"/><path fill="#DEB37C" d="M433 1001v6l-7-1c.375-1.938.375-1.938 1-4 2-1 2-1 6-1Z"/><path fill="#DBAD75" d="m683 995 2 1-2 6h5v1l-11 1v-2h4v-2l-3 1-1-2 2.438-1.438c2.41-1.331 2.41-1.331 3.562-2.562Z"/><path fill="#311718" d="M316 941c0 3 0 3-1.063 4.875-1.207 2.736-.722 4.3.063 7.125h-3l-3 1 1-4h2v-2l-2-1 6-6Z"/><path fill="#E4A06F" d="M442 728c2.959-.054 5.916-.094 8.875-.125l2.55-.05 2.442-.02 2.254-.032C460 728 460 728 462 730l-3.375.438c-3.446.346-3.446.346-5.625 1.562v-2l-11-1v-1Z"/><path fill="#D63C28" d="m516 351 2 2c-.375 2.125-.375 2.125-1 4l6 1v1h-14v-1l5-1v-5l2-1Z"/><path fill="#3F2321" d="m580 173 5 1-1 5-3 1-2-1v-3l-3-1 2-1 2 1v-2Z"/><path fill="#E1B580" d="M362 996c-1.804 3.265-2.834 4.89-6 7l-4-3c2.839-4.258 5.186-4.13 10-4Z"/><path fill="#E8C187" d="M572 973c7.429-.286 7.429-.286 11 2l-3 1-1 3h-3l-.875-1.875c-1.062-2.258-1.062-2.258-3.125-4.125Zm0 3 3 2h-3v-2Z"/><path fill="#DAA86D" d="M459 973h2l1 5-6 1-3-4c3.75-1.125 3.75-1.125 6 0v-2Z"/><path fill="#DAAC72" d="M470 954h21v1l-2.117.113-2.758.2-2.742.175c-2.745.3-2.745.3-4.383 3.512h-2v-4h-7v-1Z"/><path fill="#C63525" d="m518 459 1.188 1.875c2.09 2.45 3.787 3.144 6.812 4.125v4l-9-2 3-2-2-2v-4Z"/><path fill="#DA3C2A" d="m456 315 6 2v11c-2.806-1.403-3.007-3.05-4.125-5.938l-1.07-2.714C456 317 456 317 456 315Z"/><path fill="#F39064" d="m540 233 1 2h2v3l-3-1-1-3 1-1Zm-2 4h2v2l6 1c-3.644 2.43-5.712 2.162-10 2l2-5Z"/><path fill="#074353" d="M735 170c-1.75 2-1.75 2-4 4h-4v-2h-9v-1c5.666-1.225 11.237-1.092 17-1Z"/><path fill="#054153" d="M740 171h6v1l6 1v1c-6.026 1.071-11.89 1.1-18 1v-1l2.438-.375L739 173l1-2Z"/><path fill="#F69D6F" d="m284 104 1 2-1 2 5-1c0 3 0 3-1.5 4.688L286 113l-3-1c-.625-2.313-.625-2.313-1-5l2-3Zm-2 9 2 1Z"/><path fill="#34181A" d="M625 969v3l5-1v2l6 2c-3.744 1.396-6.023.572-9.688-.813l-2.949-1.082C621 972 621 972 620 970c3-1 3-1 5-1Z"/><path fill="#1E545F" d="m361 697 5 1-3 9-3-3c.313-3.688.313-3.688 1-7Z"/><path d="M0 0h1l.375 2.438L2 5l2 1-1 5 4-1c-2.052 2.248-3.007 3.002-6 4C.064 10.845-.106 8.034-.063 4.75l.028-2.703L0 0Z" style="fill:#84241c" transform="translate(642 423)"/><path fill="#C72C1F" d="M377 392c1.782 3.333 2.488 6.245 3 10l3 1h-2l-1 6c-2.425-3.637-2.387-5.857-2.625-10.188l-.227-3.855L377 392Z"/><path fill="#DA3D29" d="m619 393 2 2 3 1 1 3h-3l-1 5c-2.326-3.634-2.163-6.77-2-11Z"/><path fill="#D93D28" d="M571 298c2.154 2.622 3.4 4.644 4 8l-6 3v-2l2-1c-.998-2.993-1.752-3.948-4-6l2-1v2h2v-3Z"/><path fill="#F7A677" d="M483 282c6.835 3.357 12.208 6.207 16 13-3.707-1.62-6.573-3.939-9.688-6.5l-2.949-2.406C484 284 484 284 483 282Z"/><path fill="#291214" d="M559 194c1.938.813 1.938.813 4 2 1 3 1 3 0 6-6.523-.615-6.523-.615-8.938-2.563L553 198l6 1v-5Z"/><path fill="#2F1619" d="M423 191c3.449 4.087 6.238 8.438 9 13l-4-1-1 2-1.465-5.957c-.445-1.7-.98-3.376-1.535-5.043l-3-1h2v-2Z"/><path fill="#391A1A" d="M520 122c6.75-.125 6.75-.125 9 1 .625 2.063.625 2.063 1 4l-5 1-.813-1.875C523.044 123.7 523.044 123.7 520 122Z"/><path fill="#F7A172" d="m277 69 1 4 4-1-1 3h-3v2l-8-1v-1l2.375-.188L275 74c1.375-2.476 1.375-2.476 2-5Z"/><path fill="#3E2120" d="M317 944h2v2h2c-.313 2.375-.313 2.375-1 5l-3 2v-2l-3-1 3-6Z"/><path fill="#DC3B28" d="M610 351c3 2 3 2 3.512 3.988l.176 2.325.195 2.421c.125 2.428.195 4.836.117 7.266-3.218-4.826-4.363-10.198-4-16Z"/><path fill="#DB3D29" d="M606 336c2.5 1.188 2.5 1.188 5 3 .5 2.563.5 2.563 0 5l-3 2c-1.316-3.62-2-6.096-2-10Z"/><path fill="#C73A29" d="m408 320 5 1 1 6-1.875.438c-2.158.494-2.158.494-4.125 1.562l1-3-2-1v-2l2-1-1-2Z"/><path fill="#462928" d="m711 949 6 5-1 5-1-2h-2l-2-8Z"/><path fill="#D8A46A" d="M536 953h21v1h-14l-1 2-3-1-3 1v-3Z"/><path fill="#FAA676" d="M522 490c4.836.99 9.476 1.957 14 4l-4 2v-2h-2l-1 3-2-4-4 1-1-4Z"/><path fill="#C83122" d="M706 340c4.274 1.583 6.265 4.506 9 8l-1.875.438c-2.158.494-2.158.494-4.125 1.562l-2-1 1-3h2l-4-6Z"/><path fill="#391B1D" d="M423 176v14l-1-2h-2v-11c2-1 2-1 3-1Z"/><path fill="#DCAD73" d="M500 974v4h-2v-2h-2l-1 5-1-2-2-1c2.023-4.48 3.204-5.439 8-4Z"/><path fill="#BD4433" d="m591 441 1.375 1.438c1.558 1.652 1.558 1.652 3.625 2.562l2-2v7l-5-1v-2c-1.96-1.637-1.96-1.637-4-3h2v-3Z"/><path fill="#C93223" d="M667 308c4.593 1.486 7.436 3.85 11 7-3.576 0-5.053-1.088-8-3l-3 3c-1.333-2.667-.671-4.167 0-7Z"/><path fill="#8D2921" d="m501 305-2 3 1 2h-8c1-2 1-2 2-3v-2c4.75-1.125 4.75-1.125 7 0Z"/><path fill="#378988" d="M371 139h7l-2 5h-4l-1-5Z"/><path fill="#2D1415" d="M530 111h1l.148 2.152.227 2.785c.07.917.14 1.834.21 2.778.138.754.274 1.508.415 2.285l2 1-3 3c-3.205-6.195-3.205-6.195-2.063-10.688L530 111Z"/><path fill="#F9A575" d="M264 82c4.737-.327 7.152-.432 11.438 1.75 2.499 2.194 3.33 3.001 3.562 6.25l-2.313-2.063L274 86l-3 1-1-3-6-1v-1Z"/><path fill="#E9C387" d="M718 973c0 3 0 3-2 6l-1 3-7-1c2.625-2.916 5.729-4.866 9-7l1-1Z"/><path fill="#E5BA83" d="m401 972 3 1 1 5-3 2c-1.021-.979-2.02-1.98-3-3 0-1.84 1.172-3.396 2-5Z"/><path fill="#351B1B" d="M713 950c3.825 1.451 5.19 3.382 7 7v2l-1.938.375L716 960l-1 2 .688-3.75c.409-3.119.495-3.931-1.125-6.75L713 950Z"/><path fill="#3C201F" d="M358 936c4 0 4 0 7 1l-1 4h-5l-2-4 1-1Z"/><path fill="#084854" d="m381 572 1.75 2.313c2.084 2.696 2.084 2.696 4.5 4.375L389 580v2h-6l-.438-1.938c-.372-2.037-.372-2.037-1.562-3.062a99.984 99.984 0 0 1 0-5Z"/><path fill="#F29264" d="m644 483 3 3c-2.22 3.329-3.347 3.75-7 5v-6l4-2Z"/><path fill="#CE4531" d="m549 447 3 2c-2 3-2 3-5.125 3.688L544 453v-2h-5v-1h7v-2l3-1Z"/><path fill="#C63223" d="M316 251c1.792.114 3.584.241 5.375.375l3.023.21C327 252 327 252 329 254l-6 2v-3l-4 1v-2l-3-1Z"/><path fill="#381C1B" d="m381 214 2 1c0 2.84-.403 5.237-1 8h-2c-1.688-1.813-1.688-1.813-3-4 1-3 1-3 4-5Z"/><path fill="#0A4455" d="m678 134 2 1c-4.75 3-4.75 3-7 3l-2 6c-1.5-1.375-1.5-1.375-3-3v-2c1.62-.864 3.246-1.716 4.875-2.563l2.742-1.44L678 134Z"/><path fill="#074759" d="M705 55c-.241 3.256-1.522 4.728-3.875 6.813L698 64l-3-1a679.453 679.453 0 0 1 3.875-4l2.18-2.25C703 55 703 55 705 55Z"/><path fill="#DBAA71" d="M406 985c3 1 3 1 5 4v3c-3.653-1.25-4.78-1.671-7-5l2-2Z"/><path fill="#DCAD75" d="m480 979 2 1-1 2 1 2h-2l-1 4-3-1 1-3 .438-2.125L478 980l2-1Z"/><path fill="#452827" d="m599 963 4 1-2 1-.5 3-.5 3-2 1-1-7h2v-2Z"/><path fill="#361B1B" d="m574 913 7 1-3 1 1 4h-3c-2-3-2-3-2-6Z"/><path fill="#195862" d="m720 111 1 2c2.314.73 4.648 1.401 7 2-3.228 2.152-4.284 2.2-8 2l-1-2 1-2-2-1 2-1Z"/><path fill="#3F8C89" d="m547 48 6 1-2 7-3-1-1-7Z"/><path fill="#DCAF76" d="M617 1004c2.313-.188 2.313-.188 5 0l3 3h-15v-1h7v-2Z"/><path fill="#E5BC85" d="M346 997c3 1 3 1 5 2v5h-6l1-7Z"/><path fill="#301819" d="M323 930c1 2 1 2 .125 5-1.125 3-1.125 3-2.125 5l-4-1 6-9Z"/><path fill="#F8A172" d="m619 720 3 1 1 3-1.938.875c-2.214.953-2.214.953-3.062 3.125l-2-1c.613-2.962 1.254-4.38 3-7Z"/><path fill="#074051" d="M388 527h1v6l1-2h2v4h-4l-1 4c-.143-8.571-.143-8.571 1-12Z"/><path fill="#095765" d="m463 463 1 4h3v-2l2 1 1 3-2.375.313c-2.955.463-2.955.463-4.625 3.687v-10Z"/><path fill="#F7A473" d="M423 179h1v5h3l1 3h-2l-1 3-2-1v-10Z"/><path fill="#1B5C62" d="M664 176c1.46.114 2.917.242 4.375.375l2.46.21C673 177 673 177 675 179v2h-4v-2l-1.813-.375C667 178 667 178 664 176Z"/><path fill="#144D5B" d="m671 94 3 2-7 6v-3l-2-1 2.438-.875c2.695-.858 2.695-.858 3.562-3.125Z"/><path fill="#D9A66B" d="M546 973h4l1 5-5 1a88.406 88.406 0 0 1-1-5l1-1Z"/><path fill="#4B2E2C" d="M401 923h2v16h-1v-8l-3-1 2-1v-6Z"/><path fill="#074854" d="M644 500h1c.08 1.624.14 3.25.188 4.875l.105 2.742L645 510l-3 2-1-3 2-3c.39-1.99.732-3.99 1-6Z"/><path fill="#472827" d="m416 178 5 1c.125 3.375.125 3.375 0 7l-2 2c-1.333-2.667-.671-4.167 0-7l-3-1v-2Zm1 3 2 1-2 2v-3Z"/><path fill="#1B5C64" d="m731 169 14 1v1c-3.62 1.316-6.096 2-10 2v-3l-4-1Z"/><path fill="#5A312B" d="M445 159h3l-1 7h-9v-1l7-1v-5Z"/><path fill="#4F322E" d="m560 948 2 1v3l2 1-4 4-2-1c-.125-2.875-.125-2.875 0-6l2-2Z"/><path fill="#F5A06E" d="M518.625 487.875 521 488v2l-5 1v4h-2c-.125-2.375-.125-2.375 0-5 2-2 2-2 4.625-2.125Z"/><path fill="#C83122" d="M644 293c4.43 1.208 6.981 2.517 10 6l-6 1-.313-1.813c-.776-2.47-1.758-3.51-3.687-5.187Z"/><path fill="#452726" d="m376 217 3 1c1.188 3.063 1.188 3.063 2 6h-2l-1-2-4 1-1-3 3-3Z"/><path fill="#F9A271" d="M545 194c2.886.398 3.822.79 5.75 3.063L552 199h-8l1-5Z"/><path fill="#E49569" d="m586 185 1 4 4 1-1 3-3 1c-1-1-1-1-1.098-2.848L586 185Z"/><path fill="#064254" d="m741 100 2 1-3 1v4l5-1-1 2c-2.375.125-2.375.125-5 0l-2-2v-3c1.875-1.063 1.875-1.063 4-2Z"/><path fill="#33181B" d="M282 989h2v2h5l2 5c-3.926-1.309-6.278-2.874-9-6v-1Z"/><path fill="#DCAF78" d="m544 978 4 1v3h-3l-1 2h-2l-1 2c.628-2.929 1.586-5.361 3-8Z"/><path fill="#DAAF79" d="m618 971-1.375 1.813A124.34 124.34 0 0 0 613 978v-4h-2v-3c4.75-1.125 4.75-1.125 7 0Z"/><path fill="#311518" d="M287 965c1 3 1 3 .063 5.188L286 972v-2l-5 4c1.312-3.937 2.92-6.227 6-9Z"/><path fill="#0D4455" d="M517 669h3c-.282 1.46-.576 2.918-.875 4.375l-.492 2.46C518 678 518 678 516 680a585.281 585.281 0 0 1-.063-4.375l-.035-2.46C516 671 516 671 517 669Z"/><path fill="#BA4032" d="M463 479h1v13h-2v-2l-3-1 4-1v-9Z"/><path fill="#F29367" d="M520 457c3.27.564 4.826 1.5 7 4h-2v2l-4-1-1-5Z"/><path fill="#C04132" d="m590 400 3 1-1 8h-3l1-9Z"/><path fill="#215E65" d="M750 167h7v5h-2v-2h-6l1-3Z"/><path fill="#084954" d="m382 135 4 1-1.715 1.46c-.733.633-1.467 1.264-2.223 1.915l-2.214 1.898c-1.932 1.604-1.932 1.604-2.848 3.727l-2-1 7-9Z"/><path fill="#3F9290" d="m433 111 2 1c-.75 1.938-.75 1.938-2 4-1.938.563-1.938.563-4 1-1.73 1.479-1.73 1.479-3 3l-2-1 9-8Z"/><path fill="#268184" d="m541 51-2 4-7-1c2.982-2.982 4.788-3 9-3Z"/><path fill="#0E545E" d="M512 53c4.554-.37 4.554-.37 6.813 1.5L520 56c-3.75 1.125-3.75 1.125-6 0l-3 1 1-4Z"/><path fill="#E0B781" d="M383 1001h3c.563 1.938.563 1.938 1 4-1 1-1 1-2.848 1.098L378 1006v-1h5v-4Z"/><path fill="#E8BF85" d="M658.945 981.805 665 982l-2 4h-2v-2h-6c2-2 2-2 3.945-2.195Z"/><path fill="#F49263" d="m378 725 1 3 2 1-3 1-1 7h-1c.141-1.625.288-3.25.438-4.875.08-.905.162-1.81.246-2.742C377 727 377 727 378 725Z"/><path fill="#F5A572" d="m380 714 7 2-1 3-1-1-1 2-3-1 1-2-2-1v-2Z"/><path fill="#0A4051" d="M545 690c2 3 2 3 2 5h3l-1 7c-2.505-2.505-3.051-4.61-4-8v-4Z"/><path fill="#F19265" d="m539 484 1 2 4-1v2l-9 2c1-3 1-3 4-5Z"/><path fill="#831A16" d="m703 369 3 1h-2v2l1.813-1.063C708 370 708 370 711 371c-5.625 3-5.625 3-9 3l1-5Z"/><path fill="#972119" d="m282 323 6 1c.688 2.313.688 2.313 1 5-1.438 1.813-1.438 1.813-3 3l1-7-5-1v-1Z"/><path fill="#F69A6D" d="M292 289c2 2 2 2 2 6h-5c1.875-4.875 1.875-4.875 3-6Z"/><path fill="#C43224" d="m297 280 1 2c2.025.652 2.025.652 4 1l-2 1-2-1-1 10h-1a888.223 888.223 0 0 1-.063-5.375l-.035-3.023C296 282 296 282 297 280Z"/><path fill="#DB3F29" d="M552 267c2.886.398 3.822.79 5.75 3.063L559 272l-1 2-1.875-1.5c-1.964-1.692-1.964-1.692-4.125-1.5v-4Z"/><path fill="#432626" d="m403 208 1 2c2.025.652 2.025.652 4 1l-2 7h-1l-.375-2.875c-.342-3.212-.342-3.212-2.625-5.125l1-2Z"/><path fill="#3A8E8B" d="M379 190h2l1 2c2.025.652 2.025.652 4 1v3l-6-1-1-5Z"/><path fill="#1C5F65" d="M684 174c2.313-.313 2.313-.313 5 0 1.813 2.5 1.813 2.5 3 5h-7l2-3-3-2Z"/><path fill="#3E1E1E" d="m557 150 4 2c-.313 1.875-.313 1.875-1 4l-3 2c-.8-3.287-1.097-4.71 0-8Z"/><path fill="#E2B882" d="M783 981c-1.264 2.528-2.528 2.764-5 4l1 3-4-1c1.844-5.137 2.268-6 8-6Z"/><path fill="#E3BA85" d="m631 976 2 1c1.208 3.623.543 4.641-1 8l-3-2 2-7Z"/><path fill="#361B1B" d="m622 916 4 1-2 1v3c-1.5 1.688-1.5 1.688-3 3l1-8Z"/><path fill="#064050" d="M669 627c2.094 3.402 2.18 6.053 2 10l-5-2 2-3a75.316 75.316 0 0 0 1-5Z"/><path fill="#E23C25" d="M487 426h1v5h2l-1 8h-1l-1-13Z"/><path fill="#AA2E22" d="m270 317 5 2-1 5-3 1-1-8Z"/><path fill="#3D1F1F" d="m468 163 1 2c-1.375 1.5-1.375 1.5-3 3h-2l-1 2h-3v-2l1.875-.875c2.258-1.062 2.258-1.062 4.125-3.125l2-1Z"/><path fill="#542B23" d="m568.688 146.938 2.449.027L573 147v1l-7 1-1 3h-2v-3l-2-1c2.882-.96 4.699-1.106 7.688-1.063Z"/><path fill="#247B80" d="m364 124 1 2 4-1 1 3-2 1-2 3c-1.257-2.906-2-4.796-2-8Z"/><path fill="#F9A373" d="M274 123c1 2 1 2 .375 4-1.768 2.571-3.45 3.077-6.375 4 1.443-3.366 3.333-5.51 6-8Z"/><path fill="#0E545F" d="m770 84 5 2-2 4h-2l-1-6Z"/><path fill="#EF9D71" d="m544 83 5 3c-1.255 2.51-2.5 2.871-5 4v-7Z"/><path fill="#2C8082" d="M455 16c1.675.286 3.344.618 5 1-.313 1.938-.313 1.938-1 4l-3 1v-4l-2-1 1-1Z"/><path fill="#DBAA70" d="m404 990 3 1c1.188 3.063 1.188 3.063 2 6h-4l-1-7Z"/><path fill="#F29464" d="m635 775 5 1c-1 3-1 3-3 4l-1 2h-2l1-7Z"/><path fill="#185862" d="M678 679h3v11c-2.398-2.398-2.343-3.333-2.625-6.625l-.227-2.477L678 679Z"/><path fill="#F89F71" d="m577 441 6 2-4 1-2-3Zm-1 3h3v2h-2l-1 2v-4Z"/><path fill="#922A22" d="M660 415c2.125.375 2.125.375 4 1h-3l2 1v3l-4 1c-.625-1.875-.625-1.875-1-4l2-2Z"/><path fill="#1D515B" d="M451 384c2.152 3.228 2.2 4.284 2 8h-3l-1-7 2-1Z"/><path fill="#F29468" d="m271 112 2 4c-2 2-2 2-5 3l-2-1v-2l5-1v-3Z"/><path fill="#C33E29" d="m249 110 2 1-1 6h-4v-2h2l1-5Z"/><path fill="#338482" d="m479 78 5 1-1 5-3-2-2 1 1-5Z"/><path fill="#DBAC72" d="M560 1004v2l-2 2v1h-7l1.938-.313L555 1008l1-3c2-1 2-1 4-1Z"/><path fill="#E0B883" d="M515 961h2v3l2 1-5 4c-1-2-1-2-.063-5.125L515 961Z"/><path fill="#291112" d="m307 949 2 1-1 4-7 1 6-6Z"/><path d="m0 0 2 1-2.5 2.375C-3.23 5.637-3.23 5.637-3 8h-2c-.313-2.313-.313-2.313 0-5 2.375-1.875 2.375-1.875 5-3Z" style="fill:#88251d" transform="translate(652 432)"/><path fill="#D04E39" d="m637 414 4 2v5h-3l-2-6 1-1Z"/><path fill="#F9A474" d="m688 384 .438 1.875c.494 2.158.494 2.158 1.562 4.125l-4 2c-.688-2.313-.688-2.313-1-5 1.438-1.813 1.438-1.813 3-3Z"/><path fill="#BA291C" d="M723 356a271.11 271.11 0 0 1 3.5 2.813l1.969 1.582C730 362 730 362 730 365c-3.008-2.85-5.278-5.235-7-9Z"/><path fill="#3F1819" d="m407 165 3 1-1 3c-2.477.908-4.336 1-7 1l5-5Z"/><path fill="#F7AD7C" d="M576 149c2.5 1.625 2.5 1.625 5 4 .313 3.25.313 3.25 0 6-2.645-3.125-3.844-6.088-5-10Z"/><path fill="#359692" d="m444 136-6 5-2-1 1-4c4.75-1.125 4.75-1.125 7 0Z"/><path fill="#DBAB73" d="M518 953h7c-1.375 2.5-1.375 2.5-3 5h-2l-2-5Z"/><path fill="#E5976A" d="M631 717v4c-2.438-.375-2.438-.375-5-1l-1-2c2.076-.553 3.844-1 6-1Z"/><path fill="#F9A575" d="m568 453 1 4-11-1v-1c.957-.09.957-.09 1.934-.184l2.504-.253 2.496-.247c2.053-.105 2.053-.105 3.066-1.316Z"/><path fill="#C63927" d="m390 357 2 1-1 2h2l-1 4v-2l-4-2v-2l2-1Z"/><path fill="#CF4835" d="M394 263c2.063.438 2.063.438 4 1v2c-2 1.625-2 1.625-4 3a88.406 88.406 0 0 1-1-5l1-1Z"/><path fill="#F1A474" d="M460 231c1.063 1.813 1.063 1.813 2 4l-1 3-3 1c.523-2.763 1.109-5.326 2-8Z"/><path fill="#F19A6B" d="m474 113 1 2 3 1-2 2h-3l-1-4 2-1Z"/><path fill="#22868A" d="M517 83h3c-1 3-1 3-3.938 4.75L513 89l-2-1 2.438-1.375c2.65-1.372 2.65-1.372 3.562-3.625Z"/><path fill="#32817F" d="m473 44 5 1-1 5-2-1v-2l-2-1v-2Z"/></svg>